<?xml version="1.0" encoding="utf-8"?>
<!-- Generator: Adobe Illustrator 26.0.3, SVG Export Plug-In . SVG Version: 6.00 Build 0)  -->
<svg version="1.1" id="Layer_1" xmlns="http://www.w3.org/2000/svg" xmlns:xlink="http://www.w3.org/1999/xlink" x="0px" y="0px"
	 viewBox="0 0 568.98 410.87" style="enable-background:new 0 0 568.98 410.87;" xml:space="preserve">
<style type="text/css">
	.st0{fill:#FFE3A3;stroke:#FFFFFF;stroke-width:7.6103;stroke-miterlimit:10;}
	.st1{fill:#F0F4FF;}
	.st2{fill:#BAD4F5;}
	.st3{fill:#8E98C2;}
	.st4{fill:#6D7CFF;}
	.st5{fill:#8A96FF;}
	.st6{fill:#F5F5F7;}
	.st7{fill:#FFFFFF;}
	.st8{fill:#A3A7BF;}
	.st9{fill:none;stroke:#6D7CFF;stroke-width:1.5818;stroke-linecap:round;stroke-linejoin:round;stroke-miterlimit:10;}
	.st10{fill:#425399;}
	.st11{fill:#485BFF;}
	.st12{fill:#A3E9D2;stroke:#FFFFFF;stroke-width:7.6103;stroke-miterlimit:10;}
	.st13{fill:#DADEFF;}
	.st14{fill:#DBEFFF;}
	.st15{opacity:0.29;}
	.st16{fill:none;stroke:#FFFFFF;stroke-width:1.6117;stroke-linecap:round;stroke-linejoin:round;stroke-miterlimit:10;}
	.st17{fill:#E68143;}
	.st18{fill:#D3DAE3;}
	.st19{fill:#E6F0FF;}
	.st20{fill:#F5F9FF;}
	.st21{fill:none;stroke:#425399;stroke-width:2.9136;stroke-linecap:round;stroke-linejoin:round;stroke-miterlimit:10;}
	.st22{fill:#C1AFE5;stroke:#FFFFFF;stroke-width:7.6103;stroke-miterlimit:10;}
	.st23{fill:#FFB2A3;stroke:#FFFFFF;stroke-width:7.6103;stroke-miterlimit:10;}
	.st24{fill:#D3D5E9;}
	.st25{fill:#919DFF;}
	.st26{fill:#DFE3FF;}
	.st27{fill:#CAD0FF;}
	.st28{fill:#A7B0FF;}
	.st29{fill:#EFEFEF;}
	.st30{fill:#F7F7F7;}
	.st31{fill:#E9EBFF;}
	.st32{opacity:0.29;fill:#A8C4E5;}
	.st33{fill:none;stroke:#FFFFFF;stroke-width:9.5079;stroke-linecap:round;stroke-linejoin:round;stroke-miterlimit:10;}
	.st34{fill:#A3DFFF;stroke:#FFFFFF;stroke-width:7.6103;stroke-miterlimit:10;}
	.st35{opacity:0.39;fill:#DADEFF;}
	.st36{fill:#4A39E3;}
	.st37{fill:none;stroke:#FFFFFF;stroke-width:1.3412;stroke-linecap:round;stroke-linejoin:round;stroke-miterlimit:10;}
	.st38{fill:none;stroke:#6D7CFF;stroke-width:1.4858;stroke-linecap:round;stroke-linejoin:round;stroke-miterlimit:10;}
	.st39{fill:#8AACCE;}
	.st40{fill:none;stroke:#485BFF;stroke-width:0.8675;stroke-linecap:round;stroke-linejoin:round;stroke-miterlimit:10;}
	.st41{fill:#DADEFF;stroke:#FFFFFF;stroke-width:0.6782;stroke-miterlimit:10;}
	.st42{fill:#E69AB7;stroke:#FFFFFF;stroke-width:7.6103;stroke-miterlimit:10;}
	.st43{fill:#485BE4;}
	.st44{fill:url(#SVGID_1_);}
	.st45{fill:url(#SVGID_00000129900246398580793480000005522205052640913024_);}
	.st46{fill:url(#SVGID_00000027588889276519710400000008529221599820664456_);}
	.st47{fill:#271C8C;}
	.st48{fill:none;stroke:#425399;stroke-width:2.4459;stroke-linecap:round;stroke-linejoin:round;stroke-miterlimit:10;}
	.st49{fill:#B6BDFD;}
	.st50{fill:url(#SVGID_00000060719363406482069560000008833128149649672383_);}
	.st51{opacity:0.11;fill:#584BCC;}
	.st52{fill:#382E99;}
	.st53{fill:#414DBE;}
	.st54{fill:none;stroke:#A8A0FA;stroke-width:1.6099;stroke-linecap:round;stroke-linejoin:round;stroke-miterlimit:10;}
	.st55{fill:none;stroke:#FFFDFC;stroke-width:2.4459;stroke-linecap:round;stroke-linejoin:round;stroke-miterlimit:10;}
	.st56{fill:#BEF4FA;stroke:#FFFFFF;stroke-width:7.6103;stroke-miterlimit:10;}
	.st57{fill:#C6D2F2;}
	.st58{fill:#FFC2B0;}
	.st59{fill:#B6BDFF;}
	.st60{fill:#A8C4E5;}
	.st61{fill:#E1EAF4;}
	.st62{fill:#F09A82;}
	.st63{fill:#21DED5;}
	.st64{opacity:0.39;fill:#A7BCF5;}
	.st65{fill:#4558A3;}
	.st66{fill:url(#SVGID_00000098933184242353173050000006122603900348959134_);}
	.st67{opacity:0.22;fill:#2C1F9C;}
	.st68{fill:#4A5375;}
	.st69{fill:#D9E9FF;}
	.st70{fill:none;stroke:#FFFFFF;stroke-width:1.9095;stroke-linecap:round;stroke-linejoin:round;stroke-miterlimit:10;}
	.st71{fill:#CED2EF;}
	.st72{fill:#2C1F9C;}
	.st73{fill:none;stroke:#A7BCF5;stroke-width:1.9875;stroke-linecap:round;stroke-linejoin:round;stroke-miterlimit:10;}
	.st74{fill:#6676FF;}
	.st75{fill:none;stroke:#FFFFFF;stroke-width:6.8391;stroke-linecap:round;stroke-linejoin:round;stroke-miterlimit:10;}
	.st76{fill:#DBDEE8;stroke:#FFFFFF;stroke-width:7.6103;stroke-miterlimit:10;}
	.st77{fill:url(#SVGID_00000176021032165071074730000009173041406223510156_);}
	.st78{fill:none;stroke:#CFD4E9;stroke-width:0.6062;stroke-linecap:round;stroke-linejoin:round;stroke-miterlimit:10;}
	.st79{fill:#CFD4E9;}
	.st80{fill:none;stroke:#FFFFFF;stroke-width:0.6183;stroke-linecap:round;stroke-linejoin:round;stroke-miterlimit:10;}
	.st81{fill:#AFB7DB;}
	.st82{fill:none;stroke:#FFFFFF;stroke-width:5.3911;stroke-linecap:round;stroke-linejoin:round;stroke-miterlimit:10;}
	.st83{fill:#FCD1FF;stroke:#FFFFFF;stroke-width:7.6103;stroke-miterlimit:10;}
	.st84{fill:#4432DB;}
	.st85{fill:#6875AD;}
	.st86{fill:#1A3EA1;}
	.st87{fill:none;stroke:#DADEFF;stroke-width:0.519;stroke-linecap:round;stroke-linejoin:round;stroke-miterlimit:10;}
	.st88{fill:none;stroke:#425399;stroke-width:0.5656;stroke-linecap:round;stroke-linejoin:round;stroke-miterlimit:10;}
	.st89{fill:none;stroke:#6D7CFF;stroke-width:2.8281;stroke-linecap:round;stroke-linejoin:round;stroke-miterlimit:10;}
	.st90{fill:none;stroke:#FFFFFF;stroke-width:0.6167;stroke-linecap:round;stroke-linejoin:round;stroke-miterlimit:10;}
	.st91{fill:#F0F2FF;}
	.st92{opacity:0.4;fill:#A8C4E5;}
	.st93{fill:#323E73;}
	.st94{fill:#BAD4FF;}
	.st95{fill:#324DED;}
	.st96{fill:#ADB7F2;}
	.st97{fill:none;stroke:#FFFFFF;stroke-width:0.6957;stroke-linecap:round;stroke-linejoin:round;stroke-miterlimit:10;}
	.st98{fill:none;stroke:#FFFFFF;stroke-width:2.8923;stroke-linecap:round;stroke-linejoin:round;stroke-miterlimit:10;}
	.st99{fill:#FFE3A3;}
	.st100{fill:#A3E9D2;}
	.st101{fill:#C1AFE5;}
	.st102{fill:#FFB2A3;}
	.st103{fill:#A3DFFF;}
	.st104{fill:#E69AB7;}
	.st105{fill:url(#SVGID_00000131366295696023014830000017236082580376729789_);}
	.st106{fill:url(#SVGID_00000132775034018824364680000010762128352230813870_);}
	.st107{fill:url(#SVGID_00000120540721501997506760000007738272765361785275_);}
	.st108{fill:url(#SVGID_00000145763651848642896520000017345886951737140103_);}
	.st109{fill:#A8A0FA;}
	.st110{fill:#FFFDFC;}
	.st111{fill:#BEF4FA;}
	.st112{fill:url(#SVGID_00000151545084485008267900000016403195788091326118_);}
	.st113{fill:#A7BCF5;}
	.st114{fill:#DBDEE8;}
	.st115{fill:url(#SVGID_00000089564737691172057550000018192254688961287553_);}
	.st116{fill:#FCD1FF;}
	.st117{fill:none;stroke:#FF73CE;stroke-width:3;stroke-miterlimit:10;}
</style>
<g>
	<g>
		<polygon class="st111" points="565.18,84.6 565.18,407.07 3.81,407.07 3.81,19.35 496.82,19.35 		"/>
		<path class="st7" d="M568.98,410.87H0V15.55h498.35l70.64,67.42V410.87z M7.61,403.26h553.76V86.22L495.3,23.16H7.61V403.26z"/>
	</g>
	<g>
		<g>
			<path class="st1" d="M260.69,350.22L63.71,236.49c-10.14-5.85-10.14-20.49,0-26.34L264.19,94.4c10.41-6.01,23.22-6.01,33.63,0
				l201.98,116.62c10.14,5.85,10.14,20.49,0,26.34L304.33,350.22C290.83,358.01,274.2,358.01,260.69,350.22z"/>
			<g>
				
					<ellipse transform="matrix(0.0177 -0.9998 0.9998 0.0177 87.0402 452.8983)" class="st3" cx="274.02" cy="182.15" rx="7.8" ry="15.7"/>
				<path class="st10" d="M266.33,190.28l0.33-8.15c-0.13-1.9-1.34-2.29-2.38-3.16c-0.46-0.39-1.14-0.39-1.63-0.02l-1.04,0.81
					c-1.54,1.11-1.36,3.17-1.07,4.48l1.11,7.22C261.94,192.76,265.97,194.65,266.33,190.28z"/>
				<path class="st57" d="M261.07,179.55c0,1.94,4.71,1.94,4.71,0v-6.29h-4.71V179.55z"/>
				<path class="st10" d="M287.86,177.96l-6.55-6.49c-0.88-0.51-2.86-0.72-4.2-0.54c-0.6,0.08-1.06,0.59-1.1,1.19l-0.1,1.31
					c-0.2,1.88-0.04,2.16,1.12,2.83l6.89,3.98c1.16,0.67,2.93,0.74,3.94,0.16l0.28-0.16C289.15,179.65,289.02,178.63,287.86,177.96z
					"/>
				<path class="st57" d="M276.54,171.24c0,1.94,4.71,1.94,4.71,0v-6.29h-4.71V171.24z"/>
				<path class="st7" d="M275.91,169.45c1.85,1.32,4.9,1.29,5.92-0.25c3.46-19.05,4.99-38.43,4.75-58.13l-14.63-4.34
					C274.56,130.38,277.67,151.31,275.91,169.45z"/>
				<path class="st7" d="M260.52,175.55c1.49,2.22,4.86,2.23,5.85,0.63l9.86-66.1h-17L260.52,175.55z"/>
				<path class="st24" d="M274.02,124.9l0.84,5.96l3.25-12.64c-0.73,0.19-1.52,0.34-2.34,0.45L274.02,124.9z"/>
				<path class="st58" d="M263.94,91.44l-8.78,17.67c-0.44,0.96-1.94,17.99-1.94,17.99l-4.38-2.56c0,0,1.33-18.84,1.6-19.79
					l5.26-18.6L263.94,91.44z"/>
				<path class="st58" d="M250.59,121.44l0.6-0.08c1.1-0.15,2.12,0.64,2.27,1.74l0.3,2.26c0.15,1.1-0.64,2.12-1.74,2.27l-0.6,0.08
					c-1.1,0.15-2.12-0.64-2.27-1.74l-0.3-2.26C248.7,122.61,249.49,121.59,250.59,121.44z"/>
				<path class="st58" d="M287.11,82.35l5.65,9.2c1.03,2.04,3.28,5.76,4.03,9.97l7.68-3.02l-0.27,2.12l-10.17,4.5
					c0.88-4.91-2.13-5.3-3.84-7.37c-3.01-3.64-6-7.26-6.03-7.42C284.1,90.09,287.11,82.35,287.11,82.35z"/>
				<path class="st5" d="M284.47,74.57l6.62,12.41c-1.08,4.32-3.42,6.51-6.38,7.67l-2.51-16.78L284.47,74.57z"/>
				<path class="st59" d="M287.17,109.46c-1.22-6.68-1.63-14.25-0.53-23.48c0-12.77-4.83-17.5-12.88-14.57l-3.33,0.88
					c-9.71,5.23-14.65,4.97-12.91,15.25l1.7,22.53C259.23,121.69,287.79,123.1,287.17,109.46z"/>
				<polygon class="st5" points="263.94,91.44 259.75,108.83 259.25,110.52 258.63,102.14 				"/>
				<path class="st5" d="M275.02,71.51c0,0-1.27,1.17-1.91,1.31c-0.64,0.13-7.55-5.45-5.05-11.7c1.58-3.96,9.07-0.86,9.07-0.86
					L275.02,71.51z"/>
				<path class="st58" d="M272.74,76.98l0.39,0.07c1.3,0.22,2.55-0.66,2.77-1.97l1.25-7.36c0.22-1.3-0.66-2.55-1.97-2.77l-0.39-0.07
					c-1.3-0.22-2.55,0.66-2.77,1.97l-2.24,6.89C269.56,75.04,271.44,76.76,272.74,76.98z"/>
				<path class="st59" d="M264.69,88.6l-4.85,13.76c-0.69,1.07-10.62-3.96-9.77-5.6c0.15-0.29,5.44-16.91,11.12-19.59
					C265.8,75,267.24,82.34,264.69,88.6z"/>
				<path class="st60" d="M282.7,102.43l1.87-0.66l0.22-0.22l0.14-0.25l14.06-7.31c0.17-0.09,0.45-0.08,0.62,0.02l5.37,3.15
					l0.01-0.09l1.01,0.4l-0.05,0.42h-0.01c-0.02,0.04-0.05,0.08-0.11,0.11l-14.63,7.61c-0.02,0.01-0.03,0.03-0.04,0.06
					c-0.31,1.12-0.82,2.12-1.77,1.54l-5.95-3.5C282.97,103.45,282.69,102.97,282.7,102.43L282.7,102.43z"/>
				<path class="st61" d="M290.6,106.77l16.85-8.76c0.2-0.1,0.19-0.28-0.01-0.4l-7.16-4.2c-0.2-0.12-0.52-0.13-0.72-0.03
					l-16.85,8.76c-0.2,0.1-0.19,0.28,0.01,0.4l7.16,4.2C290.08,106.86,290.41,106.88,290.6,106.77z"/>
				<path class="st60" d="M290.13,101.13l4.08-2.12c0.05-0.02,0.05-0.07,0-0.1l-1.73-1.02c-0.05-0.03-0.13-0.03-0.17-0.01
					l-4.08,2.12c-0.05,0.02-0.05,0.07,0,0.1l1.73,1.02C290.01,101.15,290.08,101.16,290.13,101.13z"/>
				<path class="st7" d="M292.08,96.91c0.11-0.4,0.49-0.87,0.85-1.06l16.71-8.56c0.15-0.08,0.27-0.09,0.35-0.05l0,0l0,0
					c0.03,0.01,0.06,0.03,0.07,0.06l0.47,0.52l-0.47-0.04l-2.51,9.26c-0.11,0.4-0.49,0.87-0.85,1.06l-15.8,8.1l-0.54,0.52
					l-0.07,0.13c-0.31,0.06-0.98-0.43-0.98-0.43L292.08,96.91z"/>
				<path class="st10" d="M290.5,107.22l16.71-8.56c0.36-0.18,0.74-0.66,0.85-1.06l2.54-9.36c0.11-0.4-0.1-0.57-0.46-0.39
					l-16.71,8.56c-0.36,0.18-0.74,0.66-0.85,1.06l-2.54,9.36C289.94,107.23,290.14,107.41,290.5,107.22z"/>
				<path class="st7" d="M299.87,98.16c-0.13,0.5,0.33,0.61,1.03,0.25c0.7-0.36,1.38-1.05,1.52-1.55c0.13-0.5-0.33-0.61-1.03-0.25
					C300.69,96.97,300.01,97.66,299.87,98.16z"/>
				<path class="st62" d="M276.31,72.67c0,0-3.16,0.07-5.22-2.96c0,0,1.99,4.62,4.87,5.02L276.31,72.67z"/>
				<path class="st58" d="M273.95,69.01c0.73,3.51,3.22,4.67,5.55,2.59c2.33-2.09,3.63-6.62,2.9-10.14
					c-0.73-3.51-3.22-4.67-5.55-2.59C274.51,60.96,273.21,65.5,273.95,69.01z"/>
				<path class="st58" d="M270.4,67.65c0.73,3.51,4.33,5.03,6.66,2.95c2.33-2.09,3.63-6.62,2.9-10.14
					c-0.73-3.51-3.22-4.67-5.55-2.59C272.08,59.96,269.67,64.14,270.4,67.65z"/>
				<path class="st5" d="M275.57,60.29c0,0-0.36,6.65-5.77,7.24c0,0-5.26-4.35,0.08-9.91c4.71-4.9,10.04,0.33,10.04,0.33
					L275.57,60.29z"/>
				<path class="st63" d="M282.6,63.13c0,0-1.33-2.6-4.96-2.98l2.28-2.2C279.92,57.95,282.77,57.94,282.6,63.13z"/>
				<path class="st5" d="M272.22,63.66c1.47-1.41,4.1-0.85,7.62,1.25c3.45,0.8,4.6-3.1,4.6-3.1c0.91-2.03-0.33-3.23-2.36-4.14
					l-5.29-2.37c-2.99-1.36-6.45,0.7-7.37,2.73l-0.2,0.33C268.31,60.38,270.19,62.75,272.22,63.66z"/>
				<path class="st58" d="M269.4,68.44c0.18,0.85,1.02,1.4,1.87,1.22c0.85-0.18,1.4-1.02,1.22-1.87c-0.18-0.85-1.02-1.4-1.87-1.22
					C269.77,66.75,269.23,67.59,269.4,68.44z"/>
				<path class="st5" d="M282.55,62.86c0,1.13,0.92,2.04,2.04,2.04c1.13,0,2.04-0.92,2.04-2.04s-0.92-2.04-2.04-2.04
					C283.47,60.81,282.55,61.73,282.55,62.86z"/>
				<path class="st5" d="M282.7,60c0,1.13,0.92,2.04,2.04,2.04c1.13,0,2.04-0.92,2.04-2.04s-0.92-2.04-2.04-2.04
					C283.62,57.95,282.7,58.87,282.7,60z"/>
				<path class="st5" d="M279.88,59.1c0,1.13,0.92,2.04,2.04,2.04c1.13,0,2.04-0.92,2.04-2.04s-0.92-2.04-2.04-2.04
					C280.79,57.06,279.88,57.97,279.88,59.1z"/>
				<path class="st5" d="M279.88,64.09c0,1.13,0.92,2.04,2.04,2.04c1.13,0,2.04-0.92,2.04-2.04c0-1.13-0.92-2.04-2.04-2.04
					C280.79,62.04,279.88,62.96,279.88,64.09z"/>
				<path class="st5" d="M277.32,63.74c0,1.13,0.92,2.04,2.04,2.04c1.13,0,2.04-0.92,2.04-2.04c0-1.13-0.92-2.04-2.04-2.04
					C278.23,61.69,277.32,62.61,277.32,63.74z"/>
			</g>
			<g>
				<path class="st64" d="M191.93,270.06l-64.35-37.15c-3.31-1.91-3.31-6.69,0-8.6l65.49-37.81c3.4-1.96,7.59-1.96,10.99,0
					l65.98,38.1c3.31,1.91,3.31,6.69,0,8.6l-63.86,36.87C201.77,272.61,196.34,272.61,191.93,270.06z"/>
				<g>
					<path class="st13" d="M174.57,261.05l-55.97-32.31c-2.88-1.66-2.88-5.82,0-7.48l59.58-34.4c1.34-0.77,2.98-0.77,4.32,0
						l60.01,34.65c2.88,1.66,2.88,5.82,0,7.48l-55.54,32.07C183.13,263.26,178.4,263.26,174.57,261.05z"/>
					<polygon class="st13" points="116.46,209.72 116.44,225.06 180.55,259.93 180.55,249.6 					"/>
					<path class="st24" d="M181.4,262.69v-18.35l63.27-34.62v15.52c0,0,0.14,2.42-2.16,3.74l-54.58,31.51
						C187.93,260.49,184.45,262.91,181.4,262.69z"/>
					<path class="st65" d="M174.57,245.53l-55.97-32.31c-2.88-1.66-2.88-5.82,0-7.48l56.96-32.89c2.96-1.71,6.6-1.71,9.56,0
						l57.39,33.13c2.88,1.66,2.88,5.82,0,7.48l-55.54,32.07C183.13,247.74,178.4,247.74,174.57,245.53z"/>
				</g>
				<g>
					<path class="st13" d="M174.57,232.16l-55.97-32.31c-2.88-1.66-2.88-5.82,0-7.48l59.58-34.4c1.34-0.77,2.98-0.77,4.32,0
						l60.01,34.65c2.88,1.66,2.88,5.82,0,7.48l-55.54,32.07C183.13,234.38,178.4,234.38,174.57,232.16z"/>
					<polygon class="st13" points="116.46,180.84 116.44,196.17 180.55,231.05 180.55,220.72 					"/>
					<path class="st24" d="M181.4,233.81v-18.35l63.27-34.62v15.52c0,0,0.14,2.42-2.16,3.74l-54.58,31.51
						C187.93,231.61,184.45,234.03,181.4,233.81z"/>
					<path class="st65" d="M174.57,216.64l-55.97-32.31c-2.88-1.66-2.88-5.82,0-7.48l56.96-32.89c2.96-1.71,6.6-1.71,9.56,0
						l57.39,33.13c2.88,1.66,2.88,5.82,0,7.48l-55.54,32.07C183.13,218.86,178.4,218.86,174.57,216.64z"/>
				</g>
				<g>
					<path class="st13" d="M174.57,200.6l-55.97-32.31c-2.88-1.66-2.88-5.82,0-7.48l59.58-34.4c1.34-0.77,2.98-0.77,4.32,0
						l60.01,34.65c2.88,1.66,2.88,5.82,0,7.48l-55.54,32.07C183.13,202.81,178.4,202.81,174.57,200.6z"/>
					<polygon class="st13" points="116.46,149.27 116.44,164.61 180.55,199.48 180.55,189.15 					"/>
					<path class="st24" d="M181.4,202.24v-18.35l63.27-34.62v15.52c0,0,0.14,2.42-2.16,3.74l-54.58,31.51
						C187.93,200.04,184.45,202.46,181.4,202.24z"/>
					<linearGradient id="SVGID_1_" gradientUnits="userSpaceOnUse" x1="116.4384" y1="148.9272" x2="244.6674" y2="148.9272">
						<stop  offset="0" style="stop-color:#949FFF"/>
						<stop  offset="0.7123" style="stop-color:#B6BDFF"/>
					</linearGradient>
					<path class="st44" d="M174.57,185.08l-55.97-32.31c-2.88-1.66-2.88-5.82,0-7.48l56.96-32.89c2.96-1.71,6.6-1.71,9.56,0
						l57.39,33.13c2.88,1.66,2.88,5.82,0,7.48l-55.54,32.07C183.13,187.29,178.4,187.29,174.57,185.08z"/>
				</g>
				<g>
					<g>
						<path class="st7" d="M130.77,168.65c0,1.07-0.75,1.5-1.68,0.96c-0.93-0.54-1.68-1.84-1.68-2.9c0-1.07,0.75-1.5,1.68-0.96
							C130.01,166.29,130.77,167.58,130.77,168.65z"/>
					</g>
				</g>
				<path class="st10" d="M136.43,172.29c0,1.07-0.75,1.5-1.68,0.96c-0.93-0.54-1.68-1.84-1.68-2.9c0-1.07,0.75-1.5,1.68-0.96
					C135.68,169.92,136.43,171.22,136.43,172.29z"/>
				<g>
					<g>
						<g>
							<path class="st7" d="M125.1,195.42c0,1.07-0.75,1.5-1.68,0.96c-0.93-0.54-1.68-1.84-1.68-2.9c0-1.07,0.75-1.5,1.68-0.96
								C124.34,193.06,125.1,194.36,125.1,195.42z"/>
						</g>
					</g>
					<path class="st10" d="M130.77,199.06c0,1.07-0.75,1.5-1.68,0.96c-0.93-0.54-1.68-1.84-1.68-2.9c0-1.07,0.75-1.5,1.68-0.96
						C130.01,196.69,130.77,197.99,130.77,199.06z"/>
					<g>
						<g>
							<path class="st7" d="M136.43,202.7c0,1.07-0.75,1.5-1.68,0.96c-0.93-0.54-1.68-1.84-1.68-2.9c0-1.07,0.75-1.5,1.68-0.96
								C135.68,200.33,136.43,201.63,136.43,202.7z"/>
						</g>
					</g>
				</g>
				<g>
					<g>
						<g>
							<path class="st7" d="M125.1,225.83c0,1.07-0.75,1.5-1.68,0.96c-0.93-0.54-1.68-1.84-1.68-2.9c0-1.07,0.75-1.5,1.68-0.96
								C124.34,223.47,125.1,224.76,125.1,225.83z"/>
						</g>
					</g>
					<g>
						<g>
							<path class="st7" d="M130.77,229.47c0,1.07-0.75,1.5-1.68,0.96c-0.93-0.54-1.68-1.84-1.68-2.9c0-1.07,0.75-1.5,1.68-0.96
								C130.01,227.1,130.77,228.4,130.77,229.47z"/>
						</g>
					</g>
					<g>
						<g>
							<path class="st7" d="M136.43,233.11c0,1.07-0.75,1.5-1.68,0.96c-0.93-0.54-1.68-1.84-1.68-2.9c0-1.07,0.75-1.5,1.68-0.96
								C135.68,230.74,136.43,232.04,136.43,233.11z"/>
						</g>
					</g>
				</g>
				<polygon class="st10" points="216.26,180.26 224.39,175.57 224.39,169.03 216.26,173.72 				"/>
				<polygon class="st10" points="228.24,173.32 236.36,168.63 236.36,162.09 228.24,166.78 				"/>
				<polygon class="st10" points="216.26,211.34 224.39,206.65 224.39,200.11 216.26,204.8 				"/>
				<polygon class="st10" points="228.24,204.41 236.36,199.72 236.36,193.18 228.24,197.87 				"/>
				<polygon class="st10" points="216.26,240.13 224.39,235.44 224.39,228.9 216.26,233.59 				"/>
				<polygon class="st10" points="228.24,233.2 236.36,228.51 236.36,221.97 228.24,226.66 				"/>
			</g>
			<g>
				<path class="st67" d="M186.46,185.44c0,0-12.82-7.01-9.6-15.18c3.22-8.17,16.48,11.21,16.48,11.21L186.46,185.44z"/>
				<path class="st68" d="M198.97,173.74c-1.13,0-23.69,8.13-23.67-10.55c0.02-18.69,28.8,2.65,28.8,2.65L198.97,173.74z"/>
				<path class="st69" d="M224.94,214.21l-7.4-7.52c-1-0.59-3.26-0.87-4.8-0.69c-0.69,0.08-1.22,0.65-1.28,1.35l-0.13,1.5
					c-0.26,2.15-0.07,2.47,1.24,3.25l7.83,4.66c1.32,0.78,3.34,0.89,4.5,0.25l0.33-0.18C226.39,216.17,226.26,214.99,224.94,214.21z
					"/>
				<path class="st57" d="M212.01,206.98c0,2.22,5.39,2.22,5.39,0v-7.2h-5.39V206.98z"/>
				<path class="st69" d="M210.72,222.16l-6.41-8.38c-0.92-0.71-3.12-1.27-4.68-1.28c-0.7,0-1.29,0.5-1.44,1.18l-0.32,1.47
					c-0.53,2.1-0.38,2.44,0.83,3.38l7.19,5.59c1.21,0.94,3.21,1.3,4.44,0.8l0.35-0.14C211.92,224.28,211.94,223.1,210.72,222.16z"/>
				<path class="st57" d="M198.79,213.38c-0.27,2.2,5.07,2.87,5.35,0.67l0.89-7.14l-5.35-0.67L198.79,213.38z"/>
				<path class="st3" d="M200.03,157.94c0,0,16.68,8.54,17.38,12.98c0.61,3.9,1.29,27,0.89,32.42c-0.06,0.78-0.51,1.47-1.22,1.81
					c-1.65,0.79-4.64,1.65-5.63-1.72c-1.41-4.75-0.92-20.97-4.28-25.62c-3.36-4.64-20.05-11.19-20.05-11.19L200.03,157.94z"/>
				<path class="st3" d="M188.83,165.69c0,0,18.66,9.3,19.21,13.53c0.48,3.69-1.83,24.73-2.42,30.01c-0.09,0.81-0.63,1.5-1.39,1.8
					c-1.7,0.67-4.62,1.29-5.49-1.87c-1.25-4.55-0.22-19.89-3.43-24.41c-1.74-2.45-6.23-5.22-13.88-8.83
					c-3.5-1.65-6.01-8.53-1.75-9.07L188.83,165.69z"/>
				<path class="st58" d="M205.02,130.78l3.56,13.64c0.31,1.62,0.86,3.99,1.26,6.76c0.62,4.31-0.62,9.01-3.26,12.25
					c0,0-1.27-6.68-2.52-9.82c-2.2-5.52-4.02-12.02-4.01-12.24C200.05,141.01,205.02,130.78,205.02,130.78z"/>
				<path class="st31" d="M199.74,121.51l8.37,14.38c-1.14,4.57-3.62,6.9-6.75,8.12l-2.66-17.77L199.74,121.51z"/>
				<path class="st7" d="M197.35,141.65c-0.4,0-0.77-0.25-0.9-0.65c-0.17-0.5,0.1-1.04,0.59-1.21c6.88-2.36,8.25-5.92,8.26-5.96
					c0.18-0.49,0.72-0.75,1.22-0.58c0.49,0.17,0.76,0.71,0.59,1.2c-0.06,0.18-1.59,4.45-9.45,7.14
					C197.56,141.64,197.46,141.65,197.35,141.65z"/>
				<path class="st31" d="M202.25,156.03c-1.29-7.08-1.01-11.39,0.16-21.16c0-13.52-4.12-18.55-12.64-15.45l-3.52,0.93
					c-10.28,5.54-15.51,5.26-13.67,16.15l1.8,23.86C174.39,172.64,202.91,170.47,202.25,156.03z"/>
				<path class="st10" d="M191.11,119.52c0,0-1.35,1.24-2.03,1.38c-0.68,0.14-7.99-5.77-5.34-12.39c1.68-4.19,9.6-0.91,9.6-0.91
					L191.11,119.52z"/>
				<path class="st58" d="M188.69,125.31l0.41,0.07c1.38,0.23,2.7-0.7,2.94-2.08l1.32-7.79c0.23-1.38-0.7-2.7-2.08-2.94l-0.41-0.07
					c-1.38-0.23-2.7,0.7-2.94,2.08l-2.37,7.3C185.33,123.26,187.31,125.07,188.69,125.31z"/>
				<path class="st62" d="M192.47,120.75c0,0-3.35,0.07-5.53-3.13c0,0,2.11,4.89,5.16,5.31L192.47,120.75z"/>
				<path class="st58" d="M189.97,116.88c0.78,3.72,3.41,4.94,5.88,2.74c2.47-2.21,3.85-7.01,3.07-10.73
					c-0.78-3.72-3.41-4.94-5.88-2.74C190.56,108.35,189.19,113.16,189.97,116.88z"/>
				<path class="st58" d="M186.21,115.44c0.78,3.72,4.58,5.33,7.05,3.12c2.47-2.21,3.85-7.01,3.07-10.73
					c-0.78-3.72-3.41-4.94-5.88-2.74C187.99,107.29,185.44,111.72,186.21,115.44z"/>
				<path class="st10" d="M191.68,107.64c0,0-0.38,7.04-6.11,7.66c0,0-5.57-4.61,0.08-10.49c4.98-5.18,10.63,0.35,10.63,0.35
					L191.68,107.64z"/>
				<path class="st63" d="M199.12,110.65c0,0-1.41-2.75-5.25-3.16l2.41-2.33C196.28,105.17,199.3,105.15,199.12,110.65z"/>
				<path class="st10" d="M188.13,111.21c1.56-1.5,4.34-0.9,8.07,1.32c3.65,0.85,4.87-3.28,4.87-3.28c0.97-2.15-0.35-3.42-2.5-4.38
					l-5.6-2.51c-3.16-1.44-6.83,0.74-7.8,2.89l-0.22,0.34C184,107.74,185.99,110.24,188.13,111.21z"/>
				<path class="st58" d="M185.16,116.27c0.19,0.9,1.07,1.48,1.98,1.3c0.9-0.19,1.48-1.07,1.3-1.98c-0.19-0.9-1.07-1.48-1.98-1.3
					C185.55,114.48,184.97,115.37,185.16,116.27z"/>
				<path class="st7" d="M192.47,120.75c0,0,2.83,3.95-1.16,5.64c-6.31,2.69-8.28-4.46-7.29-4.88l1.99-1.03c0,0-1.38,1.96,0.63,3.66
					c1.49,1.25,4.15,1.52,5.3-0.44L192.47,120.75z"/>
				<polygon class="st71" points="181.72,134.87 181.72,158.03 177.44,155.52 				"/>
				<g>
					<path class="st60" d="M186.33,167.03l1.98-0.7l0.23-0.23l0.15-0.26l14.89-7.74c0.18-0.09,0.48-0.08,0.66,0.03l5.68,3.33
						l0.01-0.09l1.07,0.43l-0.05,0.44h-0.01c-0.02,0.04-0.06,0.08-0.12,0.11l-15.49,8.05c-0.02,0.01-0.03,0.03-0.04,0.06
						c-0.32,1.19-0.86,2.25-1.88,1.63l-6.29-3.71C186.62,168.11,186.32,167.6,186.33,167.03L186.33,167.03z"/>
					<path class="st24" d="M194.7,171.63l17.84-9.28c0.21-0.11,0.2-0.3-0.01-0.42l-7.58-4.44c-0.21-0.12-0.55-0.14-0.76-0.03
						l-17.84,9.28c-0.21,0.11-0.2,0.3,0.01,0.42l7.58,4.44C194.15,171.72,194.49,171.74,194.7,171.63z"/>
					<path class="st60" d="M194.2,165.65l4.32-2.24c0.05-0.03,0.05-0.07,0-0.1l-1.83-1.08c-0.05-0.03-0.13-0.03-0.18-0.01
						l-4.32,2.24c-0.05,0.03-0.05,0.07,0,0.1l1.83,1.08C194.06,165.68,194.15,165.68,194.2,165.65z"/>
					<path class="st7" d="M196.26,161.19c0.11-0.42,0.52-0.92,0.9-1.12l17.69-9.06c0.16-0.08,0.29-0.1,0.38-0.06l0,0l0,0
						c0.03,0.01,0.06,0.04,0.08,0.06l0.49,0.55l-0.5-0.04l-2.65,9.8c-0.11,0.42-0.52,0.92-0.9,1.12l-16.73,8.57l-0.57,0.55
						l-0.08,0.13c-0.33,0.07-1.04-0.45-1.04-0.45L196.26,161.19z"/>
					<path class="st7" d="M194.59,172.1c0,0,18.48-9.76,18.59-10.18l2.68-9.91c0.11-0.42-0.1-0.61-0.48-0.41l-17.69,9.07
						c-0.38,0.2-0.78,0.7-0.9,1.12l-2.68,9.91C193.99,172.11,194.21,172.3,194.59,172.1z"/>
					<path class="st7" d="M204.51,162.51c-0.14,0.53,0.34,0.64,1.09,0.26c0.74-0.38,1.46-1.12,1.6-1.64
						c0.14-0.53-0.34-0.64-1.09-0.26C205.37,161.25,204.65,161.98,204.51,162.51z"/>
				</g>
				<path class="st58" d="M181.02,134.87l-2.34,20.76c-0.09,1.11,16.98,6.58,16.98,6.58l-1.44,6.02l-17.46-4.47
					c-4.61-1.93-4.49-5.46-4.44-8.36l0.32-17.99L181.02,134.87z"/>
				<path class="st31" d="M181.54,137.14l-1.47,15.38c-0.43,1.27-11.92-1.35-11.47-3.25c0.08-0.34,1.26-18.76,6.42-22.97
					C179.2,122.87,182.56,130.05,181.54,137.14z"/>
				<path class="st7" d="M178.38,149.56c-2.06,0-5.55-0.54-9.5-3.45c-0.42-0.31-0.52-0.91-0.2-1.33c0.31-0.42,0.91-0.52,1.33-0.2
					c5.46,4.02,9.8,2.96,9.85,2.95c0.5-0.13,1.03,0.17,1.16,0.68c0.13,0.51-0.17,1.03-0.68,1.16
					C180.26,149.39,179.55,149.56,178.38,149.56z"/>
			</g>
			<g>
				
					<ellipse transform="matrix(0.9998 -0.0177 0.0177 0.9998 -4.0425 5.8467)" class="st3" cx="327.73" cy="230.92" rx="18.64" ry="9.26"/>
				<path class="st31" d="M323.51,128.65c0,0,7.23,3.03,20.14-14.38c2.61-3.53,5.99-16.05,5.99-16.05l-3.11-1.39
					c0,0-4.69,10.68-8.53,14.12c-5.16,4.62-19.28,10.84-19.9,13.18C317.49,126.46,323.51,128.65,323.51,128.65z"/>
				<path class="st72" d="M314.05,224.74l4.05-0.51c2.71-1.23,3.98-2.15,5.19-1.46l0.34,0.2c1.21,0.7,1.06,1.93-0.34,2.73
					l-5.96,4.74c-1.4,0.81-3.28,0.55-4.39-0.43c0,0-0.67-0.6-0.19-3.13C313.02,225.43,312.93,225.38,314.05,224.74z"/>
				<path class="st58" d="M318.84,224.91c-0.32,2.8-5.46,2.8-5.46,0.67l2.85-64.69l17.13-4.83L318.84,224.91z"/>
				<path class="st72" d="M331.19,230.92l4.02,0.76c2.96-0.34,4.45-0.83,5.39,0.2l0.27,0.29c0.94,1.03,0.41,2.16-1.16,2.5
					l-7.12,2.68c-1.57,0.34-3.29-0.48-4.05-1.75c0,0-0.45-0.78,0.78-3.04C330.01,231.27,329.93,231.19,331.19,230.92z"/>
				<path class="st58" d="M334.47,232.63c-0.89,2.26-4.82,1.77-4.75-0.09c1.83-22.42-2.39-43.59-7.82-64.19l16.45-1.78
					C338.99,190.68,338.77,211.34,334.47,232.63z"/>
				<path class="st10" d="M337.33,160.74l5.72,31.4c0,0-14.22,14.09-30.48,0l1.83-29.48L337.33,160.74z"/>
				
					<ellipse transform="matrix(0.9917 -0.1282 0.1282 0.9917 -11.9053 42.8785)" class="st58" cx="327" cy="113.89" rx="5.25" ry="9.27"/>
				<path class="st58" d="M336.36,117.57c-1.22,4.26-5.79,5.81-8.48,3.02c-2.69-2.78-3.87-8.49-2.65-12.76
					c1.22-4.26,4.39-5.46,7.08-2.68C335,107.94,337.58,113.31,336.36,117.57z"/>
				<path class="st58" d="M326.02,129.87l-0.46-0.1c-1.54-0.34-2.52-1.89-2.18-3.43l1.94-8.7c0.34-1.54,1.89-2.52,3.43-2.18
					l0.46,0.1c1.54,0.34,2.52,1.89,2.18,3.43l-0.64,8.64C330.41,129.17,327.57,130.22,326.02,129.87z"/>
				<path class="st10" d="M322.37,118.18c0,0-0.53,2.96,4.63,3.24c4.13,0.23,2.9-7.24,6.99-7.9c4.5-0.73,5.32-6.3,3.54-8.43
					c-1.77-2.13-6.73-3.25-10.32-1.67C323.63,105.01,316.09,106.16,322.37,118.18z"/>
				<path class="st58" d="M334.01,115.83c-0.3,1.04-1.38,1.64-2.42,1.34c-1.04-0.3-1.64-1.38-1.34-2.42
					c0.3-1.04,1.38-1.64,2.42-1.34C333.71,113.71,334.31,114.8,334.01,115.83z"/>
				<path class="st31" d="M314.33,162.33c1.46-7.99-0.11-14.3,0.02-22.79c0-15.27-0.73-18.99,7.34-16.67l2.27,0.6
					c1.09,0.29,2.15,0.7,3.16,1.22c10.64,5.48,13.48,7.17,13.01,13.53c0.05,10.48-4.83,12.61-2.24,21.78
					C335.7,167.24,316.76,167.51,314.33,162.33z"/>
				<path class="st62" d="M331.17,121.99l-0.46-1.07c0,0,0.82,0.82,2.39,0.62C333.1,121.55,332.18,122.08,331.17,121.99z"/>
				<g>
					<g>
						<ellipse class="st7" cx="322.77" cy="109.8" rx="3.72" ry="4.32"/>
					</g>
				</g>
				<path class="st10" d="M322.67,108.46c0.18-2.21-2.84-3.19-4.03-1.31c-0.39,0.61-0.73,1.47-1,2.65
					c-1.5,6.64-12.69,5.68-7.2,17.37c0,0-4.99,7.67,4.29,10.9c4.75,1.65,4.64-10.58,4.64-10.58s1.9-5.62,3.72-10.04
					c0.86-2.07,0.94-4.42,0.03-6.47C322.75,110.14,322.6,109.3,322.67,108.46z"/>
				<g>
					<g>
						<path class="st7" d="M323.89,122.42c-0.88-0.21-1.7,0.56-1.55,1.46c0.17,1,0.78,2.19,2.59,2.8c2.52,0.85,5.28,0.39,6.61,0.08
							c0.32-0.07,0.38-0.49,0.1-0.66C330.15,125.17,326.56,123.06,323.89,122.42z"/>
					</g>
				</g>
				<polygon class="st7" points="355.17,138.72 343.05,131.69 350.18,110.83 362.31,117.85 				"/>
				<path class="st31" d="M330.52,135.97c0,0,10.44,25.37,21.82,13.15c11.39-12.22,7.39-20.84,7.39-20.84l-1.53-0.41
					c0,0-4.63,15.35-9.56,13.83c-4.93-1.52-11.63-11-14-11.44C332.27,129.81,330.52,135.97,330.52,135.97z"/>
				<path class="st58" d="M347,97.68l0.63,0.32c1.16,0.58,2.58,0.11,3.17-1.05l1.19-2.38c0.58-1.16,0.11-2.59-1.05-3.17l-0.63-0.32
					c-1.16-0.58-2.58-0.11-3.17,1.05l-1.19,2.38C345.36,95.68,345.84,97.1,347,97.68z"/>
				<path class="st58" d="M359.46,130.05L359.46,130.05c-1.09,0-1.99-0.89-1.99-1.99v-2.03c0-1.09,0.89-1.99,1.99-1.99l0,0
					c1.09,0,1.99,0.89,1.99,1.99v2.03C361.44,129.16,360.55,130.05,359.46,130.05z"/>
				<g>
					<path class="st4" d="M352.56,118.44l-2.07-1.2c-0.42-0.24-0.64-0.83-0.5-1.32l0,0c0.15-0.48,0.61-0.68,1.03-0.44l2.07,1.2
						c0.42,0.24,0.64,0.83,0.5,1.32l0,0C353.44,118.49,352.98,118.69,352.56,118.44z"/>
					<path class="st13" d="M354.49,123.14l-3.13-1.81c-0.33-0.19-0.51-0.66-0.39-1.04l0,0c0.12-0.38,0.48-0.54,0.81-0.35l3.13,1.81
						c0.33,0.19,0.51,0.66,0.39,1.04l0,0C355.19,123.17,354.82,123.33,354.49,123.14z"/>
					<path class="st13" d="M356.14,127.83l-5.75-3.32c-0.33-0.19-0.51-0.66-0.39-1.04l0,0c0.12-0.38,0.48-0.54,0.81-0.35l5.75,3.32
						c0.33,0.19,0.51,0.66,0.39,1.04l0,0C356.84,127.87,356.48,128.02,356.14,127.83z"/>
					<path class="st13" d="M352.55,129.49l-3.13-1.81c-0.33-0.19-0.51-0.66-0.39-1.04l0,0c0.12-0.38,0.48-0.54,0.81-0.35l3.13,1.81
						c0.33,0.19,0.51,0.66,0.39,1.04l0,0C353.25,129.53,352.89,129.69,352.55,129.49z"/>
					<path class="st4" d="M348.94,130.94l-2.14-1.24c-0.33-0.19-0.51-0.66-0.39-1.04l0,0c0.12-0.38,0.48-0.54,0.81-0.35l2.14,1.24
						c0.33,0.19,0.51,0.66,0.39,1.04l0,0C349.64,130.98,349.28,131.13,348.94,130.94z"/>
				</g>
			</g>
			<path class="st113" d="M406.74,233.22c-1.85,0-3.63-0.39-4.99-1.17l-27.27-15.75c-1.47-0.85-2.27-2.07-2.27-3.45
				c0-1.58,1.1-3.13,3.02-4.23l25.56-14.76c3.38-1.95,8.35-2.14,11.32-0.43l27.27,15.75c1.47,0.85,2.27,2.07,2.27,3.45
				c0,1.58-1.1,3.13-3.02,4.23l-25.56,14.76C411.23,232.68,408.93,233.22,406.74,233.22z M407.13,194.27
				c-1.86,0-3.85,0.45-5.36,1.32l-25.56,14.76c-1.27,0.73-2.02,1.67-2.02,2.51c0,0.82,0.7,1.39,1.28,1.73l27.27,15.75l0,0
				c2.33,1.34,6.6,1.15,9.33-0.43l25.56-14.76c1.27-0.73,2.02-1.67,2.02-2.51c0-0.82-0.7-1.39-1.28-1.73l-27.27-15.75
				C410.06,194.56,408.63,194.27,407.13,194.27z"/>
			<path class="st113" d="M406.74,220.25c-1.85,0-3.63-0.39-4.99-1.17l-27.27-15.75c-1.47-0.85-2.27-2.07-2.27-3.45
				c0-1.58,1.1-3.13,3.02-4.23l25.56-14.76c3.38-1.95,8.35-2.14,11.32-0.43l27.27,15.75c1.47,0.85,2.27,2.07,2.27,3.45
				c0,1.58-1.1,3.13-3.02,4.23l-25.56,14.76C411.23,219.71,408.93,220.25,406.74,220.25z M407.13,181.3c-1.86,0-3.85,0.45-5.36,1.32
				l-25.56,14.76c-1.27,0.73-2.02,1.67-2.02,2.51c0,0.82,0.7,1.39,1.28,1.73l27.27,15.75l0,0c2.33,1.34,6.6,1.15,9.33-0.43
				l25.56-14.76c1.27-0.73,2.02-1.67,2.02-2.51c0-0.82-0.7-1.39-1.28-1.73l-27.27-15.75C410.06,181.59,408.63,181.3,407.13,181.3z"
				/>
			<g>
				<path class="st11" d="M441.7,182.49L441.7,182.49c-1.27,0.01-2.32-1.03-2.32-2.3l-0.06-11.09c-0.01-1.27,1.03-2.32,2.3-2.32h0
					c1.27-0.01,2.32,1.03,2.32,2.3l0.06,11.09C444,181.44,442.97,182.48,441.7,182.49z"/>
				<path class="st11" d="M452.15,158.87c-1.27,0.01-2.31,1.05-2.3,2.32l0.01,1.82c-0.43-0.57-1.1-0.93-1.86-0.93l0,0
					c-1.27,0.01-2.31,1.05-2.3,2.32l0.06,11.09c0.01,1.27,1.05,2.31,2.32,2.3l0,0c0.51,0,0.98-0.18,1.36-0.46l0,0l3.97-3.1l0,0
					c0.67-0.41,1.12-1.15,1.11-1.98l-0.06-11.09C454.47,159.9,453.42,158.86,452.15,158.87z"/>
				<path class="st4" d="M448.97,157.99l-38.87,25.59c-2.01,1.37-2.59,4.28-1.29,6.47v0c1.3,2.18,4.01,2.85,6.02,1.47l11.89-8.12
					c0.05-0.03,0.1-0.06,0.15-0.1l27.71-18.93C461.47,160.21,456.1,152.68,448.97,157.99z"/>
				<path class="st11" d="M410.94,191.08L410.94,191.08c-1.3-2.18-0.72-5.09,1.29-6.47l38.87-25.59c2.11-1.57,4.07-2.02,5.6-1.76
					c-1.51-1.44-4.43-1.74-7.73,0.72l-38.87,25.59c-2.01,1.37-2.59,4.28-1.29,6.47v0c0.71,1.18,1.83,1.92,3.03,2.13
					C411.5,191.87,411.2,191.5,410.94,191.08z"/>
				<path class="st11" d="M405.76,196.78c0.01,0.11,0.02,0.23,0.02,0.35c0.01,2.48-1.95,5.48-4.39,6.69
					c-1.29,0.64-2.46,0.66-3.27,0.16c0.19,2.22,2.1,3.1,4.42,1.94c2.44-1.21,4.4-4.21,4.39-6.69
					C406.92,198.07,406.48,197.22,405.76,196.78z"/>
				<path class="st11" d="M406.72,175.52c-8.27,4.12-14.94,14.29-14.89,22.72c0.01,2.84,0.79,5.13,2.13,6.74
					c1.4,1.69,7.2,4.65,7.2,4.65c2.11,0.1,3.16-2.32,5.72-3.59c8.27-4.12,14.94-14.29,14.89-22.72c-0.01-1.81,2.17-3.84,1.19-4.88
					c-1.67-1.77-4.23-3.09-5.94-3.88C414.33,173.32,410.7,173.54,406.72,175.52z M402.93,205.72c-2.44,1.21-5.71,0.32-5.72-2.16
					c-0.01-2.48,3.39-8.86,5.83-10.07c2.44-1.21,4.27,3.06,4.28,5.54C407.33,201.51,405.37,204.51,402.93,205.72z"/>
				<path class="st5" d="M410.43,177.81c-8.27,4.12-14.94,14.29-14.89,22.72s6.78,11.92,15.05,7.79s14.94-14.29,14.89-22.72
					C425.43,177.18,418.69,173.69,410.43,177.81z M402.53,205.93c-2.44,1.21-4.42,0.19-4.43-2.3c-0.01-2.48,1.95-5.48,4.39-6.69
					c2.44-1.21,4.42-0.19,4.43,2.3C406.93,201.72,404.97,204.71,402.53,205.93z"/>
				<path class="st74" d="M402.2,209.9c2.4,0.45,5.28-0.02,8.38-1.57c8.27-4.12,14.94-14.29,14.89-22.72
					c-0.02-3.76-1.37-6.54-3.61-8.1C419.17,193.33,412.14,203.5,402.2,209.9z"/>
			</g>
		</g>
		<g>
			<g>
				<g>
					<polygon class="st64" points="290.79,322.83 248.66,298.5 290.53,274.33 333.08,298.6 					"/>
					<polygon class="st31" points="290.79,284.68 248.66,260.36 290.53,236.19 333.08,260.46 					"/>
					<g>
						<polygon class="st13" points="290.79,284.68 290.85,315.64 248.72,291.32 248.72,260.36 						"/>
					</g>
					<g>
						<polygon class="st24" points="290.79,284.68 333.08,260.46 333.08,289.96 290.05,315.74 						"/>
					</g>
				</g>
				<polygon class="st7" points="283.72,305.57 275.3,300.68 275.3,294.37 283.72,299.27 				"/>
				<polygon class="st7" points="272.54,299.27 264.13,294.37 264.13,282.79 272.54,287.69 				"/>
				<polygon class="st7" points="252.95,288.07 261.37,292.97 261.37,273.62 252.95,268.73 				"/>
			</g>
			<g>
				<path class="st32" d="M309.27,253.08c-8.6-5.16-22.68-5.39-31.45-0.52c-8.77,4.87-8.9,13-0.3,18.16
					c8.6,5.16,22.53,5.4,31.46,0.63C318.79,266.1,317.87,258.24,309.27,253.08z"/>
				<path class="st11" d="M305.37,251.3c-8.17-4.9-21.54-5.12-29.87-0.5c-8.33,4.63-8.46,12.35-0.29,17.25
					c8.17,4.9,21.4,5.13,29.88,0.59C314.42,263.66,313.54,256.2,305.37,251.3z"/>
				<g>
					<path class="st5" d="M305.09,244.84c-8.17-4.9-21.54-5.12-29.87-0.5c-8.33,4.63-8.46,12.35-0.29,17.25
						c8.17,4.9,21.4,5.13,29.88,0.59C314.13,257.2,313.25,249.74,305.09,244.84z"/>
					<path class="st7" d="M283.74,258.46c-1.06,0-2.08-0.5-2.73-1.36c-0.74-0.98-0.9-2.28-0.42-3.4l3.41-7.99
						c0.74-1.74,2.75-2.54,4.49-1.8c1.74,0.74,2.54,2.75,1.8,4.49l-1.07,2.51l13.79-1.74c1.89-0.24,3.58,1.09,3.82,2.96
						c0.24,1.87-1.09,3.58-2.96,3.82l-19.7,2.48C284.02,258.45,283.88,258.46,283.74,258.46z"/>
				</g>
			</g>
		</g>
		<g>
			<path class="st13" d="M412.6,55.04c0.08-5.79-2.61-10.96-7.04-13.54L336.84,1.43c-3.76-2.19-6.91,0.66-6.98,6.33l-0.69,50.87
				c-0.07,5.37,2.42,10.16,6.53,12.56l63.13,36.8c5.76,3.36,13.09-1.85,13.19-9.38L412.6,55.04z"/>
			<path class="st7" d="M392.8,93.32l-48.51-28c-2.41-1.39-4.38-5.16-4.38-8.37v-6.32c0-3.21,1.97-4.7,4.38-3.31l48.51,28.01
				c2.41,1.39,4.38,5.16,4.38,8.37v6.32C397.17,93.22,395.2,94.71,392.8,93.32z"/>
			<path class="st7" d="M392.8,65.18l-48.51-28c-2.41-1.39-4.38-5.16-4.38-8.37v-6.32c0-3.21,1.97-4.7,4.38-3.31l48.51,28.01
				c2.41,1.39,4.38,5.16,4.38,8.37v6.32C397.17,65.08,395.2,66.57,392.8,65.18z"/>
			<g>
				<g>
					<polygon class="st4" points="353.5,62.45 352.14,61.69 353.11,61.17 352.16,59.58 351.19,60.11 351.2,58.61 349.84,57.86 
						349.83,59.36 348.87,57.76 347.91,58.29 348.86,59.88 347.5,59.13 347.49,60.62 348.85,61.37 347.88,61.9 348.83,63.49 
						349.8,62.96 349.79,64.46 351.15,65.21 351.16,63.71 352.12,65.3 353.08,64.78 352.13,63.19 353.49,63.94 					"/>
				</g>
			</g>
			<g>
				<g>
					<polygon class="st4" points="362.45,67.4 361.08,66.64 362.05,66.11 361.1,64.53 360.13,65.05 360.14,63.55 358.78,62.8 
						358.77,64.31 357.82,62.71 356.85,63.23 357.81,64.83 356.44,64.07 356.43,65.57 357.8,66.32 356.82,66.85 357.77,68.43 
						358.75,67.9 358.74,69.41 360.09,70.16 360.1,68.66 361.06,70.25 362.03,69.73 361.07,68.13 362.44,68.89 					"/>
				</g>
			</g>
			<g>
				<g>
					<polygon class="st4" points="371.39,72.34 370.02,71.59 371,71.06 370.05,69.47 369.07,70 369.08,68.5 367.73,67.75 
						367.72,69.25 366.76,67.66 365.79,68.18 366.75,69.77 365.38,69.02 365.37,70.51 366.74,71.27 365.76,71.79 366.72,73.38 
						367.69,72.85 367.68,74.35 369.04,75.1 369.05,73.6 370,75.2 370.97,74.67 370.01,73.08 371.38,73.83 					"/>
				</g>
			</g>
			<g>
				<g>
					<polygon class="st4" points="380.33,77.29 378.97,76.53 379.94,76 378.99,74.42 378.02,74.95 378.03,73.45 376.67,72.7 
						376.66,74.2 375.7,72.6 374.74,73.13 375.69,74.72 374.33,73.97 374.32,75.46 375.68,76.21 374.71,76.74 375.66,78.32 
						376.63,77.8 376.62,79.3 377.98,80.05 377.99,78.55 378.95,80.14 379.91,79.62 378.96,78.02 380.32,78.78 					"/>
				</g>
			</g>
			<g>
				<g>
					<polygon class="st4" points="389.28,82.23 387.91,81.48 388.88,80.95 387.93,79.37 386.96,79.89 386.97,78.39 385.61,77.64 
						385.6,79.14 384.65,77.55 383.68,78.07 384.64,79.67 383.27,78.91 383.26,80.4 384.63,81.16 383.65,81.68 384.6,83.27 
						385.58,82.74 385.57,84.24 386.92,84.99 386.93,83.49 387.89,85.09 388.86,84.56 387.9,82.97 389.27,83.72 					"/>
				</g>
			</g>
			<g>
				<g>
					<path class="st4" d="M389.68,55.72L347.4,31.31c-0.93-0.54-1.69-1.99-1.69-3.23v0c0-1.24,0.76-1.82,1.69-1.28l42.28,24.41
						c0.93,0.54,1.69,1.99,1.69,3.23l0,0C391.37,55.68,390.61,56.25,389.68,55.72z"/>
				</g>
			</g>
			<g>
				<path class="st4" d="M421.6,56.93c1.3-6.79-2.25-15.64-7.92-19.77c-2.61-1.9-5.21-2.47-7.39-1.87l0,0l-0.02,0.01
					c-0.29,0.08-0.58,0.19-0.86,0.31l-5.18,2.08l2.55,0.09c-0.8,1.09-1.39,2.5-1.71,4.19c-1.3,6.79,2.25,15.64,7.92,19.77
					c1.16,0.85,2.32,1.42,3.44,1.76l0.45,1.49l3.61-1.4c0.2-0.06,0.39-0.13,0.58-0.21l0.06-0.02l0,0
					C419.31,62.43,420.97,60.23,421.6,56.93z"/>
				<path class="st11" d="M416.87,58.79c-1.3,6.79-6.94,8.95-12.62,4.82c-5.67-4.13-9.22-12.98-7.92-19.77
					c1.3-6.79,6.94-8.95,12.62-4.82C414.62,43.14,418.17,52,416.87,58.79z"/>
				<path class="st7" d="M413.64,44.18c-3.21,2.88-6.43,5.76-9.64,8.63c-0.47,0.42-0.93,0.84-1.4,1.26
					c1.37,0.18,2.74,0.35,4.11,0.53c-1.06-2.5-2.13-5-3.19-7.5c-0.54-1.27-2.5-1.64-3.58-0.94c-1.32,0.85-1.52,2.23-0.94,3.58
					c1.06,2.5,2.13,5,3.19,7.5c0.7,1.65,3,1.52,4.11,0.53c3.21-2.88,6.43-5.76,9.64-8.63c0.47-0.42,0.93-0.84,1.4-1.26
					c1.02-0.92,1-2.78,0-3.7C416.25,43.17,414.73,43.2,413.64,44.18L413.64,44.18z"/>
			</g>
		</g>
	</g>
</g>
</svg>
