<?xml version="1.0" encoding="utf-8"?>
<!-- Generator: Adobe Illustrator 26.0.3, SVG Export Plug-In . SVG Version: 6.00 Build 0)  -->
<svg version="1.1" id="Layer_1" xmlns="http://www.w3.org/2000/svg" xmlns:xlink="http://www.w3.org/1999/xlink" x="0px" y="0px"
	 viewBox="0 0 569 459.6" style="enable-background:new 0 0 569 459.6;" xml:space="preserve">
<style type="text/css">
	.st0{fill:#FFE3A3;stroke:#FFFFFF;stroke-width:7.6103;stroke-miterlimit:10;}
	.st1{fill:#F0F4FF;}
	.st2{fill:#BAD4F5;}
	.st3{fill:#8E98C2;}
	.st4{fill:#6D7CFF;}
	.st5{fill:#8A96FF;}
	.st6{fill:#F5F5F7;}
	.st7{fill:#FFFFFF;}
	.st8{fill:#A3A7BF;}
	.st9{fill:none;stroke:#6D7CFF;stroke-width:1.5818;stroke-linecap:round;stroke-linejoin:round;stroke-miterlimit:10;}
	.st10{fill:#425399;}
	.st11{fill:#485BFF;}
	.st12{fill:#A3E9D2;stroke:#FFFFFF;stroke-width:7.6103;stroke-miterlimit:10;}
	.st13{fill:#DADEFF;}
	.st14{fill:#DBEFFF;}
	.st15{opacity:0.29;}
	.st16{fill:none;stroke:#FFFFFF;stroke-width:1.6117;stroke-linecap:round;stroke-linejoin:round;stroke-miterlimit:10;}
	.st17{fill:#E68143;}
	.st18{fill:#D3DAE3;}
	.st19{fill:#E6F0FF;}
	.st20{fill:#F5F9FF;}
	.st21{fill:none;stroke:#425399;stroke-width:2.9136;stroke-linecap:round;stroke-linejoin:round;stroke-miterlimit:10;}
	.st22{fill:#C1AFE5;stroke:#FFFFFF;stroke-width:7.6103;stroke-miterlimit:10;}
	.st23{fill:#FFB2A3;stroke:#FFFFFF;stroke-width:7.6103;stroke-miterlimit:10;}
	.st24{fill:#D3D5E9;}
	.st25{fill:#919DFF;}
	.st26{fill:#DFE3FF;}
	.st27{fill:#CAD0FF;}
	.st28{fill:#A7B0FF;}
	.st29{fill:#EFEFEF;}
	.st30{fill:#F7F7F7;}
	.st31{fill:#E9EBFF;}
	.st32{opacity:0.29;fill:#A8C4E5;}
	.st33{fill:none;stroke:#FFFFFF;stroke-width:9.5079;stroke-linecap:round;stroke-linejoin:round;stroke-miterlimit:10;}
	.st34{fill:#A3DFFF;stroke:#FFFFFF;stroke-width:7.6103;stroke-miterlimit:10;}
	.st35{opacity:0.39;fill:#DADEFF;}
	.st36{fill:#4A39E3;}
	.st37{fill:none;stroke:#FFFFFF;stroke-width:1.3412;stroke-linecap:round;stroke-linejoin:round;stroke-miterlimit:10;}
	.st38{fill:none;stroke:#6D7CFF;stroke-width:1.4858;stroke-linecap:round;stroke-linejoin:round;stroke-miterlimit:10;}
	.st39{fill:#8AACCE;}
	.st40{fill:none;stroke:#485BFF;stroke-width:0.8675;stroke-linecap:round;stroke-linejoin:round;stroke-miterlimit:10;}
	.st41{fill:#DADEFF;stroke:#FFFFFF;stroke-width:0.6782;stroke-miterlimit:10;}
	.st42{fill:#E69AB7;stroke:#FFFFFF;stroke-width:7.6103;stroke-miterlimit:10;}
	.st43{fill:#485BE4;}
	.st44{fill:url(#SVGID_1_);}
	.st45{fill:url(#SVGID_00000123440341330558605960000006519547748320759953_);}
	.st46{fill:url(#SVGID_00000089544169342324740120000014062029675989627308_);}
	.st47{fill:#271C8C;}
	.st48{fill:none;stroke:#425399;stroke-width:2.4459;stroke-linecap:round;stroke-linejoin:round;stroke-miterlimit:10;}
	.st49{fill:#B6BDFD;}
	.st50{fill:url(#SVGID_00000022529534800242232300000002090958687484114340_);}
	.st51{opacity:0.11;fill:#584BCC;}
	.st52{fill:#382E99;}
	.st53{fill:#414DBE;}
	.st54{fill:none;stroke:#A8A0FA;stroke-width:1.6099;stroke-linecap:round;stroke-linejoin:round;stroke-miterlimit:10;}
	.st55{fill:none;stroke:#FFFDFC;stroke-width:2.4459;stroke-linecap:round;stroke-linejoin:round;stroke-miterlimit:10;}
	.st56{fill:#BEF4FA;stroke:#FFFFFF;stroke-width:7.6103;stroke-miterlimit:10;}
	.st57{fill:#C6D2F2;}
	.st58{fill:#FFC2B0;}
	.st59{fill:#B6BDFF;}
	.st60{fill:#A8C4E5;}
	.st61{fill:#E1EAF4;}
	.st62{fill:#F09A82;}
	.st63{fill:#21DED5;}
	.st64{opacity:0.39;fill:#A7BCF5;}
	.st65{fill:#4558A3;}
	.st66{fill:url(#SVGID_00000053515901232887718160000016309059906784295828_);}
	.st67{opacity:0.22;fill:#2C1F9C;}
	.st68{fill:#4A5375;}
	.st69{fill:#D9E9FF;}
	.st70{fill:none;stroke:#FFFFFF;stroke-width:1.9095;stroke-linecap:round;stroke-linejoin:round;stroke-miterlimit:10;}
	.st71{fill:#CED2EF;}
	.st72{fill:#2C1F9C;}
	.st73{fill:none;stroke:#A7BCF5;stroke-width:1.9875;stroke-linecap:round;stroke-linejoin:round;stroke-miterlimit:10;}
	.st74{fill:#6676FF;}
	.st75{fill:none;stroke:#FFFFFF;stroke-width:6.8391;stroke-linecap:round;stroke-linejoin:round;stroke-miterlimit:10;}
	.st76{fill:#DBDEE8;stroke:#FFFFFF;stroke-width:7.6103;stroke-miterlimit:10;}
	.st77{fill:url(#SVGID_00000113331469406057792020000000865791750023800735_);}
	.st78{fill:none;stroke:#CFD4E9;stroke-width:0.6062;stroke-linecap:round;stroke-linejoin:round;stroke-miterlimit:10;}
	.st79{fill:#CFD4E9;}
	.st80{fill:none;stroke:#FFFFFF;stroke-width:0.6183;stroke-linecap:round;stroke-linejoin:round;stroke-miterlimit:10;}
	.st81{fill:#AFB7DB;}
	.st82{fill:none;stroke:#FFFFFF;stroke-width:5.3911;stroke-linecap:round;stroke-linejoin:round;stroke-miterlimit:10;}
	.st83{fill:#FCD1FF;stroke:#FFFFFF;stroke-width:7.6103;stroke-miterlimit:10;}
	.st84{fill:#4432DB;}
	.st85{fill:#6875AD;}
	.st86{fill:#1A3EA1;}
	.st87{fill:none;stroke:#DADEFF;stroke-width:0.519;stroke-linecap:round;stroke-linejoin:round;stroke-miterlimit:10;}
	.st88{fill:none;stroke:#425399;stroke-width:0.5656;stroke-linecap:round;stroke-linejoin:round;stroke-miterlimit:10;}
	.st89{fill:none;stroke:#6D7CFF;stroke-width:2.8281;stroke-linecap:round;stroke-linejoin:round;stroke-miterlimit:10;}
	.st90{fill:none;stroke:#FFFFFF;stroke-width:0.6167;stroke-linecap:round;stroke-linejoin:round;stroke-miterlimit:10;}
	.st91{fill:#F0F2FF;}
	.st92{opacity:0.4;fill:#A8C4E5;}
	.st93{fill:#323E73;}
	.st94{fill:#BAD4FF;}
	.st95{fill:#324DED;}
	.st96{fill:#ADB7F2;}
	.st97{fill:none;stroke:#FFFFFF;stroke-width:0.6957;stroke-linecap:round;stroke-linejoin:round;stroke-miterlimit:10;}
	.st98{fill:none;stroke:#FFFFFF;stroke-width:2.8923;stroke-linecap:round;stroke-linejoin:round;stroke-miterlimit:10;}
	.st99{fill:#FFE3A3;}
	.st100{fill:#A3E9D2;}
	.st101{fill:#C1AFE5;}
	.st102{fill:#A3DFFF;}
	.st103{fill:#FFB2A3;}
	.st104{fill:#E69AB7;}
	.st105{fill:url(#SVGID_00000058570796624657924640000013453466800498916023_);}
	.st106{fill:url(#SVGID_00000012457803717036568980000016637099296397160074_);}
	.st107{fill:url(#SVGID_00000121253498846205900380000017090961928577669309_);}
	.st108{fill:url(#SVGID_00000096754205675059835180000009125388527055857802_);}
	.st109{fill:#A8A0FA;}
	.st110{fill:#FFFDFC;}
	.st111{fill:#BEF4FA;}
	.st112{fill:url(#SVGID_00000111151379278895472940000013412938817418791573_);}
	.st113{fill:#A7BCF5;}
	.st114{fill:#DBDEE8;}
	.st115{fill:url(#SVGID_00000084497385052509211220000005815556843688802472_);}
	.st116{fill:#FCD1FF;}
	.st117{fill:none;stroke:#FF73CE;stroke-width:3;stroke-miterlimit:10;}
</style>
<g>
	<g>
		<polygon class="st100" points="565.2,133.3 565.2,455.8 3.8,455.8 3.8,68.1 496.8,68.1 		"/>
		<path class="st7" d="M569,459.6H0V64.3h498.3l70.6,67.4V459.6z M7.6,452h553.8V135l-66.1-63.1H7.6V452z"/>
	</g>
	<g>
		<g>
			<path class="st13" d="M291.5,167.7l-108.8-62c-2.5-1.4-3.9-4.9-3.1-7.6l23.4-77.9c0.8-2.7,3.6-3.8,6.1-2.4l108.8,62
				c2.5,1.4,3.9,4.9,3.1,7.6l-23.4,77.9C296.8,168.1,294.1,169.2,291.5,167.7z"/>
			<path class="st11" d="M318,79.9l-109-62c-2.5-1.4-5.2-0.3-6.1,2.5l-4.6,15.4L316.4,103l4.6-15.4C321.8,84.8,320.5,81.4,318,79.9z
				"/>
			<ellipse transform="matrix(0.9136 -0.4065 0.4065 0.9136 5.4906 88.8401)" class="st7" cx="211.8" cy="31.5" rx="2.9" ry="3.7"/>
			<path class="st7" d="M223.6,38.2c-0.5,1.7-2.3,2.4-3.9,1.5c-1.6-0.9-2.5-3.1-2-4.8c0.5-1.7,2.3-2.4,3.9-1.5
				C223.2,34.3,224.1,36.4,223.6,38.2z"/>
			<path class="st7" d="M232.4,43.2c-0.5,1.7-2.3,2.4-3.9,1.5c-1.6-0.9-2.5-3.1-2-4.8c0.5-1.7,2.3-2.4,3.9-1.5
				C232.1,39.3,233,41.5,232.4,43.2z"/>
			<path class="st7" d="M223,92.5l-23.5-13.4c-2.6-1.5-4-5-3.2-7.8l4.6-15.4c0.8-2.8,3.6-3.9,6.2-2.4l23.5,13.4c2.6,1.5,4,5,3.2,7.8
				l-4.6,15.4C228.4,92.9,225.6,94,223,92.5z"/>
			<path class="st7" d="M296.8,114.1l-48.1-27.4c-2.1-1.2-3.3-4-2.6-6.3l0,0c0.7-2.3,2.9-3.2,5-2l48.1,27.4c2.1,1.2,3.3,4,2.6,6.3
				l0,0C301.2,114.5,298.9,115.3,296.8,114.1z"/>
			<path class="st7" d="M291.2,132.8l-48.1-27.4c-2.1-1.2-3.3-4-2.6-6.3l0,0c0.7-2.3,2.9-3.2,5-2l48.1,27.4c2.1,1.2,3.3,4,2.6,6.3
				l0,0C295.6,133.1,293.3,134,291.2,132.8z"/>
			<path class="st7" d="M285.6,151.4l-94.3-53.7c-2.1-1.2-3.3-4-2.6-6.3v0c0.7-2.3,2.9-3.2,5-2l94.3,53.7c2.1,1.2,3.3,4,2.6,6.3l0,0
				C290,151.7,287.7,152.6,285.6,151.4z"/>
			<path class="st4" d="M227.4,92.6l-2.9-15.9c-0.4-2-2.3-3.3-3.8-2.4l-8,4.8l-2.4-6.5c-0.6-1.6-2.2-2.6-3.5-2l-10.2,4.7
				c0.5,1.6,1.6,3,3,3.8L223,92.5C224.6,93.4,226.1,93.3,227.4,92.6z"/>
			
				<ellipse transform="matrix(0.9136 -0.4065 0.4065 0.9136 -6.6277 89.5629)" class="st4" cx="207.5" cy="60.4" rx="2.9" ry="3.7"/>
		</g>
		<path class="st1" d="M270.3,397.4l-140.7-81.2c-7.2-4.2-7.2-14.6,0-18.8l143.2-82.7c7.4-4.3,16.6-4.3,24,0L441.1,298
			c7.2,4.2,7.2,14.6,0,18.8l-139.6,80.6C291.8,403,280,403,270.3,397.4z"/>
		<path class="st3" d="M351.6,353.5l-129.9-73.7c-5.3-3-6.6-7.2-2.9-9.4l23.6-14c3.7-2.2,11-1.5,16.3,1.5l129.9,73.7
			c5.3,3,6.6,7.2,2.9,9.4L368,355C364.3,357.2,357,356.5,351.6,353.5z"/>
		<g>
			<g>
				<path class="st13" d="M326.9,301.2c0,0-0.9,0.5-1,0.6c0,0-0.4,0.4-0.5,0.5c-0.1,0.1-0.5,0.4-0.6,0.4
					c-0.2,0.1-41.6,25.5-41.6,25.5l-0.4,6.5l41-25c0.4,0,0.6-0.1,0.8-0.3c0.1,0,0.1-0.1,0.2-0.2c0.1-0.1,0.3-0.2,0.4-0.3
					c0,0,0,0,0,0c0.2-0.1,0.3-0.3,0.4-0.4c0,0,0.1-0.1,0.1-0.1c0,0,0.1-0.1,0.1-0.1c0,0,0.1-0.1,0.1-0.1c0.1-0.1,0.2-0.2,0.2-0.3
					c0,0,0.1-0.1,0.1-0.1c0,0,0-0.1,0-0.1c0.1-0.1,0.1-0.2,0.2-0.3c0,0,0.1-0.1,0.1-0.1c0,0,0-0.1,0-0.1c0-0.1,0.1-0.2,0.1-0.3
					c0-0.1,0-0.1,0.1-0.2c0,0,0,0,0-0.1c0-0.1,0-0.2,0-0.3c0-0.1,0-0.1,0-0.2c0,0,0-0.1,0-0.1L326.9,301.2z"/>
				<path class="st13" d="M282.9,328.2c-0.3,0.2-0.6,0.3-0.9,0.4c-0.1,0-0.2,0.1-0.3,0.1c-0.3,0.1-0.7,0.3-1,0.4c0,0,0,0-0.1,0
					c-0.3,0.1-0.6,0.2-0.9,0.3c0,0-0.1,0-0.1,0c-0.3,0.1-0.5,0.1-0.8,0.2c0,0-0.1,0-0.1,0c-0.3,0.1-0.7,0.1-1,0.2
					c-0.1,0-0.3,0-0.4,0c-0.2,0-0.4,0-0.6,0.1c-0.1,0-0.3,0-0.4,0c-0.2,0-0.4,0-0.5,0c-0.2,0-0.3,0-0.5,0c-0.2,0-0.3,0-0.5,0
					c-0.2,0-0.3,0-0.5,0c-0.2,0-0.3,0-0.5,0c-0.2,0-0.3,0-0.4-0.1c-0.2,0-0.3-0.1-0.5-0.1c-0.1,0-0.3,0-0.4-0.1
					c-0.2,0-0.4-0.1-0.6-0.1c-0.1,0-0.2-0.1-0.3-0.1c-0.4-0.1-0.7-0.2-1-0.3c-0.2-0.1-0.3-0.1-0.5-0.2c-0.1,0-0.2-0.1-0.2-0.1
					c-0.2-0.1-0.5-0.2-0.7-0.4l-30.4-17.2c-1.9-1.1-2.9-0.5-2.8-1.9l-0.2,4.6c-0.1,1.4,0.8,2.8,2.7,3.9l30.4,17.2
					c0.2,0.1,0.5,0.2,0.7,0.4c0.1,0,0.2,0.1,0.2,0.1c0.1,0.1,0.3,0.1,0.4,0.2c0,0,0,0,0.1,0c0.3,0.1,0.7,0.2,1,0.3c0,0,0,0,0.1,0
					c0.1,0,0.2,0,0.3,0.1c0.2,0,0.4,0.1,0.6,0.1c0,0,0.1,0,0.1,0c0.1,0,0.2,0,0.3,0c0.2,0,0.3,0.1,0.5,0.1c0.1,0,0.1,0,0.2,0
					c0.1,0,0.2,0,0.3,0c0.2,0,0.3,0,0.5,0c0.1,0,0.1,0,0.2,0c0.1,0,0.2,0,0.3,0c0.2,0,0.3,0,0.5,0c0.1,0,0.1,0,0.2,0
					c0.1,0,0.2,0,0.3,0c0.2,0,0.3,0,0.5,0c0.1,0,0.1,0,0.2,0c0.1,0,0.1,0,0.2,0c0.2,0,0.4,0,0.6-0.1c0.1,0,0.2,0,0.2,0
					c0,0,0.1,0,0.1,0c0.3,0,0.7-0.1,1-0.2c0,0,0.1,0,0.1,0c0,0,0,0,0,0c0.3-0.1,0.5-0.1,0.8-0.2c0,0,0.1,0,0.1,0
					c0.3-0.1,0.6-0.2,0.9-0.3c0,0,0,0,0,0c0,0,0,0,0,0c0.3-0.1,0.7-0.3,1-0.4c0.1,0,0.2-0.1,0.3-0.1c0.3-0.1,0.6-0.3,0.9-0.4
					c0,0,0.1,0,0.1-0.1c0,0,0,0,0.1,0l0.3-6.6C283,328.1,283,328.2,282.9,328.2z"/>
				<g>
					<path class="st7" d="M324.1,297.4c3.6,2.1,3.6,5.5-0.1,7.8l-41,25c-3.8,2.3-10.1,2.5-13.9,0.4l-30.4-17.2
						c-3.8-2.1-3.6-5.8,0.5-8l43.3-23.7c3.9-2.1,9.9-2.2,13.5-0.1L324.1,297.4z"/>
				</g>
			</g>
			<polygon class="st13" points="253.9,297.3 297.9,321.3 309.3,314.3 267.1,290.2 			"/>
			<g class="st15">
				<polygon class="st13" points="297.9,321.3 297.7,325.6 312.1,317 312.2,312.9 				"/>
			</g>
		</g>
		<path class="st4" d="M409.1,208l-150.7-83.7h0c0,0,0,0,0,0l-0.3-0.2c0,0,0,0,0,0c-0.2-0.1-0.5-0.3-0.5-0.3c-0.1,0-0.1-0.1-0.2-0.1
			c-0.1,0-0.1-0.1-0.2-0.1c-0.1,0-0.1-0.1-0.2-0.1c-0.1,0-0.1-0.1-0.2-0.1c-0.1,0-0.1-0.1-0.2-0.1c-0.1,0-0.2,0-0.2-0.1c0,0,0,0,0,0
			c0,0,0,0,0,0c0,0,0,0,0,0c-0.1,0-0.1,0-0.2,0c0,0-0.1,0-0.1,0c0,0-0.1,0-0.1,0c0,0,0,0-0.1,0c-0.1,0-0.2,0-0.3,0c0,0,0,0,0,0
			c0,0,0,0,0,0c-0.1,0-0.2,0-0.3,0c0,0,0,0,0,0c0,0-0.1,0-0.1,0c-0.1,0-0.1,0-0.2,0c0,0,0,0,0,0c-0.1,0-0.1,0-0.2,0c0,0-0.1,0-0.1,0
			c0,0,0,0,0,0c-0.1,0-0.3,0-0.4,0.1c0,0,0,0,0,0c0,0,0,0,0,0c-0.2,0-0.4,0.1-0.5,0.2l-3.8,0.9c0.2-0.1-1,1.5-0.9,1.5
			c0,0,0.1,0,0.1,0c0.1,0,0.3,0,0.4,0.1c0,0,0,0,0,0c0.2,0,0.3,0.1,0.5,0.1c0,0,0,0,0,0c0.2,0,0.3,0.1,0.5,0.2c0,0,0,0,0,0
			c0.2,0.1,0.3,0.1,0.5,0.2c0.1,0,0.1,0.1,0.2,0.1c0.1,0,0.1,0.1,0.2,0.1l1.1,0.6l0,0l154.9,86.3C407.5,213.7,409.6,208.2,409.1,208
			z M256.4,124.5L256.4,124.5L256.4,124.5L256.4,124.5z"/>
		<path class="st4" d="M412.8,214.4C412.8,214.4,412.8,214.4,412.8,214.4c0-0.1,0-0.1,0-0.2c0-0.1,0-0.1,0-0.2c0,0,0,0,0,0
			c0,0,0,0,0,0c0,0,0-0.1,0-0.1c0-0.1,0-0.1,0-0.2c0,0,0-0.1,0-0.1c0,0,0,0,0,0c0,0,0,0,0-0.1c0-0.1,0-0.1,0-0.2c0-0.1,0-0.1,0-0.2
			c0,0,0,0,0,0c0,0,0,0,0,0c0-0.1,0-0.1,0-0.2c0-0.1,0-0.1,0-0.2c0,0,0,0,0-0.1c0,0,0,0,0,0c0,0,0-0.1,0-0.1c0-0.1,0-0.1-0.1-0.2
			c0,0,0-0.1,0-0.1c0,0,0,0,0,0c0,0,0,0,0,0c0-0.1,0-0.1-0.1-0.2c0-0.1,0-0.1-0.1-0.2c0,0,0,0,0-0.1c0,0,0,0,0,0c0,0,0,0,0-0.1
			c0-0.1-0.1-0.1-0.1-0.2c0-0.1-0.1-0.1-0.1-0.2c0,0,0,0,0,0c0,0,0,0,0,0c0-0.1-0.1-0.1-0.1-0.2c0-0.1-0.1-0.1-0.1-0.2
			c0,0,0-0.1-0.1-0.1c0,0,0,0,0-0.1c-0.1-0.1-0.1-0.2-0.2-0.3c0,0,0-0.1-0.1-0.1c0,0,0,0,0,0c-0.1-0.1-0.2-0.2-0.2-0.3c0,0,0,0,0,0
			c0,0,0,0,0,0c0,0-0.1-0.1-0.1-0.1c0-0.1-0.1-0.1-0.2-0.2c0,0,0,0-0.1-0.1c0,0,0,0,0,0c0,0,0,0-0.1-0.1c-0.1-0.1-0.1-0.1-0.2-0.2
			c0,0-0.1-0.1-0.1-0.1c0,0,0,0,0,0c0,0,0,0,0,0c-0.1-0.1-0.1-0.1-0.2-0.2c-0.1-0.1-0.1-0.1-0.2-0.2c0,0,0,0,0,0c0,0,0,0,0,0
			c-0.1-0.1-0.1-0.1-0.2-0.2c-0.1-0.1-0.1-0.1-0.2-0.2c0,0,0,0,0,0c0,0,0,0,0,0c0,0-0.1-0.1-0.1-0.1c-0.1,0-0.1-0.1-0.2-0.1
			c0,0,0,0-0.1,0c0,0,0,0,0,0c0,0,0,0,0,0c0,0-0.1-0.1-0.1-0.1c-0.1,0-0.1-0.1-0.2-0.1c0,0-1.1-0.6-1.1-0.6l-6.7,2.6
			c0,0,1.5,0.8,1.5,0.8c0.1,0,0.1,0.1,0.2,0.1c0.1,0,0.1,0.1,0.2,0.1c0.1,0,0.1,0.1,0.2,0.1c0,0,0.1,0,0.1,0.1
			c0.1,0.1,0.2,0.2,0.3,0.2l0,0l0,0c0.1,0.1,0.2,0.2,0.3,0.3c0,0,0,0,0,0c0.1,0.1,0.2,0.2,0.3,0.3c0,0,0,0,0,0
			c0.1,0.1,0.2,0.2,0.2,0.3c0,0,0,0,0,0.1c0.1,0.1,0.2,0.2,0.2,0.3c0,0,0.1,0.1,0.1,0.2c0,0.1,0.1,0.1,0.1,0.2
			c0,0.1,0.1,0.1,0.1,0.2c0,0,0.1,0.1,0.1,0.1c0,0,0,0.1,0.1,0.1c0,0.1,0.1,0.2,0.1,0.2c0,0,0,0,0,0.1c0.1,0.1,0.1,0.2,0.2,0.3
			c0,0,0,0,0,0c0.1,0.1,0.1,0.2,0.1,0.3c0,0,0,0,0,0c0,0.1,0.1,0.2,0.1,0.3c0,0,0,0,0,0c0,0.1,0.1,0.2,0.1,0.3c0,0,0,0,0,0.1
			c0,0.1,0.1,0.2,0.1,0.3c0,0,0,0,0,0.1c0,0.1,0,0.2,0,0.3c0,0,0,0,0,0c0,0.1,0,0.2,0,0.3c0,0,0,0,0,0c0,0.1,0,0.2,0,0.3
			c0,0.1,0,0.1,0,0.2c0,0.1,0,0.1,0,0.2c0,0.1,0,0.1,0,0.2c0,0.1,0,0.1,0,0.2c0,0.1,0,0.1,0,0.2c0,0.1,0,0.1,0,0.2
			c0,0,0,0.1-0.1,0.3l-37.8,127.1l5.1-3.1c1.2-0.7,2-1.7,2.4-2.9l36.5-122.9c0.2-0.5,0.4-1.3,0.4-1.3c0-0.1,0-0.1,0-0.2
			c0,0,0-0.1,0-0.1c0,0,0,0,0,0c0,0,0,0,0,0c0,0,0,0,0,0c0-0.1,0-0.1,0-0.2C412.8,214.6,412.8,214.5,412.8,214.4
			C412.8,214.5,412.8,214.4,412.8,214.4z"/>
		<g>
		</g>
		<g>
			<path class="st7" d="M371.9,341.4c-1.1,4-6.9,6.1-10.7,4l-147.5-82.2c-2.7-1.5-4.4-4.8-3.6-7.4l33.8-115.6
				c0.7-2.5,3.6-3.4,6.3-1.9l155.1,86.4L371.9,341.4z"/>
		</g>
		<g>
			<path class="st5" d="M377.1,323.4c-1.8,6-10.3,9.2-16.1,6.1l-143.8-79.8c-2.7-1.5-4.4-4.8-3.6-7.4l33.8-115.6
				c0.7-2.5,3.6-3.4,6.3-1.9l149.8,83.4c3.6,2,5.4,6.3,4.2,10.3L377.1,323.4z"/>
		</g>
		<g>
			<path class="st6" d="M371.3,315.5c-1.2,3.8-6.6,5.9-10.3,3.9l-136.6-74.7c-2.6-1.4-4.1-4.3-3.5-6.4l29.6-97
				c0.7-2.1,3.3-2.7,5.9-1.3l144.7,78.9L371.3,315.5z"/>
		</g>
		<path class="st7" d="M326.4,171.6c-0.2,1.2-1.3,1.7-2.5,1.1c-1.1-0.6-1.8-2.1-1.6-3.3c0.2-1.2,1.3-1.7,2.5-1.1
			C325.9,168.9,326.6,170.4,326.4,171.6z"/>
		<g>
			<g>
				<polygon class="st11" points="354,280.8 272.6,235.8 287.2,170.9 371,217.4 				"/>
				<polygon class="st17" points="332.5,290.3 251.6,242 267.3,227.7 354,280.8 				"/>
				<polygon class="st18" points="350,281.9 268.5,247.3 282.8,174.5 366.6,220.5 				"/>
				<polygon class="st19" points="344.8,284.9 266.6,237.6 275.9,178.1 359.6,224.1 				"/>
				<polygon class="st20" points="340.5,285.4 260.4,241.7 269.7,182.2 353.4,228.1 				"/>
				<polygon class="st11" points="332,286.6 355.4,275.7 354.1,280.7 332.5,290.3 				"/>
				<polygon class="st10" points="290.2,192 288.1,182.6 267.9,169.2 262.6,170.9 253.9,241.6 328.8,288.1 337.1,285.5 351.1,227.2 
									"/>
				<polygon class="st11" points="261.1,180.5 262.6,170.9 285.3,186.4 287.7,197.2 				"/>
				<polygon class="st11" points="332.5,290.3 251.1,245.3 261.1,180.5 347,230.4 				"/>
			</g>
			<g>
				<polygon class="st7" points="299.9,272.3 283.1,263 292.2,227.5 308.8,237.2 				"/>
				<path class="st7" d="M284.2,235l26.7,13.8c1.7,0.9,4.2-1.2,3.6-2.8L304,219.6c-0.5-1.3-2.4-1.4-3.9-0.3l-15.6,12.1
					C283.1,232.5,282.9,234.4,284.2,235z"/>
			</g>
		</g>
		<path class="st10" d="M332.5,291.7c-0.2,0-0.5-0.1-0.7-0.2l-81.4-44.9c-0.7-0.4-1-1.3-0.6-2c0.4-0.7,1.3-1,2-0.6l81.4,44.9
			c0.7,0.4,1,1.3,0.6,2C333.5,291.5,333,291.7,332.5,291.7z"/>
	</g>
</g>
</svg>
