<?xml version="1.0" encoding="utf-8"?>
<!-- Generator: Adobe Illustrator 26.0.3, SVG Export Plug-In . SVG Version: 6.00 Build 0)  -->
<svg version="1.1" id="Layer_1" xmlns="http://www.w3.org/2000/svg" xmlns:xlink="http://www.w3.org/1999/xlink" x="0px" y="0px"
	 viewBox="0 0 569 459.6" style="enable-background:new 0 0 569 459.6;" xml:space="preserve">
<style type="text/css">
	.st0{fill:#FFE3A3;stroke:#FFFFFF;stroke-width:7.6103;stroke-miterlimit:10;}
	.st1{fill:#F0F4FF;}
	.st2{fill:#BAD4F5;}
	.st3{fill:#8E98C2;}
	.st4{fill:#6D7CFF;}
	.st5{fill:#8A96FF;}
	.st6{fill:#F5F5F7;}
	.st7{fill:#FFFFFF;}
	.st8{fill:#A3A7BF;}
	.st9{fill:none;stroke:#6D7CFF;stroke-width:1.5818;stroke-linecap:round;stroke-linejoin:round;stroke-miterlimit:10;}
	.st10{fill:#425399;}
	.st11{fill:#485BFF;}
	.st12{fill:#A3E9D2;stroke:#FFFFFF;stroke-width:7.6103;stroke-miterlimit:10;}
	.st13{fill:#DADEFF;}
	.st14{fill:#DBEFFF;}
	.st15{opacity:0.29;}
	.st16{fill:none;stroke:#FFFFFF;stroke-width:1.6117;stroke-linecap:round;stroke-linejoin:round;stroke-miterlimit:10;}
	.st17{fill:#E68143;}
	.st18{fill:#D3DAE3;}
	.st19{fill:#E6F0FF;}
	.st20{fill:#F5F9FF;}
	.st21{fill:none;stroke:#425399;stroke-width:2.9136;stroke-linecap:round;stroke-linejoin:round;stroke-miterlimit:10;}
	.st22{fill:#C1AFE5;stroke:#FFFFFF;stroke-width:7.6103;stroke-miterlimit:10;}
	.st23{fill:#FFB2A3;stroke:#FFFFFF;stroke-width:7.6103;stroke-miterlimit:10;}
	.st24{fill:#D3D5E9;}
	.st25{fill:#919DFF;}
	.st26{fill:#DFE3FF;}
	.st27{fill:#CAD0FF;}
	.st28{fill:#A7B0FF;}
	.st29{fill:#EFEFEF;}
	.st30{fill:#F7F7F7;}
	.st31{fill:#E9EBFF;}
	.st32{opacity:0.29;fill:#A8C4E5;}
	.st33{fill:none;stroke:#FFFFFF;stroke-width:9.5079;stroke-linecap:round;stroke-linejoin:round;stroke-miterlimit:10;}
	.st34{fill:#A3DFFF;stroke:#FFFFFF;stroke-width:7.6103;stroke-miterlimit:10;}
	.st35{opacity:0.39;fill:#DADEFF;}
	.st36{fill:#4A39E3;}
	.st37{fill:none;stroke:#FFFFFF;stroke-width:1.3412;stroke-linecap:round;stroke-linejoin:round;stroke-miterlimit:10;}
	.st38{fill:none;stroke:#6D7CFF;stroke-width:1.4858;stroke-linecap:round;stroke-linejoin:round;stroke-miterlimit:10;}
	.st39{fill:#8AACCE;}
	.st40{fill:none;stroke:#485BFF;stroke-width:0.8675;stroke-linecap:round;stroke-linejoin:round;stroke-miterlimit:10;}
	.st41{fill:#DADEFF;stroke:#FFFFFF;stroke-width:0.6782;stroke-miterlimit:10;}
	.st42{fill:#E69AB7;stroke:#FFFFFF;stroke-width:7.6103;stroke-miterlimit:10;}
	.st43{fill:#485BE4;}
	.st44{fill:url(#SVGID_1_);}
	.st45{fill:url(#SVGID_00000122702374663180977950000014106542858151318420_);}
	.st46{fill:url(#SVGID_00000136389825594767095690000012464620156675896249_);}
	.st47{fill:#271C8C;}
	.st48{fill:none;stroke:#425399;stroke-width:2.4459;stroke-linecap:round;stroke-linejoin:round;stroke-miterlimit:10;}
	.st49{fill:#B6BDFD;}
	.st50{fill:url(#SVGID_00000120528038842903166070000003261386282800518068_);}
	.st51{opacity:0.11;fill:#584BCC;}
	.st52{fill:#382E99;}
	.st53{fill:#414DBE;}
	.st54{fill:none;stroke:#A8A0FA;stroke-width:1.6099;stroke-linecap:round;stroke-linejoin:round;stroke-miterlimit:10;}
	.st55{fill:none;stroke:#FFFDFC;stroke-width:2.4459;stroke-linecap:round;stroke-linejoin:round;stroke-miterlimit:10;}
	.st56{fill:#BEF4FA;stroke:#FFFFFF;stroke-width:7.6103;stroke-miterlimit:10;}
	.st57{fill:#C6D2F2;}
	.st58{fill:#FFC2B0;}
	.st59{fill:#B6BDFF;}
	.st60{fill:#A8C4E5;}
	.st61{fill:#E1EAF4;}
	.st62{fill:#F09A82;}
	.st63{fill:#21DED5;}
	.st64{opacity:0.39;fill:#A7BCF5;}
	.st65{fill:#4558A3;}
	.st66{fill:url(#SVGID_00000134239609545354575660000005600751474821121469_);}
	.st67{opacity:0.22;fill:#2C1F9C;}
	.st68{fill:#4A5375;}
	.st69{fill:#D9E9FF;}
	.st70{fill:none;stroke:#FFFFFF;stroke-width:1.9095;stroke-linecap:round;stroke-linejoin:round;stroke-miterlimit:10;}
	.st71{fill:#CED2EF;}
	.st72{fill:#2C1F9C;}
	.st73{fill:none;stroke:#A7BCF5;stroke-width:1.9875;stroke-linecap:round;stroke-linejoin:round;stroke-miterlimit:10;}
	.st74{fill:#6676FF;}
	.st75{fill:none;stroke:#FFFFFF;stroke-width:6.8391;stroke-linecap:round;stroke-linejoin:round;stroke-miterlimit:10;}
	.st76{fill:#DBDEE8;stroke:#FFFFFF;stroke-width:7.6103;stroke-miterlimit:10;}
	.st77{fill:url(#SVGID_00000031907760096387103100000006274357455335562685_);}
	.st78{fill:none;stroke:#CFD4E9;stroke-width:0.6062;stroke-linecap:round;stroke-linejoin:round;stroke-miterlimit:10;}
	.st79{fill:#CFD4E9;}
	.st80{fill:none;stroke:#FFFFFF;stroke-width:0.6183;stroke-linecap:round;stroke-linejoin:round;stroke-miterlimit:10;}
	.st81{fill:#AFB7DB;}
	.st82{fill:none;stroke:#FFFFFF;stroke-width:5.3911;stroke-linecap:round;stroke-linejoin:round;stroke-miterlimit:10;}
	.st83{fill:#FCD1FF;stroke:#FFFFFF;stroke-width:7.6103;stroke-miterlimit:10;}
	.st84{fill:#4432DB;}
	.st85{fill:#6875AD;}
	.st86{fill:#1A3EA1;}
	.st87{fill:none;stroke:#DADEFF;stroke-width:0.519;stroke-linecap:round;stroke-linejoin:round;stroke-miterlimit:10;}
	.st88{fill:none;stroke:#425399;stroke-width:0.5656;stroke-linecap:round;stroke-linejoin:round;stroke-miterlimit:10;}
	.st89{fill:none;stroke:#6D7CFF;stroke-width:2.8281;stroke-linecap:round;stroke-linejoin:round;stroke-miterlimit:10;}
	.st90{fill:none;stroke:#FFFFFF;stroke-width:0.6167;stroke-linecap:round;stroke-linejoin:round;stroke-miterlimit:10;}
	.st91{fill:#F0F2FF;}
	.st92{opacity:0.4;fill:#A8C4E5;}
	.st93{fill:#323E73;}
	.st94{fill:#BAD4FF;}
	.st95{fill:#324DED;}
	.st96{fill:#ADB7F2;}
	.st97{fill:none;stroke:#FFFFFF;stroke-width:0.6957;stroke-linecap:round;stroke-linejoin:round;stroke-miterlimit:10;}
	.st98{fill:none;stroke:#FFFFFF;stroke-width:2.8923;stroke-linecap:round;stroke-linejoin:round;stroke-miterlimit:10;}
	.st99{fill:#FFE3A3;}
	.st100{fill:#A3E9D2;}
	.st101{fill:#C1AFE5;}
	.st102{fill:#A3DFFF;}
	.st103{fill:#FFB2A3;}
	.st104{fill:#E69AB7;}
	.st105{fill:url(#SVGID_00000109747573964753140400000006280177405768292267_);}
	.st106{fill:url(#SVGID_00000078759841961908440440000012874698139783784865_);}
	.st107{fill:url(#SVGID_00000064354459587548710840000001518208298716124306_);}
	.st108{fill:url(#SVGID_00000014620550770058173640000012058450477097419413_);}
	.st109{fill:#A8A0FA;}
	.st110{fill:#FFFDFC;}
	.st111{fill:#BEF4FA;}
	.st112{fill:url(#SVGID_00000070092715486442674880000007908771828381829308_);}
	.st113{fill:#A7BCF5;}
	.st114{fill:#DBDEE8;}
	.st115{fill:url(#SVGID_00000141415298688992564740000014982026302050693823_);}
	.st116{fill:#FCD1FF;}
	.st117{fill:none;stroke:#FF73CE;stroke-width:3;stroke-miterlimit:10;}
</style>
<g>
	<g>
		<polygon class="st101" points="565.2,133.3 565.2,455.8 3.8,455.8 3.8,68.1 496.8,68.1 		"/>
		<path class="st7" d="M569,459.6H0V64.3h498.3l70.6,67.4V459.6z M7.6,452h553.8V135l-66.1-63.1H7.6V452z"/>
	</g>
	<g>
		<g>
			<g>
				<path class="st1" d="M221.1,322.6l-108.8-63c-6.5-3.8-5.7-10.4,1.8-14.7l197.3-113.5c7.5-4.3,18.9-4.8,25.4-1l108.8,63
					c6.5,3.8,5.7,10.4-1.8,14.7L246.5,321.6C239,325.9,227.6,326.4,221.1,322.6z"/>
				<path class="st13" d="M419,183.6l-108.8-63c-6.5-3.8-17.9-3.3-25.4,1L94.4,231.1c1.7-4.7,3.4-9.6,3.4-9.6l-16.6,4l0.3,16.3
					c-0.8,2.9,0.6,5.9,4.2,8l108.8,63c6.5,3.8,17.9,3.3,25.4-1l197.3-113.5C424.7,193.9,425.5,187.3,419,183.6z"/>
				<path class="st24" d="M423.4,172.1l-21,1.9l-92.2-53.4c-6.5-3.8-17.9-3.3-25.4,1l-78.4,130.8l0.4,62.9c4.6-0.2,9.3-1.4,13.1-3.5
					l197.3-113.5c4.3-2.5,6.4-5.7,6.2-8.7L423.4,172.1z"/>
				<path class="st11" d="M188.5,299.8c0,1.9-1.3,2.7-3,1.7c-1.6-1-3-3.3-3-5.2c0-1.9,1.3-2.7,3-1.7
					C187.2,295.6,188.5,297.9,188.5,299.8z"/>
				<path class="st7" d="M194.5,294.5l-108.8-63c-6.5-3.8-5.7-10.4,1.8-14.7l197.3-113.5c7.5-4.3,18.9-4.8,25.4-1l108.8,63
					c6.5,3.8,5.7,10.4-1.8,14.7L219.9,293.4C212.4,297.8,201,298.2,194.5,294.5z"/>
				<path class="st4" d="M194.5,291l-108.8-63c-6.5-3.8-5.7-10.4,1.8-14.7L284.8,99.7c7.5-4.3,18.9-4.8,25.4-1l108.8,63
					c6.5,3.8,5.7,10.4-1.8,14.7L219.9,289.9C212.4,294.3,201,294.7,194.5,291z"/>
				<path class="st11" d="M368.3,146.7l-30-17.4c-1.2-0.7-1.1-2,0.4-2.8l0,0c1.4-0.8,3.6-0.9,4.9-0.2l30,17.4c1.2,0.7,1.1,2-0.4,2.8
					v0C371.7,147.3,369.5,147.4,368.3,146.7z"/>
				<path class="st11" d="M149.8,280.1l-24.1-14c-1-0.6-1.9-2.2-1.9-3.6l0,0c0-1.4,0.8-2,1.9-1.4l24.1,14c1,0.6,1.9,2.2,1.9,3.6l0,0
					C151.6,280.1,150.8,280.7,149.8,280.1z"/>
				<path class="st6" d="M290.9,109.8L125,205.2c-3.9,2.2-3.9,7.8,0,10l100.5,58.3c1.8,1,4,1,5.8,0l165.9-95.4c3.9-2.2,3.9-7.8,0-10
					l-100.5-58.3C294.9,108.7,292.7,108.7,290.9,109.8z"/>
				<path class="st19" d="M378.9,210.6L378.9,210.6c0.3,2,1.9,2.9,3.7,1.8l11.8-6.9c1.8-1,3-3.5,2.7-5.5l0,0c-0.3-2-1.9-2.9-3.7-1.8
					l-11.8,6.9C379.9,206.1,378.6,208.6,378.9,210.6z"/>
				<path class="st11" d="M379.9,211.7L379.9,211.7c0.3,2,1.9,2.9,3.7,1.8l11.8-6.9c1.8-1,3-3.5,2.7-5.5l0,0c-0.3-2-1.9-2.9-3.7-1.8
					l-11.8,6.9C380.8,207.2,379.6,209.7,379.9,211.7z"/>
				<path class="st19" d="M357.4,223.3L357.4,223.3c0.3,2,1.9,2.9,3.7,1.8l11.8-6.9c1.8-1,3-3.5,2.7-5.5l0,0c-0.3-2-1.9-2.9-3.7-1.8
					l-11.8,6.9C358.4,218.8,357.2,221.3,357.4,223.3z"/>
				<path class="st11" d="M358.3,224.2L358.3,224.2c0.3,2,1.9,2.9,3.7,1.8l11.8-6.9c1.8-1,3-3.5,2.7-5.5l0,0c-0.3-2-1.9-2.9-3.7-1.8
					l-11.8,6.9C359.3,219.7,358,222.2,358.3,224.2z"/>
			</g>
			<g>
				<path class="st25" d="M233.1,247.3l113.5-65.5c6.7-3.9,5.8-10.7-1.9-15.1l-38.1-22c-7.7-4.5-19.5-5-26.2-1.1l-113.5,65.5
					c-6.7,3.9-5.8,10.7,1.9,15.1l38.1,22C214.6,250.7,226.4,251.2,233.1,247.3z"/>
				<g>
					<polygon class="st26" points="305.9,75 338.4,56.3 306.1,37.7 273.4,56.3 					"/>
					<polygon class="st27" points="338.4,56.3 338.4,97.3 338.4,166.1 305.9,184.8 305.9,75 					"/>
					<polygon class="st28" points="305.9,75 305.9,184.8 273.4,166.1 273.4,56.3 					"/>
					<polygon class="st5" points="264.6,141.8 296.9,123 264.7,104.4 232.3,123.1 					"/>
					<polygon class="st4" points="264.6,210.6 296.8,191.9 296.8,123.1 264.6,141.8 					"/>
					<polygon class="st11" points="264.6,210.6 232.5,191.9 232.5,123.1 264.6,141.8 					"/>
					<polygon class="st7" points="221.3,193.6 253.7,174.9 221.5,156.3 188.7,175 					"/>
					<polygon class="st29" points="221.8,237.4 188.7,217.5 188.7,175 221.8,193.7 					"/>
					<g>
						<g>
							<g>
								<polygon class="st30" points="221.2,237.3 221.2,193.6 253.6,174.9 253.6,218.6 								"/>
							</g>
						</g>
					</g>
				</g>
			</g>
		</g>
		<g>
			<g>
				<g>
					<polygon class="st1" points="362.9,407.2 304.3,373.4 362.5,339.7 421.7,373.5 					"/>
					<polygon class="st31" points="362.9,354.1 304.3,320.3 362.5,286.7 421.7,320.5 					"/>
					<g>
						<polygon class="st13" points="362.9,354.1 363,397.2 304.4,363.4 304.4,320.3 						"/>
					</g>
					<g>
						<polygon class="st24" points="362.9,354.1 421.7,320.5 421.7,361.5 361.9,397.3 						"/>
					</g>
				</g>
				<polygon class="st7" points="353,383.2 341.3,376.4 341.3,367.6 353,374.4 				"/>
				<polygon class="st7" points="337.5,374.4 325.8,367.6 325.8,351.5 337.5,358.3 				"/>
				<polygon class="st7" points="310.3,358.8 322,365.7 322,338.8 310.3,332 				"/>
			</g>
			<g>
				<path class="st32" d="M388.6,310.2c-12-7.2-31.5-7.5-43.7-0.7c-12.2,6.8-12.4,18.1-0.4,25.2c12,7.2,31.3,7.5,43.7,0.9
					C401.8,328.3,400.5,317.4,388.6,310.2z"/>
				<path class="st11" d="M383.2,307.7c-11.4-6.8-30-7.1-41.5-0.7c-11.6,6.4-11.8,17.2-0.4,24c11.4,6.8,29.7,7.1,41.5,0.8
					C395.7,324.9,394.5,314.5,383.2,307.7z"/>
				<g>
					<path class="st5" d="M382.8,298.8c-11.4-6.8-30-7.1-41.5-0.7c-11.6,6.4-11.8,17.2-0.4,24c11.4,6.8,29.7,7.1,41.5,0.8
						C395.3,315.9,394.1,305.6,382.8,298.8z"/>
					<path class="st7" d="M353.1,317.7c-1.5,0-2.9-0.7-3.8-1.9c-1-1.4-1.2-3.2-0.6-4.7l4.7-11.1c1-2.4,3.8-3.5,6.2-2.5
						c2.4,1,3.5,3.8,2.5,6.2l-1.5,3.5l19.2-2.4c2.6-0.3,5,1.5,5.3,4.1s-1.5,5-4.1,5.3l-27.4,3.4
						C353.5,317.7,353.3,317.7,353.1,317.7z"/>
				</g>
			</g>
		</g>
	</g>
</g>
</svg>
