<?xml version="1.0" encoding="utf-8"?>
<!-- Generator: Adobe Illustrator 26.0.3, SVG Export Plug-In . SVG Version: 6.00 Build 0)  -->
<svg version="1.1" id="Layer_1" xmlns="http://www.w3.org/2000/svg" xmlns:xlink="http://www.w3.org/1999/xlink" x="0px" y="0px"
	 viewBox="0 0 569 459.6" style="enable-background:new 0 0 569 459.6;" xml:space="preserve">
<style type="text/css">
	.st0{fill:#FFE3A3;stroke:#FFFFFF;stroke-width:7.6103;stroke-miterlimit:10;}
	.st1{fill:#F0F4FF;}
	.st2{fill:#BAD4F5;}
	.st3{fill:#8E98C2;}
	.st4{fill:#6D7CFF;}
	.st5{fill:#8A96FF;}
	.st6{fill:#F5F5F7;}
	.st7{fill:#FFFFFF;}
	.st8{fill:#A3A7BF;}
	.st9{fill:none;stroke:#6D7CFF;stroke-width:1.5818;stroke-linecap:round;stroke-linejoin:round;stroke-miterlimit:10;}
	.st10{fill:#425399;}
	.st11{fill:#485BFF;}
	.st12{fill:#A3E9D2;stroke:#FFFFFF;stroke-width:7.6103;stroke-miterlimit:10;}
	.st13{fill:#DADEFF;}
	.st14{fill:#DBEFFF;}
	.st15{opacity:0.29;}
	.st16{fill:none;stroke:#FFFFFF;stroke-width:1.6117;stroke-linecap:round;stroke-linejoin:round;stroke-miterlimit:10;}
	.st17{fill:#E68143;}
	.st18{fill:#D3DAE3;}
	.st19{fill:#E6F0FF;}
	.st20{fill:#F5F9FF;}
	.st21{fill:none;stroke:#425399;stroke-width:2.9136;stroke-linecap:round;stroke-linejoin:round;stroke-miterlimit:10;}
	.st22{fill:#C1AFE5;stroke:#FFFFFF;stroke-width:7.6103;stroke-miterlimit:10;}
	.st23{fill:#FFB2A3;stroke:#FFFFFF;stroke-width:7.6103;stroke-miterlimit:10;}
	.st24{fill:#D3D5E9;}
	.st25{fill:#919DFF;}
	.st26{fill:#DFE3FF;}
	.st27{fill:#CAD0FF;}
	.st28{fill:#A7B0FF;}
	.st29{fill:#EFEFEF;}
	.st30{fill:#F7F7F7;}
	.st31{fill:#E9EBFF;}
	.st32{opacity:0.29;fill:#A8C4E5;}
	.st33{fill:none;stroke:#FFFFFF;stroke-width:9.5079;stroke-linecap:round;stroke-linejoin:round;stroke-miterlimit:10;}
	.st34{fill:#A3DFFF;stroke:#FFFFFF;stroke-width:7.6103;stroke-miterlimit:10;}
	.st35{opacity:0.39;fill:#DADEFF;}
	.st36{fill:#4A39E3;}
	.st37{fill:none;stroke:#FFFFFF;stroke-width:1.3412;stroke-linecap:round;stroke-linejoin:round;stroke-miterlimit:10;}
	.st38{fill:none;stroke:#6D7CFF;stroke-width:1.4858;stroke-linecap:round;stroke-linejoin:round;stroke-miterlimit:10;}
	.st39{fill:#8AACCE;}
	.st40{fill:none;stroke:#485BFF;stroke-width:0.8675;stroke-linecap:round;stroke-linejoin:round;stroke-miterlimit:10;}
	.st41{fill:#DADEFF;stroke:#FFFFFF;stroke-width:0.6782;stroke-miterlimit:10;}
	.st42{fill:#E69AB7;stroke:#FFFFFF;stroke-width:7.6103;stroke-miterlimit:10;}
	.st43{fill:#485BE4;}
	.st44{fill:url(#SVGID_1_);}
	.st45{fill:url(#SVGID_00000174580106547058390600000006740490118622376079_);}
	.st46{fill:url(#SVGID_00000176741818038335504710000011697180142036026548_);}
	.st47{fill:#271C8C;}
	.st48{fill:none;stroke:#425399;stroke-width:2.4459;stroke-linecap:round;stroke-linejoin:round;stroke-miterlimit:10;}
	.st49{fill:#B6BDFD;}
	.st50{fill:url(#SVGID_00000040552374059929359830000000484288987437500567_);}
	.st51{opacity:0.11;fill:#584BCC;}
	.st52{fill:#382E99;}
	.st53{fill:#414DBE;}
	.st54{fill:none;stroke:#A8A0FA;stroke-width:1.6099;stroke-linecap:round;stroke-linejoin:round;stroke-miterlimit:10;}
	.st55{fill:none;stroke:#FFFDFC;stroke-width:2.4459;stroke-linecap:round;stroke-linejoin:round;stroke-miterlimit:10;}
	.st56{fill:#BEF4FA;stroke:#FFFFFF;stroke-width:7.6103;stroke-miterlimit:10;}
	.st57{fill:#C6D2F2;}
	.st58{fill:#FFC2B0;}
	.st59{fill:#B6BDFF;}
	.st60{fill:#A8C4E5;}
	.st61{fill:#E1EAF4;}
	.st62{fill:#F09A82;}
	.st63{fill:#21DED5;}
	.st64{opacity:0.39;fill:#A7BCF5;}
	.st65{fill:#4558A3;}
	.st66{fill:url(#SVGID_00000089547240565787483300000010327371918120457130_);}
	.st67{opacity:0.22;fill:#2C1F9C;}
	.st68{fill:#4A5375;}
	.st69{fill:#D9E9FF;}
	.st70{fill:none;stroke:#FFFFFF;stroke-width:1.9095;stroke-linecap:round;stroke-linejoin:round;stroke-miterlimit:10;}
	.st71{fill:#CED2EF;}
	.st72{fill:#2C1F9C;}
	.st73{fill:none;stroke:#A7BCF5;stroke-width:1.9875;stroke-linecap:round;stroke-linejoin:round;stroke-miterlimit:10;}
	.st74{fill:#6676FF;}
	.st75{fill:none;stroke:#FFFFFF;stroke-width:6.8391;stroke-linecap:round;stroke-linejoin:round;stroke-miterlimit:10;}
	.st76{fill:#DBDEE8;stroke:#FFFFFF;stroke-width:7.6103;stroke-miterlimit:10;}
	.st77{fill:url(#SVGID_00000147186807662783814080000003341112035448381112_);}
	.st78{fill:none;stroke:#CFD4E9;stroke-width:0.6062;stroke-linecap:round;stroke-linejoin:round;stroke-miterlimit:10;}
	.st79{fill:#CFD4E9;}
	.st80{fill:none;stroke:#FFFFFF;stroke-width:0.6183;stroke-linecap:round;stroke-linejoin:round;stroke-miterlimit:10;}
	.st81{fill:#AFB7DB;}
	.st82{fill:none;stroke:#FFFFFF;stroke-width:5.3911;stroke-linecap:round;stroke-linejoin:round;stroke-miterlimit:10;}
	.st83{fill:#FCD1FF;stroke:#FFFFFF;stroke-width:7.6103;stroke-miterlimit:10;}
	.st84{fill:#4432DB;}
	.st85{fill:#6875AD;}
	.st86{fill:#1A3EA1;}
	.st87{fill:none;stroke:#DADEFF;stroke-width:0.519;stroke-linecap:round;stroke-linejoin:round;stroke-miterlimit:10;}
	.st88{fill:none;stroke:#425399;stroke-width:0.5656;stroke-linecap:round;stroke-linejoin:round;stroke-miterlimit:10;}
	.st89{fill:none;stroke:#6D7CFF;stroke-width:2.8281;stroke-linecap:round;stroke-linejoin:round;stroke-miterlimit:10;}
	.st90{fill:none;stroke:#FFFFFF;stroke-width:0.6167;stroke-linecap:round;stroke-linejoin:round;stroke-miterlimit:10;}
	.st91{fill:#F0F2FF;}
	.st92{opacity:0.4;fill:#A8C4E5;}
	.st93{fill:#323E73;}
	.st94{fill:#BAD4FF;}
	.st95{fill:#324DED;}
	.st96{fill:#ADB7F2;}
	.st97{fill:none;stroke:#FFFFFF;stroke-width:0.6957;stroke-linecap:round;stroke-linejoin:round;stroke-miterlimit:10;}
	.st98{fill:none;stroke:#FFFFFF;stroke-width:2.8923;stroke-linecap:round;stroke-linejoin:round;stroke-miterlimit:10;}
	.st99{fill:#FFE3A3;}
	.st100{fill:#A3E9D2;}
	.st101{fill:#C1AFE5;}
	.st102{fill:#A3DFFF;}
	.st103{fill:#FFB2A3;}
	.st104{fill:#E69AB7;}
	.st105{fill:url(#SVGID_00000111878159636086017510000004265590214385198235_);}
	.st106{fill:url(#SVGID_00000038380895691119192690000008125819717175499439_);}
	.st107{fill:url(#SVGID_00000071555076231341010130000014456726400407857565_);}
	.st108{fill:url(#SVGID_00000069381733586306132920000006914374303722376085_);}
	.st109{fill:#A8A0FA;}
	.st110{fill:#FFFDFC;}
	.st111{fill:#BEF4FA;}
	.st112{fill:url(#SVGID_00000040569180451152851310000013223409245596081312_);}
	.st113{fill:#A7BCF5;}
	.st114{fill:#DBDEE8;}
	.st115{fill:url(#SVGID_00000152256844333360019060000012536386738620631184_);}
	.st116{fill:#FCD1FF;}
	.st117{fill:none;stroke:#FF73CE;stroke-width:3;stroke-miterlimit:10;}
</style>
<g>
	<g>
		<polygon class="st102" points="565.2,133.3 565.2,455.8 3.8,455.8 3.8,68.1 496.8,68.1 		"/>
		<path class="st7" d="M569,459.6H0V64.3h498.3l70.6,67.4V459.6z M7.6,452h553.8V135l-66.1-63.1H7.6V452z"/>
	</g>
	<g>
		<path class="st13" d="M411.7,103.7c0.1-8.2-3.7-15.6-10-19.2l-97.6-56.9c-5.3-3.1-9.8,0.9-9.9,9l-1,72.2
			c-0.1,7.6,3.4,14.4,9.3,17.8l89.6,52.2c8.2,4.8,18.6-2.6,18.7-13.3L411.7,103.7z"/>
		<path class="st7" d="M383.6,158l-68.9-39.8c-3.4-2-6.2-7.3-6.2-11.9v-9c0-4.6,2.8-6.7,6.2-4.7l68.9,39.8c3.4,2,6.2,7.3,6.2,11.9v9
			C389.8,157.9,387,160,383.6,158z"/>
		<path class="st7" d="M383.6,118.1l-68.9-39.8c-3.4-2-6.2-7.3-6.2-11.9v-9c0-4.6,2.8-6.7,6.2-4.7l68.9,39.8c3.4,2,6.2,7.3,6.2,11.9
			v9C389.8,117.9,387,120,383.6,118.1z"/>
		<g>
			<g>
				<polygon class="st4" points="327.8,114.2 325.9,113.1 327.2,112.4 325.9,110.1 324.5,110.9 324.5,108.7 322.6,107.7 
					322.6,109.8 321.2,107.5 319.8,108.3 321.2,110.5 319.3,109.5 319.2,111.6 321.2,112.7 319.8,113.4 321.2,115.7 322.5,114.9 
					322.5,117 324.4,118.1 324.5,116 325.8,118.2 327.2,117.5 325.8,115.2 327.8,116.3 				"/>
			</g>
		</g>
		<g>
			<g>
				<polygon class="st4" points="340.5,121.2 338.5,120.1 339.9,119.4 338.6,117.1 337.2,117.9 337.2,115.7 335.3,114.7 
					335.3,116.8 333.9,114.5 332.5,115.3 333.9,117.6 332,116.5 331.9,118.6 333.9,119.7 332.5,120.4 333.9,122.7 335.2,121.9 
					335.2,124.1 337.1,125.1 337.2,123 338.5,125.3 339.9,124.5 338.5,122.2 340.5,123.3 				"/>
			</g>
		</g>
		<g>
			<g>
				<polygon class="st4" points="353.2,128.2 351.2,127.1 352.6,126.4 351.3,124.2 349.9,124.9 349.9,122.8 348,121.7 348,123.8 
					346.6,121.6 345.2,122.3 346.6,124.6 344.7,123.5 344.6,125.6 346.6,126.7 345.2,127.4 346.5,129.7 347.9,128.9 347.9,131.1 
					349.8,132.1 349.9,130 351.2,132.3 352.6,131.5 351.2,129.3 353.2,130.3 				"/>
			</g>
		</g>
		<g>
			<g>
				<polygon class="st4" points="365.9,135.2 363.9,134.2 365.3,133.4 364,131.2 362.6,131.9 362.6,129.8 360.7,128.7 360.7,130.9 
					359.3,128.6 357.9,129.3 359.3,131.6 357.3,130.5 357.3,132.6 359.3,133.7 357.9,134.5 359.2,136.7 360.6,136 360.6,138.1 
					362.5,139.2 362.5,137 363.9,139.3 365.3,138.5 363.9,136.3 365.9,137.4 				"/>
			</g>
		</g>
		<g>
			<g>
				<polygon class="st4" points="378.6,142.3 376.6,141.2 378,140.4 376.7,138.2 375.3,138.9 375.3,136.8 373.4,135.7 373.4,137.9 
					372,135.6 370.6,136.4 372,138.6 370,137.5 370,139.7 372,140.7 370.6,141.5 371.9,143.7 373.3,143 373.3,145.1 375.2,146.2 
					375.2,144 376.6,146.3 378,145.6 376.6,143.3 378.6,144.4 				"/>
			</g>
		</g>
		<g>
			<g>
				<path class="st4" d="M379.1,104.6l-60-34.6c-1.3-0.8-2.4-2.8-2.4-4.6v0c0-1.8,1.1-2.6,2.4-1.8l60,34.6c1.3,0.8,2.4,2.8,2.4,4.6
					l0,0C381.5,104.6,380.5,105.4,379.1,104.6z"/>
			</g>
		</g>
		<g>
			<path class="st4" d="M424.4,106.3c1.8-9.6-3.2-22.2-11.2-28.1c-3.7-2.7-7.4-3.5-10.5-2.6l0,0l0,0c-0.4,0.1-0.8,0.3-1.2,0.4
				l-7.3,3l3.6,0.1c-1.1,1.5-2,3.5-2.4,5.9c-1.8,9.6,3.2,22.2,11.2,28.1c1.6,1.2,3.3,2,4.9,2.5l0.6,2.1l5.1-2
				c0.3-0.1,0.6-0.2,0.8-0.3l0.1,0l0,0C421.2,114.1,423.5,111,424.4,106.3z"/>
			<path class="st11" d="M417.7,109c-1.8,9.6-9.9,12.7-17.9,6.8c-8.1-5.9-13.1-18.4-11.2-28.1c1.8-9.6,9.9-12.7,17.9-6.8
				C414.5,86.8,419.6,99.3,417.7,109z"/>
			<path class="st7" d="M413.1,88.2c-4.6,4.1-9.1,8.2-13.7,12.3c-0.7,0.6-1.3,1.2-2,1.8c1.9,0.3,3.9,0.5,5.8,0.8
				c-1.5-3.5-3-7.1-4.5-10.6c-0.8-1.8-3.5-2.3-5.1-1.3c-1.9,1.2-2.2,3.2-1.3,5.1c1.5,3.5,3,7.1,4.5,10.6c1,2.3,4.3,2.2,5.8,0.8
				c4.6-4.1,9.1-8.2,13.7-12.3c0.7-0.6,1.3-1.2,2-1.8c1.5-1.3,1.4-4,0-5.3C416.8,86.8,414.7,86.9,413.1,88.2L413.1,88.2z"/>
		</g>
	</g>
	<path class="st1" d="M270.2,399.3L129.5,318c-7.2-4.2-7.2-14.6,0-18.8l143.2-82.7c7.4-4.3,16.6-4.3,24,0L441,299.8
		c7.2,4.2,7.2,14.6,0,18.8l-139.6,80.6C291.7,404.8,279.9,404.8,270.2,399.3z"/>
	<g>
		<path class="st11" d="M291.3,134.3c36.8,20.3,64.5,69.5,61.8,109.8c-0.1,0.8-0.1,1.6-0.2,2.5c1.8,0.7,3.7,1.6,5.6,2.6
			c22.1,12.2,38.6,41.6,37,65.8c-1.6,23.4-19.5,33.3-40.7,22.9l-148.2-82.1c-24.9-13.6-43.5-46.8-41.7-74.1
			c1.8-27.5,23.4-38.8,48.6-24.9c2.6,1.4,5.1,3,7.5,4.8C227.6,128,257.4,115.6,291.3,134.3z"/>
		<path class="st7" d="M275.8,145.2c36.8,20.3,64.5,69.5,61.8,109.8c-0.1,0.8-0.1,1.6-0.2,2.5c1.8,0.7,3.7,1.6,5.6,2.6
			c22.1,12.2,38.6,41.6,37,65.8c-1.6,23.4-19.5,33.3-40.7,22.9l-148.2-82.1c-24.9-13.6-43.5-46.8-41.7-74.1
			c1.8-27.5,23.4-38.8,48.6-24.9c2.6,1.4,5.1,3,7.5,4.8C212.1,138.8,241.9,126.5,275.8,145.2z"/>
		<path class="st7" d="M268.5,146.8c36.8,20.3,64.5,69.5,61.8,109.8c-0.1,0.8-0.1,1.6-0.2,2.5c1.8,0.7,3.7,1.6,5.6,2.6
			c22.1,12.2,38.6,41.6,37,65.8c-1.6,23.4-19.5,33.3-40.7,22.9l-148.2-82.1c-24.9-13.6-43.5-46.8-41.7-74.1
			c1.8-27.5,23.4-38.8,48.6-24.9c2.6,1.4,5.1,3,7.5,4.8C204.8,140.5,234.6,128.2,268.5,146.8z"/>
		<path class="st35" d="M260.8,156.9c36.1,19.9,63.2,68.1,60.6,107.6c-0.1,0.8-0.1,1.6-0.2,2.4c1.8,0.7,3.6,1.6,5.5,2.6
			c21.6,11.9,37.9,40.8,36.3,64.5c-1.5,22.9-19.1,32.6-39.9,22.5L177.9,276c-24.4-13.3-42.7-45.9-40.9-72.6c1.8-27,23-38,47.6-24.4
			c2.5,1.4,5,3,7.3,4.7C198.4,150.7,227.6,138.6,260.8,156.9z"/>
		<g>
			<path class="st4" d="M300.1,259.7l-89-51.1c-2.6-1.5-8.8-5.8-11.1-4.7l-1.7,1.2l-22.8,14.7l18,24.3l0.4,23.9
				c0.3,15.3,10.4,33.5,22.6,40.5l42.6,24.5l20.4,31l23.4-13.8c0.4-0.3,0.8-0.6,1.1-0.9l0.1-0.1l0,0c3.3-3,5.2-8.1,5-15l-1.1-60.2
				C308,268.6,304.4,262.2,300.1,259.7z"/>
			<path class="st7" d="M266,362.8l-69.9-37.3c-11.9-6.4-21.9-24.1-22.2-39.4l-1.1-60.2c-0.1-5.4,3.3-8,7.5-5.7l97.9,52.2
				c4.2,2.3,7.8,8.5,7.9,13.9l1.1,60.2C287.4,361.8,277.9,369.1,266,362.8z"/>
			<path class="st1" d="M187.4,304.6L187.4,304.6c-2.2,0-4-1.6-4-3.7l-1.1-60.2c0-2.1,1.7-3.8,3.9-3.9l0,0c2.2,0,4,1.6,4,3.7
				l1.1,60.2C191.3,302.8,189.6,304.5,187.4,304.6z"/>
			<g>
				
					<ellipse transform="matrix(5.335755e-02 -0.9986 0.9986 5.335755e-02 2.117 511.0095)" class="st10" cx="270.6" cy="254.4" rx="6.9" ry="13.1"/>
				<path class="st11" d="M280,256.1c-4.7,2.7-13,2.7-18.4,0c-5.4-2.7-6-7.1-1.3-9.8c4.7-2.7,13-2.7,18.4,0
					C284.2,249,284.8,253.4,280,256.1z"/>
				<path class="st10" d="M224.3,230.8c-4.7,2.7-13,2.7-18.4,0c-5.4-2.7-6-7.1-1.3-9.8c4.7-2.7,13-2.7,18.4,0
					C228.4,223.8,229,228.1,224.3,230.8z"/>
				<path class="st11" d="M223.9,227.6c-4.7,2.7-13,2.7-18.4,0c-5.4-2.7-6-7.1-1.3-9.8c4.7-2.7,13-2.7,18.4,0
					C228,220.6,228.6,224.9,223.9,227.6z"/>
				<g>
					<g>
						<path class="st36" d="M277.5,252.7c-3.2,1.8-8.7,1.8-12.3,0c-3.6-1.8-4-4.8-0.9-6.6c3.2-1.8,8.7-1.8,12.3,0
							C280.3,247.9,280.7,250.9,277.5,252.7z"/>
						<path class="st36" d="M220.4,224.2c-3.2,1.8-8.7,1.8-12.3,0c-3.6-1.8-4-4.8-0.9-6.6s8.7-1.8,12.3,0
							C223.2,219.4,223.5,222.4,220.4,224.2z"/>
						<g>
							<path class="st11" d="M262.3,248.7l-0.5-27.5c0.6-9.7-5.5-23.8-15.1-28.7l-10-5.1c-3.5-1.8-6.8-2.2-9.2-1.1
								c-1.9,0.8-3.5,2.6-4.5,4.9c-0.7,1.7-1,3.6-0.9,5.5l0.5,23.5c-0.6,4.1-18.1,4.1-17.5,0l0.3-27.8c1.4-9.1,6.7-16.3,14.4-19.7
								c7.4-3.2,16.4-2.6,24.8,1.7l10,5.1c15.8,8.1,24.1,22.5,25,44.2l0,26.4C279,253.7,261.6,252.8,262.3,248.7z"/>
						</g>
					</g>
				</g>
			</g>
			<path class="st10" d="M215.9,278.2c0-7,5.6-9.8,12.7-6.3c7,3.5,12.8,12,12.8,19c0,7-5.6,9.8-12.7,6.3
				C221.7,293.7,215.9,285.2,215.9,278.2z"/>
			<path class="st10" d="M226.9,276.7l0.9,0.3c3.4,1.1,6.1,6.4,6.1,11.8l0,16.9c0,5.5-2.8,9.1-6.1,8l-0.9-0.3
				c-3.4-1.1-6.1-6.4-6.1-11.8l0-16.9C220.7,279.3,223.5,275.7,226.9,276.7z"/>
			<path class="st11" d="M227.9,300.8l0-11.2c-2.9-3.8-4.8-8.2-4.8-12.2c0-3,1-5.2,2.7-6.5c-5.7-1.6-10,1.3-10,7.3
				c0,4,1.9,8.5,4.8,12.2l0,11.2c0,5.5,2.7,10.8,6.1,11.8l0.9,0.3c1.9,0.6,3.5-0.3,4.7-2C229.8,309.7,227.9,305.3,227.9,300.8z"/>
		</g>
	</g>
</g>
</svg>
