<?xml version="1.0" encoding="utf-8"?>
<!-- Generator: Adobe Illustrator 26.0.3, SVG Export Plug-In . SVG Version: 6.00 Build 0)  -->
<svg version="1.1" id="Layer_1" xmlns="http://www.w3.org/2000/svg" xmlns:xlink="http://www.w3.org/1999/xlink" x="0px" y="0px"
	 viewBox="0 0 948.63 639.31" style="enable-background:new 0 0 948.63 639.31;" xml:space="preserve">
<style type="text/css">
	.st0{fill:#FFE3A3;stroke:#FFFFFF;stroke-width:7.6103;stroke-miterlimit:10;}
	.st1{fill:#F0F4FF;}
	.st2{fill:#BAD4F5;}
	.st3{fill:#8E98C2;}
	.st4{fill:#6D7CFF;}
	.st5{fill:#8A96FF;}
	.st6{fill:#F5F5F7;}
	.st7{fill:#FFFFFF;}
	.st8{fill:#A3A7BF;}
	.st9{fill:none;stroke:#6D7CFF;stroke-width:1.5818;stroke-linecap:round;stroke-linejoin:round;stroke-miterlimit:10;}
	.st10{fill:#425399;}
	.st11{fill:#485BFF;}
	.st12{fill:#A3E9D2;stroke:#FFFFFF;stroke-width:7.6103;stroke-miterlimit:10;}
	.st13{fill:#DADEFF;}
	.st14{fill:#DBEFFF;}
	.st15{opacity:0.29;}
	.st16{fill:none;stroke:#FFFFFF;stroke-width:1.6117;stroke-linecap:round;stroke-linejoin:round;stroke-miterlimit:10;}
	.st17{fill:#E68143;}
	.st18{fill:#D3DAE3;}
	.st19{fill:#E6F0FF;}
	.st20{fill:#F5F9FF;}
	.st21{fill:none;stroke:#425399;stroke-width:2.9136;stroke-linecap:round;stroke-linejoin:round;stroke-miterlimit:10;}
	.st22{fill:#C1AFE5;stroke:#FFFFFF;stroke-width:7.6103;stroke-miterlimit:10;}
	.st23{fill:#FFB2A3;stroke:#FFFFFF;stroke-width:7.6103;stroke-miterlimit:10;}
	.st24{fill:#D3D5E9;}
	.st25{fill:#919DFF;}
	.st26{fill:#DFE3FF;}
	.st27{fill:#CAD0FF;}
	.st28{fill:#A7B0FF;}
	.st29{fill:#EFEFEF;}
	.st30{fill:#F7F7F7;}
	.st31{fill:#E9EBFF;}
	.st32{opacity:0.29;fill:#A8C4E5;}
	.st33{fill:none;stroke:#FFFFFF;stroke-width:9.5079;stroke-linecap:round;stroke-linejoin:round;stroke-miterlimit:10;}
	.st34{fill:#A3DFFF;stroke:#FFFFFF;stroke-width:7.6103;stroke-miterlimit:10;}
	.st35{opacity:0.39;fill:#DADEFF;}
	.st36{fill:#4A39E3;}
	.st37{fill:none;stroke:#FFFFFF;stroke-width:1.3412;stroke-linecap:round;stroke-linejoin:round;stroke-miterlimit:10;}
	.st38{fill:none;stroke:#6D7CFF;stroke-width:1.4858;stroke-linecap:round;stroke-linejoin:round;stroke-miterlimit:10;}
	.st39{fill:#8AACCE;}
	.st40{fill:none;stroke:#485BFF;stroke-width:0.8675;stroke-linecap:round;stroke-linejoin:round;stroke-miterlimit:10;}
	.st41{fill:#DADEFF;stroke:#FFFFFF;stroke-width:0.6782;stroke-miterlimit:10;}
	.st42{fill:#E69AB7;stroke:#FFFFFF;stroke-width:7.6103;stroke-miterlimit:10;}
	.st43{fill:#485BE4;}
	.st44{fill:url(#SVGID_1_);}
	.st45{fill:url(#SVGID_00000147909342283472943260000015331052936788327552_);}
	.st46{fill:url(#SVGID_00000059269308937463159780000016386710536099743639_);}
	.st47{fill:#271C8C;}
	.st48{fill:none;stroke:#425399;stroke-width:2.4459;stroke-linecap:round;stroke-linejoin:round;stroke-miterlimit:10;}
	.st49{fill:#B6BDFD;}
	.st50{fill:url(#SVGID_00000026123539213973493380000010370381845713569942_);}
	.st51{opacity:0.11;fill:#584BCC;}
	.st52{fill:#382E99;}
	.st53{fill:#414DBE;}
	.st54{fill:none;stroke:#A8A0FA;stroke-width:1.6099;stroke-linecap:round;stroke-linejoin:round;stroke-miterlimit:10;}
	.st55{fill:none;stroke:#FFFDFC;stroke-width:2.4459;stroke-linecap:round;stroke-linejoin:round;stroke-miterlimit:10;}
	.st56{fill:#BEF4FA;stroke:#FFFFFF;stroke-width:7.6103;stroke-miterlimit:10;}
	.st57{fill:#C6D2F2;}
	.st58{fill:#FFC2B0;}
	.st59{fill:#B6BDFF;}
	.st60{fill:#A8C4E5;}
	.st61{fill:#E1EAF4;}
	.st62{fill:#F09A82;}
	.st63{fill:#21DED5;}
	.st64{opacity:0.39;fill:#A7BCF5;}
	.st65{fill:#4558A3;}
	.st66{fill:url(#SVGID_00000152260281122650927350000012805776916356216470_);}
	.st67{opacity:0.22;fill:#2C1F9C;}
	.st68{fill:#4A5375;}
	.st69{fill:#D9E9FF;}
	.st70{fill:none;stroke:#FFFFFF;stroke-width:1.9095;stroke-linecap:round;stroke-linejoin:round;stroke-miterlimit:10;}
	.st71{fill:#CED2EF;}
	.st72{fill:#2C1F9C;}
	.st73{fill:none;stroke:#A7BCF5;stroke-width:1.9875;stroke-linecap:round;stroke-linejoin:round;stroke-miterlimit:10;}
	.st74{fill:#6676FF;}
	.st75{fill:none;stroke:#FFFFFF;stroke-width:6.8391;stroke-linecap:round;stroke-linejoin:round;stroke-miterlimit:10;}
	.st76{fill:#DBDEE8;stroke:#FFFFFF;stroke-width:7.6103;stroke-miterlimit:10;}
	.st77{fill:url(#SVGID_00000003817798672329054230000015019474763406851992_);}
	.st78{fill:none;stroke:#CFD4E9;stroke-width:0.6062;stroke-linecap:round;stroke-linejoin:round;stroke-miterlimit:10;}
	.st79{fill:#CFD4E9;}
	.st80{fill:none;stroke:#FFFFFF;stroke-width:0.6183;stroke-linecap:round;stroke-linejoin:round;stroke-miterlimit:10;}
	.st81{fill:#AFB7DB;}
	.st82{fill:none;stroke:#FFFFFF;stroke-width:5.3911;stroke-linecap:round;stroke-linejoin:round;stroke-miterlimit:10;}
	.st83{fill:#FCD1FF;stroke:#FFFFFF;stroke-width:7.6103;stroke-miterlimit:10;}
	.st84{fill:#4432DB;}
	.st85{fill:#6875AD;}
	.st86{fill:#1A3EA1;}
	.st87{fill:none;stroke:#DADEFF;stroke-width:0.519;stroke-linecap:round;stroke-linejoin:round;stroke-miterlimit:10;}
	.st88{fill:none;stroke:#425399;stroke-width:0.5656;stroke-linecap:round;stroke-linejoin:round;stroke-miterlimit:10;}
	.st89{fill:none;stroke:#6D7CFF;stroke-width:2.8281;stroke-linecap:round;stroke-linejoin:round;stroke-miterlimit:10;}
	.st90{fill:none;stroke:#FFFFFF;stroke-width:0.6167;stroke-linecap:round;stroke-linejoin:round;stroke-miterlimit:10;}
	.st91{fill:#F0F2FF;}
	.st92{opacity:0.4;fill:#A8C4E5;}
	.st93{fill:#323E73;}
	.st94{fill:#BAD4FF;}
	.st95{fill:#324DED;}
	.st96{fill:#ADB7F2;}
	.st97{fill:none;stroke:#FFFFFF;stroke-width:0.6957;stroke-linecap:round;stroke-linejoin:round;stroke-miterlimit:10;}
	.st98{fill:none;stroke:#FFFFFF;stroke-width:2.8923;stroke-linecap:round;stroke-linejoin:round;stroke-miterlimit:10;}
	.st99{fill:#FFE3A3;}
	.st100{fill:#A3E9D2;}
	.st101{fill:#C1AFE5;}
	.st102{fill:#FFB2A3;}
	.st103{fill:#A3DFFF;}
	.st104{fill:#E69AB7;}
	.st105{fill:url(#SVGID_00000164480829494685651710000004809629160382538902_);}
	.st106{fill:url(#SVGID_00000000188745148285023180000012161003742056229268_);}
	.st107{fill:url(#SVGID_00000058564130527743125730000001074536424439462534_);}
	.st108{fill:url(#SVGID_00000040570276886042256370000013864060980527322244_);}
	.st109{fill:#A8A0FA;}
	.st110{fill:#FFFDFC;}
	.st111{fill:#BEF4FA;}
	.st112{fill:url(#SVGID_00000026154660314016593070000007686421494441931437_);}
	.st113{fill:#A7BCF5;}
	.st114{fill:#DBDEE8;}
	.st115{fill:url(#SVGID_00000156578152350062290330000014737286588888279174_);}
	.st116{fill:#FCD1FF;}
	.st117{fill:none;stroke:#FF73CE;stroke-width:3;stroke-miterlimit:10;}
	.st118{fill:#DDE1EE;}
	.st119{fill:#C7CDE3;}
	.st120{fill:url(#SVGID_00000181772158307918516950000010270792071379174037_);}
	.st121{fill:url(#SVGID_00000084516143585628278730000003961410453167456171_);}
	.st122{fill:url(#SVGID_00000043419564025751506460000004466266056936788108_);}
	.st123{fill:#C6C6D2;}
	.st124{fill:#8B919F;}
	.st125{fill:#B1B8CA;}
	.st126{fill:#A2A9B9;}
	.st127{fill:none;stroke:#C7CDE3;stroke-width:3.1524;stroke-linecap:round;stroke-linejoin:round;stroke-miterlimit:10;}
	.st128{fill:#D39811;}
	.st129{fill:#ECA813;}
	.st130{fill:#FFB200;}
	.st131{fill:#FFB575;}
	.st132{fill:#D9AEAB;}
	.st133{fill:none;stroke:#6D7CFF;stroke-width:1.0547;stroke-linecap:round;stroke-linejoin:round;stroke-miterlimit:10;}
	.st134{fill:#6871BF;}
	.st135{fill:none;stroke:#425399;stroke-width:2.3643;stroke-linecap:round;stroke-linejoin:round;stroke-miterlimit:10;}
	.st136{fill:url(#SVGID_00000108305071373027126640000002464604303571907240_);}
	.st137{fill:none;stroke:#A8A0FA;stroke-width:1.5562;stroke-linecap:round;stroke-linejoin:round;stroke-miterlimit:10;}
	.st138{fill:none;stroke:#FFFDFC;stroke-width:2.3643;stroke-linecap:round;stroke-linejoin:round;stroke-miterlimit:10;}
	.st139{fill:none;stroke:#B5830F;stroke-width:2.3643;stroke-linecap:round;stroke-linejoin:round;stroke-miterlimit:10;}
	.st140{fill:#A85F32;}
	.st141{fill:#FF603E;}
	.st142{fill:#00A5FF;}
	.st143{fill:none;stroke:#6D7CFF;stroke-width:1.5762;stroke-linecap:round;stroke-linejoin:round;stroke-miterlimit:10;}
</style>
<polygon class="st118" points="526.94,638.82 0.47,334.86 421.53,91.79 948.16,393.8 "/>
<g>
	<polygon class="st7" points="526.94,621.75 0.47,317.8 421.53,74.72 948.16,376.73 	"/>
	<polygon class="st7" points="526.94,621.75 0.47,317.8 421.53,74.72 948.16,376.73 	"/>
	<g>
		<path class="st119" d="M263.98,281.01c-1.21,0-2.39-0.62-3.05-1.74c-1-1.69-0.44-3.86,1.24-4.86l244.29-144.67
			c1.68-1,3.86-0.44,4.86,1.24c1,1.69,0.44,3.86-1.24,4.86L265.79,280.52C265.22,280.85,264.6,281.01,263.98,281.01z"/>
	</g>
	<g>
		<path class="st119" d="M478.47,491.72c-0.6,0-1.21-0.15-1.76-0.47L230.46,349.94c-1.7-0.98-2.29-3.14-1.31-4.84
			c0.98-1.7,3.14-2.29,4.84-1.31l246.25,141.31c1.7,0.98,2.29,3.14,1.31,4.84C480.89,491.08,479.7,491.72,478.47,491.72z"/>
	</g>
	<g>
		<path class="st119" d="M815.51,336.76c-0.6,0-1.21-0.15-1.76-0.47L509.65,161.82c-1.7-0.97-2.29-3.14-1.31-4.84
			c0.98-1.7,3.14-2.29,4.84-1.31l305.27,175.14c0.2,0.11,0.35,0.3,0.41,0.52C819.83,334.68,817.72,336.76,815.51,336.76z"/>
	</g>
	<g>
		<path class="st119" d="M558.23,490.92c-1.21,0-2.39-0.62-3.05-1.74c-1-1.69-0.44-3.86,1.24-4.86L815.21,331
			c1.68-1,3.86-0.44,4.86,1.24c1,1.69,0.44,3.86-1.24,4.86l-258.8,153.32C559.46,490.76,558.84,490.92,558.23,490.92z"/>
	</g>
	<path class="st119" d="M184.65,387.92L70.47,321.99c-5.88-3.39-5.88-11.88,0-15.27l116.21-67.09c6.03-3.48,13.46-3.48,19.49,0
		l117.08,67.6c5.88,3.39,5.88,11.88,0,15.27l-113.31,65.42C202.12,392.44,192.48,392.44,184.65,387.92z"/>
	<path class="st119" d="M516.09,582.08l-114.18-65.92c-5.88-3.39-5.88-11.88,0-15.27l116.21-67.09c6.03-3.48,13.46-3.48,19.49,0
		l117.08,67.6c5.88,3.39,5.88,11.88,0,15.27l-113.31,65.42C533.56,586.6,523.92,586.6,516.09,582.08z"/>
	<g>
		<path class="st3" d="M511.89,381.92l-58.16-50.18c-4.36-2.52-4.36-8.81,0-11.33l86.24-49.79c4.48-2.58,9.99-2.58,14.47,0
			l86.89,50.17c4.36,2.52,4.36,8.81,0,11.33l-84.09,48.55C551.44,384.02,517.7,385.28,511.89,381.92z"/>
		<g>
			<path class="st11" d="M502.89,379.76l-73.7-42.55c-3.79-2.19-3.79-7.67,0-9.86l78.46-45.3c1.76-1.02,3.93-1.02,5.69,0
				l79.02,45.62c3.79,2.19,3.79,7.67,0,9.86l-73.14,42.23C514.17,382.68,507.94,382.68,502.89,379.76z"/>
			<polygon class="st11" points="426.38,312.17 426.34,332.37 510.77,378.29 510.77,364.69 			"/>
			<path class="st43" d="M511.89,381.92v-24.17l83.32-45.59v20.44c0,0,0.18,3.18-2.85,4.93l-71.87,41.49
				C520.49,379.03,515.91,382.21,511.89,381.92z"/>
			<linearGradient id="SVGID_1_" gradientUnits="userSpaceOnUse" x1="426.3445" y1="311.7144" x2="595.2054" y2="311.7144">
				<stop  offset="0.2877" style="stop-color:#B6BDFF"/>
				<stop  offset="1" style="stop-color:#6D7CFF"/>
			</linearGradient>
			<path class="st44" d="M502.89,359.32l-73.7-42.55c-3.79-2.19-3.79-7.67,0-9.86l75.01-43.31c3.89-2.25,8.69-2.25,12.58,0
				l75.58,43.63c3.79,2.19,3.79,7.67,0,9.86l-73.14,42.23C514.17,362.24,507.94,362.24,502.89,359.32z"/>
		</g>
		<g>
			<path class="st11" d="M502.89,341.72l-73.7-42.55c-3.79-2.19-3.79-7.67,0-9.86l78.46-45.3c1.76-1.02,3.93-1.02,5.69,0
				l79.02,45.62c3.79,2.19,3.79,7.67,0,9.86l-73.14,42.23C514.17,344.64,507.94,344.64,502.89,341.72z"/>
			<polygon class="st11" points="426.38,274.13 426.34,294.33 510.77,340.25 510.77,326.65 			"/>
			<path class="st43" d="M511.89,343.89v-24.17l83.32-45.59v20.44c0,0,0.18,3.18-2.85,4.93l-71.87,41.49
				C520.49,340.99,515.91,344.18,511.89,343.89z"/>
			
				<linearGradient id="SVGID_00000173874371551175653460000011531165431072617632_" gradientUnits="userSpaceOnUse" x1="426.3445" y1="273.6757" x2="595.2054" y2="273.6757">
				<stop  offset="0.2877" style="stop-color:#B6BDFF"/>
				<stop  offset="1" style="stop-color:#6D7CFF"/>
			</linearGradient>
			<path style="fill:url(#SVGID_00000173874371551175653460000011531165431072617632_);" d="M502.89,321.28l-73.7-42.55
				c-3.79-2.19-3.79-7.67,0-9.86l75.01-43.31c3.89-2.25,8.69-2.25,12.58,0l75.58,43.63c3.79,2.19,3.79,7.67,0,9.86l-73.14,42.23
				C514.17,324.2,507.94,324.2,502.89,321.28z"/>
		</g>
		<g>
			<path class="st11" d="M502.89,300.15l-73.7-42.55c-3.79-2.19-3.79-7.67,0-9.86l78.46-45.3c1.76-1.02,3.93-1.02,5.69,0
				l79.02,45.62c3.79,2.19,3.79,7.67,0,9.86l-73.14,42.23C514.17,303.07,507.94,303.07,502.89,300.15z"/>
			<polygon class="st11" points="426.38,232.56 426.34,252.76 510.77,298.69 510.77,285.08 			"/>
			<path class="st43" d="M511.89,302.32v-24.17l83.32-45.59V253c0,0,0.18,3.18-2.85,4.93l-71.87,41.49
				C520.49,299.42,515.91,302.61,511.89,302.32z"/>
			
				<linearGradient id="SVGID_00000156570823162227300210000014137614396918415038_" gradientUnits="userSpaceOnUse" x1="426.3445" y1="232.1091" x2="595.2054" y2="232.1091">
				<stop  offset="0.2877" style="stop-color:#B6BDFF"/>
				<stop  offset="1" style="stop-color:#6D7CFF"/>
			</linearGradient>
			<path style="fill:url(#SVGID_00000156570823162227300210000014137614396918415038_);" d="M502.89,279.72l-73.7-42.55
				c-3.79-2.19-3.79-7.67,0-9.86L504.2,184c3.89-2.25,8.69-2.25,12.58,0l75.58,43.63c3.79,2.19,3.79,7.67,0,9.86l-73.14,42.23
				C514.17,282.63,507.94,282.63,502.89,279.72z"/>
		</g>
		<g>
			<g>
				<path class="st7" d="M445.21,258.08c0,1.4-0.99,1.97-2.21,1.26c-1.22-0.71-2.22-2.42-2.22-3.82c0-1.4,0.99-1.97,2.21-1.26
					C444.22,254.97,445.21,256.68,445.21,258.08z"/>
			</g>
		</g>
		<path class="st47" d="M452.68,262.87c0,1.4-0.99,1.97-2.21,1.26c-1.22-0.71-2.22-2.42-2.22-3.82c0-1.4,0.99-1.97,2.21-1.26
			C451.68,259.76,452.68,261.47,452.68,262.87z"/>
		<g>
			<g>
				<g>
					<path class="st7" d="M437.75,293.34c0,1.4-0.99,1.97-2.21,1.26c-1.22-0.71-2.22-2.42-2.22-3.82c0-1.4,0.99-1.97,2.21-1.26
						S437.75,291.93,437.75,293.34z"/>
				</g>
			</g>
			<path class="st47" d="M445.21,298.13c0,1.4-0.99,1.97-2.21,1.26c-1.22-0.71-2.22-2.42-2.22-3.82s0.99-1.97,2.21-1.26
				C444.22,295.01,445.21,296.72,445.21,298.13z"/>
			<g>
				<g>
					<path class="st7" d="M452.68,302.92c0,1.4-0.99,1.97-2.21,1.26c-1.22-0.71-2.22-2.42-2.22-3.82c0-1.4,0.99-1.97,2.21-1.26
						C451.68,299.8,452.68,301.51,452.68,302.92z"/>
				</g>
			</g>
		</g>
		<g>
			<g>
				<g>
					<path class="st7" d="M437.75,333.38c0,1.4-0.99,1.97-2.21,1.26c-1.22-0.71-2.22-2.42-2.22-3.82c0-1.4,0.99-1.97,2.21-1.26
						C436.75,330.27,437.75,331.98,437.75,333.38z"/>
				</g>
			</g>
			<g>
				<g>
					<path class="st7" d="M445.21,338.17c0,1.4-0.99,1.97-2.21,1.26c-1.22-0.71-2.22-2.42-2.22-3.82s0.99-1.97,2.21-1.26
						C444.22,335.06,445.21,336.77,445.21,338.17z"/>
				</g>
			</g>
			<g>
				<g>
					<path class="st7" d="M452.68,342.96c0,1.4-0.99,1.97-2.21,1.26c-1.22-0.71-2.22-2.42-2.22-3.82c0-1.4,0.99-1.97,2.21-1.26
						C451.68,339.85,452.68,341.56,452.68,342.96z"/>
				</g>
			</g>
		</g>
		<polygon class="st47" points="557.8,273.37 568.5,267.19 568.5,258.58 557.8,264.76 		"/>
		<polygon class="st47" points="573.57,264.24 584.27,258.06 584.27,249.45 573.57,255.62 		"/>
		<polygon class="st47" points="557.8,314.3 568.5,308.13 568.5,299.51 557.8,305.69 		"/>
		<polygon class="st47" points="573.57,305.17 584.27,298.99 584.27,290.38 573.57,296.56 		"/>
		<polygon class="st47" points="557.8,352.21 568.5,346.04 568.5,337.42 557.8,343.6 		"/>
		<polygon class="st47" points="573.57,343.08 584.27,336.9 584.27,328.29 573.57,334.47 		"/>
	</g>
	<g>
		<polygon class="st123" points="689.17,439.92 679.08,440 688.97,402.4 721.88,421.18 		"/>
		<polygon class="st119" points="679.65,415.97 647.06,397.15 679.44,378.46 712.35,397.23 		"/>
		<polygon class="st124" points="679.07,408.36 658.41,396.43 678.94,384.58 699.8,396.48 		"/>
		<g>
			<polygon class="st125" points="679.65,415.97 679.08,440 647.1,421.1 647.1,397.15 			"/>
		</g>
		<g>
			<polygon class="st126" points="679.65,415.97 712.35,397.23 712.35,420.05 679.08,440 			"/>
		</g>
	</g>
	<g>
		<polygon class="st123" points="373.89,241.46 363.79,241.54 373.68,203.95 406.59,222.72 		"/>
		<polygon class="st119" points="364.36,217.51 331.77,198.7 364.16,180 397.07,198.78 		"/>
		<g>
			<polygon class="st125" points="364.36,217.51 363.79,241.54 331.82,222.64 331.82,198.7 			"/>
		</g>
		<g>
			<polygon class="st126" points="364.36,217.51 397.07,198.78 397.07,221.59 363.79,241.54 			"/>
		</g>
	</g>
	<path class="st127" d="M312.97,471.84l-43.26-24.98c-4.18-2.41-3.65-6.67,1.18-9.45l40.54-23.41c4.83-2.79,12.19-3.09,16.37-0.68
		l43.26,24.98c4.18,2.41,3.65,6.67-1.18,9.45l-40.54,23.41C324.51,473.95,317.14,474.25,312.97,471.84z"/>
	<path class="st127" d="M312.97,451.27l-43.26-24.98c-4.18-2.41-3.65-6.67,1.18-9.45l40.54-23.41c4.83-2.79,12.19-3.09,16.37-0.68
		l43.26,24.98c4.18,2.41,3.65,6.67-1.18,9.45l-40.54,23.41C324.51,453.38,317.14,453.69,312.97,451.27z"/>
	<g>
		<path class="st128" d="M375.54,394.6L375.54,394.6c-2.02,0.01-3.67-1.63-3.68-3.65l-0.09-17.58c-0.01-2.02,1.63-3.67,3.65-3.68h0
			c2.02-0.01,3.67,1.63,3.68,3.65l0.09,17.58C379.19,392.93,377.55,394.58,375.54,394.6z"/>
		<path class="st128" d="M392.12,357.14c-2.02,0.01-3.66,1.67-3.65,3.68l0.01,2.89c-0.67-0.9-1.75-1.48-2.95-1.47l0,0
			c-2.02,0.01-3.66,1.67-3.65,3.68l0.09,17.58c0.01,2.02,1.67,3.66,3.68,3.65l0,0c0.81,0,1.56-0.28,2.16-0.73l0,0l6.3-4.91l0,0
			c1.06-0.65,1.77-1.82,1.76-3.14l-0.09-17.58C395.79,358.77,394.13,357.13,392.12,357.14z"/>
		<path class="st129" d="M387.08,355.74l-61.65,40.59c-3.19,2.18-4.11,6.79-2.04,10.26v0c2.07,3.46,6.36,4.51,9.55,2.33l18.86-12.89
			c0.08-0.05,0.16-0.1,0.24-0.16L396,365.84C406.9,359.25,398.38,347.32,387.08,355.74z"/>
		<path class="st130" d="M326.76,408.22L326.76,408.22c-2.07-3.46-1.15-8.08,2.04-10.26l61.65-40.59c3.35-2.5,6.46-3.2,8.89-2.79
			c-2.39-2.28-7.03-2.75-12.26,1.15l-61.65,40.59c-3.19,2.18-4.11,6.79-2.04,10.26v0c1.12,1.88,2.9,3.05,4.8,3.37
			C327.64,409.47,327.16,408.89,326.76,408.22z"/>
		<path class="st131" d="M318.54,417.26c0.02,0.18,0.03,0.37,0.03,0.56c0.02,3.94-3.1,8.69-6.96,10.62
			c-2.05,1.02-3.9,1.04-5.19,0.25c0.31,3.53,3.33,4.91,7.01,3.08c3.86-1.93,6.98-6.68,6.96-10.62
			C320.37,419.31,319.67,417.97,318.54,417.26z"/>
		<path class="st130" d="M320.06,383.54c-13.11,6.54-23.69,22.67-23.62,36.04c0.02,4.51,1.26,8.13,3.38,10.69
			c2.23,2.68,11.42,7.37,11.42,7.37c3.35,0.16,5.01-3.68,9.07-5.7c13.11-6.54,23.69-22.67,23.62-36.04
			c-0.01-2.87,3.44-6.09,1.88-7.74c-2.64-2.8-6.71-4.9-9.41-6.15C332.13,380.05,326.38,380.4,320.06,383.54z M314.05,431.45
			c-3.86,1.93-9.06,0.51-9.08-3.43c-0.02-3.94,5.38-14.05,9.24-15.97c3.86-1.93,6.77,4.85,6.79,8.79
			C321.03,424.77,317.91,429.52,314.05,431.45z"/>
		<path class="st129" d="M325.94,387.18c-13.11,6.54-23.69,22.67-23.62,36.04s10.76,18.9,23.87,12.36
			c13.11-6.54,23.69-22.67,23.62-36.04C349.74,386.18,339.05,380.65,325.94,387.18z M313.42,431.77c-3.86,1.93-7.01,0.3-7.03-3.64
			c-0.02-3.94,3.1-8.69,6.96-10.62c3.86-1.93,7.01-0.3,7.03,3.64C320.4,425.09,317.29,429.85,313.42,431.77z"/>
		<path class="st132" d="M312.89,438.07c3.8,0.72,8.38-0.03,13.3-2.49c13.11-6.54,23.69-22.67,23.62-36.04
			c-0.03-5.97-2.18-10.38-5.72-12.85C339.81,411.79,328.65,427.93,312.89,438.07z"/>
	</g>
	<g>
		<g>
			<path class="st3" d="M289.03,326.23l-106.15-61.29c-1.23-0.71-3.39-0.62-4.81,0.2l-62.15,35.82c-1.42,0.82-1.57,2.07-0.35,2.78
				l94.39,54.5l0.3,10.35l14.41-3.14l0,0c0.67-0.1,1.32-0.3,1.86-0.61l62.15-35.82C290.1,328.19,290.25,326.94,289.03,326.23z"/>
			<polygon class="st4" points="277.98,325.58 275.36,327.24 274.26,323.52 278.26,323.52 			"/>
			<polygon class="st4" points="185.64,191.61 188.26,189.95 192.77,194.18 187.15,195.06 			"/>
			<path class="st5" d="M274.43,325.62l-104.38-60.26c-2.31-1.33-3.45-5-2.54-8.15l18.43-63.97c0.91-3.15,3.54-4.64,5.84-3.31
				l104.66,60.79c2.31,1.33,2.99,3.76,2.08,6.92l-18.25,64.67C279.37,325.46,276.74,326.95,274.43,325.62z"/>
			<path class="st4" d="M271.74,327.32l-104.38-60.26c-2.31-1.33-3.45-5-2.54-8.15l18.43-63.97c0.91-3.15,3.54-4.64,5.84-3.31
				l105.37,60.95c2.31,1.33,2.77,3.11,1.86,6.26l-18.74,65.17C276.67,327.16,274.04,328.65,271.74,327.32z"/>
			<path class="st6" d="M270.08,325.02L169.93,267.2c-2.21-1.28-3.31-4.8-2.44-7.82L185.17,198c0.87-3.02,3.39-4.45,5.61-3.18
				l101.1,58.48c2.21,1.28,2.66,2.98,1.79,6.01l-17.98,62.53C274.81,324.87,272.29,326.3,270.08,325.02z"/>
			<path class="st5" d="M273.52,330.62v-2.49l-15.32,8.01l-0.87-2.01l-102.01-58.89c-1.23-0.71-3.67-0.62-5.09,0.2l-44.19,25.36
				v-0.71l-6.71,3.26l-0.94-0.38l0.13,3.1c0.1,0.68,0.36,0.95,0.78,1.19l106.15,61.45c1.23,0.71,3.4,0.7,4.81-0.12l61.62-35.25
				C273.53,332.49,273.52,330.62,273.52,330.62z"/>
			<path class="st5" d="M273.52,330.62l-0.33-3.09l-14.99,8.61l-0.87-2.01l-50.04-28.89l-1.85,63.47c0.61,0.35,1.46,0.53,2.34,0.51
				c0.87-0.02,1.77-0.22,2.48-0.63l61.62-35.25C273.53,332.49,273.52,330.62,273.52,330.62z"/>
			<path class="st7" d="M272.69,327.03l-106.15-61.29c-1.23-0.71-3.39-0.62-4.81,0.2l-62.15,35.82c-1.42,0.82-1.57,2.07-0.35,2.78
				l106.15,61.29c1.23,0.71,3.39,0.62,4.81-0.2l62.15-35.82C273.76,328.99,273.92,327.74,272.69,327.03z"/>
			<g>
				<g>
					<path class="st4" d="M161.64,283c-0.15,0.09-0.47,0.05-0.7-0.08l-6.44-3.72c-0.23-0.13-0.3-0.32-0.14-0.4l4.27-2.47
						c0.15-0.09,0.47-0.05,0.7,0.08l6.44,3.72c0.23,0.13,0.3,0.32,0.14,0.4L161.64,283z"/>
					<path class="st4" d="M169.12,294.11c-0.16,0.09-0.47,0.05-0.7-0.08l-6.44-3.72c-0.23-0.13-0.29-0.31-0.14-0.4l4.27-2.47
						c0.15-0.09,0.46-0.05,0.7,0.08l6.44,3.72c0.24,0.14,0.3,0.32,0.14,0.4L169.12,294.11z"/>
					<path class="st4" d="M165.34,298.72c-0.15,0.09-0.47,0.05-0.7-0.08l-6.45-3.72c-0.23-0.13-0.3-0.31-0.14-0.4l4.27-2.47
						c0.15-0.09,0.47-0.05,0.7,0.08l6.45,3.72c0.23,0.13,0.3,0.32,0.14,0.4L165.34,298.72z"/>
					<path class="st4" d="M155.11,299.61c-0.15,0.09-0.47,0.05-0.7-0.08l-6.44-3.72c-0.23-0.13-0.29-0.32-0.14-0.4l4.27-2.47
						c0.15-0.09,0.47-0.05,0.7,0.08l6.44,3.72c0.23,0.13,0.29,0.32,0.14,0.4L155.11,299.61z"/>
					<path class="st4" d="M137.38,297.02c-0.15,0.09-0.47,0.05-0.7-0.08l-6.44-3.72c-0.23-0.13-0.3-0.32-0.14-0.4l5.01-2.9
						c0.15-0.09,0.47-0.05,0.7,0.08l6.44,3.72c0.23,0.13,0.29,0.32,0.14,0.4L137.38,297.02z"/>
					<path class="st4" d="M148.49,303.43c-0.15,0.09-0.53,0.02-0.83-0.16l-8.44-4.87c-0.3-0.17-0.43-0.39-0.27-0.48l5.01-2.9
						c0.15-0.09,0.53-0.02,0.83,0.16l8.44,4.87c0.31,0.18,0.43,0.39,0.27,0.48L148.49,303.43z"/>
					<path class="st4" d="M203.96,335.49c-0.13,0.07-0.42,0.03-0.65-0.11l-6.44-3.72c-0.24-0.14-0.32-0.31-0.19-0.38l1.85-1.07
						c0.13-0.07,0.42-0.02,0.66,0.11l6.44,3.72c0.23,0.13,0.32,0.3,0.19,0.38L203.96,335.49z"/>
					<path class="st4" d="M212.57,340.59c-0.13,0.07-0.42,0.03-0.65-0.11l-6.44-3.72c-0.24-0.14-0.32-0.31-0.19-0.38l1.85-1.07
						c0.13-0.07,0.42-0.02,0.66,0.11l6.44,3.72c0.23,0.13,0.32,0.3,0.19,0.38L212.57,340.59z"/>
					<path class="st4" d="M221.7,345.73c-0.12,0.07-0.41,0.02-0.65-0.11l-6.44-3.72c-0.23-0.13-0.32-0.3-0.2-0.37l1.79-1.03
						c0.12-0.07,0.42-0.02,0.65,0.12l6.44,3.72c0.23,0.13,0.32,0.3,0.2,0.37L221.7,345.73z"/>
					<path class="st4" d="M216.08,338.62c-0.12,0.07-0.41,0.02-0.65-0.11l-6.44-3.72c-0.23-0.13-0.32-0.3-0.2-0.37l1.79-1.03
						c0.12-0.07,0.42-0.02,0.65,0.12l6.44,3.72c0.23,0.13,0.32,0.3,0.2,0.37L216.08,338.62z"/>
					<path class="st4" d="M192.82,329.01c-0.15,0.09-0.47,0.05-0.7-0.08l-41.94-24.2c-0.23-0.13-0.3-0.32-0.14-0.4l5.01-2.9
						c0.15-0.09,0.47-0.05,0.7,0.08l41.94,24.2c0.23,0.13,0.3,0.32,0.15,0.41L192.82,329.01z"/>
					<path class="st4" d="M147.34,301.83c-0.01,0.01-0.04,0-0.07-0.02l-4.93-2.84c-0.03-0.02-0.04-0.03-0.03-0.04l0.31-0.18
						c0.01-0.01,0.04,0,0.07,0.02l4.93,2.84c0.03,0.02,0.04,0.03,0.03,0.04L147.34,301.83z"/>
					<path class="st4" d="M134.71,294c-0.01,0.01-0.03,0-0.04,0l-2.09-1.21c-0.01-0.01-0.01-0.02,0-0.02l0.31-0.18
						c0.01-0.01,0.03,0,0.04,0l2.09,1.21c0.01,0.01,0.01,0.02,0,0.02L134.71,294z"/>
					<path class="st4" d="M163.95,304.7c-0.15,0.09-0.47,0.05-0.7-0.08l-6.44-3.72c-0.23-0.13-0.3-0.32-0.14-0.4l4.27-2.47
						c0.15-0.09,0.47-0.05,0.7,0.08l6.44,3.72c0.23,0.13,0.3,0.32,0.14,0.41L163.95,304.7z"/>
					<path class="st4" d="M172.82,309.82c-0.15,0.09-0.47,0.05-0.7-0.08l-6.44-3.72c-0.23-0.13-0.3-0.32-0.14-0.4l4.27-2.47
						c0.15-0.09,0.47-0.05,0.7,0.08l6.44,3.72c0.23,0.13,0.29,0.32,0.14,0.4L172.82,309.82z"/>
					<path class="st4" d="M181.69,314.94c-0.15,0.09-0.47,0.05-0.7-0.08l-6.44-3.72c-0.23-0.13-0.29-0.31-0.14-0.4l4.27-2.47
						c0.15-0.09,0.47-0.05,0.7,0.08l6.44,3.72c0.23,0.13,0.29,0.32,0.14,0.4L181.69,314.94z"/>
					<path class="st4" d="M190.57,320.06c-0.15,0.09-0.47,0.05-0.7-0.08l-6.45-3.72c-0.23-0.13-0.3-0.32-0.14-0.4l4.27-2.47
						c0.15-0.09,0.47-0.05,0.7,0.08l6.44,3.72c0.23,0.13,0.29,0.32,0.14,0.4L190.57,320.06z"/>
					<path class="st4" d="M199.44,325.18c-0.15,0.09-0.47,0.05-0.7-0.08l-6.44-3.72c-0.23-0.13-0.29-0.31-0.14-0.4l4.27-2.47
						c0.15-0.09,0.47-0.05,0.7,0.08l6.44,3.72c0.23,0.13,0.3,0.32,0.14,0.41L199.44,325.18z"/>
					<path class="st4" d="M208.32,330.3c-0.15,0.09-0.47,0.05-0.7-0.08l-6.44-3.72c-0.23-0.13-0.3-0.32-0.14-0.4l4.27-2.47
						c0.15-0.09,0.47-0.05,0.7,0.08l6.44,3.72c0.23,0.13,0.29,0.32,0.14,0.4L208.32,330.3z"/>
					<path class="st4" d="M228.3,341.83c-0.15,0.09-0.47,0.05-0.7-0.08l-17.56-10.13c-0.23-0.13-0.29-0.32-0.14-0.4l4.27-2.47
						c0.15-0.09,0.47-0.05,0.7,0.08l17.56,10.13c0.23,0.13,0.29,0.32,0.14,0.4L228.3,341.83z"/>
					<path class="st4" d="M174.17,303.81c-0.15,0.09-0.46,0.05-0.7-0.08l-6.45-3.72c-0.23-0.13-0.3-0.31-0.14-0.4l4.27-2.47
						c0.15-0.09,0.47-0.05,0.7,0.08l6.45,3.72c0.23,0.13,0.29,0.31,0.14,0.4L174.17,303.81z"/>
					<path class="st4" d="M183.04,308.93c-0.15,0.09-0.47,0.05-0.7-0.08l-6.45-3.72c-0.23-0.13-0.29-0.31-0.14-0.4l4.27-2.47
						c0.15-0.09,0.47-0.05,0.69,0.08l6.45,3.72c0.23,0.13,0.29,0.31,0.14,0.4L183.04,308.93z"/>
					<path class="st4" d="M191.92,314.05c-0.15,0.09-0.47,0.05-0.7-0.08l-6.44-3.72c-0.23-0.13-0.3-0.32-0.14-0.4l4.27-2.47
						c0.15-0.09,0.47-0.05,0.7,0.08l6.44,3.72c0.23,0.13,0.3,0.32,0.14,0.4L191.92,314.05z"/>
					<path class="st4" d="M200.79,319.17c-0.15,0.09-0.47,0.05-0.7-0.08l-6.44-3.72c-0.23-0.13-0.3-0.31-0.14-0.4l4.27-2.47
						c0.15-0.09,0.47-0.05,0.7,0.08l6.44,3.72c0.23,0.13,0.29,0.32,0.14,0.4L200.79,319.17z"/>
					<path class="st4" d="M209.67,324.29c-0.15,0.09-0.47,0.05-0.7-0.08l-6.45-3.72c-0.23-0.13-0.3-0.31-0.14-0.4l4.27-2.47
						c0.15-0.09,0.46-0.05,0.7,0.08l6.45,3.72c0.23,0.13,0.29,0.32,0.14,0.4L209.67,324.29z"/>
					<path class="st4" d="M218.54,329.41c-0.15,0.09-0.47,0.05-0.7-0.08l-6.44-3.72c-0.23-0.14-0.3-0.32-0.15-0.4l4.27-2.47
						c0.15-0.09,0.47-0.05,0.7,0.08l6.44,3.72c0.23,0.13,0.29,0.31,0.14,0.4L218.54,329.41z"/>
					<path class="st4" d="M227.41,334.53c-0.15,0.09-0.47,0.05-0.7-0.08l-6.45-3.72c-0.23-0.13-0.29-0.31-0.14-0.4l4.27-2.47
						c0.15-0.09,0.46-0.05,0.69,0.08l6.45,3.72c0.23,0.13,0.29,0.31,0.14,0.4L227.41,334.53z"/>
					<path class="st4" d="M177.95,299.2c-0.16,0.09-0.47,0.05-0.7-0.08l-6.44-3.72c-0.23-0.13-0.29-0.31-0.14-0.4l4.27-2.47
						c0.15-0.09,0.47-0.05,0.7,0.08l6.44,3.72c0.23,0.13,0.3,0.32,0.14,0.4L177.95,299.2z"/>
					<path class="st4" d="M186.82,304.32c-0.16,0.09-0.47,0.05-0.7-0.08l-6.44-3.72c-0.23-0.13-0.3-0.32-0.14-0.41l4.27-2.47
						c0.15-0.09,0.47-0.05,0.7,0.08l6.44,3.72c0.23,0.13,0.29,0.31,0.14,0.4L186.82,304.32z"/>
					<path class="st4" d="M195.69,309.44c-0.16,0.09-0.47,0.05-0.7-0.08l-6.44-3.72c-0.23-0.13-0.29-0.31-0.14-0.4l4.27-2.47
						c0.15-0.09,0.47-0.05,0.7,0.08l6.44,3.72c0.23,0.13,0.3,0.32,0.14,0.4L195.69,309.44z"/>
					<path class="st4" d="M204.57,314.56c-0.16,0.09-0.47,0.05-0.7-0.08l-6.44-3.72c-0.23-0.13-0.3-0.32-0.14-0.41l4.27-2.47
						c0.15-0.09,0.47-0.05,0.7,0.08l6.44,3.72c0.23,0.13,0.29,0.31,0.14,0.4L204.57,314.56z"/>
					<path class="st4" d="M213.44,319.68c-0.16,0.09-0.47,0.05-0.7-0.08l-6.44-3.72c-0.23-0.13-0.29-0.31-0.14-0.4l4.27-2.47
						c0.15-0.09,0.46-0.05,0.7,0.08l6.45,3.72c0.23,0.13,0.29,0.31,0.14,0.4L213.44,319.68z"/>
					<path class="st4" d="M222.32,324.8c-0.16,0.09-0.47,0.05-0.7-0.08l-6.44-3.72c-0.23-0.13-0.29-0.31-0.14-0.4l4.27-2.47
						c0.15-0.09,0.47-0.05,0.7,0.08l6.44,3.72c0.23,0.14,0.3,0.32,0.15,0.4L222.32,324.8z"/>
					<path class="st4" d="M231.19,329.92c-0.16,0.09-0.47,0.05-0.7-0.08l-6.44-3.72c-0.23-0.13-0.29-0.31-0.14-0.4l4.27-2.47
						c0.15-0.09,0.47-0.05,0.7,0.08l6.44,3.72c0.23,0.13,0.29,0.31,0.14,0.4L231.19,329.92z"/>
					<path class="st4" d="M160.24,288.99c-0.16,0.09-0.47,0.05-0.7-0.08l-10.93-6.31c-0.23-0.13-0.3-0.32-0.14-0.41l4.27-2.47
						c0.15-0.09,0.47-0.05,0.7,0.08l10.93,6.31c0.23,0.13,0.3,0.32,0.14,0.4L160.24,288.99z"/>
					<path class="st4" d="M245.94,331.64c-0.15,0.09-0.47,0.05-0.7-0.08l-10.93-6.31c-0.23-0.13-0.29-0.32-0.14-0.4l4.27-2.47
						c0.15-0.09,0.47-0.05,0.7,0.08l10.93,6.31c0.23,0.13,0.3,0.32,0.14,0.4L245.94,331.64z"/>
					<path class="st4" d="M156.46,293.59c-0.15,0.09-0.46,0.05-0.7-0.08l-13.03-7.52c-0.23-0.13-0.3-0.31-0.14-0.4l4.27-2.47
						c0.15-0.09,0.47-0.05,0.7,0.08l13.03,7.52c0.23,0.14,0.3,0.32,0.14,0.4L156.46,293.59z"/>
					<path class="st4" d="M146.24,294.49c-0.15,0.09-0.47,0.05-0.7-0.08l-8.69-5.01c-0.23-0.13-0.3-0.32-0.14-0.4l4.27-2.47
						c0.15-0.09,0.47-0.05,0.7,0.08l8.69,5.01c0.23,0.13,0.29,0.32,0.14,0.41L146.24,294.49z"/>
					<path class="st4" d="M170.51,288.12c-0.15,0.09-0.47,0.05-0.7-0.08l-6.44-3.72c-0.23-0.13-0.3-0.32-0.14-0.4l4.27-2.47
						c0.15-0.09,0.47-0.05,0.7,0.08l6.44,3.72c0.24,0.14,0.3,0.32,0.14,0.41L170.51,288.12z"/>
					<path class="st4" d="M179.35,293.22c-0.15,0.09-0.47,0.05-0.7-0.08l-6.44-3.72c-0.23-0.13-0.3-0.32-0.14-0.4l4.27-2.47
						c0.15-0.09,0.47-0.05,0.7,0.08l6.44,3.72c0.23,0.13,0.3,0.32,0.14,0.41L179.35,293.22z"/>
					<path class="st4" d="M188.22,298.33c-0.15,0.09-0.47,0.05-0.7-0.08l-6.44-3.72c-0.23-0.13-0.29-0.31-0.14-0.4l4.27-2.47
						c0.15-0.09,0.47-0.05,0.7,0.08l6.44,3.72c0.23,0.13,0.29,0.31,0.14,0.4L188.22,298.33z"/>
					<path class="st4" d="M197.09,303.46c-0.15,0.09-0.47,0.05-0.7-0.08l-6.44-3.72c-0.23-0.13-0.3-0.32-0.14-0.41l4.27-2.47
						c0.15-0.09,0.47-0.05,0.7,0.08l6.44,3.72c0.23,0.13,0.3,0.32,0.14,0.4L197.09,303.46z"/>
					<path class="st4" d="M205.96,308.58c-0.15,0.09-0.46,0.06-0.7-0.08l-6.44-3.72c-0.23-0.13-0.3-0.32-0.14-0.41l4.27-2.47
						c0.15-0.09,0.47-0.05,0.7,0.08l6.44,3.72c0.23,0.13,0.29,0.31,0.14,0.4L205.96,308.58z"/>
					<path class="st4" d="M214.84,313.69c-0.15,0.09-0.47,0.05-0.7-0.08l-6.45-3.72c-0.23-0.13-0.29-0.31-0.14-0.4l4.27-2.47
						c0.15-0.09,0.47-0.05,0.7,0.08l6.45,3.72c0.23,0.13,0.29,0.31,0.14,0.4L214.84,313.69z"/>
					<path class="st4" d="M223.72,318.82c-0.15,0.09-0.47,0.05-0.7-0.08l-6.44-3.72c-0.23-0.13-0.3-0.32-0.14-0.41l4.27-2.47
						c0.15-0.09,0.47-0.05,0.7,0.08l6.44,3.72c0.23,0.13,0.3,0.32,0.14,0.4L223.72,318.82z"/>
					<path class="st4" d="M232.59,323.93c-0.15,0.09-0.47,0.05-0.7-0.08l-6.45-3.72c-0.23-0.13-0.29-0.31-0.14-0.4l4.27-2.47
						c0.15-0.09,0.47-0.05,0.7,0.08l6.45,3.72c0.23,0.13,0.29,0.31,0.14,0.4L232.59,323.93z"/>
					<path class="st4" d="M237.75,328.45c-0.11-0.06-0.24-0.11-0.38-0.12c-0.14-0.02-0.25,0-0.32,0.04l-4.27,2.47
						c-0.07,0.04-0.1,0.11-0.08,0.18c0.03,0.08,0.11,0.16,0.21,0.22l1.68,0.97l-5.6,3.24c-0.07,0.04-0.1,0.11-0.07,0.19
						c0.03,0.08,0.11,0.16,0.22,0.22l4.34,2.51c0.11,0.06,0.24,0.11,0.38,0.13c0.14,0.02,0.25,0,0.32-0.04l10.15-5.86
						c0.07-0.04,0.1-0.11,0.07-0.18c-0.03-0.08-0.11-0.16-0.22-0.22L237.75,328.45z"/>
					<path class="st4" d="M145.09,292.41c-0.01,0.01-0.04,0-0.07-0.02l-4.93-2.84c-0.03-0.02-0.04-0.03-0.03-0.04l0.31-0.18
						c0.01-0.01,0.04,0,0.07,0.02l4.93,2.84c0.03,0.02,0.04,0.03,0.03,0.04L145.09,292.41z"/>
				</g>
			</g>
			<path class="st4" d="M170.26,334.56l-24.93-14.39c-1.34-0.78-1.26-2,0.19-2.72l8.33-4.14c1.45-0.72,3.74-0.68,5.08,0.1
				l24.93,14.39c1.34,0.78,1.26,2-0.19,2.72l-8.33,4.14C173.89,335.38,171.6,335.33,170.26,334.56z"/>
		</g>
		<line class="st133" x1="165.26" y1="265.54" x2="267.43" y2="324.46"/>
	</g>
	<path class="st3" d="M552.55,526.43l52.58-30.68c3.88-2.26,3.88-7.86,0-10.13l-46.83-27.37L552.55,526.43z"/>
	<g>
		<path class="st5" d="M582.28,433.44c0.45-1.73,0.34-3.58-0.2-5.15l0.03-0.01c-0.49-1.48-1.36-2.71-2.51-3.35l-39.11-22.06
			c-0.99-0.56-2.02-0.59-2.95-0.19l-4.52,1.93l-20.92,89.2c-0.01,0.06-0.02,0.1-0.01,0.12c-0.84,3.33,0.35,7.08,2.69,8.39
			l37.78,23.88l3.83-1.86c1.71-0.86,2.83-1.82,3.4-4.01L582.28,433.44z"/>
		<path class="st4" d="M549.42,526.12l-39-22.07c-2.34-1.32-3.43-5.1-2.57-8.44l22.59-87.3c0.86-3.34,3.4-4.97,5.75-3.64
			l38.97,22.07c2.34,1.32,3.41,5.1,2.54,8.44l-22.59,87.3C554.25,525.82,551.76,527.44,549.42,526.12z"/>
		<path class="st6" d="M554.56,509.98l19.08-73.72c0.13-0.49-0.04-0.93-0.44-1.15l-38.04-21.46c-0.85-0.48-2.26,0.23-2.53,1.28
			l-2.08,8.03c-0.05,0.1-0.1,0.21-0.13,0.33l-19.08,73.72c-0.13,0.49,0.04,0.93,0.44,1.15l38.04,21.46
			c0.85,0.48,2.26-0.23,2.53-1.28l2.08-8.03C554.48,510.2,554.53,510.09,554.56,509.98z"/>
		<path class="st134" d="M560.81,425.16l-12.06-6.81c-0.42-0.24-0.64-0.93-0.49-1.53l0,0c0.16-0.6,0.63-0.9,1.05-0.66l12.06,6.81
			c0.42,0.24,0.64,0.93,0.49,1.53v0C561.71,425.1,561.24,425.4,560.81,425.16z"/>
	</g>
	<g>
		<ellipse class="st4" cx="508.21" cy="236.31" rx="39.99" ry="17.38"/>
	</g>
	<g>
		<path class="st13" d="M504.08,232.03L504.08,232.03c-28.99-21.4-38.89-68.37-27.5-104.81l9.22-79.44l17.5-6.07l66.9,8.46
			l49.06,65.53l-26.72,85.51C584.05,231.35,538.76,247.77,504.08,232.03z"/>
		<path class="st7" d="M493.35,240.34L493.35,240.34c-28.08-34.5-45.65-70.6-34.27-107.05l26.72-85.51l66.9,8.46l49.06,65.53
			l-26.72,85.51C571.93,219.74,537.51,242.94,493.35,240.34z"/>
		<path class="st13" d="M497.37,226.32c-16.92-29.95-37.11-60.83-28.01-89.98l21.37-68.39l53.5,6.76l39.24,52.41l-22.06,41.31
			C552.31,197.58,497.37,226.32,497.37,226.32z"/>
		<path class="st4" d="M497.37,226.32L497.37,226.32l46.86-151.6l39.24,52.41l-21.37,68.39
			C555.22,209.03,531.98,223.85,497.37,226.32z"/>
	</g>
	<polyline class="st135" points="575.04,207.27 601.76,121.76 552.7,56.23 	"/>
	<path class="st135" d="M458.55,178.36c0,0-6.18-23.56,0.54-45.07s26.72-85.51,26.72-85.51l46.21,5.84"/>
	<g>
		<path class="st49" d="M543.63,116.4c-0.16,1.72-0.46,3.68-0.96,5.91l-5.56-13.59c0.4-1.79-5.18-4.15-4.47-5.97l-8.81,2.2
			c-0.77,1.92-1.49,4.12-2.12,6.64c-4.24-0.99-8.72-1.03-11.73,0.12h0c-1.9,0.72-2.93,1.81-3.12,3.05l-9.31,36.04l0.03,0.01
			c-0.81,1.92,0.63,4.35,4.2,6.39l30.52,17.42c5.35,3.06,13.54,4.1,18.19,2.33c1.23-0.47,2.09-1.09,2.59-1.8
			c0.34-0.39,0.56-0.82,0.67-1.26l0,0l7.9-31.15l1.38-5.36l0,0c0.41-1.84-1.07-4.05-4.35-5.92l-7.13-4.07
			c0-0.02,0.01-0.03,0.01-0.05c0.89-3.23-0.53-6.65-3.43-8.33L543.63,116.4z"/>
		<g>
			
				<linearGradient id="SVGID_00000076563624985674978130000012460676275706346422_" gradientUnits="userSpaceOnUse" x1="486.5801" y1="148.469" x2="552.262" y2="148.469">
				<stop  offset="0.186" style="stop-color:#6D7CFF"/>
				<stop  offset="0.3422" style="stop-color:#6373FF"/>
				<stop  offset="0.7342" style="stop-color:#4F61FF"/>
				<stop  offset="1" style="stop-color:#485BFF"/>
			</linearGradient>
			<path style="fill:url(#SVGID_00000076563624985674978130000012460676275706346422_);" d="M552.26,139.82l-56.05-23.14
				l-9.44,36.56l0.03,0.01c-0.81,1.92,0.63,4.35,4.2,6.39l30.52,17.42c5.35,3.06,13.54,4.1,18.19,2.33
				c1.78-0.68,2.79-1.67,3.07-2.81l0,0L552.26,139.82z"/>
			<path class="st51" d="M538.01,133.6l-9.62,37.29l0,0c-0.37,1.52-1.73,2.85-4.1,3.76l0,0c-1.34,0.51-2.9,0.85-4.59,1.02l2.02,1.15
				c5.35,3.06,13.54,4.1,18.19,2.33h0c1.78-0.68,2.79-1.67,3.07-2.81l0,0l9.15-36.1L538.01,133.6z"/>
			<path class="st52" d="M515.06,142.39L515.06,142.39c1.44,0.57,2.18,2.54,1.65,4.37l-3.01,10.42c-0.53,1.83-2.14,2.86-3.57,2.29v0
				c-1.44-0.57-2.18-2.54-1.65-4.37l3.01-10.42C512.01,142.84,513.62,141.81,515.06,142.39z"/>
			
				<ellipse transform="matrix(0.8473 -0.5311 0.5311 0.8473 0.8015 295.3557)" class="st52" cx="514.04" cy="146.28" rx="5.52" ry="6.95"/>
			<path class="st5" d="M530.98,140.36l-30.52-17.42c-5.35-3.06-5.92-7.01-1.27-8.78h0c4.66-1.78,12.84-0.73,18.19,2.33l30.52,17.42
				c5.35,3.06,5.92,7.01,1.27,8.78l0,0C544.52,144.46,536.33,143.41,530.98,140.36z"/>
			<path class="st53" d="M539.11,134.9c-0.3,1.15-2.64,1.5-5.23,0.77c-2.59-0.73-4.45-2.25-4.15-3.41c0.3-1.15,2.64-1.5,5.23-0.77
				C537.55,132.23,539.4,133.75,539.11,134.9z"/>
			
				<ellipse transform="matrix(0.2754 -0.9613 0.9613 0.2754 255.2539 582.8348)" class="st53" cx="514.24" cy="122.1" rx="2.16" ry="4.87"/>
			<path class="st53" d="M532.6,95.97c0,0-17.52-9.41-23.05,24.81l9.38,2.63c0,0,2.15-19.37,9.5-16.86c0,0,1.14,0.29,1.7,0.78
				c1.8,1.59,5.62,7.06-0.41,25.1l9.38,2.63C539.09,135.08,551.42,103.74,532.6,95.97z"/>
		</g>
		<path class="st137" d="M510.56,150.85c-1.89-1.83-2.93-4.58-2.48-7.06c0.53-2.94,2.99-4.53,5.76-3.95"/>
		<path class="st137" d="M509.58,159.16c0,0-1.82-0.68-1.22-3.52l1.62-5.41"/>
	</g>
	<path class="st135" d="M462.62,190.72c0,0,10.21,25.26,17.51,32.02"/>
	<path class="st135" d="M494.27,240.39c0,0,35.96,3.46,68.03-18.43"/>
	<line class="st138" x1="450.64" y1="40.25" x2="460.3" y2="41.71"/>
	<line class="st138" x1="509.34" y1="13.49" x2="506.61" y2="22.87"/>
	<line class="st138" x1="470.14" y1="2.64" x2="473.8" y2="11.71"/>
	<line class="st139" x1="350.1" y1="396.3" x2="397.65" y2="365.3"/>
	<g>
		<path class="st140" d="M248.77,267.28c4.08-12.94-1.4-29.06-12.24-35.99c-4.99-3.19-10.23-3.88-14.85-2.43l0,0l-0.05,0.02
			c-0.62,0.2-1.23,0.43-1.83,0.71l-11.1,4.66l5.23-0.19c-1.87,2.17-3.39,4.89-4.4,8.12c-4.08,12.94,1.4,29.06,12.24,35.99
			c2.22,1.42,4.49,2.34,6.73,2.8l0.62,2.72l7.73-3.16c0.42-0.14,0.83-0.3,1.24-0.47l0.14-0.05l0-0.01
			C242.92,277.94,246.79,273.56,248.77,267.28z"/>
		
			<ellipse transform="matrix(0.9687 -0.2482 0.2482 0.9687 -57.4067 62.4652)" class="st141" cx="219.03" cy="258.9" rx="20.51" ry="26.94"/>
		<g>
			<path class="st7" d="M207.45,255.67c1.17,3.38,2.33,6.77,3.5,10.15c0.16,0.48,0.33,0.95,0.49,1.43c0.21,0.62,0.64,1.11,1.29,1.29
				c0.69,0.19,1.26-0.05,1.79-0.47c1.66-1.3,3.31-2.6,4.97-3.9c2.65-2.08,5.3-4.17,7.95-6.25c0.61-0.48,1.21-0.95,1.82-1.43
				c0.35-0.27,0.54-0.89,0.54-1.3c0-0.45-0.2-0.99-0.54-1.3c-0.35-0.32-0.81-0.56-1.3-0.54c-0.52,0.02-0.9,0.22-1.3,0.54
				c-1.66,1.3-3.31,2.6-4.97,3.9c-2.65,2.08-5.3,4.17-7.95,6.25c-0.61,0.48-1.21,0.95-1.82,1.43c1.03,0.27,2.05,0.54,3.08,0.81
				c-1.17-3.38-2.33-6.77-3.5-10.15c-0.16-0.48-0.33-0.95-0.49-1.43c-0.31-0.91-1.28-1.61-2.27-1.29
				C207.83,253.69,207.11,254.69,207.45,255.67L207.45,255.67z"/>
		</g>
	</g>
	<g>
		<path class="st142" d="M270.87,209.37l-33.54-20.52c-10.45-6.39-16.31-21.5-13.03-33.58v0c3.28-12.08,14.51-16.73,24.96-10.34
			l33.54,20.52c10.45,6.39,16.31,21.5,13.03,33.58v0C292.54,211.1,281.31,215.76,270.87,209.37z"/>
		<polygon class="st142" points="241.7,181.03 249.28,211.99 264.88,195.61 		"/>
	</g>
	<g>
		<g>
			<polygon class="st7" points="244.59,168.02 242.69,166.99 244.38,166.26 243.38,164.09 241.7,164.81 242.18,162.75 240.3,161.72 
				239.81,163.78 238.81,161.59 237.14,162.31 238.14,164.5 236.24,163.46 235.76,165.51 237.66,166.55 235.97,167.27 
				236.97,169.45 238.65,168.72 238.17,170.78 240.05,171.81 240.54,169.75 241.54,171.94 243.21,171.22 242.21,169.03 
				244.11,170.07 			"/>
		</g>
	</g>
	<g>
		<g>
			<polygon class="st7" points="257.02,174.81 255.13,173.77 256.81,173.05 255.82,170.88 254.13,171.6 254.62,169.54 
				252.73,168.51 252.25,170.57 251.25,168.38 249.57,169.1 250.57,171.29 248.67,170.25 248.19,172.3 250.09,173.34 248.41,174.06 
				249.4,176.23 251.09,175.51 250.6,177.57 252.49,178.6 252.97,176.54 253.97,178.73 255.65,178.01 254.64,175.82 256.54,176.86 
							"/>
		</g>
	</g>
	<g>
		<g>
			<polygon class="st7" points="269.46,181.6 267.56,180.56 269.24,179.84 268.25,177.66 266.57,178.39 267.05,176.33 265.16,175.3 
				264.68,177.36 263.68,175.17 262.01,175.89 263.01,178.08 261.11,177.04 260.63,179.09 262.53,180.12 260.84,180.85 
				261.83,183.02 263.52,182.3 263.04,184.36 264.92,185.39 265.41,183.33 266.41,185.52 268.08,184.8 267.08,182.61 268.98,183.64 
							"/>
		</g>
	</g>
	<g>
		<g>
			<polygon class="st7" points="281.89,188.39 279.99,187.35 281.68,186.63 280.68,184.45 279,185.17 279.48,183.11 277.6,182.08 
				277.11,184.14 276.11,181.96 274.44,182.68 275.44,184.86 273.54,183.83 273.06,185.87 274.96,186.91 273.27,187.63 
				274.27,189.81 275.95,189.08 275.47,191.15 277.36,192.17 277.84,190.11 278.84,192.3 280.51,191.59 279.51,189.4 281.41,190.43 
							"/>
		</g>
	</g>
	<polygon class="st124" points="363.75,210.56 343.09,198.63 363.62,186.78 384.49,198.68 	"/>
	<g>
		
			<ellipse transform="matrix(0.8475 -0.5307 0.5307 0.8475 -162.7449 358.4178)" class="st143" cx="542.49" cy="462.48" rx="14.71" ry="19.41"/>
		<line class="st143" x1="546.63" y1="446.56" x2="538.37" y2="478.34"/>
		<line class="st143" x1="558.1" y1="471.26" x2="526.9" y2="453.63"/>
		<path class="st143" d="M533.74,445.22c6.68,8.26,14.37,12.6,23.09,13.04"/>
		<path class="st143" d="M551.26,479.68c-6.68-8.26-14.37-12.6-23.09-13.04"/>
		<path class="st143" d="M547.12,446.83c0,0,14.05,25.44-8.28,31.85"/>
		<path class="st143" d="M545.99,446.2c0,0-21.98,5.08-8.28,31.85"/>
	</g>
	<g>
		
			<ellipse transform="matrix(0.9148 -0.404 0.404 0.9148 -123.4191 247.1538)" class="st142" cx="524.05" cy="416.08" rx="17.12" ry="20.39"/>
		<path class="st7" d="M518.89,412.95c-0.59,1.78-2.42,2.5-4.09,1.6c-1.68-0.9-2.56-3.07-1.97-4.85c0.59-1.78,2.42-2.5,4.09-1.6
			S519.48,411.16,518.89,412.95z"/>
		<path class="st7" d="M534.2,412.54c-0.59,1.78-2.42,2.5-4.09,1.6c-1.68-0.9-2.56-3.07-1.97-4.85c0.59-1.78,2.42-2.5,4.09-1.6
			C533.9,408.59,534.79,410.76,534.2,412.54z"/>
		
			<ellipse transform="matrix(0.9148 -0.404 0.404 0.9148 -127.6481 248.8256)" class="st7" cx="525.89" cy="426.94" rx="3.11" ry="3.7"/>
		<polygon class="st7" points="530.97,412.17 516.15,412.24 515.94,410.45 530.76,410.39 		"/>
		<polygon class="st7" points="524.15,426.92 515.33,412.17 516.62,411.32 525.43,426.06 		"/>
	</g>
</g>
</svg>
