<?xml version="1.0" encoding="utf-8"?>
<!-- Generator: Adobe Illustrator 26.0.3, SVG Export Plug-In . SVG Version: 6.00 Build 0)  -->
<svg version="1.1" id="Layer_1" xmlns="http://www.w3.org/2000/svg" xmlns:xlink="http://www.w3.org/1999/xlink" x="0px" y="0px"
	 viewBox="0 0 568.98 432.74" style="enable-background:new 0 0 568.98 432.74;" xml:space="preserve">
<style type="text/css">
	.st0{fill:#FFE3A3;stroke:#FFFFFF;stroke-width:7.6103;stroke-miterlimit:10;}
	.st1{fill:#F0F4FF;}
	.st2{fill:#BAD4F5;}
	.st3{fill:#8E98C2;}
	.st4{fill:#6D7CFF;}
	.st5{fill:#8A96FF;}
	.st6{fill:#F5F5F7;}
	.st7{fill:#FFFFFF;}
	.st8{fill:#A3A7BF;}
	.st9{fill:none;stroke:#6D7CFF;stroke-width:1.5818;stroke-linecap:round;stroke-linejoin:round;stroke-miterlimit:10;}
	.st10{fill:#425399;}
	.st11{fill:#485BFF;}
	.st12{fill:#A3E9D2;stroke:#FFFFFF;stroke-width:7.6103;stroke-miterlimit:10;}
	.st13{fill:#DADEFF;}
	.st14{fill:#DBEFFF;}
	.st15{opacity:0.29;}
	.st16{fill:none;stroke:#FFFFFF;stroke-width:1.6117;stroke-linecap:round;stroke-linejoin:round;stroke-miterlimit:10;}
	.st17{fill:#E68143;}
	.st18{fill:#D3DAE3;}
	.st19{fill:#E6F0FF;}
	.st20{fill:#F5F9FF;}
	.st21{fill:none;stroke:#425399;stroke-width:2.9136;stroke-linecap:round;stroke-linejoin:round;stroke-miterlimit:10;}
	.st22{fill:#C1AFE5;stroke:#FFFFFF;stroke-width:7.6103;stroke-miterlimit:10;}
	.st23{fill:#FFB2A3;stroke:#FFFFFF;stroke-width:7.6103;stroke-miterlimit:10;}
	.st24{fill:#D3D5E9;}
	.st25{fill:#919DFF;}
	.st26{fill:#DFE3FF;}
	.st27{fill:#CAD0FF;}
	.st28{fill:#A7B0FF;}
	.st29{fill:#EFEFEF;}
	.st30{fill:#F7F7F7;}
	.st31{fill:#E9EBFF;}
	.st32{opacity:0.29;fill:#A8C4E5;}
	.st33{fill:none;stroke:#FFFFFF;stroke-width:9.5079;stroke-linecap:round;stroke-linejoin:round;stroke-miterlimit:10;}
	.st34{fill:#A3DFFF;stroke:#FFFFFF;stroke-width:7.6103;stroke-miterlimit:10;}
	.st35{opacity:0.39;fill:#DADEFF;}
	.st36{fill:#4A39E3;}
	.st37{fill:none;stroke:#FFFFFF;stroke-width:1.3412;stroke-linecap:round;stroke-linejoin:round;stroke-miterlimit:10;}
	.st38{fill:none;stroke:#6D7CFF;stroke-width:1.4858;stroke-linecap:round;stroke-linejoin:round;stroke-miterlimit:10;}
	.st39{fill:#8AACCE;}
	.st40{fill:none;stroke:#485BFF;stroke-width:0.8675;stroke-linecap:round;stroke-linejoin:round;stroke-miterlimit:10;}
	.st41{fill:#DADEFF;stroke:#FFFFFF;stroke-width:0.6782;stroke-miterlimit:10;}
	.st42{fill:#E69AB7;stroke:#FFFFFF;stroke-width:7.6103;stroke-miterlimit:10;}
	.st43{fill:#485BE4;}
	.st44{fill:url(#SVGID_1_);}
	.st45{fill:url(#SVGID_00000022524195140740358550000005037942260118903191_);}
	.st46{fill:url(#SVGID_00000098940599509324761310000010907833220591099583_);}
	.st47{fill:#271C8C;}
	.st48{fill:none;stroke:#425399;stroke-width:2.4459;stroke-linecap:round;stroke-linejoin:round;stroke-miterlimit:10;}
	.st49{fill:#B6BDFD;}
	.st50{fill:url(#SVGID_00000160173821913239803380000004689905164523747471_);}
	.st51{opacity:0.11;fill:#584BCC;}
	.st52{fill:#382E99;}
	.st53{fill:#414DBE;}
	.st54{fill:none;stroke:#A8A0FA;stroke-width:1.6099;stroke-linecap:round;stroke-linejoin:round;stroke-miterlimit:10;}
	.st55{fill:none;stroke:#FFFDFC;stroke-width:2.4459;stroke-linecap:round;stroke-linejoin:round;stroke-miterlimit:10;}
	.st56{fill:#BEF4FA;stroke:#FFFFFF;stroke-width:7.6103;stroke-miterlimit:10;}
	.st57{fill:#C6D2F2;}
	.st58{fill:#FFC2B0;}
	.st59{fill:#B6BDFF;}
	.st60{fill:#A8C4E5;}
	.st61{fill:#E1EAF4;}
	.st62{fill:#F09A82;}
	.st63{fill:#21DED5;}
	.st64{opacity:0.39;fill:#A7BCF5;}
	.st65{fill:#4558A3;}
	.st66{fill:url(#SVGID_00000043423821351196434760000013643110338159049379_);}
	.st67{opacity:0.22;fill:#2C1F9C;}
	.st68{fill:#4A5375;}
	.st69{fill:#D9E9FF;}
	.st70{fill:none;stroke:#FFFFFF;stroke-width:1.9095;stroke-linecap:round;stroke-linejoin:round;stroke-miterlimit:10;}
	.st71{fill:#CED2EF;}
	.st72{fill:#2C1F9C;}
	.st73{fill:none;stroke:#A7BCF5;stroke-width:1.9875;stroke-linecap:round;stroke-linejoin:round;stroke-miterlimit:10;}
	.st74{fill:#6676FF;}
	.st75{fill:none;stroke:#FFFFFF;stroke-width:6.8391;stroke-linecap:round;stroke-linejoin:round;stroke-miterlimit:10;}
	.st76{fill:#DBDEE8;stroke:#FFFFFF;stroke-width:7.6103;stroke-miterlimit:10;}
	.st77{fill:url(#SVGID_00000022562516190920148270000006452295995047934648_);}
	.st78{fill:none;stroke:#CFD4E9;stroke-width:0.6062;stroke-linecap:round;stroke-linejoin:round;stroke-miterlimit:10;}
	.st79{fill:#CFD4E9;}
	.st80{fill:none;stroke:#FFFFFF;stroke-width:0.6183;stroke-linecap:round;stroke-linejoin:round;stroke-miterlimit:10;}
	.st81{fill:#AFB7DB;}
	.st82{fill:none;stroke:#FFFFFF;stroke-width:5.3911;stroke-linecap:round;stroke-linejoin:round;stroke-miterlimit:10;}
	.st83{fill:#FCD1FF;stroke:#FFFFFF;stroke-width:7.6103;stroke-miterlimit:10;}
	.st84{fill:#4432DB;}
	.st85{fill:#6875AD;}
	.st86{fill:#1A3EA1;}
	.st87{fill:none;stroke:#DADEFF;stroke-width:0.519;stroke-linecap:round;stroke-linejoin:round;stroke-miterlimit:10;}
	.st88{fill:none;stroke:#425399;stroke-width:0.5656;stroke-linecap:round;stroke-linejoin:round;stroke-miterlimit:10;}
	.st89{fill:none;stroke:#6D7CFF;stroke-width:2.8281;stroke-linecap:round;stroke-linejoin:round;stroke-miterlimit:10;}
	.st90{fill:none;stroke:#FFFFFF;stroke-width:0.6167;stroke-linecap:round;stroke-linejoin:round;stroke-miterlimit:10;}
	.st91{fill:#F0F2FF;}
	.st92{opacity:0.4;fill:#A8C4E5;}
	.st93{fill:#323E73;}
	.st94{fill:#BAD4FF;}
	.st95{fill:#324DED;}
	.st96{fill:#ADB7F2;}
	.st97{fill:none;stroke:#FFFFFF;stroke-width:0.6957;stroke-linecap:round;stroke-linejoin:round;stroke-miterlimit:10;}
	.st98{fill:none;stroke:#FFFFFF;stroke-width:2.8923;stroke-linecap:round;stroke-linejoin:round;stroke-miterlimit:10;}
	.st99{fill:#FFE3A3;}
	.st100{fill:#A3E9D2;}
	.st101{fill:#C1AFE5;}
	.st102{fill:#FFB2A3;}
	.st103{fill:#A3DFFF;}
	.st104{fill:#E69AB7;}
	.st105{fill:url(#SVGID_00000043449597613847037210000014904768272728333477_);}
	.st106{fill:url(#SVGID_00000113349506246123690250000007048254043415258522_);}
	.st107{fill:url(#SVGID_00000141444209614807654820000013626155683184429709_);}
	.st108{fill:url(#SVGID_00000130648771073321424690000017038129267435639687_);}
	.st109{fill:#A8A0FA;}
	.st110{fill:#FFFDFC;}
	.st111{fill:#BEF4FA;}
	.st112{fill:url(#SVGID_00000112608068425668612360000013195729876016993687_);}
	.st113{fill:#A7BCF5;}
	.st114{fill:#DBDEE8;}
	.st115{fill:url(#SVGID_00000021079494092498385550000006838247051532949402_);}
	.st116{fill:#FCD1FF;}
	.st117{fill:none;stroke:#FF73CE;stroke-width:3;stroke-miterlimit:10;}
</style>
<g>
	<g>
		<polygon class="st99" points="565.18,106.47 565.18,428.94 3.81,428.94 3.81,41.23 496.82,41.23 		"/>
		<path class="st7" d="M568.98,432.74H0V37.42h498.35l70.64,67.42V432.74z M7.61,425.14h553.76V108.1L495.3,45.03H7.61V425.14z"/>
	</g>
	<g>
		<g>
			<path class="st1" d="M247.99,369.93L76.75,271.07c-8.81-5.09-8.81-17.81,0-22.9l174.28-100.62c9.05-5.22,20.19-5.22,29.24,0
				l175.59,101.38c8.81,5.09,8.81,17.81,0,22.9l-169.93,98.11C274.19,376.71,259.73,376.71,247.99,369.93z"/>
			<g>
				<g>
					<path class="st3" d="M404.52,277.43l-159.2-91.91c-1.84-1.06-5.09-0.93-7.22,0.3l-93.21,53.72c-2.13,1.23-2.36,3.1-0.52,4.17
						l141.56,81.73l0.45,15.52l21.62-4.71l0,0c1-0.14,1.98-0.45,2.79-0.92L404,281.6C406.13,280.37,406.36,278.49,404.52,277.43z"/>
					<polygon class="st4" points="387.95,276.45 384.02,278.94 382.37,273.36 388.38,273.36 					"/>
					<polygon class="st4" points="249.47,75.53 253.39,73.05 260.16,79.39 251.74,80.7 					"/>
					<path class="st4" d="M382.63,276.5l-156.54-90.38c-3.46-2-5.17-7.5-3.81-12.23l27.64-95.93c1.36-4.73,5.31-6.96,8.76-4.97
						l156.96,91.17c3.46,2,4.48,5.64,3.12,10.37l-27.38,96.99C390.03,276.26,386.09,278.5,382.63,276.5z"/>
					<path class="st5" d="M378.59,279.06l-156.54-90.38c-3.46-2-5.17-7.5-3.81-12.23l27.64-95.93c1.36-4.73,5.31-6.96,8.76-4.97
						l158.02,91.4c3.46,2,4.16,4.67,2.79,9.39l-28.11,97.74C385.99,278.82,382.05,281.06,378.59,279.06z"/>
					<path class="st6" d="M376.1,275.6l-150.2-86.72c-3.32-1.92-4.96-7.19-3.65-11.73l26.52-92.05c1.31-4.54,5.09-6.68,8.41-4.77
						l151.62,87.7c3.32,1.92,3.99,4.48,2.68,9.01l-26.97,93.78C383.2,275.37,379.41,277.52,376.1,275.6z"/>
					<path class="st5" d="M381.26,284.01v-5.11l-22.98,13.38l-1.31-3.02l-152.98-88.33c-1.84-1.06-5.5-0.93-7.63,0.3l-66.28,38.03
						v-1.06l-10.07,4.89l-1.41-0.57l0.19,4.65c0.15,1.01,0.54,1.43,1.17,1.79l159.2,92.16c1.84,1.06,5.09,1.05,7.22-0.18
						l92.41-52.86C381.28,286.82,381.26,284.01,381.26,284.01z"/>
					<path class="st5" d="M381.26,284.01v-5.11l-22.98,13.38l-1.31-3.02l-75.04-43.33l-2.77,95.18c0.92,0.53,2.19,0.79,3.5,0.77
						c1.31-0.02,2.65-0.33,3.72-0.95l92.41-52.86C381.28,286.82,381.26,284.01,381.26,284.01z"/>
					<path class="st7" d="M380.02,278.62l-159.2-91.91c-1.84-1.06-5.09-0.93-7.22,0.3l-93.21,53.72c-2.13,1.23-2.36,3.1-0.52,4.17
						l159.2,91.91c1.84,1.06,5.09,0.93,7.22-0.3l93.21-53.72C381.63,281.56,381.86,279.68,380.02,278.62z"/>
					<g>
						<g>
							<path class="st8" d="M213.47,212.59c-0.23,0.13-0.7,0.08-1.05-0.12l-9.66-5.58c-0.35-0.2-0.44-0.47-0.21-0.61l6.4-3.7
								c0.23-0.13,0.7-0.08,1.05,0.12l9.66,5.58c0.35,0.2,0.44,0.47,0.21,0.61L213.47,212.59z"/>
							<path class="st8" d="M224.69,229.24c-0.23,0.13-0.7,0.08-1.05-0.12l-9.66-5.58c-0.35-0.2-0.44-0.47-0.21-0.61l6.4-3.7
								c0.23-0.13,0.7-0.08,1.04,0.12l9.66,5.58c0.35,0.2,0.44,0.47,0.22,0.61L224.69,229.24z"/>
							<path class="st8" d="M219.02,236.16c-0.23,0.13-0.7,0.08-1.05-0.12l-9.67-5.58c-0.34-0.2-0.45-0.47-0.21-0.61l6.41-3.7
								c0.23-0.13,0.7-0.07,1.05,0.12l9.67,5.58c0.35,0.2,0.44,0.47,0.22,0.6L219.02,236.16z"/>
							<path class="st8" d="M203.68,237.49c-0.23,0.13-0.7,0.08-1.05-0.12l-9.67-5.58c-0.34-0.2-0.44-0.47-0.21-0.6l6.4-3.7
								c0.23-0.13,0.7-0.08,1.05,0.12l9.67,5.58c0.35,0.2,0.44,0.47,0.21,0.61L203.68,237.49z"/>
							<path class="st8" d="M177.08,233.61c-0.23,0.13-0.7,0.08-1.05-0.12l-9.66-5.58c-0.35-0.2-0.44-0.47-0.21-0.61l7.52-4.34
								c0.23-0.13,0.7-0.08,1.05,0.12l9.66,5.58c0.35,0.2,0.44,0.48,0.21,0.61L177.08,233.61z"/>
							<path class="st8" d="M193.75,243.23c-0.23,0.13-0.79,0.03-1.25-0.24l-12.66-7.31c-0.45-0.26-0.64-0.59-0.41-0.72l7.52-4.34
								c0.23-0.13,0.79-0.03,1.24,0.24l12.66,7.31c0.46,0.27,0.64,0.59,0.41,0.72L193.75,243.23z"/>
							<path class="st8" d="M276.94,291.3c-0.19,0.11-0.63,0.04-0.98-0.16l-9.66-5.57c-0.35-0.2-0.48-0.46-0.29-0.57l2.78-1.61
								c0.19-0.11,0.63-0.04,0.99,0.17l9.66,5.57c0.35,0.2,0.47,0.46,0.28,0.57L276.94,291.3z"/>
							<path class="st8" d="M289.85,298.95c-0.19,0.11-0.63,0.04-0.98-0.16l-9.66-5.57c-0.35-0.2-0.48-0.46-0.29-0.57l2.78-1.61
								c0.19-0.11,0.63-0.04,0.99,0.17l9.66,5.57c0.35,0.2,0.47,0.46,0.28,0.57L289.85,298.95z"/>
							<path class="st8" d="M303.54,306.67c-0.19,0.11-0.62,0.03-0.97-0.17l-9.66-5.58c-0.35-0.2-0.49-0.45-0.3-0.56l2.68-1.55
								c0.18-0.11,0.62-0.03,0.97,0.17l9.66,5.58c0.35,0.2,0.48,0.45,0.3,0.56L303.54,306.67z"/>
							<path class="st8" d="M295.12,296c-0.19,0.11-0.62,0.03-0.97-0.17l-9.66-5.58c-0.35-0.2-0.49-0.45-0.3-0.56l2.68-1.55
								c0.18-0.11,0.62-0.03,0.97,0.17l9.66,5.58c0.35,0.2,0.48,0.45,0.3,0.56L295.12,296z"/>
							<path class="st8" d="M260.23,281.59c-0.23,0.13-0.71,0.08-1.06-0.13l-62.89-36.29c-0.34-0.2-0.45-0.47-0.21-0.61l7.52-4.34
								c0.23-0.13,0.71-0.07,1.05,0.12l62.89,36.29c0.35,0.2,0.44,0.48,0.22,0.61L260.23,281.59z"/>
							<path class="st8" d="M192.02,240.83c-0.01,0.01-0.06,0-0.1-0.03l-7.39-4.26c-0.04-0.02-0.06-0.05-0.05-0.06l0.47-0.27
								c0.01-0.01,0.06,0,0.1,0.03l7.39,4.26c0.04,0.02,0.06,0.05,0.05,0.06L192.02,240.83z"/>
							<path class="st8" d="M173.08,229.08c-0.01,0.01-0.04,0.01-0.06,0l-3.14-1.81c-0.02-0.01-0.02-0.02-0.01-0.03l0.47-0.27
								c0.01-0.01,0.04-0.01,0.06,0l3.14,1.81c0.02,0.01,0.02,0.03,0.01,0.03L173.08,229.08z"/>
							<path class="st8" d="M216.93,245.13c-0.23,0.13-0.7,0.08-1.05-0.12l-9.66-5.58c-0.34-0.2-0.44-0.47-0.21-0.61l6.4-3.7
								c0.23-0.13,0.71-0.08,1.05,0.12l9.66,5.58c0.35,0.2,0.44,0.48,0.21,0.61L216.93,245.13z"/>
							<path class="st8" d="M230.24,252.81c-0.23,0.13-0.7,0.08-1.05-0.12l-9.66-5.58c-0.35-0.2-0.44-0.48-0.22-0.61l6.4-3.7
								c0.23-0.13,0.71-0.08,1.05,0.12l9.66,5.58c0.34,0.2,0.44,0.47,0.21,0.61L230.24,252.81z"/>
							<path class="st8" d="M243.55,260.49c-0.23,0.13-0.7,0.08-1.05-0.12l-9.67-5.58c-0.35-0.2-0.44-0.47-0.21-0.6l6.4-3.7
								c0.23-0.13,0.7-0.08,1.05,0.12l9.67,5.58c0.35,0.2,0.44,0.47,0.21,0.61L243.55,260.49z"/>
							<path class="st8" d="M256.85,268.17c-0.23,0.13-0.7,0.08-1.05-0.12l-9.67-5.58c-0.35-0.2-0.44-0.47-0.21-0.61l6.4-3.7
								c0.23-0.13,0.7-0.08,1.05,0.12l9.67,5.58c0.35,0.2,0.44,0.47,0.21,0.61L256.85,268.17z"/>
							<path class="st8" d="M270.16,275.85c-0.23,0.13-0.71,0.08-1.05-0.13l-9.66-5.58c-0.35-0.2-0.44-0.47-0.21-0.6l6.4-3.7
								c0.23-0.13,0.7-0.08,1.05,0.12l9.66,5.58c0.35,0.2,0.45,0.48,0.22,0.61L270.16,275.85z"/>
							<path class="st8" d="M283.47,283.53c-0.23,0.13-0.7,0.08-1.05-0.12l-9.66-5.58c-0.35-0.2-0.44-0.47-0.21-0.61l6.4-3.7
								c0.23-0.13,0.7-0.08,1.05,0.12l9.66,5.58c0.35,0.2,0.44,0.47,0.21,0.61L283.47,283.53z"/>
							<path class="st8" d="M313.45,300.82c-0.23,0.13-0.7,0.08-1.05-0.12l-26.33-15.2c-0.35-0.2-0.44-0.47-0.21-0.61l6.4-3.7
								c0.23-0.13,0.7-0.08,1.05,0.12l26.33,15.2c0.35,0.2,0.44,0.47,0.21,0.61L313.45,300.82z"/>
							<path class="st8" d="M232.26,243.79c-0.23,0.13-0.69,0.08-1.04-0.12l-9.67-5.58c-0.35-0.2-0.44-0.47-0.21-0.6l6.41-3.7
								c0.23-0.13,0.7-0.08,1.05,0.12l9.67,5.58c0.35,0.2,0.44,0.47,0.21,0.6L232.26,243.79z"/>
							<path class="st8" d="M245.57,251.48c-0.23,0.13-0.7,0.08-1.05-0.12l-9.67-5.58c-0.34-0.2-0.44-0.47-0.21-0.6l6.41-3.7
								c0.23-0.13,0.7-0.08,1.04,0.12l9.67,5.58c0.34,0.2,0.44,0.47,0.21,0.6L245.57,251.48z"/>
							<path class="st8" d="M258.88,259.16c-0.23,0.13-0.7,0.08-1.05-0.12l-9.66-5.58c-0.34-0.2-0.45-0.47-0.22-0.61l6.41-3.7
								c0.23-0.13,0.71-0.07,1.05,0.13l9.66,5.58c0.35,0.2,0.44,0.47,0.22,0.6L258.88,259.16z"/>
							<path class="st8" d="M272.19,266.83c-0.23,0.13-0.7,0.08-1.05-0.12l-9.66-5.58c-0.35-0.2-0.45-0.47-0.21-0.61l6.41-3.7
								c0.23-0.13,0.7-0.08,1.05,0.12l9.66,5.58c0.35,0.2,0.44,0.47,0.21,0.6L272.19,266.83z"/>
							<path class="st8" d="M285.5,274.51c-0.23,0.13-0.7,0.08-1.05-0.12l-9.67-5.58c-0.35-0.2-0.44-0.47-0.21-0.6l6.41-3.7
								c0.23-0.13,0.7-0.08,1.04,0.12l9.67,5.58c0.35,0.2,0.44,0.47,0.21,0.6L285.5,274.51z"/>
							<path class="st8" d="M298.8,282.19c-0.23,0.13-0.7,0.08-1.05-0.12l-9.66-5.58c-0.35-0.2-0.45-0.47-0.22-0.61l6.41-3.7
								c0.23-0.13,0.7-0.08,1.05,0.13l9.66,5.58c0.35,0.2,0.44,0.47,0.21,0.6L298.8,282.19z"/>
							<path class="st8" d="M312.11,289.87c-0.23,0.13-0.7,0.08-1.05-0.12l-9.67-5.58c-0.35-0.2-0.44-0.47-0.21-0.6l6.41-3.7
								c0.23-0.13,0.7-0.08,1.04,0.12l9.67,5.58c0.35,0.2,0.44,0.47,0.21,0.6L312.11,289.87z"/>
							<path class="st8" d="M237.93,236.88c-0.23,0.13-0.7,0.08-1.05-0.12l-9.66-5.58c-0.34-0.2-0.44-0.47-0.21-0.61l6.4-3.7
								c0.23-0.13,0.7-0.08,1.04,0.12l9.66,5.58c0.35,0.2,0.44,0.47,0.22,0.6L237.93,236.88z"/>
							<path class="st8" d="M251.24,244.56c-0.23,0.13-0.71,0.08-1.05-0.12l-9.66-5.58c-0.35-0.2-0.44-0.47-0.21-0.61l6.4-3.7
								c0.23-0.13,0.7-0.08,1.05,0.12l9.66,5.58c0.34,0.2,0.44,0.47,0.21,0.6L251.24,244.56z"/>
							<path class="st8" d="M264.55,252.24c-0.23,0.13-0.7,0.08-1.05-0.12l-9.66-5.58c-0.35-0.2-0.44-0.47-0.21-0.61l6.4-3.7
								c0.23-0.13,0.7-0.08,1.04,0.12l9.66,5.58c0.35,0.2,0.44,0.47,0.22,0.61L264.55,252.24z"/>
							<path class="st8" d="M277.85,259.92c-0.23,0.13-0.7,0.08-1.05-0.12l-9.67-5.58c-0.35-0.2-0.44-0.47-0.21-0.61l6.4-3.7
								c0.23-0.13,0.7-0.08,1.05,0.12l9.67,5.58c0.35,0.2,0.44,0.47,0.21,0.6L277.85,259.92z"/>
							<path class="st8" d="M291.16,267.59c-0.23,0.13-0.7,0.08-1.05-0.12l-9.67-5.58c-0.35-0.2-0.44-0.47-0.21-0.61l6.4-3.7
								c0.23-0.13,0.7-0.08,1.05,0.12l9.67,5.58c0.34,0.2,0.44,0.47,0.21,0.6L291.16,267.59z"/>
							<path class="st8" d="M304.47,275.28c-0.23,0.13-0.7,0.08-1.06-0.12l-9.66-5.58c-0.34-0.2-0.44-0.47-0.21-0.61l6.4-3.7
								c0.23-0.13,0.7-0.08,1.04,0.12l9.66,5.58c0.35,0.2,0.45,0.48,0.22,0.61L304.47,275.28z"/>
							<path class="st8" d="M317.78,282.95c-0.23,0.13-0.7,0.08-1.05-0.12l-9.67-5.58c-0.35-0.2-0.44-0.47-0.21-0.61l6.4-3.7
								c0.23-0.13,0.7-0.08,1.05,0.12l9.67,5.58c0.35,0.2,0.44,0.47,0.21,0.6L317.78,282.95z"/>
							<path class="st8" d="M211.38,221.56c-0.23,0.13-0.7,0.08-1.05-0.12l-16.39-9.46c-0.35-0.2-0.44-0.47-0.21-0.61l6.4-3.7
								c0.23-0.13,0.7-0.08,1.05,0.12l16.39,9.46c0.35,0.2,0.44,0.47,0.22,0.61L211.38,221.56z"/>
							<path class="st8" d="M339.91,285.54c-0.23,0.13-0.7,0.08-1.05-0.12l-16.39-9.46c-0.34-0.2-0.44-0.47-0.21-0.61l6.4-3.7
								c0.23-0.13,0.71-0.08,1.05,0.12l16.39,9.46c0.35,0.2,0.44,0.47,0.21,0.61L339.91,285.54z"/>
							<path class="st8" d="M205.71,228.48c-0.23,0.13-0.7,0.08-1.05-0.12l-19.54-11.27c-0.35-0.2-0.45-0.47-0.22-0.61l6.41-3.7
								c0.23-0.13,0.7-0.08,1.05,0.12l19.54,11.27c0.35,0.2,0.44,0.47,0.22,0.6L205.71,228.48z"/>
							<path class="st8" d="M190.38,229.82c-0.23,0.13-0.7,0.08-1.05-0.12l-13.03-7.52c-0.35-0.2-0.44-0.47-0.21-0.61l6.4-3.7
								c0.23-0.13,0.7-0.08,1.05,0.12l13.03,7.52c0.35,0.2,0.44,0.47,0.21,0.61L190.38,229.82z"/>
							<path class="st8" d="M226.78,220.27c-0.23,0.13-0.7,0.08-1.05-0.12l-9.66-5.57c-0.35-0.2-0.44-0.47-0.21-0.61l6.4-3.7
								c0.23-0.13,0.7-0.08,1.05,0.12l9.66,5.57c0.35,0.2,0.45,0.47,0.21,0.61L226.78,220.27z"/>
							<path class="st8" d="M240.03,227.91c-0.23,0.13-0.7,0.08-1.05-0.12l-9.66-5.58c-0.35-0.2-0.44-0.47-0.21-0.61l6.4-3.7
								c0.23-0.13,0.71-0.08,1.05,0.12l9.66,5.58c0.35,0.2,0.45,0.47,0.21,0.61L240.03,227.91z"/>
							<path class="st8" d="M253.33,235.59c-0.23,0.13-0.7,0.08-1.05-0.12l-9.66-5.58c-0.35-0.2-0.44-0.47-0.21-0.61l6.4-3.7
								c0.23-0.13,0.7-0.08,1.05,0.12l9.66,5.58c0.35,0.2,0.44,0.47,0.21,0.6L253.33,235.59z"/>
							<path class="st8" d="M266.64,243.27c-0.23,0.13-0.7,0.08-1.05-0.12l-9.66-5.57c-0.35-0.2-0.44-0.47-0.21-0.61l6.4-3.7
								c0.23-0.13,0.7-0.08,1.05,0.12l9.66,5.57c0.35,0.2,0.44,0.47,0.21,0.61L266.64,243.27z"/>
							<path class="st8" d="M279.95,250.94c-0.23,0.13-0.7,0.08-1.05-0.12l-9.66-5.58c-0.35-0.2-0.44-0.47-0.21-0.61l6.4-3.7
								c0.23-0.13,0.7-0.08,1.05,0.12l9.66,5.58c0.35,0.2,0.44,0.47,0.21,0.6L279.95,250.94z"/>
							<path class="st8" d="M293.26,258.62c-0.23,0.13-0.7,0.08-1.05-0.12l-9.67-5.58c-0.35-0.2-0.44-0.47-0.21-0.6l6.4-3.7
								c0.23-0.13,0.7-0.08,1.05,0.12l9.67,5.58c0.34,0.2,0.44,0.47,0.21,0.61L293.26,258.62z"/>
							<path class="st8" d="M306.57,266.3c-0.23,0.13-0.7,0.08-1.05-0.12l-9.66-5.58c-0.35-0.2-0.45-0.47-0.22-0.61l6.4-3.7
								c0.23-0.13,0.7-0.08,1.05,0.12l9.66,5.58c0.35,0.2,0.44,0.47,0.21,0.61L306.57,266.3z"/>
							<path class="st8" d="M319.87,273.98c-0.23,0.13-0.7,0.08-1.05-0.12l-9.67-5.58c-0.34-0.2-0.44-0.47-0.21-0.6l6.4-3.7
								c0.23-0.13,0.7-0.08,1.05,0.12l9.67,5.58c0.35,0.2,0.44,0.47,0.21,0.6L319.87,273.98z"/>
							<path class="st8" d="M327.61,280.75c-0.16-0.09-0.36-0.16-0.57-0.19c-0.2-0.02-0.37,0-0.48,0.06l-6.4,3.7
								c-0.11,0.06-0.16,0.16-0.12,0.28c0.04,0.12,0.16,0.23,0.32,0.33l2.52,1.46l-8.4,4.85c-0.11,0.06-0.15,0.16-0.11,0.28
								c0.04,0.12,0.16,0.23,0.32,0.33l6.51,3.76c0.16,0.09,0.36,0.16,0.57,0.19c0.2,0.03,0.37,0,0.48-0.06l15.22-8.8
								c0.11-0.06,0.15-0.16,0.11-0.28c-0.04-0.12-0.16-0.23-0.33-0.33L327.61,280.75z"/>
							<path class="st8" d="M188.65,226.69c-0.01,0.01-0.06,0-0.1-0.03l-7.39-4.26c-0.04-0.02-0.06-0.05-0.05-0.06l0.47-0.27
								c0.01-0.01,0.06,0,0.1,0.03l7.39,4.26c0.04,0.02,0.06,0.05,0.05,0.06L188.65,226.69z"/>
						</g>
					</g>
					<path class="st8" d="M226.4,289.91l-37.38-21.58c-2.01-1.16-1.88-3,0.29-4.08l12.49-6.21c2.17-1.08,5.6-1.01,7.62,0.15
						l37.38,21.58c2.01,1.16,1.88,3-0.29,4.08l-12.49,6.21C231.84,291.14,228.41,291.07,226.4,289.91z"/>
				</g>
				<path class="st4" d="M372.12,275.55c-0.13,0-0.27-0.03-0.39-0.11L218.5,187.09c-0.38-0.22-0.51-0.7-0.29-1.08
					c0.22-0.38,0.7-0.51,1.08-0.29l153.23,88.35c0.38,0.22,0.51,0.7,0.29,1.08C372.66,275.41,372.4,275.55,372.12,275.55z"/>
			</g>
			<g>
				<path class="st10" d="M344.15,189.01c6.12-19.41-2.1-43.58-18.35-53.98c-7.48-4.78-15.35-5.81-22.27-3.65l0-0.01l-0.08,0.03
					c-0.93,0.3-1.85,0.65-2.74,1.06l-16.65,6.99l7.84-0.29c-2.8,3.25-5.08,7.34-6.6,12.18c-6.12,19.41,2.1,43.58,18.35,53.98
					c3.33,2.13,6.73,3.5,10.1,4.2l0.94,4.09l11.59-4.74c0.63-0.21,1.25-0.45,1.86-0.71l0.21-0.08l0-0.01
					C335.37,205,341.18,198.44,344.15,189.01z"/>
				
					<ellipse transform="matrix(0.9687 -0.2482 0.2482 0.9687 -34.4219 79.8682)" class="st11" cx="299.54" cy="176.45" rx="30.76" ry="40.4"/>
				<g>
					<path class="st7" d="M282.17,171.6c1.75,5.08,3.5,10.15,5.25,15.23c0.25,0.71,0.49,1.43,0.74,2.14
						c0.32,0.93,0.95,1.66,1.93,1.93c1.04,0.29,1.89-0.08,2.69-0.71c2.48-1.95,4.97-3.9,7.45-5.85c3.98-3.12,7.95-6.25,11.93-9.37
						c0.91-0.72,1.82-1.43,2.73-2.15c0.52-0.41,0.81-1.33,0.81-1.95c0-0.68-0.3-1.49-0.81-1.95c-0.53-0.48-1.22-0.84-1.95-0.81
						c-0.78,0.03-1.34,0.33-1.95,0.81c-2.48,1.95-4.97,3.9-7.45,5.85c-3.98,3.12-7.95,6.25-11.93,9.37
						c-0.91,0.72-1.82,1.43-2.73,2.15c1.54,0.41,3.08,0.81,4.62,1.22c-1.75-5.08-3.5-10.15-5.25-15.23
						c-0.25-0.71-0.49-1.43-0.74-2.14c-0.47-1.36-1.92-2.41-3.4-1.93C282.75,168.63,281.67,170.13,282.17,171.6L282.17,171.6z"/>
				</g>
			</g>
			<g>
				<path class="st11" d="M377.28,102.16l-50.3-30.77c-15.67-9.58-24.46-32.25-19.54-50.36v0c4.92-18.11,21.76-25.09,37.43-15.51
					l50.3,30.77c15.67,9.58,24.46,32.25,19.54,50.36v0C409.79,104.76,392.95,111.74,377.28,102.16z"/>
				<polygon class="st11" points="333.54,59.66 344.91,106.1 368.3,81.53 				"/>
			</g>
			<g>
				<g>
					<polygon class="st7" points="337.88,40.16 335.03,38.6 337.55,37.52 336.06,34.25 333.54,35.34 334.27,32.25 331.44,30.71 
						330.71,33.8 329.21,30.51 326.7,31.59 328.2,34.87 325.35,33.32 324.63,36.39 327.48,37.94 324.95,39.03 326.44,42.29 
						328.97,41.2 328.24,44.29 331.07,45.84 331.8,42.75 333.3,46.03 335.81,44.95 334.31,41.67 337.15,43.23 					"/>
				</g>
			</g>
			<g>
				<g>
					<polygon class="st7" points="356.52,50.34 353.68,48.78 356.2,47.7 354.71,44.43 352.19,45.52 352.91,42.43 350.08,40.89 
						349.36,43.98 347.86,40.69 345.35,41.77 346.85,45.05 344,43.5 343.28,46.57 346.13,48.12 343.6,49.21 345.09,52.47 
						347.62,51.38 346.89,54.47 349.72,56.02 350.45,52.93 351.94,56.21 354.45,55.13 352.95,51.85 355.8,53.4 					"/>
				</g>
			</g>
			<g>
				<g>
					<polygon class="st7" points="375.17,60.51 372.32,58.96 374.85,57.88 373.36,54.61 370.83,55.7 371.56,52.61 368.73,51.07 
						368,54.15 366.5,50.87 363.99,51.95 365.49,55.23 362.65,53.68 361.93,56.75 364.77,58.3 362.25,59.39 363.74,62.65 
						366.26,61.56 365.54,64.65 368.37,66.2 369.09,63.11 370.59,66.39 373.1,65.31 371.6,62.03 374.45,63.58 					"/>
				</g>
			</g>
			<g>
				<g>
					<polygon class="st7" points="393.82,70.69 390.97,69.14 393.49,68.06 392,64.79 389.48,65.88 390.21,62.79 387.38,61.24 
						386.65,64.33 385.15,61.05 382.64,62.13 384.14,65.41 381.29,63.86 380.57,66.93 383.42,68.48 380.89,69.57 382.38,72.83 
						384.91,71.74 384.18,74.83 387.01,76.38 387.74,73.29 389.24,76.57 391.75,75.49 390.25,72.21 393.1,73.76 					"/>
				</g>
			</g>
		</g>
	</g>
</g>
</svg>
