<?xml version="1.0" encoding="utf-8"?>
<!-- Generator: Adobe Illustrator 26.0.3, SVG Export Plug-In . SVG Version: 6.00 Build 0)  -->
<svg version="1.1" id="Layer_1" xmlns="http://www.w3.org/2000/svg" xmlns:xlink="http://www.w3.org/1999/xlink" x="0px" y="0px"
	 viewBox="0 0 569 459.6" style="enable-background:new 0 0 569 459.6;" xml:space="preserve">
<style type="text/css">
	.st0{fill:#FFE3A3;stroke:#FFFFFF;stroke-width:7.6103;stroke-miterlimit:10;}
	.st1{fill:#F0F4FF;}
	.st2{fill:#BAD4F5;}
	.st3{fill:#8E98C2;}
	.st4{fill:#6D7CFF;}
	.st5{fill:#8A96FF;}
	.st6{fill:#F5F5F7;}
	.st7{fill:#FFFFFF;}
	.st8{fill:#A3A7BF;}
	.st9{fill:none;stroke:#6D7CFF;stroke-width:1.5818;stroke-linecap:round;stroke-linejoin:round;stroke-miterlimit:10;}
	.st10{fill:#425399;}
	.st11{fill:#485BFF;}
	.st12{fill:#A3E9D2;stroke:#FFFFFF;stroke-width:7.6103;stroke-miterlimit:10;}
	.st13{fill:#DADEFF;}
	.st14{fill:#DBEFFF;}
	.st15{opacity:0.29;}
	.st16{fill:none;stroke:#FFFFFF;stroke-width:1.6117;stroke-linecap:round;stroke-linejoin:round;stroke-miterlimit:10;}
	.st17{fill:#E68143;}
	.st18{fill:#D3DAE3;}
	.st19{fill:#E6F0FF;}
	.st20{fill:#F5F9FF;}
	.st21{fill:none;stroke:#425399;stroke-width:2.9136;stroke-linecap:round;stroke-linejoin:round;stroke-miterlimit:10;}
	.st22{fill:#C1AFE5;stroke:#FFFFFF;stroke-width:7.6103;stroke-miterlimit:10;}
	.st23{fill:#FFB2A3;stroke:#FFFFFF;stroke-width:7.6103;stroke-miterlimit:10;}
	.st24{fill:#D3D5E9;}
	.st25{fill:#919DFF;}
	.st26{fill:#DFE3FF;}
	.st27{fill:#CAD0FF;}
	.st28{fill:#A7B0FF;}
	.st29{fill:#EFEFEF;}
	.st30{fill:#F7F7F7;}
	.st31{fill:#E9EBFF;}
	.st32{opacity:0.29;fill:#A8C4E5;}
	.st33{fill:none;stroke:#FFFFFF;stroke-width:9.5079;stroke-linecap:round;stroke-linejoin:round;stroke-miterlimit:10;}
	.st34{fill:#A3DFFF;stroke:#FFFFFF;stroke-width:7.6103;stroke-miterlimit:10;}
	.st35{opacity:0.39;fill:#DADEFF;}
	.st36{fill:#4A39E3;}
	.st37{fill:none;stroke:#FFFFFF;stroke-width:1.3412;stroke-linecap:round;stroke-linejoin:round;stroke-miterlimit:10;}
	.st38{fill:none;stroke:#6D7CFF;stroke-width:1.4858;stroke-linecap:round;stroke-linejoin:round;stroke-miterlimit:10;}
	.st39{fill:#8AACCE;}
	.st40{fill:none;stroke:#485BFF;stroke-width:0.8675;stroke-linecap:round;stroke-linejoin:round;stroke-miterlimit:10;}
	.st41{fill:#DADEFF;stroke:#FFFFFF;stroke-width:0.6782;stroke-miterlimit:10;}
	.st42{fill:#E69AB7;stroke:#FFFFFF;stroke-width:7.6103;stroke-miterlimit:10;}
	.st43{fill:#485BE4;}
	.st44{fill:url(#SVGID_1_);}
	.st45{fill:url(#SVGID_00000009571162049188205380000009872446233818031266_);}
	.st46{fill:url(#SVGID_00000126292079634733441860000000327563781335222928_);}
	.st47{fill:#271C8C;}
	.st48{fill:none;stroke:#425399;stroke-width:2.4459;stroke-linecap:round;stroke-linejoin:round;stroke-miterlimit:10;}
	.st49{fill:#B6BDFD;}
	.st50{fill:url(#SVGID_00000067220055201476205440000002521305173052565403_);}
	.st51{opacity:0.11;fill:#584BCC;}
	.st52{fill:#382E99;}
	.st53{fill:#414DBE;}
	.st54{fill:none;stroke:#A8A0FA;stroke-width:1.6099;stroke-linecap:round;stroke-linejoin:round;stroke-miterlimit:10;}
	.st55{fill:none;stroke:#FFFDFC;stroke-width:2.4459;stroke-linecap:round;stroke-linejoin:round;stroke-miterlimit:10;}
	.st56{fill:#BEF4FA;stroke:#FFFFFF;stroke-width:7.6103;stroke-miterlimit:10;}
	.st57{fill:#C6D2F2;}
	.st58{fill:#FFC2B0;}
	.st59{fill:#B6BDFF;}
	.st60{fill:#A8C4E5;}
	.st61{fill:#E1EAF4;}
	.st62{fill:#F09A82;}
	.st63{fill:#21DED5;}
	.st64{opacity:0.39;fill:#A7BCF5;}
	.st65{fill:#4558A3;}
	.st66{fill:url(#SVGID_00000096058688800464741480000001133746417293767611_);}
	.st67{opacity:0.22;fill:#2C1F9C;}
	.st68{fill:#4A5375;}
	.st69{fill:#D9E9FF;}
	.st70{fill:none;stroke:#FFFFFF;stroke-width:1.9095;stroke-linecap:round;stroke-linejoin:round;stroke-miterlimit:10;}
	.st71{fill:#CED2EF;}
	.st72{fill:#2C1F9C;}
	.st73{fill:none;stroke:#A7BCF5;stroke-width:1.9875;stroke-linecap:round;stroke-linejoin:round;stroke-miterlimit:10;}
	.st74{fill:#6676FF;}
	.st75{fill:none;stroke:#FFFFFF;stroke-width:6.8391;stroke-linecap:round;stroke-linejoin:round;stroke-miterlimit:10;}
	.st76{fill:#DBDEE8;stroke:#FFFFFF;stroke-width:7.6103;stroke-miterlimit:10;}
	.st77{fill:url(#SVGID_00000127004898145959496740000003246980200602895550_);}
	.st78{fill:none;stroke:#CFD4E9;stroke-width:0.6062;stroke-linecap:round;stroke-linejoin:round;stroke-miterlimit:10;}
	.st79{fill:#CFD4E9;}
	.st80{fill:none;stroke:#FFFFFF;stroke-width:0.6183;stroke-linecap:round;stroke-linejoin:round;stroke-miterlimit:10;}
	.st81{fill:#AFB7DB;}
	.st82{fill:none;stroke:#FFFFFF;stroke-width:5.3911;stroke-linecap:round;stroke-linejoin:round;stroke-miterlimit:10;}
	.st83{fill:#FCD1FF;stroke:#FFFFFF;stroke-width:7.6103;stroke-miterlimit:10;}
	.st84{fill:#4432DB;}
	.st85{fill:#6875AD;}
	.st86{fill:#1A3EA1;}
	.st87{fill:none;stroke:#DADEFF;stroke-width:0.519;stroke-linecap:round;stroke-linejoin:round;stroke-miterlimit:10;}
	.st88{fill:none;stroke:#425399;stroke-width:0.5656;stroke-linecap:round;stroke-linejoin:round;stroke-miterlimit:10;}
	.st89{fill:none;stroke:#6D7CFF;stroke-width:2.8281;stroke-linecap:round;stroke-linejoin:round;stroke-miterlimit:10;}
	.st90{fill:none;stroke:#FFFFFF;stroke-width:0.6167;stroke-linecap:round;stroke-linejoin:round;stroke-miterlimit:10;}
	.st91{fill:#F0F2FF;}
	.st92{opacity:0.4;fill:#A8C4E5;}
	.st93{fill:#323E73;}
	.st94{fill:#BAD4FF;}
	.st95{fill:#324DED;}
	.st96{fill:#ADB7F2;}
	.st97{fill:none;stroke:#FFFFFF;stroke-width:0.6957;stroke-linecap:round;stroke-linejoin:round;stroke-miterlimit:10;}
	.st98{fill:none;stroke:#FFFFFF;stroke-width:2.8923;stroke-linecap:round;stroke-linejoin:round;stroke-miterlimit:10;}
	.st99{fill:#FFE3A3;}
	.st100{fill:#A3E9D2;}
	.st101{fill:#C1AFE5;}
	.st102{fill:#A3DFFF;}
	.st103{fill:#FFB2A3;}
	.st104{fill:#E69AB7;}
	.st105{fill:url(#SVGID_00000017502765767699397280000004612090101578992319_);}
	.st106{fill:url(#SVGID_00000003100109494667658620000011216338718538557859_);}
	.st107{fill:url(#SVGID_00000082370281215017696230000017955336531900678818_);}
	.st108{fill:url(#SVGID_00000152986127409226315750000015934860796076717716_);}
	.st109{fill:#A8A0FA;}
	.st110{fill:#FFFDFC;}
	.st111{fill:#BEF4FA;}
	.st112{fill:url(#SVGID_00000081615548289971074160000008382515523121765043_);}
	.st113{fill:#A7BCF5;}
	.st114{fill:#DBDEE8;}
	.st115{fill:url(#SVGID_00000018209046372864406610000002761600812790288291_);}
	.st116{fill:#FCD1FF;}
	.st117{fill:none;stroke:#FF73CE;stroke-width:3;stroke-miterlimit:10;}
</style>
<g>
	<g>
		<polygon class="st99" points="565.2,133.3 565.2,455.8 3.8,455.8 3.8,68.1 496.8,68.1 		"/>
		<path class="st7" d="M569,459.6H0V64.3h498.3l70.6,67.4V459.6z M7.6,452h553.8V135l-66.1-63.1H7.6V452z"/>
	</g>
	<g>
		<g>
			<path class="st1" d="M248,396.8L76.8,297.9c-8.8-5.1-8.8-17.8,0-22.9L251,174.4c9-5.2,20.2-5.2,29.2,0l175.6,101.4
				c8.8,5.1,8.8,17.8,0,22.9l-169.9,98.1C274.2,403.6,259.7,403.6,248,396.8z"/>
			<g>
				<g>
					<path class="st3" d="M404.5,304.3l-159.2-91.9c-1.8-1.1-5.1-0.9-7.2,0.3l-93.2,53.7c-2.1,1.2-2.4,3.1-0.5,4.2l141.6,81.7
						l0.4,15.5l21.6-4.7l0,0c1-0.1,2-0.5,2.8-0.9l93.2-53.7C406.1,307.2,406.4,305.4,404.5,304.3z"/>
					<polygon class="st4" points="388,303.3 384,305.8 382.4,300.2 388.4,300.2 					"/>
					<polygon class="st4" points="249.5,102.4 253.4,99.9 260.2,106.3 251.7,107.6 					"/>
					<path class="st4" d="M382.6,303.4L226.1,213c-3.5-2-5.2-7.5-3.8-12.2l27.6-95.9c1.4-4.7,5.3-7,8.8-5l157,91.2
						c3.5,2,4.5,5.6,3.1,10.4l-27.4,97C390,303.1,386.1,305.4,382.6,303.4z"/>
					<path class="st5" d="M378.6,305.9l-156.5-90.4c-3.5-2-5.2-7.5-3.8-12.2l27.6-95.9c1.4-4.7,5.3-7,8.8-5l158,91.4
						c3.5,2,4.2,4.7,2.8,9.4L387.4,301C386,305.7,382,307.9,378.6,305.9z"/>
					<path class="st6" d="M376.1,302.5l-150.2-86.7c-3.3-1.9-5-7.2-3.7-11.7l26.5-92c1.3-4.5,5.1-6.7,8.4-4.8l151.6,87.7
						c3.3,1.9,4,4.5,2.7,9l-27,93.8C383.2,302.2,379.4,304.4,376.1,302.5z"/>
					<path class="st5" d="M381.3,310.9v-5.1l-23,13.4l-1.3-3l-153-88.3c-1.8-1.1-5.5-0.9-7.6,0.3l-66.3,38v-1.1L120,270l-1.4-0.6
						l0.2,4.6c0.2,1,0.5,1.4,1.2,1.8L279.2,368c1.8,1.1,5.1,1.1,7.2-0.2l92.4-52.9C381.3,313.7,381.3,310.9,381.3,310.9z"/>
					<path class="st5" d="M381.3,310.9v-5.1l-23,13.4l-1.3-3l-75-43.3l-2.8,95.2c0.9,0.5,2.2,0.8,3.5,0.8c1.3,0,2.7-0.3,3.7-0.9
						l92.4-52.9C381.3,313.7,381.3,310.9,381.3,310.9z"/>
					<path class="st7" d="M380,305.5l-159.2-91.9c-1.8-1.1-5.1-0.9-7.2,0.3l-93.2,53.7c-2.1,1.2-2.4,3.1-0.5,4.2l159.2,91.9
						c1.8,1.1,5.1,0.9,7.2-0.3l93.2-53.7C381.6,308.4,381.9,306.5,380,305.5z"/>
					<g>
						<g>
							<path class="st8" d="M213.5,239.5c-0.2,0.1-0.7,0.1-1.1-0.1l-9.7-5.6c-0.3-0.2-0.4-0.5-0.2-0.6l6.4-3.7
								c0.2-0.1,0.7-0.1,1.1,0.1l9.7,5.6c0.3,0.2,0.4,0.5,0.2,0.6L213.5,239.5z"/>
							<path class="st8" d="M224.7,256.1c-0.2,0.1-0.7,0.1-1.1-0.1l-9.7-5.6c-0.3-0.2-0.4-0.5-0.2-0.6l6.4-3.7
								c0.2-0.1,0.7-0.1,1,0.1l9.7,5.6c0.4,0.2,0.4,0.5,0.2,0.6L224.7,256.1z"/>
							<path class="st8" d="M219,263c-0.2,0.1-0.7,0.1-1-0.1l-9.7-5.6c-0.3-0.2-0.4-0.5-0.2-0.6l6.4-3.7c0.2-0.1,0.7-0.1,1,0.1
								l9.7,5.6c0.3,0.2,0.4,0.5,0.2,0.6L219,263z"/>
							<path class="st8" d="M203.7,264.4c-0.2,0.1-0.7,0.1-1-0.1l-9.7-5.6c-0.3-0.2-0.4-0.5-0.2-0.6l6.4-3.7c0.2-0.1,0.7-0.1,1,0.1
								l9.7,5.6c0.3,0.2,0.4,0.5,0.2,0.6L203.7,264.4z"/>
							<path class="st8" d="M177.1,260.5c-0.2,0.1-0.7,0.1-1.1-0.1l-9.7-5.6c-0.3-0.2-0.4-0.5-0.2-0.6l7.5-4.3
								c0.2-0.1,0.7-0.1,1.1,0.1l9.7,5.6c0.3,0.2,0.4,0.5,0.2,0.6L177.1,260.5z"/>
							<path class="st8" d="M193.7,270.1c-0.2,0.1-0.8,0-1.2-0.2l-12.7-7.3c-0.5-0.3-0.6-0.6-0.4-0.7l7.5-4.3c0.2-0.1,0.8,0,1.2,0.2
								l12.7,7.3c0.5,0.3,0.6,0.6,0.4,0.7L193.7,270.1z"/>
							<path class="st8" d="M276.9,318.2c-0.2,0.1-0.6,0-1-0.2l-9.7-5.6c-0.4-0.2-0.5-0.5-0.3-0.6l2.8-1.6c0.2-0.1,0.6,0,1,0.2
								l9.7,5.6c0.3,0.2,0.5,0.5,0.3,0.6L276.9,318.2z"/>
							<path class="st8" d="M289.8,325.8c-0.2,0.1-0.6,0-1-0.2l-9.7-5.6c-0.4-0.2-0.5-0.5-0.3-0.6l2.8-1.6c0.2-0.1,0.6,0,1,0.2
								l9.7,5.6c0.3,0.2,0.5,0.5,0.3,0.6L289.8,325.8z"/>
							<path class="st8" d="M303.5,333.5c-0.2,0.1-0.6,0-1-0.2l-9.7-5.6c-0.3-0.2-0.5-0.5-0.3-0.6l2.7-1.5c0.2-0.1,0.6,0,1,0.2
								l9.7,5.6c0.3,0.2,0.5,0.5,0.3,0.6L303.5,333.5z"/>
							<path class="st8" d="M295.1,322.9c-0.2,0.1-0.6,0-1-0.2l-9.7-5.6c-0.3-0.2-0.5-0.5-0.3-0.6l2.7-1.5c0.2-0.1,0.6,0,1,0.2
								l9.7,5.6c0.3,0.2,0.5,0.5,0.3,0.6L295.1,322.9z"/>
							<path class="st8" d="M260.2,308.5c-0.2,0.1-0.7,0.1-1.1-0.1L196.3,272c-0.3-0.2-0.4-0.5-0.2-0.6l7.5-4.3
								c0.2-0.1,0.7-0.1,1.1,0.1l62.9,36.3c0.3,0.2,0.4,0.5,0.2,0.6L260.2,308.5z"/>
							<path class="st8" d="M192,267.7c0,0-0.1,0-0.1,0l-7.4-4.3c0,0-0.1,0,0-0.1l0.5-0.3c0,0,0.1,0,0.1,0l7.4,4.3
								c0,0,0.1,0.1,0,0.1L192,267.7z"/>
							<path class="st8" d="M173.1,255.9C173.1,256,173,256,173.1,255.9l-3.2-1.8c0,0,0,0,0,0l0.5-0.3c0,0,0,0,0.1,0l3.1,1.8
								c0,0,0,0,0,0L173.1,255.9z"/>
							<path class="st8" d="M216.9,272c-0.2,0.1-0.7,0.1-1.1-0.1l-9.7-5.6c-0.3-0.2-0.4-0.5-0.2-0.6l6.4-3.7
								c0.2-0.1,0.7-0.1,1.1,0.1l9.7,5.6c0.4,0.2,0.4,0.5,0.2,0.6L216.9,272z"/>
							<path class="st8" d="M230.2,279.7c-0.2,0.1-0.7,0.1-1-0.1l-9.7-5.6c-0.3-0.2-0.4-0.5-0.2-0.6l6.4-3.7
								c0.2-0.1,0.7-0.1,1.1,0.1l9.7,5.6c0.3,0.2,0.4,0.5,0.2,0.6L230.2,279.7z"/>
							<path class="st8" d="M243.5,287.4c-0.2,0.1-0.7,0.1-1-0.1l-9.7-5.6c-0.3-0.2-0.4-0.5-0.2-0.6l6.4-3.7c0.2-0.1,0.7-0.1,1,0.1
								l9.7,5.6c0.3,0.2,0.4,0.5,0.2,0.6L243.5,287.4z"/>
							<path class="st8" d="M256.9,295c-0.2,0.1-0.7,0.1-1-0.1l-9.7-5.6c-0.3-0.2-0.4-0.5-0.2-0.6l6.4-3.7c0.2-0.1,0.7-0.1,1.1,0.1
								l9.7,5.6c0.3,0.2,0.4,0.5,0.2,0.6L256.9,295z"/>
							<path class="st8" d="M270.2,302.7c-0.2,0.1-0.7,0.1-1.1-0.1l-9.7-5.6c-0.3-0.2-0.4-0.5-0.2-0.6l6.4-3.7
								c0.2-0.1,0.7-0.1,1,0.1l9.7,5.6c0.3,0.2,0.4,0.5,0.2,0.6L270.2,302.7z"/>
							<path class="st8" d="M283.5,310.4c-0.2,0.1-0.7,0.1-1-0.1l-9.7-5.6c-0.3-0.2-0.4-0.5-0.2-0.6l6.4-3.7
								c0.2-0.1,0.7-0.1,1.1,0.1l9.7,5.6c0.3,0.2,0.4,0.5,0.2,0.6L283.5,310.4z"/>
							<path class="st8" d="M313.4,327.7c-0.2,0.1-0.7,0.1-1-0.1l-26.3-15.2c-0.3-0.2-0.4-0.5-0.2-0.6l6.4-3.7
								c0.2-0.1,0.7-0.1,1.1,0.1l26.3,15.2c0.3,0.2,0.4,0.5,0.2,0.6L313.4,327.7z"/>
							<path class="st8" d="M232.3,270.7c-0.2,0.1-0.7,0.1-1-0.1l-9.7-5.6c-0.3-0.2-0.4-0.5-0.2-0.6l6.4-3.7c0.2-0.1,0.7-0.1,1,0.1
								l9.7,5.6c0.3,0.2,0.4,0.5,0.2,0.6L232.3,270.7z"/>
							<path class="st8" d="M245.6,278.3c-0.2,0.1-0.7,0.1-1-0.1l-9.7-5.6c-0.3-0.2-0.4-0.5-0.2-0.6l6.4-3.7c0.2-0.1,0.7-0.1,1,0.1
								l9.7,5.6c0.3,0.2,0.4,0.5,0.2,0.6L245.6,278.3z"/>
							<path class="st8" d="M258.9,286c-0.2,0.1-0.7,0.1-1-0.1l-9.7-5.6c-0.3-0.2-0.4-0.5-0.2-0.6l6.4-3.7c0.2-0.1,0.7-0.1,1,0.1
								l9.7,5.6c0.3,0.2,0.4,0.5,0.2,0.6L258.9,286z"/>
							<path class="st8" d="M272.2,293.7c-0.2,0.1-0.7,0.1-1-0.1l-9.7-5.6c-0.3-0.2-0.4-0.5-0.2-0.6l6.4-3.7c0.2-0.1,0.7-0.1,1,0.1
								l9.7,5.6c0.3,0.2,0.4,0.5,0.2,0.6L272.2,293.7z"/>
							<path class="st8" d="M285.5,301.4c-0.2,0.1-0.7,0.1-1-0.1l-9.7-5.6c-0.3-0.2-0.4-0.5-0.2-0.6l6.4-3.7c0.2-0.1,0.7-0.1,1,0.1
								l9.7,5.6c0.3,0.2,0.4,0.5,0.2,0.6L285.5,301.4z"/>
							<path class="st8" d="M298.8,309.1c-0.2,0.1-0.7,0.1-1-0.1l-9.7-5.6c-0.4-0.2-0.4-0.5-0.2-0.6l6.4-3.7
								c0.2-0.1,0.7-0.1,1.1,0.1l9.7,5.6c0.3,0.2,0.4,0.5,0.2,0.6L298.8,309.1z"/>
							<path class="st8" d="M312.1,316.7c-0.2,0.1-0.7,0.1-1-0.1l-9.7-5.6c-0.3-0.2-0.4-0.5-0.2-0.6l6.4-3.7c0.2-0.1,0.7-0.1,1,0.1
								l9.7,5.6c0.3,0.2,0.4,0.5,0.2,0.6L312.1,316.7z"/>
							<path class="st8" d="M237.9,263.7c-0.2,0.1-0.7,0.1-1.1-0.1l-9.7-5.6c-0.3-0.2-0.4-0.5-0.2-0.6l6.4-3.7
								c0.2-0.1,0.7-0.1,1,0.1l9.7,5.6c0.3,0.2,0.4,0.5,0.2,0.6L237.9,263.7z"/>
							<path class="st8" d="M251.2,271.4c-0.2,0.1-0.7,0.1-1-0.1l-9.7-5.6c-0.3-0.2-0.4-0.5-0.2-0.6l6.4-3.7c0.2-0.1,0.7-0.1,1,0.1
								l9.7,5.6c0.3,0.2,0.4,0.5,0.2,0.6L251.2,271.4z"/>
							<path class="st8" d="M264.5,279.1c-0.2,0.1-0.7,0.1-1.1-0.1l-9.7-5.6c-0.3-0.2-0.4-0.5-0.2-0.6l6.4-3.7
								c0.2-0.1,0.7-0.1,1,0.1l9.7,5.6c0.4,0.2,0.4,0.5,0.2,0.6L264.5,279.1z"/>
							<path class="st8" d="M277.9,286.8c-0.2,0.1-0.7,0.1-1-0.1l-9.7-5.6c-0.3-0.2-0.4-0.5-0.2-0.6l6.4-3.7c0.2-0.1,0.7-0.1,1,0.1
								l9.7,5.6c0.3,0.2,0.4,0.5,0.2,0.6L277.9,286.8z"/>
							<path class="st8" d="M291.2,294.5c-0.2,0.1-0.7,0.1-1-0.1l-9.7-5.6c-0.3-0.2-0.4-0.5-0.2-0.6l6.4-3.7c0.2-0.1,0.7-0.1,1,0.1
								l9.7,5.6c0.3,0.2,0.4,0.5,0.2,0.6L291.2,294.5z"/>
							<path class="st8" d="M304.5,302.1c-0.2,0.1-0.7,0.1-1.1-0.1l-9.7-5.6c-0.3-0.2-0.4-0.5-0.2-0.6l6.4-3.7
								c0.2-0.1,0.7-0.1,1,0.1l9.7,5.6c0.4,0.2,0.4,0.5,0.2,0.6L304.5,302.1z"/>
							<path class="st8" d="M317.8,309.8c-0.2,0.1-0.7,0.1-1-0.1l-9.7-5.6c-0.3-0.2-0.4-0.5-0.2-0.6l6.4-3.7c0.2-0.1,0.7-0.1,1,0.1
								l9.7,5.6c0.3,0.2,0.4,0.5,0.2,0.6L317.8,309.8z"/>
							<path class="st8" d="M211.4,248.4c-0.2,0.1-0.7,0.1-1.1-0.1l-16.4-9.5c-0.3-0.2-0.4-0.5-0.2-0.6l6.4-3.7
								c0.2-0.1,0.7-0.1,1,0.1l16.4,9.5c0.3,0.2,0.4,0.5,0.2,0.6L211.4,248.4z"/>
							<path class="st8" d="M339.9,312.4c-0.2,0.1-0.7,0.1-1.1-0.1l-16.4-9.5c-0.3-0.2-0.4-0.5-0.2-0.6l6.4-3.7
								c0.2-0.1,0.7-0.1,1,0.1l16.4,9.5c0.3,0.2,0.4,0.5,0.2,0.6L339.9,312.4z"/>
							<path class="st8" d="M205.7,255.3c-0.2,0.1-0.7,0.1-1-0.1l-19.5-11.3c-0.3-0.2-0.4-0.5-0.2-0.6l6.4-3.7
								c0.2-0.1,0.7-0.1,1,0.1l19.5,11.3c0.4,0.2,0.4,0.5,0.2,0.6L205.7,255.3z"/>
							<path class="st8" d="M190.4,256.7c-0.2,0.1-0.7,0.1-1.1-0.1l-13-7.5c-0.3-0.2-0.4-0.5-0.2-0.6l6.4-3.7
								c0.2-0.1,0.7-0.1,1.1,0.1l13,7.5c0.3,0.2,0.4,0.5,0.2,0.6L190.4,256.7z"/>
							<path class="st8" d="M226.8,247.1c-0.2,0.1-0.7,0.1-1.1-0.1l-9.7-5.6c-0.3-0.2-0.4-0.5-0.2-0.6l6.4-3.7
								c0.2-0.1,0.7-0.1,1.1,0.1l9.7,5.6c0.4,0.2,0.4,0.5,0.2,0.6L226.8,247.1z"/>
							<path class="st8" d="M240,254.8c-0.2,0.1-0.7,0.1-1.1-0.1l-9.7-5.6c-0.3-0.2-0.4-0.5-0.2-0.6l6.4-3.7
								c0.2-0.1,0.7-0.1,1.1,0.1l9.7,5.6c0.3,0.2,0.4,0.5,0.2,0.6L240,254.8z"/>
							<path class="st8" d="M253.3,262.5c-0.2,0.1-0.7,0.1-1-0.1l-9.7-5.6c-0.3-0.2-0.4-0.5-0.2-0.6l6.4-3.7c0.2-0.1,0.7-0.1,1,0.1
								l9.7,5.6c0.3,0.2,0.4,0.5,0.2,0.6L253.3,262.5z"/>
							<path class="st8" d="M266.6,270.1c-0.2,0.1-0.7,0.1-1.1-0.1l-9.7-5.6c-0.4-0.2-0.4-0.5-0.2-0.6l6.4-3.7
								c0.2-0.1,0.7-0.1,1.1,0.1l9.7,5.6c0.3,0.2,0.4,0.5,0.2,0.6L266.6,270.1z"/>
							<path class="st8" d="M279.9,277.8c-0.2,0.1-0.7,0.1-1-0.1l-9.7-5.6c-0.4-0.2-0.4-0.5-0.2-0.6l6.4-3.7
								c0.2-0.1,0.7-0.1,1.1,0.1l9.7,5.6c0.4,0.2,0.4,0.5,0.2,0.6L279.9,277.8z"/>
							<path class="st8" d="M293.3,285.5c-0.2,0.1-0.7,0.1-1-0.1l-9.7-5.6c-0.3-0.2-0.4-0.5-0.2-0.6l6.4-3.7c0.2-0.1,0.7-0.1,1,0.1
								l9.7,5.6c0.3,0.2,0.4,0.5,0.2,0.6L293.3,285.5z"/>
							<path class="st8" d="M306.6,293.2c-0.2,0.1-0.7,0.1-1.1-0.1l-9.7-5.6c-0.3-0.2-0.4-0.5-0.2-0.6l6.4-3.7
								c0.2-0.1,0.7-0.1,1.1,0.1l9.7,5.6c0.3,0.2,0.4,0.5,0.2,0.6L306.6,293.2z"/>
							<path class="st8" d="M319.9,300.8c-0.2,0.1-0.7,0.1-1-0.1l-9.7-5.6c-0.3-0.2-0.4-0.5-0.2-0.6l6.4-3.7c0.2-0.1,0.7-0.1,1,0.1
								l9.7,5.6c0.3,0.2,0.4,0.5,0.2,0.6L319.9,300.8z"/>
							<path class="st8" d="M327.6,307.6c-0.2-0.1-0.4-0.2-0.6-0.2c-0.2,0-0.4,0-0.5,0.1l-6.4,3.7c-0.1,0.1-0.2,0.2-0.1,0.3
								c0,0.1,0.2,0.2,0.3,0.3l2.5,1.5l-8.4,4.9c-0.1,0.1-0.2,0.2-0.1,0.3c0,0.1,0.2,0.2,0.3,0.3l6.5,3.8c0.2,0.1,0.4,0.2,0.6,0.2
								c0.2,0,0.4,0,0.5-0.1l15.2-8.8c0.1-0.1,0.2-0.2,0.1-0.3c0-0.1-0.2-0.2-0.3-0.3L327.6,307.6z"/>
							<path class="st8" d="M188.6,253.6c0,0-0.1,0-0.1,0l-7.4-4.3c0,0-0.1,0,0-0.1l0.5-0.3c0,0,0.1,0,0.1,0l7.4,4.3
								c0,0,0.1,0.1,0,0.1L188.6,253.6z"/>
						</g>
					</g>
					<path class="st8" d="M226.4,316.8L189,295.2c-2-1.2-1.9-3,0.3-4.1l12.5-6.2c2.2-1.1,5.6-1,7.6,0.2l37.4,21.6
						c2,1.2,1.9,3-0.3,4.1l-12.5,6.2C231.8,318,228.4,317.9,226.4,316.8z"/>
				</g>
				<path class="st4" d="M372.1,302.4c-0.1,0-0.3,0-0.4-0.1L218.5,214c-0.4-0.2-0.5-0.7-0.3-1.1c0.2-0.4,0.7-0.5,1.1-0.3l153.2,88.4
					c0.4,0.2,0.5,0.7,0.3,1.1C372.7,302.3,372.4,302.4,372.1,302.4z"/>
			</g>
			<g>
				<path class="st10" d="M344.1,215.9c6.1-19.4-2.1-43.6-18.4-54c-7.5-4.8-15.3-5.8-22.3-3.6l0,0l-0.1,0c-0.9,0.3-1.8,0.6-2.7,1.1
					l-16.6,7l7.8-0.3c-2.8,3.2-5.1,7.3-6.6,12.2c-6.1,19.4,2.1,43.6,18.4,54c3.3,2.1,6.7,3.5,10.1,4.2l0.9,4.1l11.6-4.7
					c0.6-0.2,1.2-0.5,1.9-0.7l0.2-0.1l0,0C335.4,231.9,341.2,225.3,344.1,215.9z"/>
				
					<ellipse transform="matrix(0.9687 -0.2482 0.2482 0.9687 -41.09 80.7089)" class="st11" cx="299.5" cy="203.3" rx="30.8" ry="40.4"/>
				<g>
					<path class="st7" d="M282.2,198.5c1.8,5.1,3.5,10.2,5.3,15.2c0.2,0.7,0.5,1.4,0.7,2.1c0.3,0.9,1,1.7,1.9,1.9
						c1,0.3,1.9-0.1,2.7-0.7c2.5-2,5-3.9,7.5-5.9c4-3.1,8-6.2,11.9-9.4c0.9-0.7,1.8-1.4,2.7-2.1c0.5-0.4,0.8-1.3,0.8-2
						c0-0.7-0.3-1.5-0.8-2c-0.5-0.5-1.2-0.8-2-0.8c-0.8,0-1.3,0.3-2,0.8c-2.5,2-5,3.9-7.5,5.9c-4,3.1-8,6.2-11.9,9.4
						c-0.9,0.7-1.8,1.4-2.7,2.1c1.5,0.4,3.1,0.8,4.6,1.2c-1.8-5.1-3.5-10.2-5.3-15.2c-0.2-0.7-0.5-1.4-0.7-2.1
						c-0.5-1.4-1.9-2.4-3.4-1.9C282.8,195.5,281.7,197,282.2,198.5L282.2,198.5z"/>
				</g>
			</g>
			<g>
				<path class="st11" d="M377.3,129L327,98.3c-15.7-9.6-24.5-32.2-19.5-50.4v0c4.9-18.1,21.8-25.1,37.4-15.5l50.3,30.8
					c15.7,9.6,24.5,32.2,19.5,50.4v0C409.8,131.6,392.9,138.6,377.3,129z"/>
				<polygon class="st11" points="333.5,86.5 344.9,133 368.3,108.4 				"/>
			</g>
			<g>
				<g>
					<polygon class="st7" points="337.9,67 335,65.5 337.6,64.4 336.1,61.1 333.5,62.2 334.3,59.1 331.4,57.6 330.7,60.7 
						329.2,57.4 326.7,58.5 328.2,61.7 325.4,60.2 324.6,63.3 327.5,64.8 325,65.9 326.4,69.2 329,68.1 328.2,71.2 331.1,72.7 
						331.8,69.6 333.3,72.9 335.8,71.8 334.3,68.5 337.2,70.1 					"/>
				</g>
			</g>
			<g>
				<g>
					<polygon class="st7" points="356.5,77.2 353.7,75.6 356.2,74.6 354.7,71.3 352.2,72.4 352.9,69.3 350.1,67.8 349.4,70.8 
						347.9,67.6 345.3,68.6 346.8,71.9 344,70.4 343.3,73.4 346.1,75 343.6,76.1 345.1,79.3 347.6,78.2 346.9,81.3 349.7,82.9 
						350.4,79.8 351.9,83.1 354.5,82 353,78.7 355.8,80.3 					"/>
				</g>
			</g>
			<g>
				<g>
					<polygon class="st7" points="375.2,87.4 372.3,85.8 374.8,84.7 373.4,81.5 370.8,82.6 371.6,79.5 368.7,77.9 368,81 
						366.5,77.7 364,78.8 365.5,82.1 362.6,80.5 361.9,83.6 364.8,85.2 362.2,86.3 363.7,89.5 366.3,88.4 365.5,91.5 368.4,93.1 
						369.1,90 370.6,93.3 373.1,92.2 371.6,88.9 374.4,90.4 					"/>
				</g>
			</g>
			<g>
				<g>
					<polygon class="st7" points="393.8,97.6 391,96 393.5,94.9 392,91.7 389.5,92.7 390.2,89.7 387.4,88.1 386.7,91.2 385.2,87.9 
						382.6,89 384.1,92.3 381.3,90.7 380.6,93.8 383.4,95.3 380.9,96.4 382.4,99.7 384.9,98.6 384.2,101.7 387,103.2 387.7,100.2 
						389.2,103.4 391.7,102.4 390.2,99.1 393.1,100.6 					"/>
				</g>
			</g>
		</g>
	</g>
</g>
</svg>
