<?xml version="1.0" encoding="utf-8"?>
<!-- Generator: Adobe Illustrator 26.0.3, SVG Export Plug-In . SVG Version: 6.00 Build 0)  -->
<svg version="1.1" id="Layer_1" xmlns="http://www.w3.org/2000/svg" xmlns:xlink="http://www.w3.org/1999/xlink" x="0px" y="0px"
	 viewBox="0 0 569 459.6" style="enable-background:new 0 0 569 459.6;" xml:space="preserve">
<style type="text/css">
	.st0{fill:#FFE3A3;stroke:#FFFFFF;stroke-width:7.6103;stroke-miterlimit:10;}
	.st1{fill:#F0F4FF;}
	.st2{fill:#BAD4F5;}
	.st3{fill:#8E98C2;}
	.st4{fill:#6D7CFF;}
	.st5{fill:#8A96FF;}
	.st6{fill:#F5F5F7;}
	.st7{fill:#FFFFFF;}
	.st8{fill:#A3A7BF;}
	.st9{fill:none;stroke:#6D7CFF;stroke-width:1.5818;stroke-linecap:round;stroke-linejoin:round;stroke-miterlimit:10;}
	.st10{fill:#425399;}
	.st11{fill:#485BFF;}
	.st12{fill:#A3E9D2;stroke:#FFFFFF;stroke-width:7.6103;stroke-miterlimit:10;}
	.st13{fill:#DADEFF;}
	.st14{fill:#DBEFFF;}
	.st15{opacity:0.29;}
	.st16{fill:none;stroke:#FFFFFF;stroke-width:1.6117;stroke-linecap:round;stroke-linejoin:round;stroke-miterlimit:10;}
	.st17{fill:#E68143;}
	.st18{fill:#D3DAE3;}
	.st19{fill:#E6F0FF;}
	.st20{fill:#F5F9FF;}
	.st21{fill:none;stroke:#425399;stroke-width:2.9136;stroke-linecap:round;stroke-linejoin:round;stroke-miterlimit:10;}
	.st22{fill:#C1AFE5;stroke:#FFFFFF;stroke-width:7.6103;stroke-miterlimit:10;}
	.st23{fill:#FFB2A3;stroke:#FFFFFF;stroke-width:7.6103;stroke-miterlimit:10;}
	.st24{fill:#D3D5E9;}
	.st25{fill:#919DFF;}
	.st26{fill:#DFE3FF;}
	.st27{fill:#CAD0FF;}
	.st28{fill:#A7B0FF;}
	.st29{fill:#EFEFEF;}
	.st30{fill:#F7F7F7;}
	.st31{fill:#E9EBFF;}
	.st32{opacity:0.29;fill:#A8C4E5;}
	.st33{fill:none;stroke:#FFFFFF;stroke-width:9.5079;stroke-linecap:round;stroke-linejoin:round;stroke-miterlimit:10;}
	.st34{fill:#A3DFFF;stroke:#FFFFFF;stroke-width:7.6103;stroke-miterlimit:10;}
	.st35{opacity:0.39;fill:#DADEFF;}
	.st36{fill:#4A39E3;}
	.st37{fill:none;stroke:#FFFFFF;stroke-width:1.3412;stroke-linecap:round;stroke-linejoin:round;stroke-miterlimit:10;}
	.st38{fill:none;stroke:#6D7CFF;stroke-width:1.4858;stroke-linecap:round;stroke-linejoin:round;stroke-miterlimit:10;}
	.st39{fill:#8AACCE;}
	.st40{fill:none;stroke:#485BFF;stroke-width:0.8675;stroke-linecap:round;stroke-linejoin:round;stroke-miterlimit:10;}
	.st41{fill:#DADEFF;stroke:#FFFFFF;stroke-width:0.6782;stroke-miterlimit:10;}
	.st42{fill:#E69AB7;stroke:#FFFFFF;stroke-width:7.6103;stroke-miterlimit:10;}
	.st43{fill:#485BE4;}
	.st44{fill:url(#SVGID_1_);}
	.st45{fill:url(#SVGID_00000173132527782134907390000011605292895831522202_);}
	.st46{fill:url(#SVGID_00000013181207442654492210000003335905774771305129_);}
	.st47{fill:#271C8C;}
	.st48{fill:none;stroke:#425399;stroke-width:2.4459;stroke-linecap:round;stroke-linejoin:round;stroke-miterlimit:10;}
	.st49{fill:#B6BDFD;}
	.st50{fill:url(#SVGID_00000072987220044156623660000007031958924768838055_);}
	.st51{opacity:0.11;fill:#584BCC;}
	.st52{fill:#382E99;}
	.st53{fill:#414DBE;}
	.st54{fill:none;stroke:#A8A0FA;stroke-width:1.6099;stroke-linecap:round;stroke-linejoin:round;stroke-miterlimit:10;}
	.st55{fill:none;stroke:#FFFDFC;stroke-width:2.4459;stroke-linecap:round;stroke-linejoin:round;stroke-miterlimit:10;}
	.st56{fill:#BEF4FA;stroke:#FFFFFF;stroke-width:7.6103;stroke-miterlimit:10;}
	.st57{fill:#C6D2F2;}
	.st58{fill:#FFC2B0;}
	.st59{fill:#B6BDFF;}
	.st60{fill:#A8C4E5;}
	.st61{fill:#E1EAF4;}
	.st62{fill:#F09A82;}
	.st63{fill:#21DED5;}
	.st64{opacity:0.39;fill:#A7BCF5;}
	.st65{fill:#4558A3;}
	.st66{fill:url(#SVGID_00000104707267584936529770000011682681004778579114_);}
	.st67{opacity:0.22;fill:#2C1F9C;}
	.st68{fill:#4A5375;}
	.st69{fill:#D9E9FF;}
	.st70{fill:none;stroke:#FFFFFF;stroke-width:1.9095;stroke-linecap:round;stroke-linejoin:round;stroke-miterlimit:10;}
	.st71{fill:#CED2EF;}
	.st72{fill:#2C1F9C;}
	.st73{fill:none;stroke:#A7BCF5;stroke-width:1.9875;stroke-linecap:round;stroke-linejoin:round;stroke-miterlimit:10;}
	.st74{fill:#6676FF;}
	.st75{fill:none;stroke:#FFFFFF;stroke-width:6.8391;stroke-linecap:round;stroke-linejoin:round;stroke-miterlimit:10;}
	.st76{fill:#DBDEE8;stroke:#FFFFFF;stroke-width:7.6103;stroke-miterlimit:10;}
	.st77{fill:url(#SVGID_00000014611920906973664950000017856937778737733012_);}
	.st78{fill:none;stroke:#CFD4E9;stroke-width:0.6062;stroke-linecap:round;stroke-linejoin:round;stroke-miterlimit:10;}
	.st79{fill:#CFD4E9;}
	.st80{fill:none;stroke:#FFFFFF;stroke-width:0.6183;stroke-linecap:round;stroke-linejoin:round;stroke-miterlimit:10;}
	.st81{fill:#AFB7DB;}
	.st82{fill:none;stroke:#FFFFFF;stroke-width:5.3911;stroke-linecap:round;stroke-linejoin:round;stroke-miterlimit:10;}
	.st83{fill:#FCD1FF;stroke:#FFFFFF;stroke-width:7.6103;stroke-miterlimit:10;}
	.st84{fill:#4432DB;}
	.st85{fill:#6875AD;}
	.st86{fill:#1A3EA1;}
	.st87{fill:none;stroke:#DADEFF;stroke-width:0.519;stroke-linecap:round;stroke-linejoin:round;stroke-miterlimit:10;}
	.st88{fill:none;stroke:#425399;stroke-width:0.5656;stroke-linecap:round;stroke-linejoin:round;stroke-miterlimit:10;}
	.st89{fill:none;stroke:#6D7CFF;stroke-width:2.8281;stroke-linecap:round;stroke-linejoin:round;stroke-miterlimit:10;}
	.st90{fill:none;stroke:#FFFFFF;stroke-width:0.6167;stroke-linecap:round;stroke-linejoin:round;stroke-miterlimit:10;}
	.st91{fill:#F0F2FF;}
	.st92{opacity:0.4;fill:#A8C4E5;}
	.st93{fill:#323E73;}
	.st94{fill:#BAD4FF;}
	.st95{fill:#324DED;}
	.st96{fill:#ADB7F2;}
	.st97{fill:none;stroke:#FFFFFF;stroke-width:0.6957;stroke-linecap:round;stroke-linejoin:round;stroke-miterlimit:10;}
	.st98{fill:none;stroke:#FFFFFF;stroke-width:2.8923;stroke-linecap:round;stroke-linejoin:round;stroke-miterlimit:10;}
	.st99{fill:#FFE3A3;}
	.st100{fill:#A3E9D2;}
	.st101{fill:#C1AFE5;}
	.st102{fill:#A3DFFF;}
	.st103{fill:#FFB2A3;}
	.st104{fill:#E69AB7;}
	.st105{fill:url(#SVGID_00000142861294779451954790000005722065078434338982_);}
	.st106{fill:url(#SVGID_00000123440215027836476010000011055400390994369425_);}
	.st107{fill:url(#SVGID_00000097475806802488583880000011952620207153805451_);}
	.st108{fill:url(#SVGID_00000155825406962475322540000004143798240041863560_);}
	.st109{fill:#A8A0FA;}
	.st110{fill:#FFFDFC;}
	.st111{fill:#BEF4FA;}
	.st112{fill:url(#SVGID_00000025435817173105966640000015851796545935243420_);}
	.st113{fill:#A7BCF5;}
	.st114{fill:#DBDEE8;}
	.st115{fill:url(#SVGID_00000022556029814263703930000011681819438861526678_);}
	.st116{fill:#FCD1FF;}
	.st117{fill:none;stroke:#FF73CE;stroke-width:3;stroke-miterlimit:10;}
</style>
<g>
	<g>
		<polygon class="st103" points="565.2,130.2 565.2,452.7 3.8,452.7 3.8,65 496.8,65 		"/>
		<path class="st7" d="M569,456.5H0V61.2h498.3l70.6,67.4V456.5z M7.6,448.9h553.8v-317l-66.1-63.1H7.6V448.9z"/>
	</g>
	<g>
		<path class="st1" d="M253.5,382.9L68.7,276.2c-9.5-5.5-9.5-19.2,0-24.7l188.1-108.6c9.8-5.6,21.8-5.6,31.6,0l189.5,109.4
			c9.5,5.5,9.5,19.2,0,24.7L294.5,382.9C281.8,390.2,266.2,390.2,253.5,382.9z"/>
		<g>
			<g>
				<path class="st3" d="M398.9,239.1l-108.1-61.3c-4.4-2.5-5.5-6-2.4-7.8l19.7-11.6c3.1-1.8,9.2-1.3,13.6,1.2l108.1,61.3
					c4.4,2.5,5.5,6,2.4,7.8l-19.7,11.6C409.4,242.2,403.4,241.6,398.9,239.1z"/>
				<g>
					<g>
						<path class="st13" d="M378.4,195.6c0,0-0.8,0.4-0.8,0.5c0,0-0.3,0.3-0.4,0.4c-0.1,0.1-0.4,0.3-0.5,0.4
							c-0.2,0.1-34.7,21.2-34.7,21.2l-0.3,5.4l34.1-20.8c0.3,0,0.5-0.1,0.6-0.2c0.1,0,0.1-0.1,0.2-0.1c0.1-0.1,0.2-0.2,0.3-0.2
							c0,0,0,0,0,0c0.1-0.1,0.2-0.2,0.3-0.3c0,0,0.1-0.1,0.1-0.1c0,0,0.1-0.1,0.1-0.1c0,0,0-0.1,0.1-0.1c0.1-0.1,0.1-0.2,0.2-0.3
							c0,0,0-0.1,0.1-0.1c0,0,0-0.1,0-0.1c0-0.1,0.1-0.2,0.1-0.3c0,0,0-0.1,0.1-0.1c0,0,0,0,0-0.1c0-0.1,0.1-0.2,0.1-0.2
							c0,0,0-0.1,0-0.1c0,0,0,0,0,0c0-0.1,0-0.2,0-0.3c0,0,0-0.1,0-0.1c0,0,0,0,0-0.1L378.4,195.6z"/>
						<path class="st13" d="M341.8,218.1c-0.2,0.1-0.5,0.3-0.7,0.4c-0.1,0-0.2,0.1-0.2,0.1c-0.3,0.1-0.6,0.2-0.8,0.3c0,0,0,0,0,0
							c-0.2,0.1-0.5,0.2-0.7,0.2c0,0-0.1,0-0.1,0c-0.2,0.1-0.4,0.1-0.7,0.1c0,0-0.1,0-0.1,0c-0.3,0.1-0.6,0.1-0.9,0.1
							c-0.1,0-0.2,0-0.3,0c-0.2,0-0.3,0-0.5,0c-0.1,0-0.2,0-0.4,0c-0.1,0-0.3,0-0.4,0c-0.1,0-0.3,0-0.4,0c-0.1,0-0.3,0-0.4,0
							c-0.1,0-0.3,0-0.4,0c-0.1,0-0.3,0-0.4,0c-0.1,0-0.3,0-0.4,0c-0.1,0-0.3,0-0.4-0.1c-0.1,0-0.2,0-0.3-0.1
							c-0.2,0-0.3-0.1-0.5-0.1c-0.1,0-0.2,0-0.3-0.1c-0.3-0.1-0.6-0.2-0.9-0.3c-0.1-0.1-0.3-0.1-0.4-0.2c-0.1,0-0.1-0.1-0.2-0.1
							c-0.2-0.1-0.4-0.2-0.6-0.3L305,204c-1.6-0.9-2.4-0.4-2.3-1.6l-0.2,3.8c0,1.2,0.7,2.4,2.3,3.3l25.3,14.3
							c0.2,0.1,0.4,0.2,0.6,0.3c0.1,0,0.1,0.1,0.2,0.1c0.1,0,0.2,0.1,0.4,0.1c0,0,0,0,0.1,0c0.3,0.1,0.6,0.2,0.9,0.3c0,0,0,0,0.1,0
							c0.1,0,0.1,0,0.2,0.1c0.2,0,0.3,0.1,0.5,0.1c0,0,0.1,0,0.1,0c0.1,0,0.2,0,0.2,0c0.1,0,0.3,0,0.4,0.1c0,0,0.1,0,0.1,0
							c0.1,0,0.2,0,0.2,0c0.1,0,0.3,0,0.4,0c0.1,0,0.1,0,0.2,0c0.1,0,0.2,0,0.2,0c0.1,0,0.3,0,0.4,0c0.1,0,0.1,0,0.2,0
							c0.1,0,0.1,0,0.2,0c0.1,0,0.3,0,0.4,0c0.1,0,0.1,0,0.2,0c0.1,0,0.1,0,0.2,0c0.2,0,0.3,0,0.5,0c0.1,0,0.1,0,0.2,0
							c0,0,0.1,0,0.1,0c0.3,0,0.6-0.1,0.9-0.1c0,0,0,0,0.1,0c0,0,0,0,0,0c0.2,0,0.4-0.1,0.7-0.1c0,0,0.1,0,0.1,0
							c0.3-0.1,0.5-0.1,0.7-0.2c0,0,0,0,0,0c0,0,0,0,0,0c0.3-0.1,0.6-0.2,0.8-0.3c0.1,0,0.2-0.1,0.2-0.1c0.2-0.1,0.5-0.2,0.7-0.4
							c0,0,0.1,0,0.1,0c0,0,0,0,0.1,0l0.4-5.5C342,218,341.8,218.1,341.8,218.1z"/>
						<g>
							<path class="st7" d="M376,192.5c3,1.7,3,4.6-0.1,6.4l-34.1,20.8c-3.2,1.9-8.4,2.1-11.6,0.3l-25.3-14.3
								c-3.2-1.8-3-4.8,0.4-6.6l36-19.8c3.2-1.8,8.2-1.8,11.3-0.1L376,192.5z"/>
						</g>
					</g>
					<polygon class="st13" points="317.6,192.4 354.2,212.4 363.7,206.5 328.6,186.5 					"/>
					<g class="st15">
						<polygon class="st13" points="354.2,212.4 354.1,215.9 366,208.8 366.1,205.4 						"/>
					</g>
				</g>
				<path class="st4" d="M446.8,118.1L321.4,48.4h0c0,0,0,0,0,0l-0.2-0.1c0,0,0,0,0,0c-0.2-0.1-0.4-0.2-0.4-0.2
					c-0.1,0-0.1-0.1-0.2-0.1c-0.1,0-0.1-0.1-0.2-0.1c-0.1,0-0.1-0.1-0.2-0.1c-0.1,0-0.1,0-0.2-0.1c-0.1,0-0.1,0-0.2-0.1
					c-0.1,0-0.1,0-0.2-0.1c0,0,0,0,0,0c0,0,0,0,0,0c0,0,0,0,0,0c-0.1,0-0.1,0-0.2,0c0,0-0.1,0-0.1,0c0,0,0,0-0.1,0c0,0,0,0-0.1,0
					c-0.1,0-0.1,0-0.2,0c0,0,0,0,0,0c0,0,0,0,0,0c-0.1,0-0.2,0-0.2,0c0,0,0,0,0,0c0,0-0.1,0-0.1,0c0,0-0.1,0-0.1,0c0,0,0,0,0,0
					c-0.1,0-0.1,0-0.2,0c0,0-0.1,0-0.1,0c0,0,0,0,0,0c-0.1,0-0.2,0-0.4,0.1c0,0,0,0,0,0c0,0,0,0,0,0c-0.1,0-0.3,0.1-0.4,0.1
					l-3.1,0.8c0.1-0.1-0.8,1.3-0.7,1.3c0,0,0,0,0.1,0c0.1,0,0.2,0,0.4,0c0,0,0,0,0,0c0.1,0,0.3,0.1,0.4,0.1c0,0,0,0,0,0
					c0.1,0,0.3,0.1,0.4,0.1c0,0,0,0,0,0c0.1,0.1,0.3,0.1,0.4,0.2c0.1,0,0.1,0.1,0.2,0.1c0,0,0.1,0,0.1,0.1l0.9,0.5l0,0l128.9,71.8
					C445.5,122.8,447.2,118.3,446.8,118.1z M319.6,48.6L319.6,48.6L319.6,48.6L319.6,48.6z"/>
				<path class="st4" d="M449.8,123.4C449.8,123.4,449.8,123.4,449.8,123.4c0-0.1,0-0.1,0-0.2c0-0.1,0-0.1,0-0.2c0,0,0,0,0,0
					c0,0,0,0,0,0c0,0,0-0.1,0-0.1c0-0.1,0-0.1,0-0.2c0,0,0-0.1,0-0.1c0,0,0,0,0,0c0,0,0,0,0-0.1c0-0.1,0-0.1,0-0.2
					c0-0.1,0-0.1,0-0.2c0,0,0,0,0,0c0,0,0,0,0,0c0-0.1,0-0.1,0-0.2c0-0.1,0-0.1,0-0.2c0,0,0,0,0,0c0,0,0,0,0,0c0,0,0-0.1,0-0.1
					c0-0.1,0-0.1,0-0.2c0,0,0-0.1,0-0.1c0,0,0,0,0,0c0,0,0,0,0,0c0,0,0-0.1-0.1-0.1c0,0,0-0.1-0.1-0.1c0,0,0,0,0-0.1c0,0,0,0,0,0
					c0,0,0,0,0-0.1c0,0,0-0.1-0.1-0.1c0,0,0-0.1-0.1-0.1c0,0,0,0,0,0c0,0,0,0,0,0c0-0.1-0.1-0.1-0.1-0.2c0,0-0.1-0.1-0.1-0.1
					c0,0,0-0.1-0.1-0.1c0,0,0,0,0,0c0-0.1-0.1-0.1-0.1-0.2c0,0,0,0,0-0.1c0,0,0,0,0,0c-0.1-0.1-0.1-0.2-0.2-0.3c0,0,0,0,0,0
					c0,0,0,0,0,0c0,0,0-0.1-0.1-0.1c0-0.1-0.1-0.1-0.1-0.2c0,0,0,0,0-0.1c0,0,0,0,0,0c0,0,0,0,0-0.1c0,0-0.1-0.1-0.1-0.1
					c0,0-0.1-0.1-0.1-0.1c0,0,0,0,0,0c0,0,0,0,0,0c0,0-0.1-0.1-0.1-0.1c0,0-0.1-0.1-0.2-0.1c0,0,0,0,0,0c0,0,0,0,0,0
					c0,0-0.1-0.1-0.2-0.1c-0.1,0-0.1-0.1-0.2-0.1c0,0,0,0,0,0c0,0,0,0,0,0c0,0-0.1-0.1-0.1-0.1c-0.1,0-0.1-0.1-0.2-0.1c0,0,0,0,0,0
					c0,0,0,0,0,0c0,0,0,0,0,0c0,0-0.1,0-0.1-0.1c-0.1,0-0.1-0.1-0.2-0.1c0,0-0.9-0.5-0.9-0.5l-5.5,2.2c0,0,1.2,0.7,1.3,0.7
					c0.1,0,0.1,0.1,0.2,0.1c0.1,0,0.1,0.1,0.2,0.1c0.1,0,0.1,0.1,0.2,0.1c0,0,0,0,0.1,0.1c0.1,0.1,0.2,0.1,0.3,0.2l0,0l0,0
					c0.1,0.1,0.2,0.1,0.2,0.2c0,0,0,0,0,0c0.1,0.1,0.1,0.1,0.2,0.2c0,0,0,0,0,0c0.1,0.1,0.1,0.2,0.2,0.2c0,0,0,0,0,0
					c0.1,0.1,0.1,0.2,0.2,0.2c0,0,0.1,0.1,0.1,0.1c0,0.1,0.1,0.1,0.1,0.2c0,0.1,0.1,0.1,0.1,0.2c0,0,0.1,0.1,0.1,0.1
					c0,0,0,0.1,0.1,0.1c0,0.1,0.1,0.1,0.1,0.2c0,0,0,0,0,0.1c0,0.1,0.1,0.2,0.1,0.3c0,0,0,0,0,0c0,0.1,0.1,0.2,0.1,0.3c0,0,0,0,0,0
					c0,0.1,0.1,0.2,0.1,0.3c0,0,0,0,0,0c0,0.1,0.1,0.2,0.1,0.3c0,0,0,0,0,0c0,0.1,0,0.2,0.1,0.3c0,0,0,0,0,0c0,0.1,0,0.2,0,0.3
					c0,0,0,0,0,0c0,0.1,0,0.2,0,0.3c0,0,0,0,0,0c0,0.1,0,0.2,0,0.3c0,0,0,0.1,0,0.1c0,0.1,0,0.1,0,0.2c0,0.1,0,0.1,0,0.2
					c0,0.1,0,0.1,0,0.2c0,0.1,0,0.1,0,0.2c0,0,0,0.1,0,0.1c0,0,0,0.1-0.1,0.3l-31.4,105.8l4.2-2.6c1-0.6,1.7-1.4,2-2.4l30.3-102.2
					c0.1-0.4,0.3-1.1,0.3-1.1c0,0,0-0.1,0-0.1c0,0,0-0.1,0-0.1c0,0,0,0,0,0c0,0,0,0,0,0c0,0,0,0,0,0c0-0.1,0-0.1,0-0.2
					C449.8,123.5,449.8,123.5,449.8,123.4C449.8,123.4,449.8,123.4,449.8,123.4z"/>
				<g>
				</g>
				<g>
					<path class="st7" d="M415.8,229.1c-0.9,3.3-5.8,5.1-8.9,3.3L284.1,164c-2.3-1.3-3.6-4-3-6.1l28.1-96.2c0.6-2.1,3-2.8,5.2-1.5
						l129.1,71.9L415.8,229.1z"/>
				</g>
				<g>
					<path class="st5" d="M420.1,214.1c-1.5,5-8.6,7.7-13.4,5l-119.6-66.4c-2.3-1.3-3.6-4-3-6.1l28.1-96.2c0.6-2.1,3-2.8,5.2-1.5
						l124.7,69.4c3,1.7,4.5,5.2,3.5,8.5L420.1,214.1z"/>
				</g>
				<g>
					<path class="st6" d="M415.3,207.5c-1,3.2-5.5,4.9-8.6,3.2l-113.6-62.2c-2.1-1.2-3.4-3.6-2.9-5.4l24.7-80.7
						c0.5-1.8,2.7-2.3,4.9-1.1l120.4,65.7L415.3,207.5z"/>
				</g>
				<path class="st7" d="M377.9,87.8c-0.2,1-1.1,1.4-2,0.9c-0.9-0.5-1.5-1.7-1.3-2.8c0.2-1,1.1-1.4,2-0.9
					C377.5,85.5,378.1,86.8,377.9,87.8z"/>
			</g>
		</g>
		<g>
			<path class="st3" d="M162.5,288.2l49.6-28.9c3.7-2.1,3.7-7.4,0-9.5L167.9,224L162.5,288.2z"/>
			<g>
				<path class="st13" d="M190.6,200.6c0.4-1.6,0.3-3.4-0.2-4.9l0,0c-0.5-1.4-1.3-2.6-2.4-3.2l-36.9-20.8c-0.9-0.5-1.9-0.6-2.8-0.2
					l-4.3,1.8l-19.7,84.1c0,0.1,0,0.1,0,0.1c-0.8,3.1,0.3,6.7,2.5,7.9l35.6,22.5l3.6-1.8c1.6-0.8,2.7-1.7,3.2-3.8L190.6,200.6z"/>
				<path class="st5" d="M159.6,287.9l-36.8-20.8c-2.2-1.2-3.2-4.8-2.4-8l21.3-82.3c0.8-3.1,3.2-4.7,5.4-3.4l36.7,20.8
					c2.2,1.2,3.2,4.8,2.4,8l-21.3,82.3C164.1,287.6,161.8,289.2,159.6,287.9z"/>
				<path class="st6" d="M164.4,272.7l18-69.5c0.1-0.5,0-0.9-0.4-1.1l-35.9-20.2c-0.8-0.5-2.1,0.2-2.4,1.2l-2,7.6
					c-0.1,0.1-0.1,0.2-0.1,0.3l-18,69.5c-0.1,0.5,0,0.9,0.4,1.1l35.9,20.2c0.8,0.5,2.1-0.2,2.4-1.2l2-7.6
					C164.4,272.9,164.4,272.8,164.4,272.7z"/>
				<path class="st7" d="M170.3,192.8l-11.4-6.4c-0.4-0.2-0.6-0.9-0.5-1.4l0,0c0.1-0.6,0.6-0.8,1-0.6l11.4,6.4
					c0.4,0.2,0.6,0.9,0.5,1.4v0C171.2,192.7,170.7,193,170.3,192.8z"/>
			</g>
			<g>
				<path class="st4" d="M156.8,245.8c-2.6,0-5.4-0.8-8-2.2c-8.4-4.7-13.4-15.6-11.2-24.2c1-4,3.5-7,6.9-8.5
					c3.8-1.6,8.5-1.1,12.8,1.3c8.4,4.7,13.4,15.6,11.2,24.2l0,0c-1,4-3.5,7-6.9,8.5C160.1,245.5,158.5,245.8,156.8,245.8z
					 M149.3,211.5c-1.5,0-2.9,0.3-4.2,0.8c-3,1.3-5.2,3.9-6.1,7.5c-2.1,8,2.6,18.1,10.5,22.5c3.9,2.2,8.1,2.7,11.5,1.2
					c3-1.3,5.2-3.9,6.1-7.5c2.1-8-2.6-18.1-10.5-22.5C154.2,212.2,151.7,211.5,149.3,211.5z M167.8,236.3L167.8,236.3L167.8,236.3z"
					/>
				<path class="st4" d="M149.2,243.6c-0.1,0-0.1,0-0.2,0c-0.4-0.1-0.6-0.5-0.5-0.9l7.8-30c0.1-0.4,0.5-0.6,0.9-0.5
					c0.4,0.1,0.6,0.5,0.5,0.9l-7.8,30C149.8,243.4,149.5,243.6,149.2,243.6z"/>
				<path class="st4" d="M167.8,237c-0.1,0-0.2,0-0.4-0.1L138,220.2c-0.4-0.2-0.5-0.7-0.3-1c0.2-0.4,0.7-0.5,1-0.3l29.4,16.6
					c0.4,0.2,0.5,0.7,0.3,1C168.3,236.8,168,237,167.8,237z"/>
				<path class="st4" d="M166.6,224.7C166.5,224.7,166.5,224.7,166.6,224.7c-8.4-0.4-15.9-4.7-22.3-12.6c-0.3-0.3-0.2-0.8,0.1-1
					c0.3-0.3,0.8-0.2,1,0.1c6.1,7.6,13.3,11.6,21.2,12c0.4,0,0.7,0.4,0.7,0.8C167.3,224.4,167,224.7,166.6,224.7z"/>
				<path class="st4" d="M161.3,244.9c-0.2,0-0.4-0.1-0.6-0.3c-6.1-7.6-13.3-11.6-21.2-12c-0.4,0-0.7-0.4-0.7-0.8
					c0-0.4,0.4-0.7,0.8-0.7c8.4,0.4,15.9,4.7,22.3,12.6c0.3,0.3,0.2,0.8-0.1,1C161.6,244.8,161.5,244.9,161.3,244.9z"/>
				<path class="st4" d="M149.6,243.9c-0.3,0-0.6-0.2-0.7-0.5c-0.1-0.4,0.1-0.8,0.5-0.9c5.2-1.5,8.6-4.2,10.3-8.2
					c3.6-8.8-2.8-20.7-2.9-20.8c-0.2-0.4-0.1-0.8,0.3-1c0.4-0.2,0.8-0.1,1,0.3c0.3,0.5,6.9,12.7,3,22.1c-1.8,4.4-5.6,7.4-11.2,9
					C149.7,243.9,149.7,243.9,149.6,243.9z"/>
				<path class="st4" d="M148.5,243.3c-0.3,0-0.5-0.1-0.7-0.4c-4.6-8.9-5.5-16.4-2.8-22.1c3.3-7.1,10.8-8.9,11.1-9
					c0.4-0.1,0.8,0.2,0.9,0.6c0.1,0.4-0.2,0.8-0.6,0.9c-0.1,0-7.2,1.7-10.1,8.2c-2.5,5.3-1.5,12.3,2.8,20.8c0.2,0.4,0,0.8-0.3,1
					C148.8,243.3,148.7,243.3,148.5,243.3z"/>
			</g>
			<g>
				
					<ellipse transform="matrix(0.9148 -0.404 0.404 0.9148 -62.8444 70.5008)" class="st5" cx="135.7" cy="184.2" rx="16.1" ry="19.2"/>
				<path class="st7" d="M130.8,181.2c-0.6,1.7-2.3,2.4-3.9,1.5c-1.6-0.8-2.4-2.9-1.9-4.6c0.6-1.7,2.3-2.4,3.9-1.5
					C130.5,177.5,131.4,179.6,130.8,181.2z"/>
				<path class="st7" d="M145.2,180.9c-0.6,1.7-2.3,2.4-3.9,1.5c-1.6-0.8-2.4-2.9-1.9-4.6s2.3-2.4,3.9-1.5
					C145,177.1,145.8,179.2,145.2,180.9z"/>
				
					<ellipse transform="matrix(0.9148 -0.404 0.404 0.9148 -66.8307 72.0751)" class="st7" cx="137.4" cy="194.4" rx="2.9" ry="3.5"/>
				<polygon class="st7" points="142.2,180.5 128.2,180.6 128,178.9 142,178.8 				"/>
				<polygon class="st7" points="135.8,194.4 127.4,180.5 128.7,179.7 137,193.6 				"/>
			</g>
		</g>
		<g>
			<g>
				<path class="st11" d="M229.9,194.4l-40.5-24.8c-12.6-7.7-19.7-26-15.7-40.6v0c4-14.6,17.5-20.2,30.2-12.5l40.5,24.8
					c12.6,7.7,19.7,26,15.7,40.6v0C256.1,196.5,242.5,202.2,229.9,194.4z"/>
				<polygon class="st11" points="194.7,160.2 203.8,197.6 222.7,177.8 				"/>
			</g>
			<g>
				<g>
					<polygon class="st7" points="198.2,144.5 195.9,143.2 197.9,142.4 196.7,139.7 194.7,140.6 195.3,138.1 193,136.9 192.4,139.4 
						191.2,136.7 189.2,137.6 190.4,140.2 188.1,139 187.5,141.5 189.8,142.7 187.7,143.6 188.9,146.2 191,145.3 190.4,147.8 
						192.7,149.1 193.3,146.6 194.5,149.2 196.5,148.4 195.3,145.7 197.6,147 					"/>
				</g>
			</g>
			<g>
				<g>
					<polygon class="st7" points="213.2,152.7 210.9,151.4 212.9,150.6 211.7,147.9 209.7,148.8 210.3,146.3 208,145.1 207.4,147.6 
						206.2,144.9 204.2,145.8 205.4,148.4 203.1,147.2 202.5,149.7 204.8,150.9 202.8,151.8 204,154.4 206,153.5 205.4,156 
						207.7,157.3 208.3,154.8 209.5,157.4 211.5,156.6 210.3,153.9 212.6,155.2 					"/>
				</g>
			</g>
			<g>
				<g>
					<polygon class="st7" points="228.2,160.9 225.9,159.6 227.9,158.8 226.7,156.1 224.7,157 225.3,154.5 223,153.3 222.4,155.8 
						221.2,153.1 219.2,154 220.4,156.6 218.1,155.4 217.5,157.9 219.8,159.1 217.8,160 219,162.6 221,161.7 220.4,164.2 
						222.7,165.5 223.3,163 224.5,165.6 226.5,164.8 225.3,162.1 227.6,163.4 					"/>
				</g>
			</g>
			<g>
				<g>
					<polygon class="st7" points="243.2,169.1 240.9,167.8 243,167 241.8,164.3 239.7,165.2 240.3,162.7 238,161.5 237.5,164 
						236.2,161.3 234.2,162.2 235.4,164.8 233.1,163.6 232.6,166.1 234.9,167.3 232.8,168.2 234,170.8 236.1,169.9 235.5,172.4 
						237.7,173.7 238.3,171.2 239.5,173.8 241.6,173 240.4,170.3 242.6,171.6 					"/>
				</g>
			</g>
		</g>
		<g>
			<g>
				<g>
					<path class="st3" d="M350.7,329.6l-87.3-50.4c-1-0.6-2.8-0.5-4,0.2l-51.1,29.5c-1.2,0.7-1.3,1.7-0.3,2.3l77.6,44.8l0.2,8.5
						l11.9-2.6l0,0c0.5-0.1,1.1-0.2,1.5-0.5l51.1-29.5C351.6,331.2,351.7,330.2,350.7,329.6z"/>
					<polygon class="st39" points="341.7,329.1 339.5,330.5 338.6,327.4 341.9,327.4 					"/>
					<polygon class="st4" points="265.7,218.9 267.9,217.5 271.6,221 267,221.7 					"/>
					<path class="st4" d="M338.7,329.1l-85.8-49.6c-1.9-1.1-2.8-4.1-2.1-6.7l15.2-52.6c0.7-2.6,2.9-3.8,4.8-2.7l86.1,50
						c1.9,1.1,2.5,3.1,1.7,5.7l-15,53.2C342.8,329,340.6,330.2,338.7,329.1z"/>
					<path class="st5" d="M336.5,330.5L250.7,281c-1.9-1.1-2.8-4.1-2.1-6.7l15.2-52.6c0.7-2.6,2.9-3.8,4.8-2.7l86.7,50.1
						c1.9,1.1,2.3,2.6,1.5,5.2l-15.4,53.6C340.6,330.4,338.4,331.6,336.5,330.5z"/>
					<path class="st6" d="M335.1,328.6l-82.4-47.6c-1.8-1.1-2.7-3.9-2-6.4l14.5-50.5c0.7-2.5,2.8-3.7,4.6-2.6l83.1,48.1
						c1.8,1.1,2.2,2.5,1.5,4.9L339.8,326C339,328.5,337,329.7,335.1,328.6z"/>
					<path class="st13" d="M338,333.2v-2.8l-12.6,7.3l-0.7-1.7l-83.9-48.4c-1-0.6-3-0.5-4.2,0.2l-36.3,20.9v-0.6l-5.5,2.7l-0.8-0.3
						l0.1,2.5c0.1,0.6,0.3,0.8,0.6,1l87.3,50.5c1,0.6,2.8,0.6,4-0.1l50.7-29C338,334.8,338,333.2,338,333.2z"/>
					<path class="st13" d="M338,333.2v-2.8l-12.6,7.3l-0.7-1.7l-41.2-23.8l-1.5,52.2c0.5,0.3,1.2,0.4,1.9,0.4c0.7,0,1.5-0.2,2-0.5
						l50.7-29C338,334.8,338,333.2,338,333.2z"/>
					<path class="st7" d="M337.3,330.3L250,279.9c-1-0.6-2.8-0.5-4,0.2l-51.1,29.5c-1.2,0.7-1.3,1.7-0.3,2.3l87.3,50.4
						c1,0.6,2.8,0.5,4-0.2l51.1-29.5C338.2,331.9,338.3,330.9,337.3,330.3z"/>
					<g>
						<g>
							<path class="st8" d="M246,294.1c-0.1,0.1-0.4,0-0.6-0.1l-5.3-3.1c-0.2-0.1-0.2-0.3-0.1-0.3l3.5-2c0.1-0.1,0.4,0,0.6,0.1
								l5.3,3.1c0.2,0.1,0.2,0.3,0.1,0.3L246,294.1z"/>
							<path class="st8" d="M252.1,303.2c-0.1,0.1-0.4,0-0.6-0.1l-5.3-3.1c-0.2-0.1-0.2-0.3-0.1-0.3l3.5-2c0.1-0.1,0.4,0,0.6,0.1
								l5.3,3.1c0.2,0.1,0.2,0.3,0.1,0.3L252.1,303.2z"/>
							<path class="st8" d="M249,307c-0.1,0.1-0.4,0-0.6-0.1l-5.3-3.1c-0.2-0.1-0.2-0.3-0.1-0.3l3.5-2c0.1-0.1,0.4,0,0.6,0.1
								l5.3,3.1c0.2,0.1,0.2,0.3,0.1,0.3L249,307z"/>
							<path class="st8" d="M240.6,307.7c-0.1,0.1-0.4,0-0.6-0.1l-5.3-3.1c-0.2-0.1-0.2-0.3-0.1-0.3l3.5-2c0.1-0.1,0.4,0,0.6,0.1
								l5.3,3.1c0.2,0.1,0.2,0.3,0.1,0.3L240.6,307.7z"/>
							<path class="st8" d="M226,305.6c-0.1,0.1-0.4,0-0.6-0.1l-5.3-3.1c-0.2-0.1-0.2-0.3-0.1-0.3l4.1-2.4c0.1-0.1,0.4,0,0.6,0.1
								l5.3,3.1c0.2,0.1,0.2,0.3,0.1,0.3L226,305.6z"/>
							<path class="st8" d="M235.1,310.9c-0.1,0.1-0.4,0-0.7-0.1l-6.9-4c-0.2-0.1-0.4-0.3-0.2-0.4l4.1-2.4c0.1-0.1,0.4,0,0.7,0.1
								l6.9,4c0.3,0.1,0.3,0.3,0.2,0.4L235.1,310.9z"/>
							<path class="st8" d="M280.8,337.2c-0.1,0.1-0.3,0-0.5-0.1l-5.3-3.1c-0.2-0.1-0.3-0.3-0.2-0.3l1.5-0.9c0.1-0.1,0.3,0,0.5,0.1
								l5.3,3.1c0.2,0.1,0.3,0.2,0.2,0.3L280.8,337.2z"/>
							<path class="st8" d="M287.9,341.4c-0.1,0.1-0.3,0-0.5-0.1l-5.3-3.1c-0.2-0.1-0.3-0.3-0.2-0.3l1.5-0.9c0.1-0.1,0.3,0,0.5,0.1
								l5.3,3.1c0.2,0.1,0.3,0.2,0.2,0.3L287.9,341.4z"/>
							<path class="st8" d="M295.4,345.7c-0.1,0.1-0.3,0-0.5-0.1l-5.3-3.1c-0.2-0.1-0.3-0.2-0.2-0.3l1.5-0.8c0.1-0.1,0.3,0,0.5,0.1
								l5.3,3.1c0.2,0.1,0.3,0.2,0.2,0.3L295.4,345.7z"/>
							<path class="st8" d="M290.7,339.8c-0.1,0.1-0.3,0-0.5-0.1l-5.3-3.1c-0.2-0.1-0.3-0.2-0.2-0.3l1.5-0.8c0.1-0.1,0.3,0,0.5,0.1
								l5.3,3.1c0.2,0.1,0.3,0.2,0.2,0.3L290.7,339.8z"/>
							<path class="st8" d="M271.6,331.9c-0.1,0.1-0.4,0-0.6-0.1l-34.5-19.9c-0.2-0.1-0.2-0.3-0.1-0.3l4.1-2.4
								c0.1-0.1,0.4,0,0.6,0.1l34.5,19.9c0.2,0.1,0.2,0.3,0.1,0.3L271.6,331.9z"/>
							<path class="st8" d="M234.2,309.6C234.2,309.6,234.2,309.6,234.2,309.6l-4.1-2.4c0,0,0,0,0,0l0.3-0.1c0,0,0,0,0.1,0l4.1,2.3
								c0,0,0,0,0,0L234.2,309.6z"/>
							<path class="st8" d="M223.8,303.1C223.8,303.1,223.8,303.1,223.8,303.1l-1.8-1c0,0,0,0,0,0l0.3-0.1c0,0,0,0,0,0l1.7,1
								c0,0,0,0,0,0L223.8,303.1z"/>
							<path class="st8" d="M247.9,311.9c-0.1,0.1-0.4,0-0.6-0.1l-5.3-3.1c-0.2-0.1-0.2-0.3-0.1-0.3l3.5-2c0.1-0.1,0.4,0,0.6,0.1
								l5.3,3.1c0.2,0.1,0.2,0.3,0.1,0.3L247.9,311.9z"/>
							<path class="st8" d="M255.2,316.1c-0.1,0.1-0.4,0-0.6-0.1l-5.3-3.1c-0.2-0.1-0.2-0.3-0.1-0.3l3.5-2c0.1-0.1,0.4,0,0.6,0.1
								l5.3,3.1c0.2,0.1,0.2,0.3,0.1,0.3L255.2,316.1z"/>
							<path class="st8" d="M262.5,320.3c-0.1,0.1-0.4,0-0.6-0.1l-5.3-3.1c-0.2-0.1-0.2-0.3-0.1-0.3l3.5-2c0.1-0.1,0.4,0,0.6,0.1
								l5.3,3.1c0.2,0.1,0.2,0.3,0.1,0.3L262.5,320.3z"/>
							<path class="st8" d="M269.8,324.5c-0.1,0.1-0.4,0-0.6-0.1l-5.3-3.1c-0.2-0.1-0.2-0.3-0.1-0.3l3.5-2c0.1-0.1,0.4,0,0.6,0.1
								l5.3,3.1c0.2,0.1,0.2,0.3,0.1,0.3L269.8,324.5z"/>
							<path class="st8" d="M277.1,328.8c-0.1,0.1-0.4,0-0.6-0.1l-5.3-3.1c-0.2-0.1-0.2-0.3-0.1-0.3l3.5-2c0.1-0.1,0.4,0,0.6,0.1
								l5.3,3.1c0.2,0.1,0.2,0.3,0.1,0.3L277.1,328.8z"/>
							<path class="st8" d="M284.4,333c-0.1,0.1-0.4,0-0.6-0.1l-5.3-3.1c-0.2-0.1-0.2-0.3-0.1-0.3l3.5-2c0.1-0.1,0.4,0,0.6,0.1
								l5.3,3.1c0.2,0.1,0.2,0.3,0.1,0.3L284.4,333z"/>
							<path class="st8" d="M300.8,342.5c-0.1,0.1-0.4,0-0.6-0.1l-14.4-8.3c-0.2-0.1-0.2-0.3-0.1-0.3l3.5-2c0.1-0.1,0.4,0,0.6,0.1
								l14.4,8.3c0.2,0.1,0.2,0.3,0.1,0.3L300.8,342.5z"/>
							<path class="st8" d="M256.3,311.2c-0.1,0.1-0.4,0-0.6-0.1l-5.3-3.1c-0.2-0.1-0.2-0.3-0.1-0.3l3.5-2c0.1-0.1,0.4,0,0.6,0.1
								l5.3,3.1c0.2,0.1,0.2,0.3,0.1,0.3L256.3,311.2z"/>
							<path class="st8" d="M263.6,315.4c-0.1,0.1-0.4,0-0.6-0.1l-5.3-3.1c-0.2-0.1-0.2-0.3-0.1-0.3l3.5-2c0.1-0.1,0.4,0,0.6,0.1
								l5.3,3.1c0.2,0.1,0.2,0.3,0.1,0.3L263.6,315.4z"/>
							<path class="st8" d="M270.9,319.6c-0.1,0.1-0.4,0-0.6-0.1l-5.3-3.1c-0.2-0.1-0.2-0.3-0.1-0.3l3.5-2c0.1-0.1,0.4,0,0.6,0.1
								l5.3,3.1c0.2,0.1,0.2,0.3,0.1,0.3L270.9,319.6z"/>
							<path class="st8" d="M278.2,323.8c-0.1,0.1-0.4,0-0.6-0.1l-5.3-3.1c-0.2-0.1-0.2-0.3-0.1-0.3l3.5-2c0.1-0.1,0.4,0,0.6,0.1
								l5.3,3.1c0.2,0.1,0.2,0.3,0.1,0.3L278.2,323.8z"/>
							<path class="st8" d="M285.5,328c-0.1,0.1-0.4,0-0.6-0.1l-5.3-3.1c-0.2-0.1-0.2-0.3-0.1-0.3l3.5-2c0.1-0.1,0.4,0,0.6,0.1
								l5.3,3.1c0.2,0.1,0.2,0.3,0.1,0.3L285.5,328z"/>
							<path class="st8" d="M292.8,332.2c-0.1,0.1-0.4,0-0.6-0.1l-5.3-3.1c-0.2-0.1-0.2-0.3-0.1-0.3l3.5-2c0.1-0.1,0.4,0,0.6,0.1
								l5.3,3.1c0.2,0.1,0.2,0.3,0.1,0.3L292.8,332.2z"/>
							<path class="st8" d="M300.1,336.4c-0.1,0.1-0.4,0-0.6-0.1l-5.3-3.1c-0.2-0.1-0.2-0.3-0.1-0.3l3.5-2c0.1-0.1,0.4,0,0.6,0.1
								l5.3,3.1c0.2,0.1,0.2,0.3,0.1,0.3L300.1,336.4z"/>
							<path class="st8" d="M259.4,307.4c-0.1,0.1-0.4,0-0.6-0.1l-5.3-3.1c-0.2-0.1-0.2-0.3-0.1-0.3l3.5-2c0.1-0.1,0.4,0,0.6,0.1
								l5.3,3.1c0.2,0.1,0.2,0.3,0.1,0.3L259.4,307.4z"/>
							<path class="st8" d="M266.7,311.6c-0.1,0.1-0.4,0-0.6-0.1l-5.3-3.1c-0.2-0.1-0.2-0.3-0.1-0.3l3.5-2c0.1-0.1,0.4,0,0.6,0.1
								l5.3,3.1c0.2,0.1,0.2,0.3,0.1,0.3L266.7,311.6z"/>
							<path class="st8" d="M274,315.8c-0.1,0.1-0.4,0-0.6-0.1l-5.3-3.1c-0.2-0.1-0.2-0.3-0.1-0.3l3.5-2c0.1-0.1,0.4,0,0.6,0.1
								l5.3,3.1c0.2,0.1,0.2,0.3,0.1,0.3L274,315.8z"/>
							<path class="st8" d="M281.3,320c-0.1,0.1-0.4,0-0.6-0.1l-5.3-3.1c-0.2-0.1-0.2-0.3-0.1-0.3l3.5-2c0.1-0.1,0.4,0,0.6,0.1
								l5.3,3.1c0.2,0.1,0.2,0.3,0.1,0.3L281.3,320z"/>
							<path class="st8" d="M288.6,324.2c-0.1,0.1-0.4,0-0.6-0.1l-5.3-3.1c-0.2-0.1-0.2-0.3-0.1-0.3l3.5-2c0.1-0.1,0.4,0,0.6,0.1
								l5.3,3.1c0.2,0.1,0.2,0.3,0.1,0.3L288.6,324.2z"/>
							<path class="st8" d="M295.9,328.4c-0.1,0.1-0.4,0-0.6-0.1l-5.3-3.1c-0.2-0.1-0.2-0.3-0.1-0.3l3.5-2c0.1-0.1,0.4,0,0.6,0.1
								l5.3,3.1c0.2,0.1,0.2,0.3,0.1,0.3L295.9,328.4z"/>
							<path class="st8" d="M303.2,332.7c-0.1,0.1-0.4,0-0.6-0.1l-5.3-3.1c-0.2-0.1-0.2-0.3-0.1-0.3l3.5-2c0.1-0.1,0.4,0,0.6,0.1
								l5.3,3.1c0.2,0.1,0.2,0.3,0.1,0.3L303.2,332.7z"/>
							<path class="st8" d="M244.8,299c-0.1,0.1-0.4,0-0.6-0.1l-9-5.2c-0.2-0.1-0.2-0.3-0.1-0.3l3.5-2c0.1-0.1,0.4,0,0.6,0.1l9,5.2
								c0.2,0.1,0.2,0.3,0.1,0.3L244.8,299z"/>
							<path class="st8" d="M315.3,334.1c-0.1,0.1-0.4,0-0.6-0.1l-9-5.2c-0.2-0.1-0.2-0.3-0.1-0.3l3.5-2c0.1-0.1,0.4,0,0.6,0.1
								l9,5.2c0.2,0.1,0.2,0.3,0.1,0.3L315.3,334.1z"/>
							<path class="st8" d="M241.7,302.8c-0.1,0.1-0.4,0-0.6-0.1l-10.7-6.2c-0.2-0.1-0.2-0.3-0.1-0.3l3.5-2c0.1-0.1,0.4,0,0.6,0.1
								l10.7,6.2c0.2,0.1,0.2,0.3,0.1,0.3L241.7,302.8z"/>
							<path class="st8" d="M233.3,303.5c-0.1,0.1-0.4,0-0.6-0.1l-7.1-4.1c-0.2-0.1-0.2-0.3-0.1-0.3l3.5-2c0.1-0.1,0.4,0,0.6,0.1
								l7.1,4.1c0.2,0.1,0.2,0.3,0.1,0.3L233.3,303.5z"/>
							<path class="st8" d="M253.3,298.3c-0.1,0.1-0.4,0-0.6-0.1l-5.3-3.1c-0.2-0.1-0.2-0.3-0.1-0.3l3.5-2c0.1-0.1,0.4,0,0.6,0.1
								l5.3,3.1c0.2,0.1,0.2,0.3,0.1,0.3L253.3,298.3z"/>
							<path class="st8" d="M260.5,302.5c-0.1,0.1-0.4,0-0.6-0.1l-5.3-3.1c-0.2-0.1-0.2-0.3-0.1-0.3l3.5-2c0.1-0.1,0.4,0,0.6,0.1
								l5.3,3.1c0.2,0.1,0.2,0.3,0.1,0.3L260.5,302.5z"/>
							<path class="st8" d="M267.8,306.7c-0.1,0.1-0.4,0-0.6-0.1l-5.3-3.1c-0.2-0.1-0.2-0.3-0.1-0.3l3.5-2c0.1-0.1,0.4,0,0.6,0.1
								l5.3,3.1c0.2,0.1,0.2,0.3,0.1,0.3L267.8,306.7z"/>
							<path class="st8" d="M275.1,310.9c-0.1,0.1-0.4,0-0.6-0.1l-5.3-3.1c-0.2-0.1-0.2-0.3-0.1-0.3l3.5-2c0.1-0.1,0.4,0,0.6,0.1
								l5.3,3.1c0.2,0.1,0.2,0.3,0.1,0.3L275.1,310.9z"/>
							<path class="st8" d="M282.4,315.1c-0.1,0.1-0.4,0-0.6-0.1l-5.3-3.1c-0.2-0.1-0.2-0.3-0.1-0.3l3.5-2c0.1-0.1,0.4,0,0.6,0.1
								l5.3,3.1c0.2,0.1,0.2,0.3,0.1,0.3L282.4,315.1z"/>
							<path class="st8" d="M289.7,319.3c-0.1,0.1-0.4,0-0.6-0.1l-5.3-3.1c-0.2-0.1-0.2-0.3-0.1-0.3l3.5-2c0.1-0.1,0.4,0,0.6,0.1
								l5.3,3.1c0.2,0.1,0.2,0.3,0.1,0.3L289.7,319.3z"/>
							<path class="st8" d="M297,323.5c-0.1,0.1-0.4,0-0.6-0.1l-5.3-3.1c-0.2-0.1-0.2-0.3-0.1-0.3l3.5-2c0.1-0.1,0.4,0,0.6,0.1
								l5.3,3.1c0.2,0.1,0.2,0.3,0.1,0.3L297,323.5z"/>
							<path class="st8" d="M304.3,327.7c-0.1,0.1-0.4,0-0.6-0.1l-5.3-3.1c-0.2-0.1-0.2-0.3-0.1-0.3l3.5-2c0.1-0.1,0.4,0,0.6,0.1
								l5.3,3.1c0.2,0.1,0.2,0.3,0.1,0.3L304.3,327.7z"/>
							<path class="st8" d="M308.6,331.4c-0.1-0.1-0.2-0.1-0.3-0.1c-0.1,0-0.2,0-0.3,0l-3.5,2c-0.1,0-0.1,0.1-0.1,0.2
								c0,0.1,0.1,0.1,0.2,0.2l1.4,0.8l-4.6,2.7c-0.1,0-0.1,0.1-0.1,0.2c0,0.1,0.1,0.1,0.2,0.2l3.6,2.1c0.1,0.1,0.2,0.1,0.3,0.1
								c0.1,0,0.2,0,0.3,0l8.3-4.8c0.1,0,0.1-0.1,0.1-0.2c0-0.1-0.1-0.1-0.2-0.2L308.6,331.4z"/>
							<path class="st8" d="M232.4,301.8C232.3,301.8,232.3,301.8,232.4,301.8l-4.1-2.4c0,0,0,0,0,0l0.3-0.1c0,0,0,0,0.1,0l4.1,2.3
								c0,0,0,0,0,0L232.4,301.8z"/>
						</g>
					</g>
					<path class="st8" d="M253.1,336.5l-20.5-11.8c-1.1-0.6-1-1.6,0.2-2.2l6.9-3.4c1.2-0.6,3.1-0.6,4.2,0.1l20.5,11.8
						c1.1,0.6,1,1.6-0.2,2.2l-6.9,3.4C256,337.1,254.2,337.1,253.1,336.5z"/>
				</g>
				<path class="st11" d="M333,328.6c-0.1,0-0.1,0-0.2-0.1l-84-48.5c-0.2-0.1-0.3-0.4-0.2-0.6c0.1-0.2,0.4-0.3,0.6-0.2l84,48.5
					c0.2,0.1,0.3,0.4,0.2,0.6C333.3,328.5,333.1,328.6,333,328.6z"/>
			</g>
		</g>
		<g>
			<g>
				<path class="st13" d="M396,196.1l-85.1-48.5c-2-1.1-3.1-3.8-2.4-6l18.3-60.9c0.6-2.2,2.8-3,4.8-1.9l85.1,48.5
					c2,1.1,3.1,3.8,2.4,6l-18.3,60.9C400.1,196.4,398,197.3,396,196.1z"/>
				<path class="st7" d="M397.8,197c-0.7,0-1.3-0.2-2-0.6L310.7,148c-2.1-1.2-3.3-4.1-2.6-6.4l18.3-60.9c0.3-1.1,1.1-2,2.1-2.4
					c1-0.4,2.2-0.3,3.2,0.3l85.1,48.5c2.1,1.2,3.3,4.1,2.6,6.4l-18.3,60.9c-0.3,1.1-1.1,2-2.1,2.4C398.6,196.9,398.2,197,397.8,197z
					 M329.7,78.8c-0.3,0-0.7,0.1-1,0.2c-0.8,0.3-1.4,1-1.7,1.9l-18.3,60.9c-0.6,2,0.4,4.5,2.3,5.6l85.1,48.5
					c0.9,0.5,1.8,0.6,2.6,0.3c0.8-0.3,1.4-1,1.7-1.9l18.3-60.9c0.6-2-0.4-4.5-2.3-5.6l-85.1-48.5C330.8,78.9,330.2,78.8,329.7,78.8z
					"/>
			</g>
			<path class="st11" d="M416.7,127.4l-85.3-48.5c-2-1.1-4.1-0.2-4.7,1.9l-3.6,12l92.4,52.6l3.6-12
				C419.7,131.2,418.6,128.5,416.7,127.4z"/>
			
				<ellipse transform="matrix(0.9136 -0.4065 0.4065 0.9136 -7.585 143.3701)" class="st7" cx="333.6" cy="89.5" rx="2.3" ry="2.9"/>
			<path class="st7" d="M342.8,94.8c-0.4,1.4-1.8,1.9-3,1.2c-1.3-0.7-2-2.4-1.5-3.8c0.4-1.4,1.8-1.9,3-1.2
				C342.6,91.7,343.3,93.4,342.8,94.8z"/>
			<path class="st7" d="M349.8,98.7c-0.4,1.4-1.8,1.9-3,1.2c-1.3-0.7-2-2.4-1.5-3.8c0.4-1.4,1.8-1.9,3-1.2
				C349.5,95.7,350.2,97.3,349.8,98.7z"/>
			<path class="st7" d="M342.4,137.3L324,126.8c-2-1.2-3.1-3.9-2.5-6.1l3.6-12.1c0.7-2.2,2.8-3,4.9-1.9l18.4,10.5
				c2,1.2,3.1,3.9,2.5,6.1l-3.6,12.1C346.6,137.6,344.4,138.4,342.4,137.3z"/>
			<path class="st7" d="M400.1,154.2l-37.6-21.4c-1.6-0.9-2.5-3.1-2-4.9l0,0c0.5-1.8,2.3-2.5,3.9-1.5l37.6,21.4
				c1.6,0.9,2.5,3.1,2,4.9l0,0C403.5,154.4,401.7,155.1,400.1,154.2z"/>
			<path class="st7" d="M395.7,168.8l-37.6-21.4c-1.6-0.9-2.5-3.1-2-4.9l0,0c0.5-1.8,2.3-2.5,3.9-1.5l37.6,21.4
				c1.6,0.9,2.5,3.1,2,4.9l0,0C399.1,169,397.4,169.7,395.7,168.8z"/>
			<path class="st7" d="M391.4,183.3l-73.7-42c-1.6-0.9-2.5-3.1-2-4.9v0c0.5-1.8,2.3-2.5,3.9-1.5l73.7,42c1.6,0.9,2.5,3.1,2,4.9l0,0
				C394.8,183.6,393,184.3,391.4,183.3z"/>
			<path class="st4" d="M345.8,137.4l-2.3-12.4c-0.3-1.6-1.8-2.6-3-1.9l-6.3,3.8l-1.9-5.1c-0.5-1.3-1.7-2-2.7-1.6l-8,3.6
				c0.4,1.2,1.3,2.3,2.4,3l18.4,10.5C343.6,137.9,344.8,137.9,345.8,137.4z"/>
			
				<ellipse transform="matrix(0.9136 -0.4065 0.4065 0.9136 -17.0652 143.9381)" class="st4" cx="330.2" cy="112.1" rx="2.3" ry="2.9"/>
		</g>
		<g>
			<g>
				<polygon class="st11" points="324.4,298.6 284,276.3 291.2,244.1 332.8,267.2 				"/>
				<polygon class="st17" points="313.7,303.3 273.6,279.4 281.4,272.3 324.4,298.6 				"/>
				<polygon class="st18" points="322.4,299.2 282,282 289.1,246 330.6,268.8 				"/>
				<polygon class="st19" points="319.8,300.7 281,277.3 285.7,247.7 327.2,270.5 				"/>
				<polygon class="st20" points="317.7,300.9 277.9,279.3 282.6,249.7 324.1,272.5 				"/>
				<polygon class="st11" points="313.5,301.5 325.1,296.1 324.4,298.6 313.7,303.3 				"/>
				<polygon class="st10" points="292.8,254.6 291.7,250 281.7,243.3 279,244.1 274.7,279.2 311.9,302.3 316,301 322.9,272.1 				
					"/>
				<polygon class="st11" points="278.3,248.9 279,244.1 290.3,251.8 291.5,257.2 				"/>
				<polygon class="st11" points="313.7,303.3 273.4,281.1 278.3,248.9 320.9,273.7 				"/>
			</g>
			<g>
				<polygon class="st7" points="297.5,294.4 289.2,289.8 293.7,272.2 302,277 				"/>
				<path class="st7" d="M289.8,276l13.2,6.8c0.8,0.4,2.1-0.6,1.8-1.4l-5.2-13.1c-0.3-0.6-1.2-0.7-1.9-0.1l-7.7,6
					C289.2,274.7,289.1,275.6,289.8,276z"/>
			</g>
		</g>
	</g>
</g>
</svg>
