<?xml version="1.0" encoding="utf-8"?>
<!-- Generator: Adobe Illustrator 26.0.3, SVG Export Plug-In . SVG Version: 6.00 Build 0)  -->
<svg version="1.1" id="Layer_1" xmlns="http://www.w3.org/2000/svg" xmlns:xlink="http://www.w3.org/1999/xlink" x="0px" y="0px"
	 viewBox="0 0 569 459.6" style="enable-background:new 0 0 569 459.6;" xml:space="preserve">
<style type="text/css">
	.st0{fill:#FFE3A3;stroke:#FFFFFF;stroke-width:7.6103;stroke-miterlimit:10;}
	.st1{fill:#F0F4FF;}
	.st2{fill:#BAD4F5;}
	.st3{fill:#8E98C2;}
	.st4{fill:#6D7CFF;}
	.st5{fill:#8A96FF;}
	.st6{fill:#F5F5F7;}
	.st7{fill:#FFFFFF;}
	.st8{fill:#A3A7BF;}
	.st9{fill:none;stroke:#6D7CFF;stroke-width:1.5818;stroke-linecap:round;stroke-linejoin:round;stroke-miterlimit:10;}
	.st10{fill:#425399;}
	.st11{fill:#485BFF;}
	.st12{fill:#A3E9D2;stroke:#FFFFFF;stroke-width:7.6103;stroke-miterlimit:10;}
	.st13{fill:#DADEFF;}
	.st14{fill:#DBEFFF;}
	.st15{opacity:0.29;}
	.st16{fill:none;stroke:#FFFFFF;stroke-width:1.6117;stroke-linecap:round;stroke-linejoin:round;stroke-miterlimit:10;}
	.st17{fill:#E68143;}
	.st18{fill:#D3DAE3;}
	.st19{fill:#E6F0FF;}
	.st20{fill:#F5F9FF;}
	.st21{fill:none;stroke:#425399;stroke-width:2.9136;stroke-linecap:round;stroke-linejoin:round;stroke-miterlimit:10;}
	.st22{fill:#C1AFE5;stroke:#FFFFFF;stroke-width:7.6103;stroke-miterlimit:10;}
	.st23{fill:#FFB2A3;stroke:#FFFFFF;stroke-width:7.6103;stroke-miterlimit:10;}
	.st24{fill:#D3D5E9;}
	.st25{fill:#919DFF;}
	.st26{fill:#DFE3FF;}
	.st27{fill:#CAD0FF;}
	.st28{fill:#A7B0FF;}
	.st29{fill:#EFEFEF;}
	.st30{fill:#F7F7F7;}
	.st31{fill:#E9EBFF;}
	.st32{opacity:0.29;fill:#A8C4E5;}
	.st33{fill:none;stroke:#FFFFFF;stroke-width:9.5079;stroke-linecap:round;stroke-linejoin:round;stroke-miterlimit:10;}
	.st34{fill:#A3DFFF;stroke:#FFFFFF;stroke-width:7.6103;stroke-miterlimit:10;}
	.st35{opacity:0.39;fill:#DADEFF;}
	.st36{fill:#4A39E3;}
	.st37{fill:none;stroke:#FFFFFF;stroke-width:1.3412;stroke-linecap:round;stroke-linejoin:round;stroke-miterlimit:10;}
	.st38{fill:none;stroke:#6D7CFF;stroke-width:1.4858;stroke-linecap:round;stroke-linejoin:round;stroke-miterlimit:10;}
	.st39{fill:#8AACCE;}
	.st40{fill:none;stroke:#485BFF;stroke-width:0.8675;stroke-linecap:round;stroke-linejoin:round;stroke-miterlimit:10;}
	.st41{fill:#DADEFF;stroke:#FFFFFF;stroke-width:0.6782;stroke-miterlimit:10;}
	.st42{fill:#E69AB7;stroke:#FFFFFF;stroke-width:7.6103;stroke-miterlimit:10;}
	.st43{fill:#485BE4;}
	.st44{fill:url(#SVGID_1_);}
	.st45{fill:url(#SVGID_00000023248075533791715610000014271285285046602943_);}
	.st46{fill:url(#SVGID_00000053536054550345661420000016096568020649505935_);}
	.st47{fill:#271C8C;}
	.st48{fill:none;stroke:#425399;stroke-width:2.4459;stroke-linecap:round;stroke-linejoin:round;stroke-miterlimit:10;}
	.st49{fill:#B6BDFD;}
	.st50{fill:url(#SVGID_00000028289490406921274870000005498840535632458923_);}
	.st51{opacity:0.11;fill:#584BCC;}
	.st52{fill:#382E99;}
	.st53{fill:#414DBE;}
	.st54{fill:none;stroke:#A8A0FA;stroke-width:1.6099;stroke-linecap:round;stroke-linejoin:round;stroke-miterlimit:10;}
	.st55{fill:none;stroke:#FFFDFC;stroke-width:2.4459;stroke-linecap:round;stroke-linejoin:round;stroke-miterlimit:10;}
	.st56{fill:#BEF4FA;stroke:#FFFFFF;stroke-width:7.6103;stroke-miterlimit:10;}
	.st57{fill:#C6D2F2;}
	.st58{fill:#FFC2B0;}
	.st59{fill:#B6BDFF;}
	.st60{fill:#A8C4E5;}
	.st61{fill:#E1EAF4;}
	.st62{fill:#F09A82;}
	.st63{fill:#21DED5;}
	.st64{opacity:0.39;fill:#A7BCF5;}
	.st65{fill:#4558A3;}
	.st66{fill:url(#SVGID_00000175305973101636093220000009102002167056560293_);}
	.st67{opacity:0.22;fill:#2C1F9C;}
	.st68{fill:#4A5375;}
	.st69{fill:#D9E9FF;}
	.st70{fill:none;stroke:#FFFFFF;stroke-width:1.9095;stroke-linecap:round;stroke-linejoin:round;stroke-miterlimit:10;}
	.st71{fill:#CED2EF;}
	.st72{fill:#2C1F9C;}
	.st73{fill:none;stroke:#A7BCF5;stroke-width:1.9875;stroke-linecap:round;stroke-linejoin:round;stroke-miterlimit:10;}
	.st74{fill:#6676FF;}
	.st75{fill:none;stroke:#FFFFFF;stroke-width:6.8391;stroke-linecap:round;stroke-linejoin:round;stroke-miterlimit:10;}
	.st76{fill:#DBDEE8;stroke:#FFFFFF;stroke-width:7.6103;stroke-miterlimit:10;}
	.st77{fill:url(#SVGID_00000012454145424352070170000004316724637282828221_);}
	.st78{fill:none;stroke:#CFD4E9;stroke-width:0.6062;stroke-linecap:round;stroke-linejoin:round;stroke-miterlimit:10;}
	.st79{fill:#CFD4E9;}
	.st80{fill:none;stroke:#FFFFFF;stroke-width:0.6183;stroke-linecap:round;stroke-linejoin:round;stroke-miterlimit:10;}
	.st81{fill:#AFB7DB;}
	.st82{fill:none;stroke:#FFFFFF;stroke-width:5.3911;stroke-linecap:round;stroke-linejoin:round;stroke-miterlimit:10;}
	.st83{fill:#FCD1FF;stroke:#FFFFFF;stroke-width:7.6103;stroke-miterlimit:10;}
	.st84{fill:#4432DB;}
	.st85{fill:#6875AD;}
	.st86{fill:#1A3EA1;}
	.st87{fill:none;stroke:#DADEFF;stroke-width:0.519;stroke-linecap:round;stroke-linejoin:round;stroke-miterlimit:10;}
	.st88{fill:none;stroke:#425399;stroke-width:0.5656;stroke-linecap:round;stroke-linejoin:round;stroke-miterlimit:10;}
	.st89{fill:none;stroke:#6D7CFF;stroke-width:2.8281;stroke-linecap:round;stroke-linejoin:round;stroke-miterlimit:10;}
	.st90{fill:none;stroke:#FFFFFF;stroke-width:0.6167;stroke-linecap:round;stroke-linejoin:round;stroke-miterlimit:10;}
	.st91{fill:#F0F2FF;}
	.st92{opacity:0.4;fill:#A8C4E5;}
	.st93{fill:#323E73;}
	.st94{fill:#BAD4FF;}
	.st95{fill:#324DED;}
	.st96{fill:#ADB7F2;}
	.st97{fill:none;stroke:#FFFFFF;stroke-width:0.6957;stroke-linecap:round;stroke-linejoin:round;stroke-miterlimit:10;}
	.st98{fill:none;stroke:#FFFFFF;stroke-width:2.8923;stroke-linecap:round;stroke-linejoin:round;stroke-miterlimit:10;}
	.st99{fill:#FFE3A3;}
	.st100{fill:#A3E9D2;}
	.st101{fill:#C1AFE5;}
	.st102{fill:#A3DFFF;}
	.st103{fill:#FFB2A3;}
	.st104{fill:#E69AB7;}
	.st105{fill:url(#SVGID_00000118369545074991242700000011548496846542508463_);}
	.st106{fill:url(#SVGID_00000107573070640255818870000007989276254637543310_);}
	.st107{fill:url(#SVGID_00000181774294656437289310000007183299946262203008_);}
	.st108{fill:url(#SVGID_00000013172851295093033510000000362625564333328572_);}
	.st109{fill:#A8A0FA;}
	.st110{fill:#FFFDFC;}
	.st111{fill:#BEF4FA;}
	.st112{fill:url(#SVGID_00000164487721583699650190000005028214708162321584_);}
	.st113{fill:#A7BCF5;}
	.st114{fill:#DBDEE8;}
	.st115{fill:url(#SVGID_00000167395147582665779100000006018871905969926790_);}
	.st116{fill:#FCD1FF;}
	.st117{fill:none;stroke:#FF73CE;stroke-width:3;stroke-miterlimit:10;}
</style>
<g>
	<g>
		<polygon class="st111" points="565.2,133.3 565.2,455.8 3.8,455.8 3.8,68.1 496.8,68.1 		"/>
		<path class="st7" d="M569,459.6H0V64.3h498.3l70.6,67.4V459.6z M7.6,452h553.8V135l-66.1-63.1H7.6V452z"/>
	</g>
	<g>
		<g>
			<path class="st1" d="M260.7,399l-197-113.7c-10.1-5.9-10.1-20.5,0-26.3l200.5-115.7c10.4-6,23.2-6,33.6,0l202,116.6
				c10.1,5.9,10.1,20.5,0,26.3L304.3,399C290.8,406.7,274.2,406.7,260.7,399z"/>
			<g>
				
					<ellipse transform="matrix(1.773035e-02 -0.9998 0.9998 1.773035e-02 38.3116 500.7704)" class="st3" cx="274" cy="230.9" rx="7.8" ry="15.7"/>
				<path class="st10" d="M266.3,239l0.3-8.1c-0.1-1.9-1.3-2.3-2.4-3.2c-0.5-0.4-1.1-0.4-1.6,0l-1,0.8c-1.5,1.1-1.4,3.2-1.1,4.5
					l1.1,7.2C261.9,241.5,266,243.4,266.3,239z"/>
				<path class="st57" d="M261.1,228.3c0,1.9,4.7,1.9,4.7,0V222h-4.7V228.3z"/>
				<path class="st10" d="M287.9,226.7l-6.6-6.5c-0.9-0.5-2.9-0.7-4.2-0.5c-0.6,0.1-1.1,0.6-1.1,1.2l-0.1,1.3
					c-0.2,1.9,0,2.2,1.1,2.8l6.9,4c1.2,0.7,2.9,0.7,3.9,0.2l0.3-0.2C289.1,228.4,289,227.4,287.9,226.7z"/>
				<path class="st57" d="M276.5,220c0,1.9,4.7,1.9,4.7,0v-6.3h-4.7V220z"/>
				<path class="st7" d="M275.9,218.2c1.8,1.3,4.9,1.3,5.9-0.2c3.5-19,5-38.4,4.8-58.1l-14.6-4.3C274.6,179.1,277.7,200,275.9,218.2
					z"/>
				<path class="st7" d="M260.5,224.3c1.5,2.2,4.9,2.2,5.9,0.6l9.9-66.1h-17L260.5,224.3z"/>
				<path class="st24" d="M274,173.6l0.8,6l3.2-12.6c-0.7,0.2-1.5,0.3-2.3,0.4L274,173.6z"/>
				<path class="st58" d="M263.9,140.2l-8.8,17.7c-0.4,1-1.9,18-1.9,18l-4.4-2.6c0,0,1.3-18.8,1.6-19.8l5.3-18.6L263.9,140.2z"/>
				<path class="st58" d="M250.6,170.2l0.6-0.1c1.1-0.1,2.1,0.6,2.3,1.7l0.3,2.3c0.1,1.1-0.6,2.1-1.7,2.3l-0.6,0.1
					c-1.1,0.1-2.1-0.6-2.3-1.7l-0.3-2.3C248.7,171.3,249.5,170.3,250.6,170.2z"/>
				<path class="st58" d="M287.1,131.1l5.7,9.2c1,2,3.3,5.8,4,10l7.7-3l-0.3,2.1l-10.2,4.5c0.9-4.9-2.1-5.3-3.8-7.4
					c-3-3.6-6-7.3-6-7.4C284.1,138.8,287.1,131.1,287.1,131.1z"/>
				<path class="st5" d="M284.5,123.3l6.6,12.4c-1.1,4.3-3.4,6.5-6.4,7.7l-2.5-16.8L284.5,123.3z"/>
				<path class="st59" d="M287.2,158.2c-1.2-6.7-1.6-14.3-0.5-23.5c0-12.8-4.8-17.5-12.9-14.6l-3.3,0.9c-9.7,5.2-14.6,5-12.9,15.3
					l1.7,22.5C259.2,170.4,287.8,171.8,287.2,158.2z"/>
				<polygon class="st5" points="263.9,140.2 259.7,157.6 259.2,159.3 258.6,150.9 				"/>
				<path class="st5" d="M275,120.2c0,0-1.3,1.2-1.9,1.3c-0.6,0.1-7.5-5.4-5-11.7c1.6-4,9.1-0.9,9.1-0.9L275,120.2z"/>
				<path class="st58" d="M272.7,125.7l0.4,0.1c1.3,0.2,2.6-0.7,2.8-2l1.2-7.4c0.2-1.3-0.7-2.6-2-2.8l-0.4-0.1
					c-1.3-0.2-2.6,0.7-2.8,2l-2.2,6.9C269.6,123.8,271.4,125.5,272.7,125.7z"/>
				<path class="st59" d="M264.7,137.3l-4.9,13.8c-0.7,1.1-10.6-4-9.8-5.6c0.1-0.3,5.4-16.9,11.1-19.6
					C265.8,123.7,267.2,131.1,264.7,137.3z"/>
				<path class="st60" d="M282.7,151.2l1.9-0.7l0.2-0.2l0.1-0.2l14.1-7.3c0.2-0.1,0.4-0.1,0.6,0l5.4,3.1l0-0.1l1,0.4l0,0.4h0
					c0,0-0.1,0.1-0.1,0.1l-14.6,7.6c0,0,0,0,0,0.1c-0.3,1.1-0.8,2.1-1.8,1.5l-5.9-3.5C283,152.2,282.7,151.7,282.7,151.2
					L282.7,151.2z"/>
				<path class="st61" d="M290.6,155.5l16.8-8.8c0.2-0.1,0.2-0.3,0-0.4l-7.2-4.2c-0.2-0.1-0.5-0.1-0.7,0l-16.8,8.8
					c-0.2,0.1-0.2,0.3,0,0.4l7.2,4.2C290.1,155.6,290.4,155.6,290.6,155.5z"/>
				<path class="st60" d="M290.1,149.9l4.1-2.1c0,0,0-0.1,0-0.1l-1.7-1c0,0-0.1,0-0.2,0l-4.1,2.1c0,0,0,0.1,0,0.1l1.7,1
					C290,149.9,290.1,149.9,290.1,149.9z"/>
				<path class="st7" d="M292.1,145.7c0.1-0.4,0.5-0.9,0.8-1.1l16.7-8.6c0.1-0.1,0.3-0.1,0.4-0.1l0,0l0,0c0,0,0.1,0,0.1,0.1l0.5,0.5
					l-0.5,0l-2.5,9.3c-0.1,0.4-0.5,0.9-0.8,1.1l-15.8,8.1l-0.5,0.5l-0.1,0.1c-0.3,0.1-1-0.4-1-0.4L292.1,145.7z"/>
				<path class="st10" d="M290.5,156l16.7-8.6c0.4-0.2,0.7-0.7,0.8-1.1l2.5-9.4c0.1-0.4-0.1-0.6-0.5-0.4l-16.7,8.6
					c-0.4,0.2-0.7,0.7-0.8,1.1l-2.5,9.4C289.9,156,290.1,156.1,290.5,156z"/>
				<path class="st7" d="M299.9,146.9c-0.1,0.5,0.3,0.6,1,0.2c0.7-0.4,1.4-1.1,1.5-1.6c0.1-0.5-0.3-0.6-1-0.2S300,146.4,299.9,146.9
					z"/>
				<path class="st62" d="M276.3,121.4c0,0-3.2,0.1-5.2-3c0,0,2,4.6,4.9,5L276.3,121.4z"/>
				<path class="st58" d="M273.9,117.8c0.7,3.5,3.2,4.7,5.6,2.6c2.3-2.1,3.6-6.6,2.9-10.1c-0.7-3.5-3.2-4.7-5.6-2.6
					C274.5,109.7,273.2,114.2,273.9,117.8z"/>
				<path class="st58" d="M270.4,116.4c0.7,3.5,4.3,5,6.7,2.9c2.3-2.1,3.6-6.6,2.9-10.1c-0.7-3.5-3.2-4.7-5.6-2.6
					C272.1,108.7,269.7,112.9,270.4,116.4z"/>
				<path class="st5" d="M275.6,109c0,0-0.4,6.6-5.8,7.2c0,0-5.3-4.4,0.1-9.9c4.7-4.9,10,0.3,10,0.3L275.6,109z"/>
				<path class="st63" d="M282.6,111.9c0,0-1.3-2.6-5-3l2.3-2.2C279.9,106.7,282.8,106.7,282.6,111.9z"/>
				<path class="st5" d="M272.2,112.4c1.5-1.4,4.1-0.9,7.6,1.3c3.4,0.8,4.6-3.1,4.6-3.1c0.9-2-0.3-3.2-2.4-4.1l-5.3-2.4
					c-3-1.4-6.5,0.7-7.4,2.7l-0.2,0.3C268.3,109.1,270.2,111.5,272.2,112.4z"/>
				<path class="st58" d="M269.4,117.2c0.2,0.9,1,1.4,1.9,1.2c0.9-0.2,1.4-1,1.2-1.9c-0.2-0.9-1-1.4-1.9-1.2
					S269.2,116.3,269.4,117.2z"/>
				<path class="st5" d="M282.6,111.6c0,1.1,0.9,2,2,2c1.1,0,2-0.9,2-2s-0.9-2-2-2C283.5,109.5,282.6,110.5,282.6,111.6z"/>
				<path class="st5" d="M282.7,108.7c0,1.1,0.9,2,2,2c1.1,0,2-0.9,2-2s-0.9-2-2-2C283.6,106.7,282.7,107.6,282.7,108.7z"/>
				<path class="st5" d="M279.9,107.8c0,1.1,0.9,2,2,2c1.1,0,2-0.9,2-2s-0.9-2-2-2C280.8,105.8,279.9,106.7,279.9,107.8z"/>
				<path class="st5" d="M279.9,112.8c0,1.1,0.9,2,2,2c1.1,0,2-0.9,2-2s-0.9-2-2-2C280.8,110.8,279.9,111.7,279.9,112.8z"/>
				<path class="st5" d="M277.3,112.5c0,1.1,0.9,2,2,2c1.1,0,2-0.9,2-2s-0.9-2-2-2C278.2,110.4,277.3,111.3,277.3,112.5z"/>
			</g>
			<g>
				<path class="st64" d="M191.9,318.8l-64.3-37.2c-3.3-1.9-3.3-6.7,0-8.6l65.5-37.8c3.4-2,7.6-2,11,0l66,38.1
					c3.3,1.9,3.3,6.7,0,8.6l-63.9,36.9C201.8,321.3,196.3,321.3,191.9,318.8z"/>
				<g>
					<path class="st13" d="M174.6,309.8l-56-32.3c-2.9-1.7-2.9-5.8,0-7.5l59.6-34.4c1.3-0.8,3-0.8,4.3,0l60,34.6
						c2.9,1.7,2.9,5.8,0,7.5L187,309.8C183.1,312,178.4,312,174.6,309.8z"/>
					<polygon class="st13" points="116.5,258.5 116.4,273.8 180.6,308.7 180.6,298.3 					"/>
					<path class="st24" d="M181.4,311.4v-18.4l63.3-34.6V274c0,0,0.1,2.4-2.2,3.7l-54.6,31.5C187.9,309.2,184.4,311.6,181.4,311.4z"
						/>
					<path class="st65" d="M174.6,294.3l-56-32.3c-2.9-1.7-2.9-5.8,0-7.5l57-32.9c3-1.7,6.6-1.7,9.6,0l57.4,33.1
						c2.9,1.7,2.9,5.8,0,7.5L187,294.3C183.1,296.5,178.4,296.5,174.6,294.3z"/>
				</g>
				<g>
					<path class="st13" d="M174.6,280.9l-56-32.3c-2.9-1.7-2.9-5.8,0-7.5l59.6-34.4c1.3-0.8,3-0.8,4.3,0l60,34.6
						c2.9,1.7,2.9,5.8,0,7.5L187,280.9C183.1,283.1,178.4,283.1,174.6,280.9z"/>
					<polygon class="st13" points="116.5,229.6 116.4,244.9 180.6,279.8 180.6,269.5 					"/>
					<path class="st24" d="M181.4,282.5v-18.4l63.3-34.6v15.5c0,0,0.1,2.4-2.2,3.7l-54.6,31.5C187.9,280.3,184.4,282.8,181.4,282.5z
						"/>
					<path class="st65" d="M174.6,265.4l-56-32.3c-2.9-1.7-2.9-5.8,0-7.5l57-32.9c3-1.7,6.6-1.7,9.6,0l57.4,33.1
						c2.9,1.7,2.9,5.8,0,7.5L187,265.4C183.1,267.6,178.4,267.6,174.6,265.4z"/>
				</g>
				<g>
					<path class="st13" d="M174.6,249.3l-56-32.3c-2.9-1.7-2.9-5.8,0-7.5l59.6-34.4c1.3-0.8,3-0.8,4.3,0l60,34.6
						c2.9,1.7,2.9,5.8,0,7.5L187,249.3C183.1,251.6,178.4,251.6,174.6,249.3z"/>
					<polygon class="st13" points="116.5,198 116.4,213.3 180.6,248.2 180.6,237.9 					"/>
					<path class="st24" d="M181.4,251v-18.4l63.3-34.6v15.5c0,0,0.1,2.4-2.2,3.7l-54.6,31.5C187.9,248.8,184.4,251.2,181.4,251z"/>
					<linearGradient id="SVGID_1_" gradientUnits="userSpaceOnUse" x1="116.4384" y1="197.6635" x2="244.6674" y2="197.6635">
						<stop  offset="0" style="stop-color:#949FFF"/>
						<stop  offset="0.7123" style="stop-color:#B6BDFF"/>
					</linearGradient>
					<path class="st44" d="M174.6,233.8l-56-32.3c-2.9-1.7-2.9-5.8,0-7.5l57-32.9c3-1.7,6.6-1.7,9.6,0l57.4,33.1
						c2.9,1.7,2.9,5.8,0,7.5L187,233.8C183.1,236,178.4,236,174.6,233.8z"/>
				</g>
				<g>
					<g>
						<path class="st7" d="M130.8,217.4c0,1.1-0.8,1.5-1.7,1c-0.9-0.5-1.7-1.8-1.7-2.9c0-1.1,0.8-1.5,1.7-1
							C130,215,130.8,216.3,130.8,217.4z"/>
					</g>
				</g>
				<path class="st10" d="M136.4,221c0,1.1-0.8,1.5-1.7,1c-0.9-0.5-1.7-1.8-1.7-2.9c0-1.1,0.8-1.5,1.7-1
					C135.7,218.7,136.4,220,136.4,221z"/>
				<g>
					<g>
						<g>
							<path class="st7" d="M125.1,244.2c0,1.1-0.8,1.5-1.7,1c-0.9-0.5-1.7-1.8-1.7-2.9c0-1.1,0.8-1.5,1.7-1
								C124.3,241.8,125.1,243.1,125.1,244.2z"/>
						</g>
					</g>
					<path class="st10" d="M130.8,247.8c0,1.1-0.8,1.5-1.7,1c-0.9-0.5-1.7-1.8-1.7-2.9c0-1.1,0.8-1.5,1.7-1
						C130,245.4,130.8,246.7,130.8,247.8z"/>
					<g>
						<g>
							<path class="st7" d="M136.4,251.4c0,1.1-0.8,1.5-1.7,1c-0.9-0.5-1.7-1.8-1.7-2.9c0-1.1,0.8-1.5,1.7-1
								C135.7,249.1,136.4,250.4,136.4,251.4z"/>
						</g>
					</g>
				</g>
				<g>
					<g>
						<g>
							<path class="st7" d="M125.1,274.6c0,1.1-0.8,1.5-1.7,1c-0.9-0.5-1.7-1.8-1.7-2.9c0-1.1,0.8-1.5,1.7-1
								C124.3,272.2,125.1,273.5,125.1,274.6z"/>
						</g>
					</g>
					<g>
						<g>
							<path class="st7" d="M130.8,278.2c0,1.1-0.8,1.5-1.7,1c-0.9-0.5-1.7-1.8-1.7-2.9c0-1.1,0.8-1.5,1.7-1
								C130,275.8,130.8,277.1,130.8,278.2z"/>
						</g>
					</g>
					<g>
						<g>
							<path class="st7" d="M136.4,281.8c0,1.1-0.8,1.5-1.7,1c-0.9-0.5-1.7-1.8-1.7-2.9c0-1.1,0.8-1.5,1.7-1
								C135.7,279.5,136.4,280.8,136.4,281.8z"/>
						</g>
					</g>
				</g>
				<polygon class="st10" points="216.3,229 224.4,224.3 224.4,217.8 216.3,222.5 				"/>
				<polygon class="st10" points="228.2,222.1 236.4,217.4 236.4,210.8 228.2,215.5 				"/>
				<polygon class="st10" points="216.3,260.1 224.4,255.4 224.4,248.8 216.3,253.5 				"/>
				<polygon class="st10" points="228.2,253.1 236.4,248.5 236.4,241.9 228.2,246.6 				"/>
				<polygon class="st10" points="216.3,288.9 224.4,284.2 224.4,277.6 216.3,282.3 				"/>
				<polygon class="st10" points="228.2,281.9 236.4,277.2 236.4,270.7 228.2,275.4 				"/>
			</g>
			<g>
				<path class="st67" d="M186.5,234.2c0,0-12.8-7-9.6-15.2c3.2-8.2,16.5,11.2,16.5,11.2L186.5,234.2z"/>
				<path class="st68" d="M199,222.5c-1.1,0-23.7,8.1-23.7-10.6c0-18.7,28.8,2.6,28.8,2.6L199,222.5z"/>
				<path class="st69" d="M224.9,262.9l-7.4-7.5c-1-0.6-3.3-0.9-4.8-0.7c-0.7,0.1-1.2,0.7-1.3,1.3l-0.1,1.5
					c-0.3,2.2-0.1,2.5,1.2,3.3l7.8,4.7c1.3,0.8,3.3,0.9,4.5,0.2l0.3-0.2C226.4,264.9,226.3,263.7,224.9,262.9z"/>
				<path class="st57" d="M212,255.7c0,2.2,5.4,2.2,5.4,0v-7.2H212V255.7z"/>
				<path class="st69" d="M210.7,270.9l-6.4-8.4c-0.9-0.7-3.1-1.3-4.7-1.3c-0.7,0-1.3,0.5-1.4,1.2l-0.3,1.5
					c-0.5,2.1-0.4,2.4,0.8,3.4l7.2,5.6c1.2,0.9,3.2,1.3,4.4,0.8l0.3-0.1C211.9,273,211.9,271.8,210.7,270.9z"/>
				<path class="st57" d="M198.8,262.1c-0.3,2.2,5.1,2.9,5.3,0.7l0.9-7.1l-5.3-0.7L198.8,262.1z"/>
				<path class="st3" d="M200,206.7c0,0,16.7,8.5,17.4,13c0.6,3.9,1.3,27,0.9,32.4c-0.1,0.8-0.5,1.5-1.2,1.8
					c-1.7,0.8-4.6,1.6-5.6-1.7c-1.4-4.7-0.9-21-4.3-25.6c-3.4-4.6-20.1-11.2-20.1-11.2L200,206.7z"/>
				<path class="st3" d="M188.8,214.4c0,0,18.7,9.3,19.2,13.5c0.5,3.7-1.8,24.7-2.4,30c-0.1,0.8-0.6,1.5-1.4,1.8
					c-1.7,0.7-4.6,1.3-5.5-1.9c-1.2-4.5-0.2-19.9-3.4-24.4c-1.7-2.5-6.2-5.2-13.9-8.8c-3.5-1.7-6-8.5-1.8-9.1L188.8,214.4z"/>
				<path class="st58" d="M205,179.5l3.6,13.6c0.3,1.6,0.9,4,1.3,6.8c0.6,4.3-0.6,9-3.3,12.2c0,0-1.3-6.7-2.5-9.8
					c-2.2-5.5-4-12-4-12.2C200.1,189.8,205,179.5,205,179.5z"/>
				<path class="st31" d="M199.7,170.3l8.4,14.4c-1.1,4.6-3.6,6.9-6.8,8.1l-2.7-17.8L199.7,170.3z"/>
				<path class="st7" d="M197.4,190.4c-0.4,0-0.8-0.2-0.9-0.6c-0.2-0.5,0.1-1,0.6-1.2c6.9-2.4,8.2-5.9,8.3-6
					c0.2-0.5,0.7-0.7,1.2-0.6c0.5,0.2,0.8,0.7,0.6,1.2c-0.1,0.2-1.6,4.5-9.4,7.1C197.6,190.4,197.5,190.4,197.4,190.4z"/>
				<path class="st31" d="M202.3,204.8c-1.3-7.1-1-11.4,0.2-21.2c0-13.5-4.1-18.6-12.6-15.4l-3.5,0.9c-10.3,5.5-15.5,5.3-13.7,16.1
					l1.8,23.9C174.4,221.4,202.9,219.2,202.3,204.8z"/>
				<path class="st10" d="M191.1,168.3c0,0-1.3,1.2-2,1.4c-0.7,0.1-8-5.8-5.3-12.4c1.7-4.2,9.6-0.9,9.6-0.9L191.1,168.3z"/>
				<path class="st58" d="M188.7,174l0.4,0.1c1.4,0.2,2.7-0.7,2.9-2.1l1.3-7.8c0.2-1.4-0.7-2.7-2.1-2.9l-0.4-0.1
					c-1.4-0.2-2.7,0.7-2.9,2.1l-2.4,7.3C185.3,172,187.3,173.8,188.7,174z"/>
				<path class="st62" d="M192.5,169.5c0,0-3.3,0.1-5.5-3.1c0,0,2.1,4.9,5.2,5.3L192.5,169.5z"/>
				<path class="st58" d="M190,165.6c0.8,3.7,3.4,4.9,5.9,2.7c2.5-2.2,3.8-7,3.1-10.7c-0.8-3.7-3.4-4.9-5.9-2.7
					C190.6,157.1,189.2,161.9,190,165.6z"/>
				<path class="st58" d="M186.2,164.2c0.8,3.7,4.6,5.3,7.1,3.1c2.5-2.2,3.8-7,3.1-10.7c-0.8-3.7-3.4-4.9-5.9-2.7
					C188,156,185.4,160.5,186.2,164.2z"/>
				<path class="st10" d="M191.7,156.4c0,0-0.4,7-6.1,7.7c0,0-5.6-4.6,0.1-10.5c5-5.2,10.6,0.4,10.6,0.4L191.7,156.4z"/>
				<path class="st63" d="M199.1,159.4c0,0-1.4-2.8-5.2-3.2l2.4-2.3C196.3,153.9,199.3,153.9,199.1,159.4z"/>
				<path class="st10" d="M188.1,159.9c1.6-1.5,4.3-0.9,8.1,1.3c3.6,0.9,4.9-3.3,4.9-3.3c1-2.1-0.4-3.4-2.5-4.4l-5.6-2.5
					c-3.2-1.4-6.8,0.7-7.8,2.9l-0.2,0.3C184,156.5,186,159,188.1,159.9z"/>
				<path class="st58" d="M185.2,165c0.2,0.9,1.1,1.5,2,1.3c0.9-0.2,1.5-1.1,1.3-2c-0.2-0.9-1.1-1.5-2-1.3
					C185.5,163.2,185,164.1,185.2,165z"/>
				<path class="st7" d="M192.5,169.5c0,0,2.8,3.9-1.2,5.6c-6.3,2.7-8.3-4.5-7.3-4.9l2-1c0,0-1.4,2,0.6,3.7c1.5,1.3,4.2,1.5,5.3-0.4
					L192.5,169.5z"/>
				<polygon class="st71" points="181.7,183.6 181.7,206.8 177.4,204.3 				"/>
				<g>
					<path class="st60" d="M186.3,215.8l2-0.7l0.2-0.2l0.1-0.3l14.9-7.7c0.2-0.1,0.5-0.1,0.7,0l5.7,3.3l0-0.1l1.1,0.4l0,0.4h0
						c0,0-0.1,0.1-0.1,0.1l-15.5,8.1c0,0,0,0,0,0.1c-0.3,1.2-0.9,2.2-1.9,1.6l-6.3-3.7C186.6,216.8,186.3,216.3,186.3,215.8
						L186.3,215.8z"/>
					<path class="st24" d="M194.7,220.4l17.8-9.3c0.2-0.1,0.2-0.3,0-0.4l-7.6-4.4c-0.2-0.1-0.6-0.1-0.8,0l-17.8,9.3
						c-0.2,0.1-0.2,0.3,0,0.4l7.6,4.4C194.1,220.5,194.5,220.5,194.7,220.4z"/>
					<path class="st60" d="M194.2,214.4l4.3-2.2c0.1,0,0-0.1,0-0.1l-1.8-1.1c-0.1,0-0.1,0-0.2,0l-4.3,2.2c0,0,0,0.1,0,0.1l1.8,1.1
						C194.1,214.4,194.1,214.4,194.2,214.4z"/>
					<path class="st7" d="M196.3,209.9c0.1-0.4,0.5-0.9,0.9-1.1l17.7-9.1c0.2-0.1,0.3-0.1,0.4-0.1l0,0l0,0c0,0,0.1,0,0.1,0.1
						l0.5,0.6l-0.5,0l-2.7,9.8c-0.1,0.4-0.5,0.9-0.9,1.1l-16.7,8.6l-0.6,0.5l-0.1,0.1c-0.3,0.1-1-0.5-1-0.5L196.3,209.9z"/>
					<path class="st7" d="M194.6,220.8c0,0,18.5-9.8,18.6-10.2l2.7-9.9c0.1-0.4-0.1-0.6-0.5-0.4l-17.7,9.1c-0.4,0.2-0.8,0.7-0.9,1.1
						l-2.7,9.9C194,220.9,194.2,221,194.6,220.8z"/>
					<path class="st7" d="M204.5,211.2c-0.1,0.5,0.3,0.6,1.1,0.3c0.7-0.4,1.5-1.1,1.6-1.6c0.1-0.5-0.3-0.6-1.1-0.3
						C205.4,210,204.7,210.7,204.5,211.2z"/>
				</g>
				<path class="st58" d="M181,183.6l-2.3,20.8c-0.1,1.1,17,6.6,17,6.6l-1.4,6l-17.5-4.5c-4.6-1.9-4.5-5.5-4.4-8.4l0.3-18L181,183.6
					z"/>
				<path class="st31" d="M181.5,185.9l-1.5,15.4c-0.4,1.3-11.9-1.4-11.5-3.3c0.1-0.3,1.3-18.8,6.4-23
					C179.2,171.6,182.6,178.8,181.5,185.9z"/>
				<path class="st7" d="M178.4,198.3c-2.1,0-5.6-0.5-9.5-3.4c-0.4-0.3-0.5-0.9-0.2-1.3c0.3-0.4,0.9-0.5,1.3-0.2
					c5.5,4,9.8,3,9.9,2.9c0.5-0.1,1,0.2,1.2,0.7c0.1,0.5-0.2,1-0.7,1.2C180.3,198.1,179.6,198.3,178.4,198.3z"/>
			</g>
			<g>
				
					<ellipse transform="matrix(0.9998 -1.772922e-02 1.772922e-02 0.9998 -4.9066 5.8544)" class="st3" cx="327.7" cy="279.7" rx="18.6" ry="9.3"/>
				<path class="st31" d="M323.5,177.4c0,0,7.2,3,20.1-14.4c2.6-3.5,6-16.1,6-16.1l-3.1-1.4c0,0-4.7,10.7-8.5,14.1
					c-5.2,4.6-19.3,10.8-19.9,13.2C317.5,175.2,323.5,177.4,323.5,177.4z"/>
				<path class="st72" d="M314,273.5l4.1-0.5c2.7-1.2,4-2.2,5.2-1.5l0.3,0.2c1.2,0.7,1.1,1.9-0.3,2.7l-6,4.7
					c-1.4,0.8-3.3,0.6-4.4-0.4c0,0-0.7-0.6-0.2-3.1C313,274.2,312.9,274.1,314,273.5z"/>
				<path class="st58" d="M318.8,273.6c-0.3,2.8-5.5,2.8-5.5,0.7l2.8-64.7l17.1-4.8L318.8,273.6z"/>
				<path class="st72" d="M331.2,279.7l4,0.8c3-0.3,4.4-0.8,5.4,0.2l0.3,0.3c0.9,1,0.4,2.2-1.2,2.5l-7.1,2.7c-1.6,0.3-3.3-0.5-4-1.7
					c0,0-0.5-0.8,0.8-3C330,280,329.9,279.9,331.2,279.7z"/>
				<path class="st58" d="M334.5,281.4c-0.9,2.3-4.8,1.8-4.8-0.1c1.8-22.4-2.4-43.6-7.8-64.2l16.5-1.8
					C339,239.4,338.8,260.1,334.5,281.4z"/>
				<path class="st10" d="M337.3,209.5l5.7,31.4c0,0-14.2,14.1-30.5,0l1.8-29.5L337.3,209.5z"/>
				
					<ellipse transform="matrix(0.9917 -0.1282 0.1282 0.9917 -18.1557 43.2809)" class="st58" cx="327" cy="162.6" rx="5.3" ry="9.3"/>
				<path class="st58" d="M336.4,166.3c-1.2,4.3-5.8,5.8-8.5,3c-2.7-2.8-3.9-8.5-2.7-12.8c1.2-4.3,4.4-5.5,7.1-2.7
					C335,156.7,337.6,162,336.4,166.3z"/>
				<path class="st58" d="M326,178.6l-0.5-0.1c-1.5-0.3-2.5-1.9-2.2-3.4l1.9-8.7c0.3-1.5,1.9-2.5,3.4-2.2l0.5,0.1
					c1.5,0.3,2.5,1.9,2.2,3.4l-0.6,8.6C330.4,177.9,327.6,179,326,178.6z"/>
				<path class="st10" d="M322.4,166.9c0,0-0.5,3,4.6,3.2c4.1,0.2,2.9-7.2,7-7.9c4.5-0.7,5.3-6.3,3.5-8.4c-1.8-2.1-6.7-3.3-10.3-1.7
					C323.6,153.7,316.1,154.9,322.4,166.9z"/>
				<path class="st58" d="M334,164.6c-0.3,1-1.4,1.6-2.4,1.3c-1-0.3-1.6-1.4-1.3-2.4c0.3-1,1.4-1.6,2.4-1.3
					C333.7,162.5,334.3,163.5,334,164.6z"/>
				<path class="st31" d="M314.3,211.1c1.5-8-0.1-14.3,0-22.8c0-15.3-0.7-19,7.3-16.7l2.3,0.6c1.1,0.3,2.2,0.7,3.2,1.2
					c10.6,5.5,13.5,7.2,13,13.5c0,10.5-4.8,12.6-2.2,21.8C335.7,216,316.8,216.2,314.3,211.1z"/>
				<path class="st62" d="M331.2,170.7l-0.5-1.1c0,0,0.8,0.8,2.4,0.6C333.1,170.3,332.2,170.8,331.2,170.7z"/>
				<g>
					<g>
						<ellipse class="st7" cx="322.8" cy="158.5" rx="3.7" ry="4.3"/>
					</g>
				</g>
				<path class="st10" d="M322.7,157.2c0.2-2.2-2.8-3.2-4-1.3c-0.4,0.6-0.7,1.5-1,2.7c-1.5,6.6-12.7,5.7-7.2,17.4
					c0,0-5,7.7,4.3,10.9c4.7,1.7,4.6-10.6,4.6-10.6s1.9-5.6,3.7-10c0.9-2.1,0.9-4.4,0-6.5C322.8,158.9,322.6,158,322.7,157.2z"/>
				<g>
					<g>
						<path class="st7" d="M323.9,171.2c-0.9-0.2-1.7,0.6-1.5,1.5c0.2,1,0.8,2.2,2.6,2.8c2.5,0.9,5.3,0.4,6.6,0.1
							c0.3-0.1,0.4-0.5,0.1-0.7C330.2,173.9,326.6,171.8,323.9,171.2z"/>
					</g>
				</g>
				<polygon class="st7" points="355.2,187.5 343,180.4 350.2,159.6 362.3,166.6 				"/>
				<path class="st31" d="M330.5,184.7c0,0,10.4,25.4,21.8,13.2c11.4-12.2,7.4-20.8,7.4-20.8l-1.5-0.4c0,0-4.6,15.3-9.6,13.8
					c-4.9-1.5-11.6-11-14-11.4C332.3,178.5,330.5,184.7,330.5,184.7z"/>
				<path class="st58" d="M347,146.4l0.6,0.3c1.2,0.6,2.6,0.1,3.2-1.1l1.2-2.4c0.6-1.2,0.1-2.6-1.1-3.2l-0.6-0.3
					c-1.2-0.6-2.6-0.1-3.2,1.1l-1.2,2.4C345.4,144.4,345.8,145.8,347,146.4z"/>
				<path class="st58" d="M359.5,178.8L359.5,178.8c-1.1,0-2-0.9-2-2v-2c0-1.1,0.9-2,2-2l0,0c1.1,0,2,0.9,2,2v2
					C361.4,177.9,360.6,178.8,359.5,178.8z"/>
				<g>
					<path class="st4" d="M352.6,167.2l-2.1-1.2c-0.4-0.2-0.6-0.8-0.5-1.3l0,0c0.1-0.5,0.6-0.7,1-0.4l2.1,1.2
						c0.4,0.2,0.6,0.8,0.5,1.3l0,0C353.4,167.2,353,167.4,352.6,167.2z"/>
					<path class="st13" d="M354.5,171.9l-3.1-1.8c-0.3-0.2-0.5-0.7-0.4-1l0,0c0.1-0.4,0.5-0.5,0.8-0.3l3.1,1.8
						c0.3,0.2,0.5,0.7,0.4,1l0,0C355.2,171.9,354.8,172.1,354.5,171.9z"/>
					<path class="st13" d="M356.1,176.6l-5.7-3.3c-0.3-0.2-0.5-0.7-0.4-1l0,0c0.1-0.4,0.5-0.5,0.8-0.3l5.7,3.3
						c0.3,0.2,0.5,0.7,0.4,1l0,0C356.8,176.6,356.5,176.8,356.1,176.6z"/>
					<path class="st13" d="M352.6,178.2l-3.1-1.8c-0.3-0.2-0.5-0.7-0.4-1l0,0c0.1-0.4,0.5-0.5,0.8-0.3l3.1,1.8
						c0.3,0.2,0.5,0.7,0.4,1l0,0C353.3,178.3,352.9,178.4,352.6,178.2z"/>
					<path class="st4" d="M348.9,179.7l-2.1-1.2c-0.3-0.2-0.5-0.7-0.4-1l0,0c0.1-0.4,0.5-0.5,0.8-0.3l2.1,1.2c0.3,0.2,0.5,0.7,0.4,1
						l0,0C349.6,179.7,349.3,179.9,348.9,179.7z"/>
				</g>
			</g>
			<path class="st113" d="M406.7,282c-1.9,0-3.6-0.4-5-1.2L374.5,265c-1.5-0.8-2.3-2.1-2.3-3.4c0-1.6,1.1-3.1,3-4.2l25.6-14.8
				c3.4-2,8.4-2.1,11.3-0.4l27.3,15.7c1.5,0.8,2.3,2.1,2.3,3.4c0,1.6-1.1,3.1-3,4.2l-25.6,14.8C411.2,281.4,408.9,282,406.7,282z
				 M407.1,243c-1.9,0-3.8,0.4-5.4,1.3l-25.6,14.8c-1.3,0.7-2,1.7-2,2.5c0,0.8,0.7,1.4,1.3,1.7l27.3,15.7l0,0
				c2.3,1.3,6.6,1.1,9.3-0.4l25.6-14.8c1.3-0.7,2-1.7,2-2.5c0-0.8-0.7-1.4-1.3-1.7l-27.3-15.7C410.1,243.3,408.6,243,407.1,243z"/>
			<path class="st113" d="M406.7,269c-1.9,0-3.6-0.4-5-1.2l-27.3-15.7c-1.5-0.8-2.3-2.1-2.3-3.4c0-1.6,1.1-3.1,3-4.2l25.6-14.8
				c3.4-2,8.3-2.1,11.3-0.4l27.3,15.7c1.5,0.8,2.3,2.1,2.3,3.4c0,1.6-1.1,3.1-3,4.2l-25.6,14.8C411.2,268.4,408.9,269,406.7,269z
				 M407.1,230c-1.9,0-3.8,0.4-5.4,1.3l-25.6,14.8c-1.3,0.7-2,1.7-2,2.5c0,0.8,0.7,1.4,1.3,1.7l27.3,15.7l0,0
				c2.3,1.3,6.6,1.1,9.3-0.4l25.6-14.8c1.3-0.7,2-1.7,2-2.5c0-0.8-0.7-1.4-1.3-1.7l-27.3-15.7C410.1,230.3,408.6,230,407.1,230z"/>
			<g>
				<path class="st11" d="M441.7,231.2L441.7,231.2c-1.3,0-2.3-1-2.3-2.3l-0.1-11.1c0-1.3,1-2.3,2.3-2.3h0c1.3,0,2.3,1,2.3,2.3
					l0.1,11.1C444,230.2,443,231.2,441.7,231.2z"/>
				<path class="st11" d="M452.1,207.6c-1.3,0-2.3,1.1-2.3,2.3l0,1.8c-0.4-0.6-1.1-0.9-1.9-0.9l0,0c-1.3,0-2.3,1.1-2.3,2.3l0.1,11.1
					c0,1.3,1.1,2.3,2.3,2.3l0,0c0.5,0,1-0.2,1.4-0.5l0,0l4-3.1l0,0c0.7-0.4,1.1-1.1,1.1-2l-0.1-11.1
					C454.5,208.6,453.4,207.6,452.1,207.6z"/>
				<path class="st4" d="M449,206.7l-38.9,25.6c-2,1.4-2.6,4.3-1.3,6.5v0c1.3,2.2,4,2.8,6,1.5l11.9-8.1c0.1,0,0.1-0.1,0.2-0.1
					l27.7-18.9C461.5,208.9,456.1,201.4,449,206.7z"/>
				<path class="st11" d="M410.9,239.8L410.9,239.8c-1.3-2.2-0.7-5.1,1.3-6.5l38.9-25.6c2.1-1.6,4.1-2,5.6-1.8
					c-1.5-1.4-4.4-1.7-7.7,0.7l-38.9,25.6c-2,1.4-2.6,4.3-1.3,6.5v0c0.7,1.2,1.8,1.9,3,2.1C411.5,240.6,411.2,240.2,410.9,239.8z"/>
				<path class="st11" d="M405.8,245.5c0,0.1,0,0.2,0,0.4c0,2.5-2,5.5-4.4,6.7c-1.3,0.6-2.5,0.7-3.3,0.2c0.2,2.2,2.1,3.1,4.4,1.9
					c2.4-1.2,4.4-4.2,4.4-6.7C406.9,246.8,406.5,246,405.8,245.5z"/>
				<path class="st11" d="M406.7,224.3c-8.3,4.1-14.9,14.3-14.9,22.7c0,2.8,0.8,5.1,2.1,6.7c1.4,1.7,7.2,4.6,7.2,4.6
					c2.1,0.1,3.2-2.3,5.7-3.6c8.3-4.1,14.9-14.3,14.9-22.7c0-1.8,2.2-3.8,1.2-4.9c-1.7-1.8-4.2-3.1-5.9-3.9
					C414.3,222.1,410.7,222.3,406.7,224.3z M402.9,254.5c-2.4,1.2-5.7,0.3-5.7-2.2c0-2.5,3.4-8.9,5.8-10.1c2.4-1.2,4.3,3.1,4.3,5.5
					C407.3,250.2,405.4,253.2,402.9,254.5z"/>
				<path class="st5" d="M410.4,226.6c-8.3,4.1-14.9,14.3-14.9,22.7c0,8.4,6.8,11.9,15,7.8c8.3-4.1,14.9-14.3,14.9-22.7
					C425.4,225.9,418.7,222.4,410.4,226.6z M402.5,254.7c-2.4,1.2-4.4,0.2-4.4-2.3c0-2.5,2-5.5,4.4-6.7c2.4-1.2,4.4-0.2,4.4,2.3
					C406.9,250.5,405,253.4,402.5,254.7z"/>
				<path class="st74" d="M402.2,258.6c2.4,0.5,5.3,0,8.4-1.6c8.3-4.1,14.9-14.3,14.9-22.7c0-3.8-1.4-6.5-3.6-8.1
					C419.2,242.1,412.1,252.2,402.2,258.6z"/>
			</g>
		</g>
		<g>
			<g>
				<g>
					<polygon class="st64" points="290.8,371.6 248.7,347.2 290.5,323.1 333.1,347.3 					"/>
					<polygon class="st31" points="290.8,333.4 248.7,309.1 290.5,284.9 333.1,309.2 					"/>
					<g>
						<polygon class="st13" points="290.8,333.4 290.9,364.4 248.7,340.1 248.7,309.1 						"/>
					</g>
					<g>
						<polygon class="st24" points="290.8,333.4 333.1,309.2 333.1,338.7 290.1,364.5 						"/>
					</g>
				</g>
				<polygon class="st7" points="283.7,354.3 275.3,349.4 275.3,343.1 283.7,348 				"/>
				<polygon class="st7" points="272.5,348 264.1,343.1 264.1,331.5 272.5,336.4 				"/>
				<polygon class="st7" points="253,336.8 261.4,341.7 261.4,322.4 253,317.5 				"/>
			</g>
			<g>
				<path class="st32" d="M309.3,301.8c-8.6-5.2-22.7-5.4-31.5-0.5c-8.8,4.9-8.9,13-0.3,18.2c8.6,5.2,22.5,5.4,31.5,0.6
					C318.8,314.8,317.9,307,309.3,301.8z"/>
				<path class="st11" d="M305.4,300c-8.2-4.9-21.5-5.1-29.9-0.5c-8.3,4.6-8.5,12.3-0.3,17.2c8.2,4.9,21.4,5.1,29.9,0.6
					C314.4,312.4,313.5,304.9,305.4,300z"/>
				<g>
					<path class="st5" d="M305.1,293.6c-8.2-4.9-21.5-5.1-29.9-0.5s-8.5,12.3-0.3,17.2c8.2,4.9,21.4,5.1,29.9,0.6
						C314.1,305.9,313.3,298.5,305.1,293.6z"/>
					<path class="st7" d="M283.7,307.2c-1.1,0-2.1-0.5-2.7-1.4c-0.7-1-0.9-2.3-0.4-3.4l3.4-8c0.7-1.7,2.7-2.5,4.5-1.8
						c1.7,0.7,2.5,2.8,1.8,4.5l-1.1,2.5l13.8-1.7c1.9-0.2,3.6,1.1,3.8,3c0.2,1.9-1.1,3.6-3,3.8l-19.7,2.5
						C284,307.2,283.9,307.2,283.7,307.2z"/>
				</g>
			</g>
		</g>
		<g>
			<path class="st13" d="M426.7,94.7c0.1-6.8-3-12.8-8.2-15.8L338.1,32c-4.4-2.6-8.1,0.8-8.2,7.4l-0.8,59.5
				c-0.1,6.3,2.8,11.9,7.6,14.7l73.8,43c6.7,3.9,15.3-2.2,15.4-11L426.7,94.7z"/>
			<path class="st7" d="M403.5,139.4l-56.7-32.7c-2.8-1.6-5.1-6-5.1-9.8v-7.4c0-3.8,2.3-5.5,5.1-3.9l56.7,32.7
				c2.8,1.6,5.1,6,5.1,9.8v7.4C408.6,139.3,406.3,141,403.5,139.4z"/>
			<path class="st7" d="M403.5,106.5l-56.7-32.7c-2.8-1.6-5.1-6-5.1-9.8v-7.4c0-3.8,2.3-5.5,5.1-3.9l56.7,32.7
				c2.8,1.6,5.1,6,5.1,9.8v7.4C408.6,106.4,406.3,108.1,403.5,106.5z"/>
			<g>
				<g>
					<polygon class="st4" points="357.6,103.3 356,102.4 357.1,101.8 356,100 354.9,100.6 354.9,98.8 353.3,98 353.3,99.7 
						352.2,97.9 351.1,98.5 352.2,100.3 350.6,99.4 350.6,101.2 352.2,102.1 351,102.7 352.1,104.5 353.3,103.9 353.3,105.7 
						354.9,106.6 354.9,104.8 356,106.7 357.1,106.1 356,104.2 357.6,105.1 					"/>
				</g>
			</g>
			<g>
				<g>
					<polygon class="st4" points="368.1,109.1 366.5,108.2 367.6,107.6 366.5,105.8 365.4,106.4 365.4,104.6 363.8,103.7 
						363.8,105.5 362.6,103.6 361.5,104.2 362.6,106.1 361,105.2 361,107 362.6,107.9 361.5,108.5 362.6,110.3 363.7,109.7 
						363.7,111.5 365.3,112.3 365.3,110.6 366.4,112.4 367.6,111.8 366.5,110 368,110.9 					"/>
				</g>
			</g>
			<g>
				<g>
					<polygon class="st4" points="378.5,114.9 376.9,114 378.1,113.4 376.9,111.5 375.8,112.2 375.8,110.4 374.2,109.5 374.2,111.3 
						373.1,109.4 372,110 373.1,111.9 371.5,111 371.5,112.8 373.1,113.6 371.9,114.2 373,116.1 374.2,115.5 374.2,117.2 
						375.8,118.1 375.8,116.4 376.9,118.2 378,117.6 376.9,115.7 378.5,116.6 					"/>
				</g>
			</g>
			<g>
				<g>
					<polygon class="st4" points="389,120.7 387.4,119.8 388.5,119.2 387.4,117.3 386.3,117.9 386.3,116.2 384.7,115.3 384.7,117.1 
						383.6,115.2 382.4,115.8 383.5,117.7 381.9,116.8 381.9,118.5 383.5,119.4 382.4,120 383.5,121.9 384.6,121.3 384.6,123 
						386.2,123.9 386.2,122.1 387.3,124 388.5,123.4 387.4,121.5 389,122.4 					"/>
				</g>
			</g>
			<g>
				<g>
					<polygon class="st4" points="399.4,126.4 397.8,125.6 399,125 397.8,123.1 396.7,123.7 396.7,122 395.1,121.1 395.1,122.8 
						394,121 392.9,121.6 394,123.5 392.4,122.6 392.4,124.3 394,125.2 392.8,125.8 394,127.7 395.1,127 395.1,128.8 396.7,129.7 
						396.7,127.9 397.8,129.8 398.9,129.2 397.8,127.3 399.4,128.2 					"/>
				</g>
			</g>
			<g>
				<g>
					<path class="st4" d="M399.9,95.5l-49.4-28.5c-1.1-0.6-2-2.3-2-3.8v0c0-1.5,0.9-2.1,2-1.5l49.4,28.5c1.1,0.6,2,2.3,2,3.8l0,0
						C401.9,95.4,401,96.1,399.9,95.5z"/>
				</g>
			</g>
			<g>
				<path class="st4" d="M437.2,96.9c1.5-7.9-2.6-18.3-9.3-23.1c-3-2.2-6.1-2.9-8.6-2.2l0,0l0,0c-0.3,0.1-0.7,0.2-1,0.4l-6,2.4
					l3,0.1c-0.9,1.3-1.6,2.9-2,4.9c-1.5,7.9,2.6,18.3,9.3,23.1c1.4,1,2.7,1.7,4,2.1l0.5,1.7l4.2-1.6c0.2-0.1,0.5-0.2,0.7-0.2l0.1,0
					l0,0C434.5,103.3,436.4,100.7,437.2,96.9z"/>
				<path class="st11" d="M431.7,99.1c-1.5,7.9-8.1,10.5-14.7,5.6c-6.6-4.8-10.8-15.2-9.3-23.1c1.5-7.9,8.1-10.5,14.7-5.6
					C429,80.8,433.2,91.1,431.7,99.1z"/>
				<path class="st7" d="M427.9,82c-3.8,3.4-7.5,6.7-11.3,10.1c-0.5,0.5-1.1,1-1.6,1.5c1.6,0.2,3.2,0.4,4.8,0.6
					c-1.2-2.9-2.5-5.8-3.7-8.8c-0.6-1.5-2.9-1.9-4.2-1.1c-1.5,1-1.8,2.6-1.1,4.2c1.2,2.9,2.5,5.8,3.7,8.8c0.8,1.9,3.5,1.8,4.8,0.6
					c3.8-3.4,7.5-6.7,11.3-10.1c0.5-0.5,1.1-1,1.6-1.5c1.2-1.1,1.2-3.3,0-4.3C430.9,80.8,429.2,80.8,427.9,82L427.9,82z"/>
			</g>
		</g>
	</g>
</g>
</svg>
