<?xml version="1.0" encoding="utf-8"?>
<!-- Generator: Adobe Illustrator 26.0.3, SVG Export Plug-In . SVG Version: 6.00 Build 0)  -->
<svg version="1.1" id="Layer_1" xmlns="http://www.w3.org/2000/svg" xmlns:xlink="http://www.w3.org/1999/xlink" x="0px" y="0px"
	 viewBox="0 0 569.36 459.61" style="enable-background:new 0 0 569.36 459.61;" xml:space="preserve">
<style type="text/css">
	.st0{fill:#FFE3A3;stroke:#FFFFFF;stroke-width:7.6103;stroke-miterlimit:10;}
	.st1{fill:#F0F4FF;}
	.st2{fill:#BAD4F5;}
	.st3{fill:#8E98C2;}
	.st4{fill:#6D7CFF;}
	.st5{fill:#8A96FF;}
	.st6{fill:#F5F5F7;}
	.st7{fill:#FFFFFF;}
	.st8{fill:#A3A7BF;}
	.st9{fill:none;stroke:#6D7CFF;stroke-width:1.5818;stroke-linecap:round;stroke-linejoin:round;stroke-miterlimit:10;}
	.st10{fill:#425399;}
	.st11{fill:#485BFF;}
	.st12{fill:#A3E9D2;stroke:#FFFFFF;stroke-width:7.6103;stroke-miterlimit:10;}
	.st13{fill:#DADEFF;}
	.st14{fill:#DBEFFF;}
	.st15{opacity:0.29;}
	.st16{fill:none;stroke:#FFFFFF;stroke-width:1.6117;stroke-linecap:round;stroke-linejoin:round;stroke-miterlimit:10;}
	.st17{fill:#E68143;}
	.st18{fill:#D3DAE3;}
	.st19{fill:#E6F0FF;}
	.st20{fill:#F5F9FF;}
	.st21{fill:none;stroke:#425399;stroke-width:2.9136;stroke-linecap:round;stroke-linejoin:round;stroke-miterlimit:10;}
	.st22{fill:#C1AFE5;stroke:#FFFFFF;stroke-width:7.6103;stroke-miterlimit:10;}
	.st23{fill:#FFB2A3;stroke:#FFFFFF;stroke-width:7.6103;stroke-miterlimit:10;}
	.st24{fill:#D3D5E9;}
	.st25{fill:#919DFF;}
	.st26{fill:#DFE3FF;}
	.st27{fill:#CAD0FF;}
	.st28{fill:#A7B0FF;}
	.st29{fill:#EFEFEF;}
	.st30{fill:#F7F7F7;}
	.st31{fill:#E9EBFF;}
	.st32{opacity:0.29;fill:#A8C4E5;}
	.st33{fill:none;stroke:#FFFFFF;stroke-width:9.5079;stroke-linecap:round;stroke-linejoin:round;stroke-miterlimit:10;}
	.st34{fill:#A3DFFF;stroke:#FFFFFF;stroke-width:7.6103;stroke-miterlimit:10;}
	.st35{opacity:0.39;fill:#DADEFF;}
	.st36{fill:#4A39E3;}
	.st37{fill:none;stroke:#FFFFFF;stroke-width:1.3412;stroke-linecap:round;stroke-linejoin:round;stroke-miterlimit:10;}
	.st38{fill:none;stroke:#6D7CFF;stroke-width:1.4858;stroke-linecap:round;stroke-linejoin:round;stroke-miterlimit:10;}
	.st39{fill:#8AACCE;}
	.st40{fill:none;stroke:#485BFF;stroke-width:0.8675;stroke-linecap:round;stroke-linejoin:round;stroke-miterlimit:10;}
	.st41{fill:#DADEFF;stroke:#FFFFFF;stroke-width:0.6782;stroke-miterlimit:10;}
	.st42{fill:#E69AB7;stroke:#FFFFFF;stroke-width:7.6103;stroke-miterlimit:10;}
	.st43{fill:#485BE4;}
	.st44{fill:url(#SVGID_1_);}
	.st45{fill:url(#SVGID_00000087403586185158504860000009900813929408209829_);}
	.st46{fill:url(#SVGID_00000030482226515860276880000007750620828311187074_);}
	.st47{fill:#271C8C;}
	.st48{fill:none;stroke:#425399;stroke-width:2.4459;stroke-linecap:round;stroke-linejoin:round;stroke-miterlimit:10;}
	.st49{fill:#B6BDFD;}
	.st50{fill:url(#SVGID_00000110431954429797895720000007173634288068522174_);}
	.st51{opacity:0.11;fill:#584BCC;}
	.st52{fill:#382E99;}
	.st53{fill:#414DBE;}
	.st54{fill:none;stroke:#A8A0FA;stroke-width:1.6099;stroke-linecap:round;stroke-linejoin:round;stroke-miterlimit:10;}
	.st55{fill:none;stroke:#FFFDFC;stroke-width:2.4459;stroke-linecap:round;stroke-linejoin:round;stroke-miterlimit:10;}
	.st56{fill:#BEF4FA;stroke:#FFFFFF;stroke-width:7.6103;stroke-miterlimit:10;}
	.st57{fill:#C6D2F2;}
	.st58{fill:#FFC2B0;}
	.st59{fill:#B6BDFF;}
	.st60{fill:#A8C4E5;}
	.st61{fill:#E1EAF4;}
	.st62{fill:#F09A82;}
	.st63{fill:#21DED5;}
	.st64{opacity:0.39;fill:#A7BCF5;}
	.st65{fill:#4558A3;}
	.st66{fill:url(#SVGID_00000180347920367056449870000004046496977487025080_);}
	.st67{opacity:0.22;fill:#2C1F9C;}
	.st68{fill:#4A5375;}
	.st69{fill:#D9E9FF;}
	.st70{fill:none;stroke:#FFFFFF;stroke-width:1.9095;stroke-linecap:round;stroke-linejoin:round;stroke-miterlimit:10;}
	.st71{fill:#CED2EF;}
	.st72{fill:#2C1F9C;}
	.st73{fill:none;stroke:#A7BCF5;stroke-width:1.9875;stroke-linecap:round;stroke-linejoin:round;stroke-miterlimit:10;}
	.st74{fill:#6676FF;}
	.st75{fill:none;stroke:#FFFFFF;stroke-width:6.8391;stroke-linecap:round;stroke-linejoin:round;stroke-miterlimit:10;}
	.st76{fill:#DBDEE8;stroke:#FFFFFF;stroke-width:7.6103;stroke-miterlimit:10;}
	.st77{fill:url(#SVGID_00000173133331892399091700000007462597122011250590_);}
	.st78{fill:none;stroke:#CFD4E9;stroke-width:0.6062;stroke-linecap:round;stroke-linejoin:round;stroke-miterlimit:10;}
	.st79{fill:#CFD4E9;}
	.st80{fill:none;stroke:#FFFFFF;stroke-width:0.6183;stroke-linecap:round;stroke-linejoin:round;stroke-miterlimit:10;}
	.st81{fill:#AFB7DB;}
	.st82{fill:none;stroke:#FFFFFF;stroke-width:5.3911;stroke-linecap:round;stroke-linejoin:round;stroke-miterlimit:10;}
	.st83{fill:#FCD1FF;stroke:#FFFFFF;stroke-width:7.6103;stroke-miterlimit:10;}
	.st84{fill:#4432DB;}
	.st85{fill:#6875AD;}
	.st86{fill:#1A3EA1;}
	.st87{fill:none;stroke:#DADEFF;stroke-width:0.519;stroke-linecap:round;stroke-linejoin:round;stroke-miterlimit:10;}
	.st88{fill:none;stroke:#425399;stroke-width:0.5656;stroke-linecap:round;stroke-linejoin:round;stroke-miterlimit:10;}
	.st89{fill:none;stroke:#6D7CFF;stroke-width:2.8281;stroke-linecap:round;stroke-linejoin:round;stroke-miterlimit:10;}
	.st90{fill:none;stroke:#FFFFFF;stroke-width:0.6167;stroke-linecap:round;stroke-linejoin:round;stroke-miterlimit:10;}
	.st91{fill:#F0F2FF;}
	.st92{opacity:0.4;fill:#A8C4E5;}
	.st93{fill:#323E73;}
	.st94{fill:#BAD4FF;}
	.st95{fill:#324DED;}
	.st96{fill:#ADB7F2;}
	.st97{fill:none;stroke:#FFFFFF;stroke-width:0.6957;stroke-linecap:round;stroke-linejoin:round;stroke-miterlimit:10;}
	.st98{fill:none;stroke:#FFFFFF;stroke-width:2.8923;stroke-linecap:round;stroke-linejoin:round;stroke-miterlimit:10;}
	.st99{fill:#FFE3A3;}
	.st100{fill:#A3E9D2;}
	.st101{fill:#C1AFE5;}
	.st102{fill:#FFB2A3;}
	.st103{fill:#A3DFFF;}
	.st104{fill:#E69AB7;}
	.st105{fill:url(#SVGID_00000000931616404328371990000006245056127291773585_);}
	.st106{fill:url(#SVGID_00000097473510738815989770000005606389605381652926_);}
	.st107{fill:url(#SVGID_00000098206354593065107450000003504585327315847581_);}
	.st108{fill:url(#SVGID_00000041277906392705031360000003220404654474793144_);}
	.st109{fill:#A8A0FA;}
	.st110{fill:#FFFDFC;}
	.st111{fill:#BEF4FA;}
	.st112{fill:url(#SVGID_00000149369564392361877510000016504196060332195202_);}
	.st113{fill:#A7BCF5;}
	.st114{fill:#DBDEE8;}
	.st115{fill:url(#SVGID_00000130608525106696178410000011879080199942918311_);}
	.st116{fill:#FCD1FF;}
	.st117{fill:none;stroke:#FF73CE;stroke-width:3;stroke-miterlimit:10;}
</style>
<g>
	<g>
		<polygon class="st104" points="565.18,133.33 565.18,455.8 3.81,455.8 3.81,68.09 496.82,68.09 		"/>
		<path class="st7" d="M568.98,459.61H0V64.29h498.35l70.64,67.42V459.61z M7.61,452h553.76V134.96L495.3,71.9H7.61V452z"/>
	</g>
	<path class="st1" d="M255.84,427.36l-140.71-81.24c-7.24-4.18-7.24-14.63,0-18.82l143.21-82.68c7.43-4.29,16.59-4.29,24.02,0
		l144.28,83.3c7.24,4.18,7.24,14.63,0,18.82l-139.63,80.62C277.37,432.93,265.49,432.93,255.84,427.36z"/>
	<g>
		<g>
			<g>
				<path class="st11" d="M259.57,392.74l-76.25-44.02c-3.92-2.27-3.92-7.93,0-10.2l81.17-46.86c1.82-1.05,4.07-1.05,5.89,0
					l81.75,47.2c3.92,2.27,3.92,7.93,0,10.2l-75.66,43.68C271.23,395.76,264.8,395.76,259.57,392.74z"/>
				<polygon class="st11" points="180.41,322.82 180.38,343.71 267.72,391.22 267.72,377.15 				"/>
				<path class="st43" d="M268.88,394.98v-25l86.19-47.16v21.14c0,0,0.18,3.29-2.94,5.1l-74.35,42.93
					C277.77,391.99,273.03,395.28,268.88,394.98z"/>
				<linearGradient id="SVGID_1_" gradientUnits="userSpaceOnUse" x1="180.379" y1="322.3493" x2="355.0676" y2="322.3493">
					<stop  offset="0.2877" style="stop-color:#B6BDFF"/>
					<stop  offset="1" style="stop-color:#6D7CFF"/>
				</linearGradient>
				<path class="st44" d="M259.57,371.6l-76.25-44.02c-3.92-2.27-3.92-7.93,0-10.2l77.6-44.8c4.03-2.33,8.99-2.33,13.02,0
					l78.18,45.14c3.92,2.27,3.92,7.93,0,10.2l-75.66,43.68C271.23,374.62,264.8,374.62,259.57,371.6z"/>
			</g>
			<g>
				<path class="st11" d="M259.57,353.39l-76.25-44.02c-3.92-2.27-3.92-7.93,0-10.2l81.17-46.86c1.82-1.05,4.07-1.05,5.89,0
					l81.75,47.2c3.92,2.27,3.92,7.93,0,10.2l-75.66,43.68C271.23,356.41,264.8,356.41,259.57,353.39z"/>
				<polygon class="st11" points="180.41,283.47 180.38,304.36 267.72,351.87 267.72,337.8 				"/>
				<path class="st43" d="M268.88,355.63v-25l86.19-47.16v21.14c0,0,0.18,3.29-2.94,5.1l-74.35,42.93
					C277.77,352.63,273.03,355.93,268.88,355.63z"/>
				
					<linearGradient id="SVGID_00000163059507809359371200000014008562788067425455_" gradientUnits="userSpaceOnUse" x1="180.379" y1="282.9978" x2="355.0676" y2="282.9978">
					<stop  offset="0.2877" style="stop-color:#B6BDFF"/>
					<stop  offset="1" style="stop-color:#6D7CFF"/>
				</linearGradient>
				<path style="fill:url(#SVGID_00000163059507809359371200000014008562788067425455_);" d="M259.57,332.25l-76.25-44.02
					c-3.92-2.27-3.92-7.93,0-10.2l77.6-44.8c4.03-2.33,8.99-2.33,13.02,0l78.18,45.14c3.92,2.27,3.92,7.93,0,10.2l-75.66,43.68
					C271.23,335.27,264.8,335.27,259.57,332.25z"/>
			</g>
			<g>
				<path class="st11" d="M259.57,310.39l-76.25-44.02c-3.92-2.27-3.92-7.93,0-10.2l81.17-46.86c1.82-1.05,4.07-1.05,5.89,0
					l81.75,47.2c3.92,2.27,3.92,7.93,0,10.2l-75.66,43.68C271.23,313.41,264.8,313.41,259.57,310.39z"/>
				<polygon class="st11" points="180.41,240.46 180.38,261.36 267.72,308.87 267.72,294.8 				"/>
				<path class="st43" d="M268.88,312.63v-25l86.19-47.16v21.14c0,0,0.18,3.29-2.94,5.1l-74.35,42.93
					C277.77,309.63,273.03,312.93,268.88,312.63z"/>
				
					<linearGradient id="SVGID_00000128449396597966799090000010962503043416147333_" gradientUnits="userSpaceOnUse" x1="180.379" y1="239.9967" x2="355.0676" y2="239.9967">
					<stop  offset="0.2877" style="stop-color:#B6BDFF"/>
					<stop  offset="1" style="stop-color:#6D7CFF"/>
				</linearGradient>
				<path style="fill:url(#SVGID_00000128449396597966799090000010962503043416147333_);" d="M259.57,289.25l-76.25-44.02
					c-3.92-2.27-3.92-7.93,0-10.2l77.6-44.8c4.03-2.33,8.99-2.33,13.02,0l78.18,45.14c3.92,2.27,3.92,7.93,0,10.2l-75.66,43.68
					C271.23,292.26,264.8,292.26,259.57,289.25z"/>
			</g>
			<g>
				<g>
					<path class="st7" d="M199.9,266.87c0,1.45-1.03,2.04-2.29,1.31c-1.27-0.73-2.29-2.5-2.29-3.95c0-1.45,1.03-2.04,2.29-1.31
						C198.87,263.64,199.9,265.41,199.9,266.87z"/>
				</g>
			</g>
			<path class="st47" d="M207.62,271.82c0,1.45-1.03,2.04-2.29,1.31s-2.29-2.5-2.29-3.95c0-1.45,1.03-2.04,2.29-1.31
				C206.59,268.6,207.62,270.37,207.62,271.82z"/>
			<g>
				<g>
					<g>
						<path class="st7" d="M192.18,303.34c0,1.45-1.03,2.04-2.29,1.31c-1.27-0.73-2.29-2.5-2.29-3.95c0-1.45,1.03-2.04,2.29-1.31
							S192.17,301.88,192.18,303.34z"/>
					</g>
				</g>
				<path class="st47" d="M199.9,308.29c0,1.45-1.03,2.04-2.29,1.31s-2.29-2.5-2.29-3.95c0-1.45,1.03-2.04,2.29-1.31
					C198.87,305.07,199.9,306.84,199.9,308.29z"/>
				<g>
					<g>
						<path class="st7" d="M207.62,313.25c0,1.45-1.03,2.04-2.29,1.31c-1.27-0.73-2.29-2.5-2.29-3.95c0-1.45,1.03-2.04,2.29-1.31
							C206.59,310.03,207.62,311.8,207.62,313.25z"/>
					</g>
				</g>
			</g>
			<g>
				<g>
					<g>
						<path class="st7" d="M192.18,344.76c0,1.45-1.03,2.04-2.29,1.31c-1.27-0.73-2.29-2.5-2.29-3.95c0-1.45,1.03-2.04,2.29-1.31
							C191.15,341.54,192.17,343.31,192.18,344.76z"/>
					</g>
				</g>
				<g>
					<g>
						<path class="st7" d="M199.9,349.72c0,1.45-1.03,2.04-2.29,1.31c-1.27-0.73-2.29-2.5-2.29-3.95c0-1.45,1.03-2.04,2.29-1.31
							C198.87,346.5,199.9,348.27,199.9,349.72z"/>
					</g>
				</g>
				<g>
					<g>
						<path class="st7" d="M207.62,354.68c0,1.45-1.03,2.04-2.29,1.31s-2.29-2.5-2.29-3.95c0-1.45,1.03-2.04,2.29-1.31
							C206.59,351.45,207.62,353.22,207.62,354.68z"/>
					</g>
				</g>
			</g>
			<polygon class="st47" points="316.37,282.68 327.44,276.29 327.44,267.38 316.37,273.77 			"/>
			<polygon class="st47" points="332.69,273.23 343.76,266.84 343.76,257.93 332.69,264.32 			"/>
			<polygon class="st47" points="316.37,325.03 327.44,318.64 327.44,309.73 316.37,316.12 			"/>
			<polygon class="st47" points="332.69,315.58 343.76,309.19 343.76,300.28 332.69,306.67 			"/>
			<polygon class="st47" points="316.37,364.25 327.44,357.86 327.44,348.95 316.37,355.34 			"/>
			<polygon class="st47" points="332.69,354.8 343.76,348.41 343.76,339.5 332.69,345.89 			"/>
		</g>
		<g>
			<ellipse class="st4" cx="265.07" cy="244.35" rx="41.37" ry="17.98"/>
		</g>
		<g>
			<path class="st13" d="M260.8,239.92L260.8,239.92c-29.99-22.14-40.23-70.73-28.45-108.43l9.54-82.19l18.1-6.28l69.2,8.75
				l50.76,67.79l-27.64,88.46C343.53,239.21,296.67,256.2,260.8,239.92z"/>
			<path class="st7" d="M249.7,248.51L249.7,248.51c-29.05-35.69-47.23-73.04-35.45-110.74l27.64-88.46l69.2,8.75l50.76,67.79
				l-27.64,88.46C330.99,227.2,295.39,251.2,249.7,248.51z"/>
			<path class="st13" d="M253.85,234.01c-17.51-30.98-38.39-62.93-28.97-93.08l22.11-70.75l55.35,7l40.59,54.21l-22.82,42.74
				C310.69,204.28,253.85,234.01,253.85,234.01z"/>
			<path class="st4" d="M253.85,234.01L253.85,234.01l48.48-156.83l40.59,54.21l-22.11,70.75
				C313.71,216.12,289.66,231.46,253.85,234.01z"/>
		</g>
		<path class="st10" d="M334.21,215.53c-0.12,0-0.24-0.02-0.37-0.06c-0.64-0.2-1-0.89-0.8-1.53l27.46-87.87l-50.38-67.29
			c-0.4-0.54-0.29-1.31,0.25-1.71s1.31-0.29,1.71,0.25l50.76,67.79c0.24,0.31,0.31,0.72,0.19,1.1l-27.64,88.46
			C335.21,215.19,334.73,215.53,334.21,215.53z"/>
		<path class="st10" d="M213.69,185.62c-0.54,0-1.04-0.36-1.18-0.91c-0.26-1.01-6.41-24.97,0.57-47.3l27.64-88.46
			c0.18-0.57,0.73-0.92,1.32-0.85l47.81,6.04c0.67,0.08,1.14,0.7,1.06,1.37c-0.08,0.67-0.69,1.15-1.37,1.06l-46.79-5.92
			l-27.34,87.49c-6.77,21.67-0.6,45.71-0.54,45.95c0.17,0.65-0.22,1.32-0.87,1.49C213.9,185.6,213.79,185.62,213.69,185.62z"/>
		<g>
			<path class="st49" d="M301.71,120.29c-0.16,1.78-0.48,3.8-1,6.11l-5.76-14.06c0.41-1.85-5.36-4.3-4.62-6.18l-9.11,2.28
				c-0.8,1.99-1.54,4.26-2.2,6.87c-4.39-1.02-9.02-1.06-12.13,0.12h0c-1.96,0.75-3.03,1.87-3.23,3.15l-9.63,37.28l0.03,0.01
				c-0.84,1.99,0.65,4.5,4.34,6.61l31.57,18.02c5.54,3.16,14.01,4.24,18.82,2.41c1.27-0.48,2.16-1.12,2.68-1.86
				c0.35-0.41,0.58-0.84,0.7-1.31l0,0l8.17-32.22l1.43-5.55l0,0c0.43-1.9-1.11-4.19-4.5-6.12l-7.37-4.21c0-0.02,0.01-0.03,0.01-0.05
				c0.93-3.34-0.55-6.88-3.55-8.61L301.71,120.29z"/>
			<g>
				
					<linearGradient id="SVGID_00000158016721211972135940000016141724015193902766_" gradientUnits="userSpaceOnUse" x1="242.6935" y1="153.47" x2="310.6422" y2="153.47">
					<stop  offset="0.186" style="stop-color:#6D7CFF"/>
					<stop  offset="0.3422" style="stop-color:#6373FF"/>
					<stop  offset="0.7342" style="stop-color:#4F61FF"/>
					<stop  offset="1" style="stop-color:#485BFF"/>
				</linearGradient>
				<path style="fill:url(#SVGID_00000158016721211972135940000016141724015193902766_);" d="M310.64,144.52l-57.98-23.94
					l-9.77,37.82l0.03,0.01c-0.84,1.99,0.65,4.5,4.34,6.61l31.57,18.02c5.54,3.16,14.01,4.24,18.82,2.41
					c1.84-0.7,2.88-1.73,3.17-2.91l0,0L310.64,144.52z"/>
				<path class="st51" d="M295.9,138.09l-9.95,38.57l0,0c-0.39,1.58-1.79,2.95-4.24,3.89l0,0c-1.39,0.53-3,0.88-4.75,1.05l2.09,1.19
					c5.54,3.16,14.01,4.24,18.82,2.41h0c1.84-0.7,2.88-1.73,3.17-2.91l0,0l9.47-37.35L295.9,138.09z"/>
				<path class="st52" d="M272.16,147.18L272.16,147.18c1.49,0.59,2.26,2.63,1.71,4.52l-3.11,10.78c-0.55,1.89-2.21,2.96-3.7,2.37v0
					c-1.49-0.59-2.26-2.63-1.71-4.52l3.11-10.78C269,147.65,270.67,146.58,272.16,147.18z"/>
				
					<ellipse transform="matrix(0.8473 -0.5311 0.5311 0.8473 -38.9123 167.0779)" class="st52" cx="271.1" cy="151.21" rx="5.71" ry="7.19"/>
				<path class="st5" d="M288.63,145.08l-31.57-18.02c-5.54-3.16-6.13-7.25-1.31-9.09h0c4.82-1.84,13.29-0.75,18.82,2.41
					l31.57,18.02c5.54,3.16,6.13,7.25,1.31,9.09h0C302.64,149.32,294.17,148.24,288.63,145.08z"/>
				<path class="st53" d="M297.03,139.44c-0.31,1.19-2.73,1.55-5.41,0.8c-2.68-0.75-4.6-2.33-4.29-3.52
					c0.31-1.19,2.73-1.55,5.41-0.8C295.42,136.67,297.34,138.24,297.03,139.44z"/>
				
					<ellipse transform="matrix(0.2754 -0.9613 0.9613 0.2754 75.2847 352.2591)" class="st53" cx="271.31" cy="126.19" rx="2.23" ry="5.04"/>
				<path class="st53" d="M290.3,99.16c0,0-18.13-9.74-23.84,25.67l9.7,2.73c0,0,2.22-20.04,9.83-17.44c0,0,1.18,0.3,1.75,0.81
					c1.86,1.65,5.82,7.31-0.43,25.96l9.7,2.73C297.01,139.62,309.77,107.2,290.3,99.16z"/>
			</g>
			<path class="st109" d="M267.5,156.73c-0.2,0-0.4-0.08-0.56-0.23c-2.2-2.13-3.3-5.28-2.8-8.03c0.3-1.67,1.18-3.07,2.46-3.93
				c1.26-0.85,2.85-1.13,4.46-0.8c0.44,0.09,0.71,0.52,0.62,0.95c-0.09,0.44-0.52,0.71-0.95,0.62c-1.18-0.25-2.33-0.05-3.23,0.56
				c-0.93,0.63-1.54,1.62-1.77,2.89c-0.41,2.23,0.51,4.82,2.33,6.58c0.32,0.31,0.33,0.82,0.02,1.14
				C267.92,156.65,267.71,156.73,267.5,156.73z"/>
			<path class="st109" d="M266.49,165.33c-0.09,0-0.19-0.02-0.28-0.05c-0.87-0.33-2.37-1.7-1.77-4.56l1.69-5.66
				c0.13-0.43,0.58-0.67,1-0.54c0.43,0.13,0.67,0.58,0.54,1l-1.68,5.6c-0.43,2.07,0.67,2.61,0.79,2.66c0.4,0.17,0.6,0.64,0.44,1.04
				C267.1,165.14,266.81,165.33,266.49,165.33z"/>
		</g>
		<path class="st10" d="M236.02,231.53c-0.3,0-0.6-0.11-0.83-0.33c-7.67-7.1-17.98-32.49-18.41-33.57
			c-0.25-0.63,0.05-1.34,0.68-1.59c0.63-0.25,1.34,0.05,1.59,0.68c0.1,0.26,10.54,25.96,17.81,32.69c0.5,0.46,0.53,1.23,0.07,1.73
			C236.67,231.4,236.35,231.53,236.02,231.53z"/>
		<path class="st10" d="M256.21,249.97c-3.53,0-5.59-0.18-5.67-0.19c-0.67-0.07-1.16-0.66-1.1-1.33c0.06-0.67,0.67-1.16,1.33-1.1
			c0.37,0.04,37.16,3.26,69.57-18.86c0.56-0.38,1.32-0.24,1.7,0.32s0.24,1.32-0.32,1.7C296.19,247.92,268,249.97,256.21,249.97z"/>
		<path class="st110" d="M215.51,44.25c-0.06,0-0.12,0-0.18-0.01l-10-1.5c-0.67-0.1-1.13-0.72-1.03-1.39s0.72-1.13,1.39-1.03l10,1.5
			c0.67,0.1,1.13,0.72,1.03,1.39C216.63,43.81,216.11,44.25,215.51,44.25z"/>
		<path class="st110" d="M263.41,24.76c-0.11,0-0.23-0.02-0.34-0.05c-0.65-0.19-1.02-0.87-0.83-1.52l2.83-9.71
			c0.19-0.65,0.87-1.02,1.52-0.83c0.65,0.19,1.02,0.87,0.83,1.52l-2.83,9.71C264.43,24.41,263.94,24.76,263.41,24.76z"/>
		<path class="st110" d="M229.47,13.21c-0.48,0-0.94-0.29-1.13-0.77l-3.78-9.38c-0.25-0.63,0.05-1.34,0.68-1.59
			c0.63-0.25,1.34,0.05,1.59,0.68l3.78,9.38c0.25,0.63-0.05,1.34-0.68,1.59C229.78,13.18,229.63,13.21,229.47,13.21z"/>
	</g>
</g>
</svg>
