<?xml version="1.0" encoding="utf-8"?>
<!-- Generator: Adobe Illustrator 26.0.3, SVG Export Plug-In . SVG Version: 6.00 Build 0)  -->
<svg version="1.1" id="Layer_1" xmlns="http://www.w3.org/2000/svg" xmlns:xlink="http://www.w3.org/1999/xlink" x="0px" y="0px"
	 viewBox="0 0 569.4 459.6" style="enable-background:new 0 0 569.4 459.6;" xml:space="preserve">
<style type="text/css">
	.st0{fill:#FFE3A3;stroke:#FFFFFF;stroke-width:7.6103;stroke-miterlimit:10;}
	.st1{fill:#F0F4FF;}
	.st2{fill:#BAD4F5;}
	.st3{fill:#8E98C2;}
	.st4{fill:#6D7CFF;}
	.st5{fill:#8A96FF;}
	.st6{fill:#F5F5F7;}
	.st7{fill:#FFFFFF;}
	.st8{fill:#A3A7BF;}
	.st9{fill:none;stroke:#6D7CFF;stroke-width:1.5818;stroke-linecap:round;stroke-linejoin:round;stroke-miterlimit:10;}
	.st10{fill:#425399;}
	.st11{fill:#485BFF;}
	.st12{fill:#A3E9D2;stroke:#FFFFFF;stroke-width:7.6103;stroke-miterlimit:10;}
	.st13{fill:#DADEFF;}
	.st14{fill:#DBEFFF;}
	.st15{opacity:0.29;}
	.st16{fill:none;stroke:#FFFFFF;stroke-width:1.6117;stroke-linecap:round;stroke-linejoin:round;stroke-miterlimit:10;}
	.st17{fill:#E68143;}
	.st18{fill:#D3DAE3;}
	.st19{fill:#E6F0FF;}
	.st20{fill:#F5F9FF;}
	.st21{fill:none;stroke:#425399;stroke-width:2.9136;stroke-linecap:round;stroke-linejoin:round;stroke-miterlimit:10;}
	.st22{fill:#C1AFE5;stroke:#FFFFFF;stroke-width:7.6103;stroke-miterlimit:10;}
	.st23{fill:#FFB2A3;stroke:#FFFFFF;stroke-width:7.6103;stroke-miterlimit:10;}
	.st24{fill:#D3D5E9;}
	.st25{fill:#919DFF;}
	.st26{fill:#DFE3FF;}
	.st27{fill:#CAD0FF;}
	.st28{fill:#A7B0FF;}
	.st29{fill:#EFEFEF;}
	.st30{fill:#F7F7F7;}
	.st31{fill:#E9EBFF;}
	.st32{opacity:0.29;fill:#A8C4E5;}
	.st33{fill:none;stroke:#FFFFFF;stroke-width:9.5079;stroke-linecap:round;stroke-linejoin:round;stroke-miterlimit:10;}
	.st34{fill:#A3DFFF;stroke:#FFFFFF;stroke-width:7.6103;stroke-miterlimit:10;}
	.st35{opacity:0.39;fill:#DADEFF;}
	.st36{fill:#4A39E3;}
	.st37{fill:none;stroke:#FFFFFF;stroke-width:1.3412;stroke-linecap:round;stroke-linejoin:round;stroke-miterlimit:10;}
	.st38{fill:none;stroke:#6D7CFF;stroke-width:1.4858;stroke-linecap:round;stroke-linejoin:round;stroke-miterlimit:10;}
	.st39{fill:#8AACCE;}
	.st40{fill:none;stroke:#485BFF;stroke-width:0.8675;stroke-linecap:round;stroke-linejoin:round;stroke-miterlimit:10;}
	.st41{fill:#DADEFF;stroke:#FFFFFF;stroke-width:0.6782;stroke-miterlimit:10;}
	.st42{fill:#E69AB7;stroke:#FFFFFF;stroke-width:7.6103;stroke-miterlimit:10;}
	.st43{fill:#485BE4;}
	.st44{fill:url(#SVGID_1_);}
	.st45{fill:url(#SVGID_00000084522329698324809020000016822251921197364613_);}
	.st46{fill:url(#SVGID_00000073688057210658015560000010273959080975760795_);}
	.st47{fill:#271C8C;}
	.st48{fill:none;stroke:#425399;stroke-width:2.4459;stroke-linecap:round;stroke-linejoin:round;stroke-miterlimit:10;}
	.st49{fill:#B6BDFD;}
	.st50{fill:url(#SVGID_00000021821705699987245850000009676352791745394051_);}
	.st51{opacity:0.11;fill:#584BCC;}
	.st52{fill:#382E99;}
	.st53{fill:#414DBE;}
	.st54{fill:none;stroke:#A8A0FA;stroke-width:1.6099;stroke-linecap:round;stroke-linejoin:round;stroke-miterlimit:10;}
	.st55{fill:none;stroke:#FFFDFC;stroke-width:2.4459;stroke-linecap:round;stroke-linejoin:round;stroke-miterlimit:10;}
	.st56{fill:#BEF4FA;stroke:#FFFFFF;stroke-width:7.6103;stroke-miterlimit:10;}
	.st57{fill:#C6D2F2;}
	.st58{fill:#FFC2B0;}
	.st59{fill:#B6BDFF;}
	.st60{fill:#A8C4E5;}
	.st61{fill:#E1EAF4;}
	.st62{fill:#F09A82;}
	.st63{fill:#21DED5;}
	.st64{opacity:0.39;fill:#A7BCF5;}
	.st65{fill:#4558A3;}
	.st66{fill:url(#SVGID_00000178176603119582935190000010064123346213995438_);}
	.st67{opacity:0.22;fill:#2C1F9C;}
	.st68{fill:#4A5375;}
	.st69{fill:#D9E9FF;}
	.st70{fill:none;stroke:#FFFFFF;stroke-width:1.9095;stroke-linecap:round;stroke-linejoin:round;stroke-miterlimit:10;}
	.st71{fill:#CED2EF;}
	.st72{fill:#2C1F9C;}
	.st73{fill:none;stroke:#A7BCF5;stroke-width:1.9875;stroke-linecap:round;stroke-linejoin:round;stroke-miterlimit:10;}
	.st74{fill:#6676FF;}
	.st75{fill:none;stroke:#FFFFFF;stroke-width:6.8391;stroke-linecap:round;stroke-linejoin:round;stroke-miterlimit:10;}
	.st76{fill:#DBDEE8;stroke:#FFFFFF;stroke-width:7.6103;stroke-miterlimit:10;}
	.st77{fill:url(#SVGID_00000150804774228836659610000014821925966894251671_);}
	.st78{fill:none;stroke:#CFD4E9;stroke-width:0.6062;stroke-linecap:round;stroke-linejoin:round;stroke-miterlimit:10;}
	.st79{fill:#CFD4E9;}
	.st80{fill:none;stroke:#FFFFFF;stroke-width:0.6183;stroke-linecap:round;stroke-linejoin:round;stroke-miterlimit:10;}
	.st81{fill:#AFB7DB;}
	.st82{fill:none;stroke:#FFFFFF;stroke-width:5.3911;stroke-linecap:round;stroke-linejoin:round;stroke-miterlimit:10;}
	.st83{fill:#FCD1FF;stroke:#FFFFFF;stroke-width:7.6103;stroke-miterlimit:10;}
	.st84{fill:#4432DB;}
	.st85{fill:#6875AD;}
	.st86{fill:#1A3EA1;}
	.st87{fill:none;stroke:#DADEFF;stroke-width:0.519;stroke-linecap:round;stroke-linejoin:round;stroke-miterlimit:10;}
	.st88{fill:none;stroke:#425399;stroke-width:0.5656;stroke-linecap:round;stroke-linejoin:round;stroke-miterlimit:10;}
	.st89{fill:none;stroke:#6D7CFF;stroke-width:2.8281;stroke-linecap:round;stroke-linejoin:round;stroke-miterlimit:10;}
	.st90{fill:none;stroke:#FFFFFF;stroke-width:0.6167;stroke-linecap:round;stroke-linejoin:round;stroke-miterlimit:10;}
	.st91{fill:#F0F2FF;}
	.st92{opacity:0.4;fill:#A8C4E5;}
	.st93{fill:#323E73;}
	.st94{fill:#BAD4FF;}
	.st95{fill:#324DED;}
	.st96{fill:#ADB7F2;}
	.st97{fill:none;stroke:#FFFFFF;stroke-width:0.6957;stroke-linecap:round;stroke-linejoin:round;stroke-miterlimit:10;}
	.st98{fill:none;stroke:#FFFFFF;stroke-width:2.8923;stroke-linecap:round;stroke-linejoin:round;stroke-miterlimit:10;}
	.st99{fill:#FFE3A3;}
	.st100{fill:#A3E9D2;}
	.st101{fill:#C1AFE5;}
	.st102{fill:#A3DFFF;}
	.st103{fill:#FFB2A3;}
	.st104{fill:#E69AB7;}
	.st105{fill:url(#SVGID_00000159462085921089634050000008034732444341168528_);}
	.st106{fill:url(#SVGID_00000005257496531027372770000018119039174768890539_);}
	.st107{fill:url(#SVGID_00000128463594892449706090000001185396020926076835_);}
	.st108{fill:url(#SVGID_00000032623189101274182840000010565378491333389242_);}
	.st109{fill:#A8A0FA;}
	.st110{fill:#FFFDFC;}
	.st111{fill:#BEF4FA;}
	.st112{fill:url(#SVGID_00000064332316615350474360000008934220103873936549_);}
	.st113{fill:#A7BCF5;}
	.st114{fill:#DBDEE8;}
	.st115{fill:url(#SVGID_00000092454335784453227220000016636117415923401151_);}
	.st116{fill:#FCD1FF;}
	.st117{fill:none;stroke:#FF73CE;stroke-width:3;stroke-miterlimit:10;}
</style>
<g>
	<g>
		<polygon class="st104" points="565.2,133.3 565.2,455.8 3.8,455.8 3.8,68.1 496.8,68.1 		"/>
		<path class="st7" d="M569,459.6H0V64.3h498.3l70.6,67.4V459.6z M7.6,452h553.8V135l-66.1-63.1H7.6V452z"/>
	</g>
	<path class="st1" d="M255.8,427.4l-140.7-81.2c-7.2-4.2-7.2-14.6,0-18.8l143.2-82.7c7.4-4.3,16.6-4.3,24,0l144.3,83.3
		c7.2,4.2,7.2,14.6,0,18.8L287,427.4C277.4,432.9,265.5,432.9,255.8,427.4z"/>
	<g>
		<g>
			<g>
				<path class="st11" d="M259.6,392.7l-76.2-44c-3.9-2.3-3.9-7.9,0-10.2l81.2-46.9c1.8-1.1,4.1-1.1,5.9,0l81.7,47.2
					c3.9,2.3,3.9,7.9,0,10.2l-75.7,43.7C271.2,395.8,264.8,395.8,259.6,392.7z"/>
				<polygon class="st11" points="180.4,322.8 180.4,343.7 267.7,391.2 267.7,377.2 				"/>
				<path class="st43" d="M268.9,395v-25l86.2-47.2V344c0,0,0.2,3.3-2.9,5.1L277.8,392C277.8,392,273,395.3,268.9,395z"/>
				<linearGradient id="SVGID_1_" gradientUnits="userSpaceOnUse" x1="180.379" y1="322.3493" x2="355.0676" y2="322.3493">
					<stop  offset="0.2877" style="stop-color:#B6BDFF"/>
					<stop  offset="1" style="stop-color:#6D7CFF"/>
				</linearGradient>
				<path class="st44" d="M259.6,371.6l-76.2-44c-3.9-2.3-3.9-7.9,0-10.2l77.6-44.8c4-2.3,9-2.3,13,0l78.2,45.1
					c3.9,2.3,3.9,7.9,0,10.2l-75.7,43.7C271.2,374.6,264.8,374.6,259.6,371.6z"/>
			</g>
			<g>
				<path class="st11" d="M259.6,353.4l-76.2-44c-3.9-2.3-3.9-7.9,0-10.2l81.2-46.9c1.8-1.1,4.1-1.1,5.9,0l81.7,47.2
					c3.9,2.3,3.9,7.9,0,10.2l-75.7,43.7C271.2,356.4,264.8,356.4,259.6,353.4z"/>
				<polygon class="st11" points="180.4,283.5 180.4,304.4 267.7,351.9 267.7,337.8 				"/>
				<path class="st43" d="M268.9,355.6v-25l86.2-47.2v21.1c0,0,0.2,3.3-2.9,5.1l-74.4,42.9C277.8,352.6,273,355.9,268.9,355.6z"/>
				
					<linearGradient id="SVGID_00000007386606760551825840000005063906922360550053_" gradientUnits="userSpaceOnUse" x1="180.379" y1="282.9978" x2="355.0676" y2="282.9978">
					<stop  offset="0.2877" style="stop-color:#B6BDFF"/>
					<stop  offset="1" style="stop-color:#6D7CFF"/>
				</linearGradient>
				<path style="fill:url(#SVGID_00000007386606760551825840000005063906922360550053_);" d="M259.6,332.2l-76.2-44
					c-3.9-2.3-3.9-7.9,0-10.2l77.6-44.8c4-2.3,9-2.3,13,0l78.2,45.1c3.9,2.3,3.9,7.9,0,10.2l-75.7,43.7
					C271.2,335.3,264.8,335.3,259.6,332.2z"/>
			</g>
			<g>
				<path class="st11" d="M259.6,310.4l-76.2-44c-3.9-2.3-3.9-7.9,0-10.2l81.2-46.9c1.8-1.1,4.1-1.1,5.9,0l81.7,47.2
					c3.9,2.3,3.9,7.9,0,10.2l-75.7,43.7C271.2,313.4,264.8,313.4,259.6,310.4z"/>
				<polygon class="st11" points="180.4,240.5 180.4,261.4 267.7,308.9 267.7,294.8 				"/>
				<path class="st43" d="M268.9,312.6v-25l86.2-47.2v21.1c0,0,0.2,3.3-2.9,5.1l-74.4,42.9C277.8,309.6,273,312.9,268.9,312.6z"/>
				
					<linearGradient id="SVGID_00000083772487248662431710000008460150647501088386_" gradientUnits="userSpaceOnUse" x1="180.379" y1="239.9967" x2="355.0676" y2="239.9967">
					<stop  offset="0.2877" style="stop-color:#B6BDFF"/>
					<stop  offset="1" style="stop-color:#6D7CFF"/>
				</linearGradient>
				<path style="fill:url(#SVGID_00000083772487248662431710000008460150647501088386_);" d="M259.6,289.2l-76.2-44
					c-3.9-2.3-3.9-7.9,0-10.2l77.6-44.8c4-2.3,9-2.3,13,0l78.2,45.1c3.9,2.3,3.9,7.9,0,10.2l-75.7,43.7
					C271.2,292.3,264.8,292.3,259.6,289.2z"/>
			</g>
			<g>
				<g>
					<path class="st7" d="M199.9,266.9c0,1.5-1,2-2.3,1.3c-1.3-0.7-2.3-2.5-2.3-4c0-1.5,1-2,2.3-1.3
						C198.9,263.6,199.9,265.4,199.9,266.9z"/>
				</g>
			</g>
			<path class="st47" d="M207.6,271.8c0,1.5-1,2-2.3,1.3s-2.3-2.5-2.3-4c0-1.5,1-2,2.3-1.3C206.6,268.6,207.6,270.4,207.6,271.8z"/>
			<g>
				<g>
					<g>
						<path class="st7" d="M192.2,303.3c0,1.5-1,2-2.3,1.3c-1.3-0.7-2.3-2.5-2.3-4c0-1.5,1-2,2.3-1.3S192.2,301.9,192.2,303.3z"/>
					</g>
				</g>
				<path class="st47" d="M199.9,308.3c0,1.5-1,2-2.3,1.3s-2.3-2.5-2.3-4c0-1.5,1-2,2.3-1.3C198.9,305.1,199.9,306.8,199.9,308.3z"
					/>
				<g>
					<g>
						<path class="st7" d="M207.6,313.2c0,1.5-1,2-2.3,1.3c-1.3-0.7-2.3-2.5-2.3-4c0-1.5,1-2,2.3-1.3
							C206.6,310,207.6,311.8,207.6,313.2z"/>
					</g>
				</g>
			</g>
			<g>
				<g>
					<g>
						<path class="st7" d="M192.2,344.8c0,1.5-1,2-2.3,1.3c-1.3-0.7-2.3-2.5-2.3-4c0-1.5,1-2,2.3-1.3
							C191.1,341.5,192.2,343.3,192.2,344.8z"/>
					</g>
				</g>
				<g>
					<g>
						<path class="st7" d="M199.9,349.7c0,1.5-1,2-2.3,1.3c-1.3-0.7-2.3-2.5-2.3-4c0-1.5,1-2,2.3-1.3
							C198.9,346.5,199.9,348.3,199.9,349.7z"/>
					</g>
				</g>
				<g>
					<g>
						<path class="st7" d="M207.6,354.7c0,1.5-1,2-2.3,1.3s-2.3-2.5-2.3-4c0-1.5,1-2,2.3-1.3C206.6,351.5,207.6,353.2,207.6,354.7z"
							/>
					</g>
				</g>
			</g>
			<polygon class="st47" points="316.4,282.7 327.4,276.3 327.4,267.4 316.4,273.8 			"/>
			<polygon class="st47" points="332.7,273.2 343.8,266.8 343.8,257.9 332.7,264.3 			"/>
			<polygon class="st47" points="316.4,325 327.4,318.6 327.4,309.7 316.4,316.1 			"/>
			<polygon class="st47" points="332.7,315.6 343.8,309.2 343.8,300.3 332.7,306.7 			"/>
			<polygon class="st47" points="316.4,364.2 327.4,357.9 327.4,348.9 316.4,355.3 			"/>
			<polygon class="st47" points="332.7,354.8 343.8,348.4 343.8,339.5 332.7,345.9 			"/>
		</g>
		<g>
			<ellipse class="st4" cx="265.1" cy="244.3" rx="41.4" ry="18"/>
		</g>
		<g>
			<path class="st13" d="M260.8,239.9L260.8,239.9c-30-22.1-40.2-70.7-28.4-108.4l9.5-82.2L260,43l69.2,8.8l50.8,67.8L352.3,208
				C343.5,239.2,296.7,256.2,260.8,239.9z"/>
			<path class="st7" d="M249.7,248.5L249.7,248.5c-29.1-35.7-47.2-73-35.4-110.7l27.6-88.5l69.2,8.8l50.8,67.8l-27.6,88.5
				C331,227.2,295.4,251.2,249.7,248.5z"/>
			<path class="st13" d="M253.9,234c-17.5-31-38.4-62.9-29-93.1L247,70.2l55.3,7l40.6,54.2l-22.8,42.7
				C310.7,204.3,253.9,234,253.9,234z"/>
			<path class="st4" d="M253.9,234L253.9,234l48.5-156.8l40.6,54.2l-22.1,70.7C313.7,216.1,289.7,231.5,253.9,234z"/>
		</g>
		<path class="st10" d="M334.2,215.5c-0.1,0-0.2,0-0.4-0.1c-0.6-0.2-1-0.9-0.8-1.5l27.5-87.9l-50.4-67.3c-0.4-0.5-0.3-1.3,0.2-1.7
			s1.3-0.3,1.7,0.2l50.8,67.8c0.2,0.3,0.3,0.7,0.2,1.1l-27.6,88.5C335.2,215.2,334.7,215.5,334.2,215.5z"/>
		<path class="st10" d="M213.7,185.6c-0.5,0-1-0.4-1.2-0.9c-0.3-1-6.4-25,0.6-47.3l27.6-88.5c0.2-0.6,0.7-0.9,1.3-0.8l47.8,6
			c0.7,0.1,1.1,0.7,1.1,1.4c-0.1,0.7-0.7,1.1-1.4,1.1l-46.8-5.9l-27.3,87.5c-6.8,21.7-0.6,45.7-0.5,46c0.2,0.7-0.2,1.3-0.9,1.5
			C213.9,185.6,213.8,185.6,213.7,185.6z"/>
		<g>
			<path class="st49" d="M301.7,120.3c-0.2,1.8-0.5,3.8-1,6.1l-5.8-14.1c0.4-1.9-5.4-4.3-4.6-6.2l-9.1,2.3c-0.8,2-1.5,4.3-2.2,6.9
				c-4.4-1-9-1.1-12.1,0.1h0c-2,0.7-3,1.9-3.2,3.2l-9.6,37.3l0,0c-0.8,2,0.7,4.5,4.3,6.6l31.6,18c5.5,3.2,14,4.2,18.8,2.4
				c1.3-0.5,2.2-1.1,2.7-1.9c0.3-0.4,0.6-0.8,0.7-1.3l0,0l8.2-32.2l1.4-5.5l0,0c0.4-1.9-1.1-4.2-4.5-6.1l-7.4-4.2c0,0,0,0,0-0.1
				c0.9-3.3-0.5-6.9-3.5-8.6L301.7,120.3z"/>
			<g>
				
					<linearGradient id="SVGID_00000024711281369294273680000003741020016352234410_" gradientUnits="userSpaceOnUse" x1="242.6935" y1="153.47" x2="310.6422" y2="153.47">
					<stop  offset="0.186" style="stop-color:#6D7CFF"/>
					<stop  offset="0.3422" style="stop-color:#6373FF"/>
					<stop  offset="0.7342" style="stop-color:#4F61FF"/>
					<stop  offset="1" style="stop-color:#485BFF"/>
				</linearGradient>
				<path style="fill:url(#SVGID_00000024711281369294273680000003741020016352234410_);" d="M310.6,144.5l-58-23.9l-9.8,37.8l0,0
					c-0.8,2,0.7,4.5,4.3,6.6l31.6,18c5.5,3.2,14,4.2,18.8,2.4c1.8-0.7,2.9-1.7,3.2-2.9l0,0L310.6,144.5z"/>
				<path class="st51" d="M295.9,138.1l-9.9,38.6l0,0c-0.4,1.6-1.8,3-4.2,3.9l0,0c-1.4,0.5-3,0.9-4.8,1.1l2.1,1.2
					c5.5,3.2,14,4.2,18.8,2.4h0c1.8-0.7,2.9-1.7,3.2-2.9l0,0l9.5-37.4L295.9,138.1z"/>
				<path class="st52" d="M272.2,147.2L272.2,147.2c1.5,0.6,2.3,2.6,1.7,4.5l-3.1,10.8c-0.5,1.9-2.2,3-3.7,2.4v0
					c-1.5-0.6-2.3-2.6-1.7-4.5l3.1-10.8C269,147.6,270.7,146.6,272.2,147.2z"/>
				
					<ellipse transform="matrix(0.8473 -0.5311 0.5311 0.8473 -38.9123 167.0779)" class="st52" cx="271.1" cy="151.2" rx="5.7" ry="7.2"/>
				<path class="st5" d="M288.6,145.1l-31.6-18c-5.5-3.2-6.1-7.2-1.3-9.1h0c4.8-1.8,13.3-0.8,18.8,2.4l31.6,18
					c5.5,3.2,6.1,7.2,1.3,9.1h0C302.6,149.3,294.2,148.2,288.6,145.1z"/>
				<path class="st53" d="M297,139.4c-0.3,1.2-2.7,1.6-5.4,0.8c-2.7-0.8-4.6-2.3-4.3-3.5c0.3-1.2,2.7-1.6,5.4-0.8
					C295.4,136.7,297.3,138.2,297,139.4z"/>
				
					<ellipse transform="matrix(0.2754 -0.9613 0.9613 0.2754 75.2847 352.2591)" class="st53" cx="271.3" cy="126.2" rx="2.2" ry="5"/>
				<path class="st53" d="M290.3,99.2c0,0-18.1-9.7-23.8,25.7l9.7,2.7c0,0,2.2-20,9.8-17.4c0,0,1.2,0.3,1.8,0.8
					c1.9,1.6,5.8,7.3-0.4,26l9.7,2.7C297,139.6,309.8,107.2,290.3,99.2z"/>
			</g>
			<path class="st109" d="M267.5,156.7c-0.2,0-0.4-0.1-0.6-0.2c-2.2-2.1-3.3-5.3-2.8-8c0.3-1.7,1.2-3.1,2.5-3.9
				c1.3-0.8,2.8-1.1,4.5-0.8c0.4,0.1,0.7,0.5,0.6,1c-0.1,0.4-0.5,0.7-1,0.6c-1.2-0.2-2.3,0-3.2,0.6c-0.9,0.6-1.5,1.6-1.8,2.9
				c-0.4,2.2,0.5,4.8,2.3,6.6c0.3,0.3,0.3,0.8,0,1.1C267.9,156.7,267.7,156.7,267.5,156.7z"/>
			<path class="st109" d="M266.5,165.3c-0.1,0-0.2,0-0.3-0.1c-0.9-0.3-2.4-1.7-1.8-4.6l1.7-5.7c0.1-0.4,0.6-0.7,1-0.5
				c0.4,0.1,0.7,0.6,0.5,1l-1.7,5.6c-0.4,2.1,0.7,2.6,0.8,2.7c0.4,0.2,0.6,0.6,0.4,1C267.1,165.1,266.8,165.3,266.5,165.3z"/>
		</g>
		<path class="st10" d="M236,231.5c-0.3,0-0.6-0.1-0.8-0.3c-7.7-7.1-18-32.5-18.4-33.6c-0.3-0.6,0-1.3,0.7-1.6
			c0.6-0.3,1.3,0,1.6,0.7c0.1,0.3,10.5,26,17.8,32.7c0.5,0.5,0.5,1.2,0.1,1.7C236.7,231.4,236.3,231.5,236,231.5z"/>
		<path class="st10" d="M256.2,250c-3.5,0-5.6-0.2-5.7-0.2c-0.7-0.1-1.2-0.7-1.1-1.3c0.1-0.7,0.7-1.2,1.3-1.1
			c0.4,0,37.2,3.3,69.6-18.9c0.6-0.4,1.3-0.2,1.7,0.3s0.2,1.3-0.3,1.7C296.2,247.9,268,250,256.2,250z"/>
		<path class="st110" d="M215.5,44.2c-0.1,0-0.1,0-0.2,0l-10-1.5c-0.7-0.1-1.1-0.7-1-1.4s0.7-1.1,1.4-1l10,1.5
			c0.7,0.1,1.1,0.7,1,1.4C216.6,43.8,216.1,44.2,215.5,44.2z"/>
		<path class="st110" d="M263.4,24.8c-0.1,0-0.2,0-0.3,0c-0.6-0.2-1-0.9-0.8-1.5l2.8-9.7c0.2-0.6,0.9-1,1.5-0.8
			c0.6,0.2,1,0.9,0.8,1.5l-2.8,9.7C264.4,24.4,263.9,24.8,263.4,24.8z"/>
		<path class="st110" d="M229.5,13.2c-0.5,0-0.9-0.3-1.1-0.8l-3.8-9.4c-0.3-0.6,0.1-1.3,0.7-1.6c0.6-0.3,1.3,0.1,1.6,0.7l3.8,9.4
			c0.3,0.6-0.1,1.3-0.7,1.6C229.8,13.2,229.6,13.2,229.5,13.2z"/>
	</g>
</g>
</svg>
