<?xml version="1.0" encoding="utf-8"?>
<!-- Generator: Adobe Illustrator 26.0.3, SVG Export Plug-In . SVG Version: 6.00 Build 0)  -->
<svg version="1.1" id="Layer_1" xmlns="http://www.w3.org/2000/svg" xmlns:xlink="http://www.w3.org/1999/xlink" x="0px" y="0px"
	 viewBox="0 0 569 459.6" style="enable-background:new 0 0 569 459.6;" xml:space="preserve">
<style type="text/css">
	.st0{fill:#FFE3A3;stroke:#FFFFFF;stroke-width:7.6103;stroke-miterlimit:10;}
	.st1{fill:#F0F4FF;}
	.st2{fill:#BAD4F5;}
	.st3{fill:#8E98C2;}
	.st4{fill:#6D7CFF;}
	.st5{fill:#8A96FF;}
	.st6{fill:#F5F5F7;}
	.st7{fill:#FFFFFF;}
	.st8{fill:#A3A7BF;}
	.st9{fill:none;stroke:#6D7CFF;stroke-width:1.5818;stroke-linecap:round;stroke-linejoin:round;stroke-miterlimit:10;}
	.st10{fill:#425399;}
	.st11{fill:#485BFF;}
	.st12{fill:#A3E9D2;stroke:#FFFFFF;stroke-width:7.6103;stroke-miterlimit:10;}
	.st13{fill:#DADEFF;}
	.st14{fill:#DBEFFF;}
	.st15{opacity:0.29;}
	.st16{fill:none;stroke:#FFFFFF;stroke-width:1.6117;stroke-linecap:round;stroke-linejoin:round;stroke-miterlimit:10;}
	.st17{fill:#E68143;}
	.st18{fill:#D3DAE3;}
	.st19{fill:#E6F0FF;}
	.st20{fill:#F5F9FF;}
	.st21{fill:none;stroke:#425399;stroke-width:2.9136;stroke-linecap:round;stroke-linejoin:round;stroke-miterlimit:10;}
	.st22{fill:#C1AFE5;stroke:#FFFFFF;stroke-width:7.6103;stroke-miterlimit:10;}
	.st23{fill:#FFB2A3;stroke:#FFFFFF;stroke-width:7.6103;stroke-miterlimit:10;}
	.st24{fill:#D3D5E9;}
	.st25{fill:#919DFF;}
	.st26{fill:#DFE3FF;}
	.st27{fill:#CAD0FF;}
	.st28{fill:#A7B0FF;}
	.st29{fill:#EFEFEF;}
	.st30{fill:#F7F7F7;}
	.st31{fill:#E9EBFF;}
	.st32{opacity:0.29;fill:#A8C4E5;}
	.st33{fill:none;stroke:#FFFFFF;stroke-width:9.5079;stroke-linecap:round;stroke-linejoin:round;stroke-miterlimit:10;}
	.st34{fill:#A3DFFF;stroke:#FFFFFF;stroke-width:7.6103;stroke-miterlimit:10;}
	.st35{opacity:0.39;fill:#DADEFF;}
	.st36{fill:#4A39E3;}
	.st37{fill:none;stroke:#FFFFFF;stroke-width:1.3412;stroke-linecap:round;stroke-linejoin:round;stroke-miterlimit:10;}
	.st38{fill:none;stroke:#6D7CFF;stroke-width:1.4858;stroke-linecap:round;stroke-linejoin:round;stroke-miterlimit:10;}
	.st39{fill:#8AACCE;}
	.st40{fill:none;stroke:#485BFF;stroke-width:0.8675;stroke-linecap:round;stroke-linejoin:round;stroke-miterlimit:10;}
	.st41{fill:#DADEFF;stroke:#FFFFFF;stroke-width:0.6782;stroke-miterlimit:10;}
	.st42{fill:#E69AB7;stroke:#FFFFFF;stroke-width:7.6103;stroke-miterlimit:10;}
	.st43{fill:#485BE4;}
	.st44{fill:url(#SVGID_1_);}
	.st45{fill:url(#SVGID_00000042708042032091500990000013171389959997127062_);}
	.st46{fill:url(#SVGID_00000121268632898884388440000007271116819854199471_);}
	.st47{fill:#271C8C;}
	.st48{fill:none;stroke:#425399;stroke-width:2.4459;stroke-linecap:round;stroke-linejoin:round;stroke-miterlimit:10;}
	.st49{fill:#B6BDFD;}
	.st50{fill:url(#SVGID_00000142160838682599737630000006502620631082536125_);}
	.st51{opacity:0.11;fill:#584BCC;}
	.st52{fill:#382E99;}
	.st53{fill:#414DBE;}
	.st54{fill:none;stroke:#A8A0FA;stroke-width:1.6099;stroke-linecap:round;stroke-linejoin:round;stroke-miterlimit:10;}
	.st55{fill:none;stroke:#FFFDFC;stroke-width:2.4459;stroke-linecap:round;stroke-linejoin:round;stroke-miterlimit:10;}
	.st56{fill:#BEF4FA;stroke:#FFFFFF;stroke-width:7.6103;stroke-miterlimit:10;}
	.st57{fill:#C6D2F2;}
	.st58{fill:#FFC2B0;}
	.st59{fill:#B6BDFF;}
	.st60{fill:#A8C4E5;}
	.st61{fill:#E1EAF4;}
	.st62{fill:#F09A82;}
	.st63{fill:#21DED5;}
	.st64{opacity:0.39;fill:#A7BCF5;}
	.st65{fill:#4558A3;}
	.st66{fill:url(#SVGID_00000183246696221768812410000009129277439130928541_);}
	.st67{opacity:0.22;fill:#2C1F9C;}
	.st68{fill:#4A5375;}
	.st69{fill:#D9E9FF;}
	.st70{fill:none;stroke:#FFFFFF;stroke-width:1.9095;stroke-linecap:round;stroke-linejoin:round;stroke-miterlimit:10;}
	.st71{fill:#CED2EF;}
	.st72{fill:#2C1F9C;}
	.st73{fill:none;stroke:#A7BCF5;stroke-width:1.9875;stroke-linecap:round;stroke-linejoin:round;stroke-miterlimit:10;}
	.st74{fill:#6676FF;}
	.st75{fill:none;stroke:#FFFFFF;stroke-width:6.8391;stroke-linecap:round;stroke-linejoin:round;stroke-miterlimit:10;}
	.st76{fill:#DBDEE8;stroke:#FFFFFF;stroke-width:7.6103;stroke-miterlimit:10;}
	.st77{fill:url(#SVGID_00000072268772885492695590000015422756782516023990_);}
	.st78{fill:none;stroke:#CFD4E9;stroke-width:0.6062;stroke-linecap:round;stroke-linejoin:round;stroke-miterlimit:10;}
	.st79{fill:#CFD4E9;}
	.st80{fill:none;stroke:#FFFFFF;stroke-width:0.6183;stroke-linecap:round;stroke-linejoin:round;stroke-miterlimit:10;}
	.st81{fill:#AFB7DB;}
	.st82{fill:none;stroke:#FFFFFF;stroke-width:5.3911;stroke-linecap:round;stroke-linejoin:round;stroke-miterlimit:10;}
	.st83{fill:#FCD1FF;stroke:#FFFFFF;stroke-width:7.6103;stroke-miterlimit:10;}
	.st84{fill:#4432DB;}
	.st85{fill:#6875AD;}
	.st86{fill:#1A3EA1;}
	.st87{fill:none;stroke:#DADEFF;stroke-width:0.519;stroke-linecap:round;stroke-linejoin:round;stroke-miterlimit:10;}
	.st88{fill:none;stroke:#425399;stroke-width:0.5656;stroke-linecap:round;stroke-linejoin:round;stroke-miterlimit:10;}
	.st89{fill:none;stroke:#6D7CFF;stroke-width:2.8281;stroke-linecap:round;stroke-linejoin:round;stroke-miterlimit:10;}
	.st90{fill:none;stroke:#FFFFFF;stroke-width:0.6167;stroke-linecap:round;stroke-linejoin:round;stroke-miterlimit:10;}
	.st91{fill:#F0F2FF;}
	.st92{opacity:0.4;fill:#A8C4E5;}
	.st93{fill:#323E73;}
	.st94{fill:#BAD4FF;}
	.st95{fill:#324DED;}
	.st96{fill:#ADB7F2;}
	.st97{fill:none;stroke:#FFFFFF;stroke-width:0.6957;stroke-linecap:round;stroke-linejoin:round;stroke-miterlimit:10;}
	.st98{fill:none;stroke:#FFFFFF;stroke-width:2.8923;stroke-linecap:round;stroke-linejoin:round;stroke-miterlimit:10;}
	.st99{fill:#FFE3A3;}
	.st100{fill:#A3E9D2;}
	.st101{fill:#C1AFE5;}
	.st102{fill:#A3DFFF;}
	.st103{fill:#FFB2A3;}
	.st104{fill:#E69AB7;}
	.st105{fill:url(#SVGID_00000165920547762365526890000018115141586654393988_);}
	.st106{fill:url(#SVGID_00000033357918404424553730000005878201851656208036_);}
	.st107{fill:url(#SVGID_00000082354635626036684290000017699978491182399625_);}
	.st108{fill:url(#SVGID_00000067951433999234163080000011165779109741687956_);}
	.st109{fill:#A8A0FA;}
	.st110{fill:#FFFDFC;}
	.st111{fill:#BEF4FA;}
	.st112{fill:url(#SVGID_00000037688279915494845750000000460343559449826438_);}
	.st113{fill:#A7BCF5;}
	.st114{fill:#DBDEE8;}
	.st115{fill:url(#SVGID_00000106868009138299408780000016500206350764189341_);}
	.st116{fill:#FCD1FF;}
	.st117{fill:none;stroke:#FF73CE;stroke-width:3;stroke-miterlimit:10;}
</style>
<g>
	<g>
		<polygon class="st114" points="565.2,133.3 565.2,455.8 3.8,455.8 3.8,68.1 496.8,68.1 		"/>
		<path class="st7" d="M569,459.6H0V64.3h498.3l70.6,67.4V459.6z M7.6,452h553.8V135l-66.1-63.1H7.6V452z"/>
	</g>
	<g>
		<path class="st1" d="M257.7,400.5l-171.5-99c-8.8-5.1-8.8-17.8,0-22.9l174.6-100.8c9.1-5.2,20.2-5.2,29.3,0l175.9,101.6
			c8.8,5.1,8.8,17.8,0,22.9l-170.2,98.3C283.9,407.3,269.4,407.3,257.7,400.5z"/>
		<g>
			<path class="st13" d="M416.7,179.5C416.7,179.5,416.7,179.5,416.7,179.5C416.7,179.5,416.7,179.5,416.7,179.5
				C416.7,179.5,416.7,179.5,416.7,179.5c0-0.1,0-0.2,0-0.2c0,0,0-0.1,0-0.1c0,0,0,0,0,0c0,0,0,0,0,0c0,0,0-0.1,0-0.1
				c0,0,0-0.1,0-0.1c0,0,0,0,0,0c0,0,0,0,0,0c0,0,0-0.1,0-0.1c0,0,0-0.1,0-0.1c0,0,0,0,0-0.1c0,0,0,0,0,0c0,0,0,0,0,0
				c0,0,0-0.1,0-0.1c0,0,0-0.1,0-0.1c0,0,0,0,0,0c0,0,0,0,0,0c0,0,0-0.1-0.1-0.1c0,0,0-0.1-0.1-0.1c0,0,0,0,0,0c0,0,0,0,0,0
				c0,0,0-0.1,0-0.1c0,0,0-0.1-0.1-0.1c0,0,0-0.1-0.1-0.1c0,0,0,0,0,0c0,0,0,0,0,0c0,0,0-0.1-0.1-0.1c0,0,0-0.1-0.1-0.1
				c0,0,0,0,0-0.1c0,0,0,0,0,0c0,0,0,0,0-0.1c0,0-0.1-0.1-0.1-0.1c0,0-0.1-0.1-0.1-0.1c0,0,0,0,0,0c0,0,0,0,0,0c0,0-0.1-0.1-0.1-0.1
				c0,0-0.1-0.1-0.1-0.1c0,0,0-0.1-0.1-0.1c0,0,0,0,0,0c0-0.1-0.1-0.1-0.2-0.2c0,0,0,0,0-0.1c0,0,0,0,0,0c-0.1-0.1-0.1-0.2-0.2-0.2
				c0,0,0,0,0,0c0,0,0,0,0,0c0,0,0-0.1-0.1-0.1c0,0-0.1-0.1-0.1-0.1c0,0,0,0,0-0.1c0,0,0,0,0,0c0,0,0,0,0,0c0,0-0.1-0.1-0.1-0.1
				c0,0-0.1-0.1-0.1-0.1c0,0,0,0,0,0c0,0,0,0,0,0c0,0-0.1-0.1-0.1-0.1c0,0-0.1-0.1-0.1-0.1c0,0,0,0,0,0c0,0,0,0,0,0
				c0,0-0.1-0.1-0.1-0.1c0,0-0.1-0.1-0.1-0.1c0,0,0,0,0,0c0,0,0,0,0,0c0,0-0.1-0.1-0.1-0.1c0,0-0.1-0.1-0.1-0.1c0,0,0,0,0,0
				c0,0,0,0,0,0c0,0,0,0,0,0c0,0-0.1,0-0.1-0.1c0,0-0.1-0.1-0.1-0.1c0,0-3.5-2-3.5-2l0,0L270.3,91.7c0,0,0,0,0,0l-0.2-0.1
				c0,0,0,0,0,0c-0.2-0.1-0.4-0.2-0.4-0.2c0,0-0.1-0.1-0.1-0.1c0,0-0.1,0-0.1-0.1c0,0-0.1,0-0.1-0.1c-0.1,0-0.1,0-0.2-0.1
				c-0.1,0-0.1,0-0.1-0.1c-0.1,0-0.1,0-0.2,0c0,0,0,0,0,0c0,0,0,0,0,0c0,0,0,0,0,0c0,0-0.1,0-0.1,0c0,0,0,0-0.1,0c0,0,0,0-0.1,0
				c0,0,0,0,0,0c-0.1,0-0.1,0-0.2,0c0,0,0,0,0,0c0,0,0,0,0,0c-0.1,0-0.1,0-0.2,0c0,0,0,0,0,0c0,0-0.1,0-0.1,0c0,0-0.1,0-0.1,0
				c0,0,0,0,0,0c0,0-0.1,0-0.1,0c0,0,0,0-0.1,0c0,0,0,0,0,0c-0.1,0-0.2,0-0.3,0.1c0,0,0,0,0,0c0,0,0,0,0,0c-0.1,0-0.2,0.1-0.3,0.1
				c0,0-5.8,3.9-5.7,3.9c0,0,142.6,80.8,142.6,80.8l-0.1,0.1c0,0,3.6,1.9,3.7,2c0,0,0.1,0.1,0.1,0.1c0,0,0.1,0.1,0.1,0.1
				c0,0,0.1,0.1,0.1,0.1c0,0,0,0,0.1,0c0.1,0.1,0.2,0.1,0.2,0.2h0l0,0c0.1,0.1,0.2,0.1,0.2,0.2c0,0,0,0,0,0c0.1,0.1,0.1,0.1,0.2,0.2
				c0,0,0,0,0,0c0.1,0.1,0.1,0.1,0.2,0.2c0,0,0,0,0,0c0.1,0.1,0.1,0.1,0.2,0.2c0,0,0.1,0.1,0.1,0.1c0,0,0.1,0.1,0.1,0.1
				c0,0.1,0.1,0.1,0.1,0.2c0,0,0.1,0.1,0.1,0.1c0,0,0,0.1,0.1,0.1c0,0.1,0.1,0.1,0.1,0.2c0,0,0,0,0,0c0.1,0.1,0.1,0.2,0.1,0.2
				c0,0,0,0,0,0c0,0.1,0.1,0.2,0.1,0.3c0,0,0,0,0,0c0,0.1,0.1,0.2,0.1,0.3c0,0,0,0,0,0c0,0.1,0.1,0.2,0.1,0.3c0,0,0,0,0,0
				c0,0.1,0.1,0.2,0.1,0.2c0,0,0,0,0,0c0,0.1,0.1,0.2,0.1,0.3c0,0,0,0,0,0c0,0.1,0,0.2,0.1,0.3c0,0,0,0,0,0c0,0.1,0,0.2,0.1,0.3
				c0,0,0,0.1,0,0.1c0,0,0,0.1,0,0.1c0,0.1,0,0.1,0,0.2c0,0.1,0,0.1,0,0.2c0,0.1,0,0.1,0,0.2c0,0,0,0.1,0,0.1c0,0,0,0.1,0,0.2
				l-0.3,12.7l-2.2,1.2c0,0,0.1,0,0.1,0.1l-2.4,1.3c0,0,1,0.6,1.1,0.6c0,0,0.1,0.1,0.1,0.1c0,0,0.1,0.1,0.1,0.1c0,0,0.1,0.1,0.1,0.1
				c0,0,0,0,0.1,0c0.1,0.1,0.2,0.1,0.2,0.2l0,0l0,0c0.1,0.1,0.2,0.1,0.2,0.2c0,0,0,0,0,0c0.1,0.1,0.1,0.1,0.2,0.2c0,0,0,0,0,0
				c0.1,0.1,0.1,0.1,0.2,0.2c0,0,0,0,0,0c0.1,0.1,0.1,0.1,0.2,0.2c0,0,0.1,0.1,0.1,0.1c0,0,0.1,0.1,0.1,0.1c0,0.1,0.1,0.1,0.1,0.2
				c0,0,0.1,0.1,0.1,0.1c0,0,0,0.1,0.1,0.1c0,0.1,0.1,0.1,0.1,0.2c0,0,0,0,0,0c0.1,0.1,0.1,0.2,0.1,0.2c0,0,0,0,0,0
				c0,0.1,0.1,0.2,0.1,0.3c0,0,0,0,0,0c0,0.1,0.1,0.2,0.1,0.3c0,0,0,0,0,0c0,0.1,0.1,0.2,0.1,0.3c0,0,0,0,0,0c0,0.1,0.1,0.2,0.1,0.2
				c0,0,0,0,0,0c0,0.1,0.1,0.2,0.1,0.3c0,0,0,0,0,0c0,0.1,0,0.2,0.1,0.3c0,0,0,0,0,0c0,0.1,0,0.2,0.1,0.3c0,0,0,0.1,0,0.1
				c0,0,0,0.1,0,0.1l-1.7,64.7c0,0.4-1.2,2.9-0.9,2.8l0.9-0.8l-0.5,19.5c0,0.4-1.2,2.9-0.9,2.8l1.2-1.6c-0.2,0.6-0.2,1.7,0,1.6
				l4.4-3.2c0.7-0.6,1.4-1.3,1.4-2.3l2-85.1c0-0.4,0-1,0-1c0,0,0-0.1,0-0.1c0,0,0-0.1,0-0.1c0,0,0,0,0,0c0,0,0,0,0,0c0,0,0,0,0,0
				c0-0.1,0-0.1,0-0.2c0,0,0-0.1,0-0.1c0,0,0,0,0,0c0,0,0,0,0,0c0,0,0,0,0-0.1l0.5-19.8c0-0.4,0-1,0-1c0,0,0-0.1,0-0.1
				C416.7,179.6,416.7,179.5,416.7,179.5z"/>
			<g>
				<g>
					<path class="st31" d="M407.7,199.5c1.9,1.1,3.5,3.6,3.4,5.5l-2.3,86.5c0,1.9-1.7,2.5-3.6,1.4l-143.5-82.9
						c-1.9-1.1-3.5-3.6-3.4-5.5l2.3-86.5c0.1-1.9,1.7-2.5,3.6-1.4L407.7,199.5z"/>
				</g>
			</g>
			<g>
				<g>
					<g>
						<path class="st4" d="M407.8,189.4c1.9,1.1,3.3,0,3.2,1.9l-2,90.1c0,1.9-1.8,2.5-3.8,1.4L261.8,200c-1.9-1.1-3.5-3.6-3.4-5.5
							l2.3-86.5c0.1-1.9,1.7-2.5,3.6-1.4L407.8,189.4z"/>
					</g>
				</g>
			</g>
			<g>
				<path class="st4" d="M407.8,178.1c1.9,1.1,3.5,3.6,3.4,5.5l-2.1,86.5c0,1.9-1.8,2.5-3.8,1.4l-143.5-82.9
					c-1.9-1.1-3.4,3.1-3.3,1.2l2.2-93.2c0.1-1.9,1.7-2.5,3.6-1.4L407.8,178.1z"/>
			</g>
			<path class="st6" d="M407.5,188.6c0.1-1.6-1.4-3.7-3.2-4.8l-135.9-77.2c-1.8-1-3.4-0.6-3.5,1l-0.4,10.5c-0.1,0.2-0.1,0.4-0.1,0.6
				l-1.9,72.7c-0.1,1.6,2,4.5,3.9,5.6l134.3,76.3c1.8,1,3.4,0.6,3.5-1l0.4-10.5c0.1-0.2,0.1-0.4,0.1-0.6L407.5,188.6z"/>
			<path class="st13" d="M405.8,298.8l0-5.7l-5.5,3.5l-1.2-2.7l-138.2-79.8c-1.7-1-5-0.8-6.9,0.3l-59.9,34.4v-1l-9.1,4.4l-1.3-0.5
				l0.2,4.2c0.1,0.9,0.5,1.3,1.1,1.6l143.8,83.3c1.7,1,4.6,0.9,6.5-0.2l68.9-39.7C405.3,300.3,405.8,299.5,405.8,298.8L405.8,298.8z
				"/>
			<path class="st7" d="M328.7,335.2l-143.8-83c-1.7-1-1.5-2.7,0.5-3.8l68.9-39.8c1.9-1.1,4.9-1.2,6.5-0.3l143.8,83
				c1.7,1,1.5,2.7-0.5,3.8l-68.9,39.8C333.3,336,330.4,336.2,328.7,335.2z"/>
			<g>
				<g>
					<g>
						<path class="st8" d="M262.9,223.7c-0.2,0.1-0.6,0.1-0.9-0.1l-8.7-5c-0.3-0.2-0.4-0.4-0.2-0.5l5.8-3.3c0.2-0.1,0.6-0.1,1,0.1
							l8.7,5c0.3,0.2,0.4,0.4,0.2,0.5L262.9,223.7z"/>
						<path class="st8" d="M273,238.8c-0.2,0.1-0.6,0.1-1-0.1l-8.7-5c-0.3-0.2-0.4-0.4-0.2-0.5l5.8-3.3c0.2-0.1,0.6-0.1,0.9,0.1
							l8.7,5c0.3,0.2,0.4,0.4,0.2,0.5L273,238.8z"/>
						<path class="st8" d="M267.9,245c-0.2,0.1-0.6,0.1-0.9-0.1l-8.7-5c-0.3-0.2-0.4-0.4-0.2-0.5l5.8-3.3c0.2-0.1,0.6-0.1,0.9,0.1
							l8.7,5c0.3,0.2,0.4,0.4,0.2,0.5L267.9,245z"/>
						<path class="st8" d="M254,246.2c-0.2,0.1-0.6,0.1-0.9-0.1l-8.7-5c-0.3-0.2-0.4-0.4-0.2-0.5l5.8-3.3c0.2-0.1,0.6-0.1,0.9,0.1
							l8.7,5c0.3,0.2,0.4,0.4,0.2,0.5L254,246.2z"/>
						<path class="st8" d="M230,242.7c-0.2,0.1-0.6,0.1-0.9-0.1l-8.7-5c-0.3-0.2-0.4-0.4-0.2-0.5l6.8-3.9c0.2-0.1,0.6-0.1,0.9,0.1
							l8.7,5c0.3,0.2,0.4,0.4,0.2,0.5L230,242.7z"/>
						<path class="st8" d="M245.1,251.4c-0.2,0.1-0.7,0-1.1-0.2l-11.4-6.6c-0.4-0.2-0.6-0.5-0.4-0.6l6.8-3.9c0.2-0.1,0.7,0,1.1,0.2
							l11.4,6.6c0.4,0.2,0.6,0.5,0.4,0.7L245.1,251.4z"/>
						<path class="st8" d="M320.2,294.8c-0.2,0.1-0.6,0-0.9-0.1l-8.7-5c-0.3-0.2-0.4-0.4-0.3-0.5l2.5-1.5c0.2-0.1,0.6,0,0.9,0.2
							l8.7,5c0.3,0.2,0.4,0.4,0.3,0.5L320.2,294.8z"/>
						<path class="st8" d="M331.9,301.7c-0.2,0.1-0.6,0-0.9-0.1l-8.7-5c-0.3-0.2-0.4-0.4-0.3-0.5l2.5-1.5c0.2-0.1,0.6,0,0.9,0.2
							l8.7,5c0.3,0.2,0.4,0.4,0.3,0.5L331.9,301.7z"/>
						<path class="st8" d="M344.3,308.7c-0.2,0.1-0.6,0-0.9-0.2l-8.7-5c-0.3-0.2-0.4-0.4-0.3-0.5l2.4-1.4c0.2-0.1,0.6,0,0.9,0.2
							l8.7,5c0.3,0.2,0.4,0.4,0.3,0.5L344.3,308.7z"/>
						<path class="st8" d="M336.7,299.1c-0.2,0.1-0.6,0-0.9-0.2l-8.7-5c-0.3-0.2-0.4-0.4-0.3-0.5l2.4-1.4c0.2-0.1,0.6,0,0.9,0.2
							l8.7,5c0.3,0.2,0.4,0.4,0.3,0.5L336.7,299.1z"/>
						<path class="st8" d="M305.1,286.1c-0.2,0.1-0.6,0.1-1-0.1l-56.8-32.8c-0.3-0.2-0.4-0.4-0.2-0.5l6.8-3.9
							c0.2-0.1,0.6-0.1,0.9,0.1l56.8,32.8c0.3,0.2,0.4,0.4,0.2,0.6L305.1,286.1z"/>
						<path class="st8" d="M243.5,249.2C243.5,249.2,243.5,249.2,243.5,249.2l-6.8-3.9c0,0-0.1,0,0-0.1l0.4-0.2c0,0,0.1,0,0.1,0
							l6.7,3.9c0,0,0.1,0,0,0.1L243.5,249.2z"/>
						<path class="st8" d="M226.4,238.6C226.4,238.6,226.4,238.6,226.4,238.6l-2.9-1.6c0,0,0,0,0,0l0.4-0.2c0,0,0,0,0.1,0l2.8,1.6
							c0,0,0,0,0,0L226.4,238.6z"/>
						<path class="st8" d="M266,253.1c-0.2,0.1-0.6,0.1-0.9-0.1l-8.7-5c-0.3-0.2-0.4-0.4-0.2-0.5l5.8-3.3c0.2-0.1,0.6-0.1,1,0.1
							l8.7,5c0.3,0.2,0.4,0.4,0.2,0.5L266,253.1z"/>
						<path class="st8" d="M278,260c-0.2,0.1-0.6,0.1-0.9-0.1l-8.7-5c-0.3-0.2-0.4-0.4-0.2-0.5l5.8-3.3c0.2-0.1,0.6-0.1,1,0.1l8.7,5
							c0.3,0.2,0.4,0.4,0.2,0.5L278,260z"/>
						<path class="st8" d="M290.1,267c-0.2,0.1-0.6,0.1-0.9-0.1l-8.7-5c-0.3-0.2-0.4-0.4-0.2-0.5l5.8-3.3c0.2-0.1,0.6-0.1,0.9,0.1
							l8.7,5c0.3,0.2,0.4,0.4,0.2,0.5L290.1,267z"/>
						<path class="st8" d="M302.1,273.9c-0.2,0.1-0.6,0.1-0.9-0.1l-8.7-5c-0.3-0.2-0.4-0.4-0.2-0.5l5.8-3.3c0.2-0.1,0.6-0.1,1,0.1
							l8.7,5c0.3,0.2,0.4,0.4,0.2,0.5L302.1,273.9z"/>
						<path class="st8" d="M314.1,280.9c-0.2,0.1-0.6,0.1-1-0.1l-8.7-5c-0.3-0.2-0.4-0.4-0.2-0.5l5.8-3.3c0.2-0.1,0.6-0.1,0.9,0.1
							l8.7,5c0.3,0.2,0.4,0.4,0.2,0.6L314.1,280.9z"/>
						<path class="st8" d="M326.1,287.8c-0.2,0.1-0.6,0.1-0.9-0.1l-8.7-5c-0.3-0.2-0.4-0.4-0.2-0.5l5.8-3.3c0.2-0.1,0.6-0.1,1,0.1
							l8.7,5c0.3,0.2,0.4,0.4,0.2,0.5L326.1,287.8z"/>
						<path class="st8" d="M353.2,303.4c-0.2,0.1-0.6,0.1-0.9-0.1l-23.8-13.7c-0.3-0.2-0.4-0.4-0.2-0.5l5.8-3.3
							c0.2-0.1,0.6-0.1,1,0.1l23.8,13.7c0.3,0.2,0.4,0.4,0.2,0.5L353.2,303.4z"/>
						<path class="st8" d="M279.9,251.9c-0.2,0.1-0.6,0.1-0.9-0.1l-8.7-5c-0.3-0.2-0.4-0.4-0.2-0.5l5.8-3.3c0.2-0.1,0.6-0.1,0.9,0.1
							l8.7,5c0.3,0.2,0.4,0.4,0.2,0.5L279.9,251.9z"/>
						<path class="st8" d="M291.9,258.8c-0.2,0.1-0.6,0.1-0.9-0.1l-8.7-5c-0.3-0.2-0.4-0.4-0.2-0.5l5.8-3.3c0.2-0.1,0.6-0.1,0.9,0.1
							l8.7,5c0.3,0.2,0.4,0.4,0.2,0.5L291.9,258.8z"/>
						<path class="st8" d="M303.9,265.8c-0.2,0.1-0.6,0.1-0.9-0.1l-8.7-5c-0.3-0.2-0.4-0.4-0.2-0.5l5.8-3.3c0.2-0.1,0.6-0.1,0.9,0.1
							l8.7,5c0.3,0.2,0.4,0.4,0.2,0.5L303.9,265.8z"/>
						<path class="st8" d="M315.9,272.7c-0.2,0.1-0.6,0.1-0.9-0.1l-8.7-5c-0.3-0.2-0.4-0.4-0.2-0.5l5.8-3.3c0.2-0.1,0.6-0.1,0.9,0.1
							l8.7,5c0.3,0.2,0.4,0.4,0.2,0.5L315.9,272.7z"/>
						<path class="st8" d="M328,279.7c-0.2,0.1-0.6,0.1-0.9-0.1l-8.7-5c-0.3-0.2-0.4-0.4-0.2-0.5l5.8-3.3c0.2-0.1,0.6-0.1,0.9,0.1
							l8.7,5c0.3,0.2,0.4,0.4,0.2,0.5L328,279.7z"/>
						<path class="st8" d="M340,286.6c-0.2,0.1-0.6,0.1-0.9-0.1l-8.7-5c-0.3-0.2-0.4-0.4-0.2-0.5l5.8-3.3c0.2-0.1,0.6-0.1,0.9,0.1
							l8.7,5c0.3,0.2,0.4,0.4,0.2,0.5L340,286.6z"/>
						<path class="st8" d="M352,293.5c-0.2,0.1-0.6,0.1-0.9-0.1l-8.7-5c-0.3-0.2-0.4-0.4-0.2-0.5l5.8-3.3c0.2-0.1,0.6-0.1,0.9,0.1
							l8.7,5c0.3,0.2,0.4,0.4,0.2,0.5L352,293.5z"/>
						<path class="st8" d="M285,245.7c-0.2,0.1-0.6,0.1-1-0.1l-8.7-5c-0.3-0.2-0.4-0.4-0.2-0.5l5.8-3.3c0.2-0.1,0.6-0.1,0.9,0.1
							l8.7,5c0.3,0.2,0.4,0.4,0.2,0.5L285,245.7z"/>
						<path class="st8" d="M297,252.6c-0.2,0.1-0.6,0.1-0.9-0.1l-8.7-5c-0.3-0.2-0.4-0.4-0.2-0.5l5.8-3.3c0.2-0.1,0.6-0.1,0.9,0.1
							l8.7,5c0.3,0.2,0.4,0.4,0.2,0.5L297,252.6z"/>
						<path class="st8" d="M309,259.5c-0.2,0.1-0.6,0.1-1-0.1l-8.7-5c-0.3-0.2-0.4-0.4-0.2-0.5l5.8-3.3c0.2-0.1,0.6-0.1,0.9,0.1
							l8.7,5c0.3,0.2,0.4,0.4,0.2,0.5L309,259.5z"/>
						<path class="st8" d="M321.1,266.5c-0.2,0.1-0.6,0.1-0.9-0.1l-8.7-5c-0.3-0.2-0.4-0.4-0.2-0.5l5.8-3.3c0.2-0.1,0.6-0.1,0.9,0.1
							l8.7,5c0.3,0.2,0.4,0.4,0.2,0.5L321.1,266.5z"/>
						<path class="st8" d="M333.1,273.4c-0.2,0.1-0.6,0.1-0.9-0.1l-8.7-5c-0.3-0.2-0.4-0.4-0.2-0.5l5.8-3.3c0.2-0.1,0.6-0.1,0.9,0.1
							l8.7,5c0.3,0.2,0.4,0.4,0.2,0.5L333.1,273.4z"/>
						<path class="st8" d="M345.1,280.3c-0.2,0.1-0.6,0.1-1-0.1l-8.7-5c-0.3-0.2-0.4-0.4-0.2-0.5l5.8-3.3c0.2-0.1,0.6-0.1,0.9,0.1
							l8.7,5c0.3,0.2,0.4,0.4,0.2,0.5L345.1,280.3z"/>
						<path class="st8" d="M357.1,287.3c-0.2,0.1-0.6,0.1-0.9-0.1l-8.7-5c-0.3-0.2-0.4-0.4-0.2-0.5l5.8-3.3c0.2-0.1,0.6-0.1,0.9,0.1
							l8.7,5c0.3,0.2,0.4,0.4,0.2,0.5L357.1,287.3z"/>
						<path class="st8" d="M261,231.8c-0.2,0.1-0.6,0.1-1-0.1l-14.8-8.5c-0.3-0.2-0.4-0.4-0.2-0.5l5.8-3.3c0.2-0.1,0.6-0.1,0.9,0.1
							l14.8,8.5c0.3,0.2,0.4,0.4,0.2,0.5L261,231.8z"/>
						<path class="st8" d="M377.1,289.6c-0.2,0.1-0.6,0.1-0.9-0.1l-14.8-8.5c-0.3-0.2-0.4-0.4-0.2-0.5l5.8-3.3
							c0.2-0.1,0.6-0.1,0.9,0.1l14.8,8.5c0.3,0.2,0.4,0.4,0.2,0.5L377.1,289.6z"/>
						<path class="st8" d="M255.9,238.1c-0.2,0.1-0.6,0.1-0.9-0.1l-17.7-10.2c-0.3-0.2-0.4-0.4-0.2-0.5l5.8-3.3
							c0.2-0.1,0.6-0.1,0.9,0.1l17.7,10.2c0.3,0.2,0.4,0.4,0.2,0.5L255.9,238.1z"/>
						<path class="st8" d="M242,239.3c-0.2,0.1-0.6,0.1-0.9-0.1l-11.8-6.8c-0.3-0.2-0.4-0.4-0.2-0.5l5.8-3.3c0.2-0.1,0.6-0.1,1,0.1
							l11.8,6.8c0.3,0.2,0.4,0.4,0.2,0.5L242,239.3z"/>
						<path class="st8" d="M274.9,230.6c-0.2,0.1-0.6,0.1-1-0.1l-8.7-5c-0.3-0.2-0.4-0.4-0.2-0.5l5.8-3.3c0.2-0.1,0.6-0.1,1,0.1
							l8.7,5c0.3,0.2,0.4,0.4,0.2,0.5L274.9,230.6z"/>
						<path class="st8" d="M286.9,237.5c-0.2,0.1-0.6,0.1-1-0.1l-8.7-5c-0.3-0.2-0.4-0.4-0.2-0.5l5.8-3.3c0.2-0.1,0.6-0.1,0.9,0.1
							l8.7,5c0.3,0.2,0.4,0.4,0.2,0.5L286.9,237.5z"/>
						<path class="st8" d="M298.9,244.5c-0.2,0.1-0.6,0.1-0.9-0.1l-8.7-5c-0.3-0.2-0.4-0.4-0.2-0.5l5.8-3.3c0.2-0.1,0.6-0.1,0.9,0.1
							l8.7,5c0.3,0.2,0.4,0.4,0.2,0.5L298.9,244.5z"/>
						<path class="st8" d="M310.9,251.4c-0.2,0.1-0.6,0.1-1-0.1l-8.7-5c-0.3-0.2-0.4-0.4-0.2-0.5l5.8-3.3c0.2-0.1,0.6-0.1,1,0.1
							l8.7,5c0.3,0.2,0.4,0.4,0.2,0.5L310.9,251.4z"/>
						<path class="st8" d="M322.9,258.4c-0.2,0.1-0.6,0.1-0.9-0.1l-8.7-5c-0.3-0.2-0.4-0.4-0.2-0.5l5.8-3.3c0.2-0.1,0.6-0.1,1,0.1
							l8.7,5c0.3,0.2,0.4,0.4,0.2,0.5L322.9,258.4z"/>
						<path class="st8" d="M335,265.3c-0.2,0.1-0.6,0.1-0.9-0.1l-8.7-5c-0.3-0.2-0.4-0.4-0.2-0.5l5.8-3.3c0.2-0.1,0.6-0.1,0.9,0.1
							l8.7,5c0.3,0.2,0.4,0.4,0.2,0.5L335,265.3z"/>
						<path class="st8" d="M347,272.2c-0.2,0.1-0.6,0.1-0.9-0.1l-8.7-5c-0.3-0.2-0.4-0.4-0.2-0.5l5.8-3.3c0.2-0.1,0.6-0.1,1,0.1
							l8.7,5c0.3,0.2,0.4,0.4,0.2,0.5L347,272.2z"/>
						<path class="st8" d="M359,279.2c-0.2,0.1-0.6,0.1-0.9-0.1l-8.7-5c-0.3-0.2-0.4-0.4-0.2-0.5l5.8-3.3c0.2-0.1,0.6-0.1,0.9,0.1
							l8.7,5c0.3,0.2,0.4,0.4,0.2,0.5L359,279.2z"/>
						<path class="st8" d="M366,285.3c-0.1-0.1-0.3-0.1-0.5-0.2c-0.2,0-0.3,0-0.4,0.1l-5.8,3.3c-0.1,0.1-0.1,0.1-0.1,0.3
							c0,0.1,0.1,0.2,0.3,0.3l2.3,1.3l-7.6,4.4c-0.1,0.1-0.1,0.1-0.1,0.3c0,0.1,0.1,0.2,0.3,0.3l5.9,3.4c0.1,0.1,0.3,0.1,0.5,0.2
							c0.2,0,0.3,0,0.4-0.1l13.8-7.9c0.1-0.1,0.1-0.1,0.1-0.3c0-0.1-0.1-0.2-0.3-0.3L366,285.3z"/>
						<path class="st8" d="M240.5,236.5C240.4,236.5,240.4,236.4,240.5,236.5l-6.8-3.9c0,0-0.1,0,0-0.1l0.4-0.2c0,0,0.1,0,0.1,0
							l6.7,3.9c0,0,0.1,0,0,0.1L240.5,236.5z"/>
					</g>
				</g>
			</g>
			<g>
				<g>
					
						<linearGradient id="SVGID_1_" gradientUnits="userSpaceOnUse" x1="388.9311" y1="334.8837" x2="414.0391" y2="291.3954" gradientTransform="matrix(1.0282 0.1029 -6.100000e-03 0.9297 -56.1729 -128.9276)">
						<stop  offset="0" style="stop-color:#B6BDFD"/>
						<stop  offset="4.479021e-02" style="stop-color:#B2BAFD"/>
						<stop  offset="0.6735" style="stop-color:#808DFE"/>
						<stop  offset="0.9837" style="stop-color:#6D7CFF"/>
					</linearGradient>
					<path class="st44" d="M298.6,188.3c0,0,5.1-5.4,14.5-0.1c7.2,4,3.4,3.4,12,6.6c5.1,1.8,13-5.4,25.6,0.8
						c22.7,11.2,30.7-6.6,40.6,4.4l-0.3,47.6l-92.5-52L298.6,188.3z"/>
					<path class="st79" d="M298.5,196.1C298.5,196.1,298.5,196.1,298.5,196.1c-0.2,0-0.3-0.1-0.3-0.3l0.3-47.5
						c0-0.2,0.1-0.3,0.3-0.3c0.2,0,0.3,0.1,0.3,0.3l-0.3,47.5C298.8,195.9,298.7,196.1,298.5,196.1z"/>
					<path class="st79" d="M321.6,208.5C321.6,208.5,321.6,208.5,321.6,208.5c-0.2,0-0.3-0.1-0.3-0.3l0.3-47.5
						c0-0.2,0.1-0.3,0.3-0.3c0,0,0,0,0,0c0.2,0,0.3,0.1,0.3,0.3l-0.3,47.5C321.9,208.3,321.7,208.5,321.6,208.5z"/>
					<path class="st79" d="M344.6,221.5C344.6,221.5,344.6,221.5,344.6,221.5c-0.2,0-0.3-0.1-0.3-0.3l0.3-47.5
						c0-0.2,0.1-0.3,0.3-0.3c0,0,0,0,0,0c0.2,0,0.3,0.1,0.3,0.3l-0.3,47.5C344.9,221.4,344.8,221.5,344.6,221.5z"/>
					<path class="st79" d="M367.6,234.5C367.6,234.5,367.6,234.5,367.6,234.5c-0.2,0-0.3-0.1-0.3-0.3l0.3-47.5
						c0-0.2,0.1-0.3,0.3-0.3c0,0,0,0,0,0c0.2,0,0.3,0.1,0.3,0.3l-0.3,47.5C367.9,234.3,367.8,234.5,367.6,234.5z"/>
					<path class="st79" d="M390.6,248.2C390.6,248.2,390.6,248.2,390.6,248.2c-0.2,0-0.3-0.1-0.3-0.3l0.3-47.5
						c0-0.2,0.1-0.3,0.3-0.3c0,0,0,0,0,0c0.2,0,0.3,0.1,0.3,0.3l-0.3,47.5C390.9,248.1,390.8,248.2,390.6,248.2z"/>
					<path class="st79" d="M390.7,195.7l-3-1.9c-0.3-0.2-0.6-0.7-0.6-1.1l0,0c0-0.4,0.3-0.6,0.6-0.4l3,1.9c0.3,0.2,0.6,0.7,0.6,1.1
						l0,0C391.3,195.7,391,195.9,390.7,195.7z"/>
					<path class="st79" d="M390.1,250.3l-3-1.9c0,0,0,0,0,0l-2.3-1.4c-0.3-0.2-0.6,0-0.6,0.4c0,0.4,0.3,0.9,0.6,1.1l3,1.9
						c0,0,0,0,0,0l2.3,1.4c0.3,0.2,0.6,0,0.6-0.4C390.7,251,390.4,250.5,390.1,250.3z"/>
					<path class="st79" d="M364.9,235.3l-3-1.9c0,0,0,0,0,0l-2.3-1.4c-0.3-0.2-0.6,0-0.6,0.4c0,0.4,0.3,0.9,0.6,1.1l3,1.9
						c0,0,0,0,0,0l2.3,1.4c0.3,0.2,0.6,0,0.6-0.4C365.5,236,365.2,235.5,364.9,235.3z"/>
					<path class="st79" d="M341.3,221.5l-3-1.9c0,0,0,0,0,0l-2.3-1.4c-0.3-0.2-0.6,0-0.6,0.4c0,0.4,0.3,0.9,0.6,1.1l3,1.9
						c0,0,0,0,0,0l2.3,1.4c0.3,0.2,0.6,0,0.6-0.4C341.9,222.2,341.6,221.7,341.3,221.5z"/>
					<path class="st79" d="M319,208.6l-3-1.9c0,0,0,0,0,0l-2.3-1.4c-0.3-0.2-0.6,0-0.6,0.4c0,0.4,0.3,0.9,0.6,1.1l3,1.9c0,0,0,0,0,0
						l2.3,1.4c0.3,0.2,0.6,0,0.6-0.4C319.6,209.3,319.4,208.8,319,208.6z"/>
					<path class="st79" d="M367.3,183.4l-3-1.9c-0.3-0.2-0.6-0.7-0.6-1.1l0,0c0-0.4,0.3-0.6,0.6-0.4l3,1.9c0.3,0.2,0.6,0.7,0.6,1.1
						l0,0C367.9,183.4,367.7,183.6,367.3,183.4z"/>
					<path class="st79" d="M344.5,171.2l-3-1.9c-0.3-0.2-0.6-0.7-0.6-1.1l0,0c0-0.4,0.3-0.6,0.6-0.4l3,1.9c0.3,0.2,0.6,0.7,0.6,1.1
						l0,0C345.1,171.3,344.8,171.4,344.5,171.2z"/>
					<path class="st79" d="M321.3,158.8l-3-1.9c-0.3-0.2-0.6-0.7-0.6-1.1l0,0c0-0.4,0.3-0.6,0.6-0.4l3,1.9c0.3,0.2,0.6,0.7,0.6,1.1
						l0,0C321.9,158.9,321.6,159,321.3,158.8z"/>
					<path class="st79" d="M298.4,146.3l-3-1.9c-0.3-0.2-0.6-0.7-0.6-1.1l0,0c0-0.4,0.3-0.6,0.6-0.4l3,1.9c0.3,0.2,0.6,0.7,0.6,1.1
						l0,0C299,146.3,298.8,146.5,298.4,146.3z"/>
					<path class="st79" d="M295.3,195.4l-3-1.9c0,0,0,0,0,0l-2.3-1.4c-0.3-0.2-0.6,0-0.6,0.4c0,0.4,0.3,0.9,0.6,1.1l3,1.9
						c0,0,0,0,0,0l2.3,1.4c0.3,0.2,0.6,0,0.6-0.4C295.9,196.2,295.7,195.7,295.3,195.4z"/>
				</g>
			</g>
		</g>
		<g>
			<path class="st5" d="M129.5,171.6c-0.1-4.4,2-8.4,5.5-10.5l53.5-31.8c2.9-1.7,5.4,0.4,5.4,4.7l0.6,38.9c0.1,4.1-1.9,7.8-5.1,9.7
				l-49.1,29.2c-4.5,2.7-10.2-1.2-10.3-7L129.5,171.6z"/>
			<g>
				<g>
					
						<ellipse transform="matrix(0.4108 -0.9117 0.9117 0.4108 -75.1375 240.7574)" class="st7" cx="148.7" cy="178.5" rx="17.9" ry="10"/>
				</g>
			</g>
			<path class="st11" d="M153.9,183.2c0.7-0.5,1.1-1.4,1.1-2.4c-0.2-2-1.2-2.9-2-2.9c-0.3,0-0.6,0.1-1,0.1c-0.2,0-0.4,0-0.5,0l0,0
				l0,0c-0.1,0-0.3,0-0.4,0.1l-0.1,0l0,0l-0.2,0c0,0,0,0,0,0c-0.1,0-0.1-0.1-0.2-0.1c0,0-0.1-0.1-0.1-0.1c0,0,0-0.1,0-0.1
				c0-0.4,0-0.8,0-1.3c0,0,0,0,0,0c0.2-0.3,0.3-0.7,0.4-1.1c0.1-0.3,0.1-0.5,0.1-0.8c0.5-0.3,0.6-1.3,0.7-1.9
				c0.1-0.5,0.1-1.7-0.4-1.3c0-0.1,0-0.1,0-0.2c0.1-0.4,0.1-0.8,0.1-1.2c0-0.4,0-0.7-0.2-1c0-0.1-0.1-0.1-0.2-0.1
				c0-0.1,0.1-0.2,0.1-0.3c0-0.9-0.6-1-1.1-1c-0.6,0.1-1.3,0.4-2,1c-0.7,0.6-1.3,1.7-1.6,2.9c0,0.2-0.1,0.3-0.1,0.4
				c-0.1,0.1-0.1,0.2-0.1,0.3c-0.1,0.4-0.2,0.8-0.2,1.2c0,0.4,0.1,0.7,0.1,1c0,0.1,0,0.1,0,0.2c-0.4,0.4-0.4,1.4-0.3,1.8
				c0.1,0.6,0.2,1.3,0.7,1c0.1,0.6,0.3,1,0.6,1.2c0,0.4,0,0.8,0,1.2c0,0.1,0,0.1,0,0.2c0,0-0.1,0.1-0.1,0.1
				c-0.1,0.2-0.2,0.3-0.4,0.5l-0.8,0.9l0,0c-0.1,0.1-0.3,0.3-0.4,0.4c-0.4,0.4-0.8,0.9-1.1,1.2c-0.3,0.3-0.6,0.7-0.9,1.1l0,0
				c-0.3,0.5-0.7,1.7-0.9,2.9c-0.3,1.3,1,2.4,2,1.7L153.9,183.2z M146.1,176.6c0,0,0-0.1,0-0.1C146.1,176.5,146.1,176.5,146.1,176.6
				z"/>
			<g>
				<g>
					<polygon class="st7" points="166.3,161.8 182.7,151.5 182.8,157.7 166.4,168 					"/>
				</g>
			</g>
			<g>
				<g>
					<polygon class="st7" points="191.6,158.6 191.7,164.9 166.8,180.5 166.7,174.2 					"/>
				</g>
			</g>
			<path class="st7" d="M142.5,200.7c-1.4,0-2.8-0.3-4-1c-3.3-1.9-5.3-6.1-5.4-11.7c-0.2-10.8,6.5-23.5,14.8-28.4
				c3.8-2.2,7.5-2.6,10.4-0.9c3.3,1.9,5.3,6.1,5.4,11.7c0.2,10.8-6.5,23.5-14.8,28.4C146.6,200,144.5,200.7,142.5,200.7z
				 M133.7,187.9c0.1,5.4,1.9,9.4,5,11.2c2.7,1.5,6.2,1.2,9.8-0.9c8.2-4.8,14.7-17.3,14.5-27.8c-0.1-5.4-1.9-9.4-5-11.2
				c-2.7-1.5-6.2-1.2-9.8,0.9C140.1,164.9,133.6,177.4,133.7,187.9L133.7,187.9z"/>
		</g>
		<g>
			<g>
				<g>
					<path class="st81" d="M282.9,128.7c0,0-16,3.8-24.9-16.7c-5.8,7.3-14.5,1.8-19.9-3.2l-5-5.3c-3.2,1.3-5.1,2.1-8.1,4.3l2.1,3.5
						l0.6,1c-7.8,22.1,12.9,58.3,16.7,63.9c4.3,6.4,11.5,16.5,11.5,16.5s10.7-1,15.1-3C275.3,187.4,298.1,167.2,282.9,128.7z"/>
					<path class="st13" d="M274.7,133c0,0-16,3.8-24.9-16.7c-9.1,11.4-24.9-8.5-24.9-8.5c-19.6,19.6,7,66.1,11.3,72.5
						c3,4.4,7.3,10.5,9.7,13.9c1.1,1.6,2.9,2.5,4.5,2.3c3.5-0.4,9.5-1.3,12.4-2.7C267.2,191.7,294,172.2,274.7,133z"/>
					<path class="st11" d="M268.4,138.1c0,0-12.7,3-19.7-13.3c-7.2,9.1-19.8-6.7-19.8-6.7c-15.5,15.5,5.5,52.4,9,57.5
						c1.8,2.7,4.4,6.6,6.3,9.6c1.8,2.7,4.7,4.1,7.3,3.4c2.6-0.7,5.7-1.5,7.5-2.4C262.4,184.7,283.7,169.2,268.4,138.1z"/>
					<path class="st4" d="M268.4,138.1c0,0-12.7,3-19.7-13.3l0.5,63.9c0.8,0.1,1.6,0.1,2.4-0.1c2.6-0.7,5.7-1.5,7.5-2.4
						C262.4,184.7,283.7,169.2,268.4,138.1z"/>
				</g>
			</g>
			<path class="st7" d="M246.7,168.4C246.6,168.4,246.6,168.4,246.7,168.4c-0.9,0-1.7-0.5-2.2-1.2l-11-15.8
				c-0.8-1.2-0.5-2.9,0.7-3.8c1.2-0.8,2.9-0.5,3.8,0.7l8.9,12.9l10.5-13.3c0.9-1.2,2.6-1.4,3.8-0.4c1.2,0.9,1.4,2.6,0.4,3.8
				l-12.8,16.1C248.3,168,247.5,168.4,246.7,168.4z"/>
		</g>
		<g>
			<path class="st3" d="M191.7,315.1L191.7,315.1c-2.2-1.3-0.7-3.4,2.4-3.4l0,0c3.5,0,6.3-1.6,6.3-3.7l0-1c0-2-2.9-3.7-6.4-3.7v0
				c-3.1,0-4.7-2.2-2.5-3.4l0,0c2.5-1.4,2.5-3.7,0-5.2l-1.3-0.7c-2.5-1.4-6.5-1.4-9,0l0,0c-2.2,1.3-5.9,0.4-5.9-1.4v0
				c0-2-2.9-3.7-6.4-3.7l-1.8,0c-3.5,0-6.3,1.6-6.3,3.7l0,0c0,1.8-3.7,2.7-5.9,1.4l0,0c-2.5-1.4-6.5-1.4-9,0l-1.3,0.7
				c-2.5,1.4-2.5,3.7,0,5.2c2.2,1.3,0.7,3.4-2.4,3.4l0,0c-3.5,0-6.3,1.6-6.3,3.7l0,1c0,2,2.9,3.7,6.4,3.7h0c3.1,0,4.7,2.2,2.5,3.4h0
				c-2.5,1.4-2.5,3.7,0,5.2l1.3,0.7c2.5,1.4,6.5,1.4,9,0c2.2-1.3,5.9-0.4,5.9,1.4c0,2,2.9,3.7,6.4,3.7l1.8,0c3.5,0,6.3-1.6,6.3-3.7
				v0c0-1.8,3.7-2.7,5.9-1.4l0,0c2.5,1.4,6.5,1.4,9,0l1.3-0.7C194.2,318.9,194.2,316.6,191.7,315.1z M157.1,313.9
				c-6.2-3.6-6.2-9.3-0.1-12.9c6.1-3.5,16.1-3.5,22.3,0c6.2,3.6,6.2,9.3,0.1,12.9C173.3,317.5,163.3,317.5,157.1,313.9z"/>
			<g>
				<path class="st24" d="M196.8,304.2l0-8.6l-5-0.8l-2.2-1c-0.2-0.7-0.8-1.3-1.7-1.8l-1.3-0.7c-0.3-0.2-0.6-0.3-0.9-0.4l3.8-0.2
					l0.2-5.8l-16.6-2l-1.6-3.9l-14.3,0.4l2,3.7c-3.7,0.3-8.5,0.6-8.5,0.6l-0.8,1c-1.5-0.1-10.7-0.8-10.7-0.8v7.5l3.4-0.6
					c-0.1,0.1-0.2,0.1-0.3,0.2l-1.3,0.7c-0.9,0.5-1.5,1.2-1.7,1.9l-7,0.5l0,9.4l0.1,0c0,0.2-0.1,0.3-0.1,0.5l0,1
					c0,2,2.9,3.7,6.4,3.7h0c0.2,0,0.4,0,0.6,0l0,5.9l0,0c0,1,0.6,1.9,1.9,2.7l1.3,0.7c2.5,1.4,6.5,1.4,9,0c2.2-1.3,5.9-0.4,5.9,1.4
					c0,2,2.9,3.7,6.4,3.7l1.8,0c3.5,0,6.3-1.6,6.3-3.7l0,0c0-1.8,3.7-2.7,5.9-1.4l0,0c2.5,1.4,6.5,1.4,9,0l1.3-0.7
					c1.5-0.9,2.1-2.1,1.7-3.3h0V309c0.2,0,0.4,0,0.7,0c3.4,0,6.1-1.5,6.3-3.5l0,0l0-0.1c0,0,0-0.1,0-0.1L196.8,304.2
					C196.8,304.2,196.8,304.2,196.8,304.2z M165,306.4c-6.2,0-11.2-2.9-11.2-6.5c0-3.6,5-6.5,11.2-6.5c6.2,0,11.2,2.9,11.2,6.5
					C176.1,303.5,171.1,306.4,165,306.4z"/>
				<g>
					<path class="st7" d="M188,302.5L188,302.5c-2.2-1.3-0.7-3.4,2.4-3.4h0c3.5,0,6.3-1.6,6.3-3.7l0-1c0-2-2.9-3.7-6.4-3.7h0
						c-3.1,0-4.7-2.2-2.5-3.4h0c2.5-1.4,2.5-3.7,0-5.2l-1.3-0.7c-2.5-1.4-6.5-1.4-9,0l0,0c-2.2,1.3-5.9,0.4-5.9-1.4v0
						c0-2-2.9-3.7-6.4-3.7l-1.8,0c-3.5,0-6.3,1.6-6.3,3.7v0c0,1.8-3.7,2.7-5.9,1.4l0,0c-2.5-1.4-6.5-1.4-9,0L141,282
						c-2.5,1.4-2.5,3.7,0,5.2c2.2,1.3,0.7,3.4-2.4,3.4h0c-3.5,0-6.3,1.6-6.3,3.7l0,1c0,2,2.9,3.7,6.4,3.7h0c3.1,0,4.7,2.2,2.5,3.4h0
						c-2.5,1.4-2.5,3.7,0,5.2l1.3,0.7c2.5,1.4,6.5,1.4,9,0c2.2-1.3,5.9-0.4,5.9,1.4c0,2,2.9,3.7,6.4,3.7l1.8,0
						c3.5,0,6.3-1.6,6.3-3.7v0c0-1.8,3.7-2.7,5.9-1.4l0,0c2.5,1.4,6.5,1.4,9,0l1.3-0.7C190.5,306.2,190.5,303.9,188,302.5z
						 M153.4,301.2c-6.2-3.6-6.2-9.3-0.1-12.9c6.1-3.5,16.1-3.5,22.3,0s6.2,9.3,0.1,12.9C169.6,304.8,159.6,304.8,153.4,301.2z"/>
				</g>
			</g>
		</g>
		<g>
			<path class="st3" d="M258.3,336.8L258.3,336.8c-1.9-1.1-0.6-2.9,2.1-2.9l0,0c3,0,5.5-1.4,5.4-3.1l0-0.9c0-1.7-2.5-3.2-5.5-3.2v0
				c-2.7,0-4-1.9-2.1-2.9l0,0c2.1-1.2,2.1-3.2,0-4.5l-1.1-0.6c-2.1-1.2-5.6-1.2-7.7,0l0,0c-1.9,1.1-5.1,0.3-5.1-1.2v0
				c0-1.7-2.5-3.2-5.5-3.2l-1.6,0c-3,0-5.5,1.4-5.4,3.1h0c0,1.5-3.2,2.3-5.1,1.2v0c-2.1-1.2-5.6-1.2-7.7,0l-1.1,0.6
				c-2.1,1.2-2.1,3.2,0,4.5c1.9,1.1,0.6,2.9-2.1,2.9l0,0c-3,0-5.5,1.4-5.4,3.1l0,0.9c0,1.7,2.5,3.2,5.5,3.2h0c2.7,0,4,1.9,2.1,2.9h0
				c-2.1,1.2-2.1,3.2,0,4.5l1.1,0.6c2.1,1.2,5.6,1.2,7.7,0c1.9-1.1,5.1-0.3,5.1,1.2c0,1.7,2.5,3.2,5.5,3.2l1.6,0
				c3,0,5.5-1.4,5.4-3.1v0c0-1.5,3.2-2.3,5.1-1.2l0,0c2.1,1.2,5.6,1.2,7.7,0l1.1-0.6C260.4,340,260.4,338,258.3,336.8z M228.5,335.7
				c-5.3-3.1-5.3-8-0.1-11.1c5.3-3,13.8-3,19.2,0c5.3,3.1,5.3,8,0.1,11.1C242.4,338.8,233.8,338.8,228.5,335.7z"/>
			<g>
				<path class="st24" d="M261.8,327.8l0-6.8l-3.9-0.6l-1.7-0.8c-0.2-0.5-0.6-1-1.4-1.4l-1-0.6c-0.2-0.1-0.4-0.2-0.7-0.3l3-0.1
					l0.2-4.5l-13-1.5l-1.3-3l-11.2,0.3l1.6,2.9c-2.9,0.2-6.6,0.5-6.6,0.5l-0.6,0.8c-1.2-0.1-8.4-0.6-8.4-0.6v5.9l2.6-0.5
					c-0.1,0-0.2,0.1-0.2,0.1l-1,0.6c-0.7,0.4-1.2,0.9-1.4,1.5l-5.5,0.4l0,7.3l0,0c0,0.1,0,0.3,0,0.4l0,0.8c0,1.6,2.2,2.9,5,2.9h0
					c0.2,0,0.3,0,0.5,0l0,4.6l0,0c0,0.8,0.5,1.5,1.5,2.1l1,0.6c1.9,1.1,5.1,1.1,7,0c1.7-1,4.6-0.3,4.7,1.1c0,1.6,2.2,2.9,5,2.9
					l1.4,0c2.7,0,5-1.3,5-2.9l0,0c0-1.4,2.9-2.1,4.6-1.1l0,0c1.9,1.1,5.1,1.1,7,0l1-0.6c1.2-0.7,1.7-1.7,1.4-2.6h0v-4.1
					c0.2,0,0.3,0,0.5,0c2.7,0,4.8-1.2,4.9-2.7l0,0l0-0.1c0,0,0,0,0-0.1L261.8,327.8C261.8,327.8,261.8,327.8,261.8,327.8z
					 M236.9,329.5c-4.8,0-8.7-2.3-8.7-5.1c0-2.8,3.9-5.1,8.7-5.1c4.8,0,8.7,2.3,8.7,5.1C245.6,327.2,241.7,329.5,236.9,329.5z"/>
				<g>
					<path class="st7" d="M254.9,326.4L254.9,326.4c-1.7-1-0.5-2.7,1.9-2.7h0c2.7,0,5-1.3,5-2.9l0-0.8c0-1.6-2.2-2.9-5-2.9h0
						c-2.4,0-3.6-1.7-1.9-2.7h0c1.9-1.1,1.9-2.9,0-4.1l-1-0.6c-1.9-1.1-5.1-1.1-7,0l0,0c-1.7,1-4.6,0.3-4.7-1.1v0
						c0-1.6-2.2-2.9-5-2.9l-1.4,0c-2.7,0-5,1.3-5,2.9v0c0,1.4-2.9,2.1-4.6,1.1h0c-1.9-1.1-5.1-1.1-7,0l-1,0.6
						c-1.9,1.1-1.9,2.9,0,4.1c1.7,1,0.5,2.7-1.9,2.7l0,0c-2.7,0-5,1.3-5,2.9l0,0.8c0,1.6,2.2,2.9,5,2.9h0c2.4,0,3.6,1.7,1.9,2.7h0
						c-1.9,1.1-1.9,2.9,0,4.1l1,0.6c1.9,1.1,5.1,1.1,7,0c1.7-1,4.6-0.3,4.7,1.1c0,1.6,2.2,2.9,5,2.9l1.4,0c2.7,0,5-1.3,5-2.9v0
						c0-1.4,2.9-2.1,4.6-1.1l0,0c1.9,1.1,5.1,1.1,7,0l1-0.6C256.9,329.4,256.9,327.6,254.9,326.4z M227.8,325.5
						c-4.8-2.8-4.9-7.3-0.1-10.1c4.8-2.8,12.6-2.8,17.4,0c4.8,2.8,4.9,7.3,0.1,10.1C240.5,328.3,232.7,328.2,227.8,325.5z"/>
				</g>
			</g>
		</g>
		<g>
			<polygon class="st10" points="342.6,53.1 356.2,42.1 398.4,106.8 385.2,117.5 			"/>
			
				<ellipse transform="matrix(0.8633 -0.5047 0.5047 0.8633 13.5649 200.2817)" class="st10" cx="376.5" cy="75.1" rx="22.4" ry="38.7"/>
			<path class="st24" d="M404,91c0,11.1-4.5,18.5-18.7,26.5c0,0-3.2-7.6-8.7-10.8C361.3,97.9,404,73.6,404,91z"/>
			
				<ellipse transform="matrix(0.8633 -0.5047 0.5047 0.8633 6.8023 195.3849)" class="st11" cx="364.1" cy="85.1" rx="22.4" ry="38.7"/>
			<path class="st7" d="M385.2,117.5c3.9-3.2,6.3-8.8,6.3-16.5c0-4.8-0.9-9.8-2.6-14.9l-12.8-5.3l-14.7,6.5v0.8L385.2,117.5z"/>
			<path class="st81" d="M409.3,85.1c-2.4-14-10.3-28.9-20.6-39.4l-12.4,8.8l4.5,8.6l-7,15.4l16.6,3.1l6.5,12.3L409.3,85.1z"/>
			<path class="st13" d="M361.4,87.4l35.5,6.6c-2.4-14-10.3-28.9-20.6-39.4L361.4,87.4z"/>
		</g>
	</g>
</g>
</svg>
